G04 #@! TF.GenerationSoftware,KiCad,Pcbnew,(5.0.1)-3*
G04 #@! TF.CreationDate,2018-12-19T00:20:38+01:00*
G04 #@! TF.ProjectId,cret,637265742E6B696361645F7063620000,rev?*
G04 #@! TF.SameCoordinates,Original*
G04 #@! TF.FileFunction,Soldermask,Top*
G04 #@! TF.FilePolarity,Negative*
%FSLAX46Y46*%
G04 Gerber Fmt 4.6, Leading zero omitted, Abs format (unit mm)*
G04 Created by KiCad (PCBNEW (5.0.1)-3) date 19/12/2018 0:20:38*
%MOMM*%
%LPD*%
G01*
G04 APERTURE LIST*
%ADD10C,0.100000*%
G04 APERTURE END LIST*
D10*
G36*
X140567327Y-141254790D02*
X140567329Y-141254791D01*
X140567330Y-141254791D01*
X141013384Y-141439552D01*
X141299928Y-141631015D01*
X141414824Y-141707786D01*
X141756214Y-142049176D01*
X141756216Y-142049179D01*
X142024448Y-142450616D01*
X142209209Y-142896670D01*
X142209210Y-142896673D01*
X142303400Y-143370196D01*
X142303400Y-143853004D01*
X142264833Y-144046895D01*
X142209209Y-144326530D01*
X142024448Y-144772584D01*
X141757426Y-145172210D01*
X141756214Y-145174024D01*
X141414824Y-145515414D01*
X141414821Y-145515416D01*
X141013384Y-145783648D01*
X140567330Y-145968409D01*
X140567329Y-145968409D01*
X140567327Y-145968410D01*
X140093804Y-146062600D01*
X139610996Y-146062600D01*
X139137473Y-145968410D01*
X139137471Y-145968409D01*
X139137470Y-145968409D01*
X138691416Y-145783648D01*
X138289979Y-145515416D01*
X138289976Y-145515414D01*
X137948586Y-145174024D01*
X137947374Y-145172210D01*
X137680352Y-144772584D01*
X137495591Y-144326530D01*
X137439968Y-144046895D01*
X137401400Y-143853004D01*
X137401400Y-143370196D01*
X137495590Y-142896673D01*
X137495591Y-142896670D01*
X137680352Y-142450616D01*
X137948584Y-142049179D01*
X137948586Y-142049176D01*
X138289976Y-141707786D01*
X138404872Y-141631015D01*
X138691416Y-141439552D01*
X139137470Y-141254791D01*
X139137471Y-141254791D01*
X139137473Y-141254790D01*
X139610996Y-141160600D01*
X140093804Y-141160600D01*
X140567327Y-141254790D01*
X140567327Y-141254790D01*
G37*
G36*
X88681000Y-145816000D02*
X86579000Y-145816000D01*
X86579000Y-137839000D01*
X88681000Y-137839000D01*
X88681000Y-145816000D01*
X88681000Y-145816000D01*
G37*
G36*
X109615562Y-143858181D02*
X109650477Y-143868773D01*
X109682665Y-143885978D01*
X109710873Y-143909127D01*
X109734022Y-143937335D01*
X109751227Y-143969523D01*
X109761819Y-144004438D01*
X109766000Y-144046895D01*
X109766000Y-145513105D01*
X109761819Y-145555562D01*
X109751227Y-145590477D01*
X109734022Y-145622665D01*
X109710873Y-145650873D01*
X109682665Y-145674022D01*
X109650477Y-145691227D01*
X109615562Y-145701819D01*
X109573105Y-145706000D01*
X108431895Y-145706000D01*
X108389438Y-145701819D01*
X108354523Y-145691227D01*
X108322335Y-145674022D01*
X108294127Y-145650873D01*
X108270978Y-145622665D01*
X108253773Y-145590477D01*
X108243181Y-145555562D01*
X108239000Y-145513105D01*
X108239000Y-144046895D01*
X108243181Y-144004438D01*
X108253773Y-143969523D01*
X108270978Y-143937335D01*
X108294127Y-143909127D01*
X108322335Y-143885978D01*
X108354523Y-143868773D01*
X108389438Y-143858181D01*
X108431895Y-143854000D01*
X109573105Y-143854000D01*
X109615562Y-143858181D01*
X109615562Y-143858181D01*
G37*
G36*
X92888062Y-143858181D02*
X92922977Y-143868773D01*
X92955165Y-143885978D01*
X92983373Y-143909127D01*
X93006522Y-143937335D01*
X93023727Y-143969523D01*
X93034319Y-144004438D01*
X93038500Y-144046895D01*
X93038500Y-145513105D01*
X93034319Y-145555562D01*
X93023727Y-145590477D01*
X93006522Y-145622665D01*
X92983373Y-145650873D01*
X92955165Y-145674022D01*
X92922977Y-145691227D01*
X92888062Y-145701819D01*
X92845605Y-145706000D01*
X91704395Y-145706000D01*
X91661938Y-145701819D01*
X91627023Y-145691227D01*
X91594835Y-145674022D01*
X91566627Y-145650873D01*
X91543478Y-145622665D01*
X91526273Y-145590477D01*
X91515681Y-145555562D01*
X91511500Y-145513105D01*
X91511500Y-144046895D01*
X91515681Y-144004438D01*
X91526273Y-143969523D01*
X91543478Y-143937335D01*
X91566627Y-143909127D01*
X91594835Y-143885978D01*
X91627023Y-143868773D01*
X91661938Y-143858181D01*
X91704395Y-143854000D01*
X92845605Y-143854000D01*
X92888062Y-143858181D01*
X92888062Y-143858181D01*
G37*
G36*
X95863062Y-143858181D02*
X95897977Y-143868773D01*
X95930165Y-143885978D01*
X95958373Y-143909127D01*
X95981522Y-143937335D01*
X95998727Y-143969523D01*
X96009319Y-144004438D01*
X96013500Y-144046895D01*
X96013500Y-145513105D01*
X96009319Y-145555562D01*
X95998727Y-145590477D01*
X95981522Y-145622665D01*
X95958373Y-145650873D01*
X95930165Y-145674022D01*
X95897977Y-145691227D01*
X95863062Y-145701819D01*
X95820605Y-145706000D01*
X94679395Y-145706000D01*
X94636938Y-145701819D01*
X94602023Y-145691227D01*
X94569835Y-145674022D01*
X94541627Y-145650873D01*
X94518478Y-145622665D01*
X94501273Y-145590477D01*
X94490681Y-145555562D01*
X94486500Y-145513105D01*
X94486500Y-144046895D01*
X94490681Y-144004438D01*
X94501273Y-143969523D01*
X94518478Y-143937335D01*
X94541627Y-143909127D01*
X94569835Y-143885978D01*
X94602023Y-143868773D01*
X94636938Y-143858181D01*
X94679395Y-143854000D01*
X95820605Y-143854000D01*
X95863062Y-143858181D01*
X95863062Y-143858181D01*
G37*
G36*
X104970562Y-143858181D02*
X105005477Y-143868773D01*
X105037665Y-143885978D01*
X105065873Y-143909127D01*
X105089022Y-143937335D01*
X105106227Y-143969523D01*
X105116819Y-144004438D01*
X105121000Y-144046895D01*
X105121000Y-145513105D01*
X105116819Y-145555562D01*
X105106227Y-145590477D01*
X105089022Y-145622665D01*
X105065873Y-145650873D01*
X105037665Y-145674022D01*
X105005477Y-145691227D01*
X104970562Y-145701819D01*
X104928105Y-145706000D01*
X103786895Y-145706000D01*
X103744438Y-145701819D01*
X103709523Y-145691227D01*
X103677335Y-145674022D01*
X103649127Y-145650873D01*
X103625978Y-145622665D01*
X103608773Y-145590477D01*
X103598181Y-145555562D01*
X103594000Y-145513105D01*
X103594000Y-144046895D01*
X103598181Y-144004438D01*
X103608773Y-143969523D01*
X103625978Y-143937335D01*
X103649127Y-143909127D01*
X103677335Y-143885978D01*
X103709523Y-143868773D01*
X103744438Y-143858181D01*
X103786895Y-143854000D01*
X104928105Y-143854000D01*
X104970562Y-143858181D01*
X104970562Y-143858181D01*
G37*
G36*
X112590562Y-143858181D02*
X112625477Y-143868773D01*
X112657665Y-143885978D01*
X112685873Y-143909127D01*
X112709022Y-143937335D01*
X112726227Y-143969523D01*
X112736819Y-144004438D01*
X112741000Y-144046895D01*
X112741000Y-145513105D01*
X112736819Y-145555562D01*
X112726227Y-145590477D01*
X112709022Y-145622665D01*
X112685873Y-145650873D01*
X112657665Y-145674022D01*
X112625477Y-145691227D01*
X112590562Y-145701819D01*
X112548105Y-145706000D01*
X111406895Y-145706000D01*
X111364438Y-145701819D01*
X111329523Y-145691227D01*
X111297335Y-145674022D01*
X111269127Y-145650873D01*
X111245978Y-145622665D01*
X111228773Y-145590477D01*
X111218181Y-145555562D01*
X111214000Y-145513105D01*
X111214000Y-144046895D01*
X111218181Y-144004438D01*
X111228773Y-143969523D01*
X111245978Y-143937335D01*
X111269127Y-143909127D01*
X111297335Y-143885978D01*
X111329523Y-143868773D01*
X111364438Y-143858181D01*
X111406895Y-143854000D01*
X112548105Y-143854000D01*
X112590562Y-143858181D01*
X112590562Y-143858181D01*
G37*
G36*
X101995562Y-143858181D02*
X102030477Y-143868773D01*
X102062665Y-143885978D01*
X102090873Y-143909127D01*
X102114022Y-143937335D01*
X102131227Y-143969523D01*
X102141819Y-144004438D01*
X102146000Y-144046895D01*
X102146000Y-145513105D01*
X102141819Y-145555562D01*
X102131227Y-145590477D01*
X102114022Y-145622665D01*
X102090873Y-145650873D01*
X102062665Y-145674022D01*
X102030477Y-145691227D01*
X101995562Y-145701819D01*
X101953105Y-145706000D01*
X100811895Y-145706000D01*
X100769438Y-145701819D01*
X100734523Y-145691227D01*
X100702335Y-145674022D01*
X100674127Y-145650873D01*
X100650978Y-145622665D01*
X100633773Y-145590477D01*
X100623181Y-145555562D01*
X100619000Y-145513105D01*
X100619000Y-144046895D01*
X100623181Y-144004438D01*
X100633773Y-143969523D01*
X100650978Y-143937335D01*
X100674127Y-143909127D01*
X100702335Y-143885978D01*
X100734523Y-143868773D01*
X100769438Y-143858181D01*
X100811895Y-143854000D01*
X101953105Y-143854000D01*
X101995562Y-143858181D01*
X101995562Y-143858181D01*
G37*
G36*
X66633228Y-142991703D02*
X66788100Y-143055853D01*
X66927481Y-143148985D01*
X67046015Y-143267519D01*
X67139147Y-143406900D01*
X67203297Y-143561772D01*
X67236000Y-143726184D01*
X67236000Y-143893816D01*
X67203297Y-144058228D01*
X67139147Y-144213100D01*
X67046015Y-144352481D01*
X66927481Y-144471015D01*
X66788100Y-144564147D01*
X66633228Y-144628297D01*
X66468816Y-144661000D01*
X66301184Y-144661000D01*
X66136772Y-144628297D01*
X65981900Y-144564147D01*
X65842519Y-144471015D01*
X65723985Y-144352481D01*
X65630853Y-144213100D01*
X65566703Y-144058228D01*
X65534000Y-143893816D01*
X65534000Y-143726184D01*
X65566703Y-143561772D01*
X65630853Y-143406900D01*
X65723985Y-143267519D01*
X65842519Y-143148985D01*
X65981900Y-143055853D01*
X66136772Y-142991703D01*
X66301184Y-142959000D01*
X66468816Y-142959000D01*
X66633228Y-142991703D01*
X66633228Y-142991703D01*
G37*
G36*
X69403228Y-142991703D02*
X69558100Y-143055853D01*
X69697481Y-143148985D01*
X69816015Y-143267519D01*
X69909147Y-143406900D01*
X69973297Y-143561772D01*
X70006000Y-143726184D01*
X70006000Y-143893816D01*
X69973297Y-144058228D01*
X69909147Y-144213100D01*
X69816015Y-144352481D01*
X69697481Y-144471015D01*
X69558100Y-144564147D01*
X69403228Y-144628297D01*
X69238816Y-144661000D01*
X69071184Y-144661000D01*
X68906772Y-144628297D01*
X68751900Y-144564147D01*
X68612519Y-144471015D01*
X68493985Y-144352481D01*
X68400853Y-144213100D01*
X68336703Y-144058228D01*
X68304000Y-143893816D01*
X68304000Y-143726184D01*
X68336703Y-143561772D01*
X68400853Y-143406900D01*
X68493985Y-143267519D01*
X68612519Y-143148985D01*
X68751900Y-143055853D01*
X68906772Y-142991703D01*
X69071184Y-142959000D01*
X69238816Y-142959000D01*
X69403228Y-142991703D01*
X69403228Y-142991703D01*
G37*
G36*
X72173228Y-142991703D02*
X72328100Y-143055853D01*
X72467481Y-143148985D01*
X72586015Y-143267519D01*
X72679147Y-143406900D01*
X72743297Y-143561772D01*
X72776000Y-143726184D01*
X72776000Y-143893816D01*
X72743297Y-144058228D01*
X72679147Y-144213100D01*
X72586015Y-144352481D01*
X72467481Y-144471015D01*
X72328100Y-144564147D01*
X72173228Y-144628297D01*
X72008816Y-144661000D01*
X71841184Y-144661000D01*
X71676772Y-144628297D01*
X71521900Y-144564147D01*
X71382519Y-144471015D01*
X71263985Y-144352481D01*
X71170853Y-144213100D01*
X71106703Y-144058228D01*
X71074000Y-143893816D01*
X71074000Y-143726184D01*
X71106703Y-143561772D01*
X71170853Y-143406900D01*
X71263985Y-143267519D01*
X71382519Y-143148985D01*
X71521900Y-143055853D01*
X71676772Y-142991703D01*
X71841184Y-142959000D01*
X72008816Y-142959000D01*
X72173228Y-142991703D01*
X72173228Y-142991703D01*
G37*
G36*
X63863228Y-142991703D02*
X64018100Y-143055853D01*
X64157481Y-143148985D01*
X64276015Y-143267519D01*
X64369147Y-143406900D01*
X64433297Y-143561772D01*
X64466000Y-143726184D01*
X64466000Y-143893816D01*
X64433297Y-144058228D01*
X64369147Y-144213100D01*
X64276015Y-144352481D01*
X64157481Y-144471015D01*
X64018100Y-144564147D01*
X63863228Y-144628297D01*
X63698816Y-144661000D01*
X63531184Y-144661000D01*
X63366772Y-144628297D01*
X63211900Y-144564147D01*
X63072519Y-144471015D01*
X62953985Y-144352481D01*
X62860853Y-144213100D01*
X62796703Y-144058228D01*
X62764000Y-143893816D01*
X62764000Y-143726184D01*
X62796703Y-143561772D01*
X62860853Y-143406900D01*
X62953985Y-143267519D01*
X63072519Y-143148985D01*
X63211900Y-143055853D01*
X63366772Y-142991703D01*
X63531184Y-142959000D01*
X63698816Y-142959000D01*
X63863228Y-142991703D01*
X63863228Y-142991703D01*
G37*
G36*
X80868252Y-139297818D02*
X80868254Y-139297819D01*
X80868255Y-139297819D01*
X81241513Y-139452427D01*
X81241514Y-139452428D01*
X81577439Y-139676886D01*
X81863114Y-139962561D01*
X81863116Y-139962564D01*
X82087573Y-140298487D01*
X82198753Y-140566900D01*
X82242182Y-140671748D01*
X82321000Y-141067993D01*
X82321000Y-141472007D01*
X82274101Y-141707786D01*
X82242181Y-141868255D01*
X82087573Y-142241513D01*
X81866143Y-142572905D01*
X81863114Y-142577439D01*
X81577439Y-142863114D01*
X81577436Y-142863116D01*
X81241513Y-143087573D01*
X80868255Y-143242181D01*
X80868254Y-143242181D01*
X80868252Y-143242182D01*
X80472007Y-143321000D01*
X80067993Y-143321000D01*
X79671748Y-143242182D01*
X79671746Y-143242181D01*
X79671745Y-143242181D01*
X79298487Y-143087573D01*
X78962564Y-142863116D01*
X78962561Y-142863114D01*
X78676886Y-142577439D01*
X78673857Y-142572905D01*
X78452427Y-142241513D01*
X78297819Y-141868255D01*
X78265900Y-141707786D01*
X78219000Y-141472007D01*
X78219000Y-141067993D01*
X78297818Y-140671748D01*
X78341247Y-140566900D01*
X78452427Y-140298487D01*
X78676884Y-139962564D01*
X78676886Y-139962561D01*
X78962561Y-139676886D01*
X79298486Y-139452428D01*
X79298487Y-139452427D01*
X79671745Y-139297819D01*
X79671746Y-139297819D01*
X79671748Y-139297818D01*
X80067993Y-139219000D01*
X80472007Y-139219000D01*
X80868252Y-139297818D01*
X80868252Y-139297818D01*
G37*
G36*
X55868252Y-139297818D02*
X55868254Y-139297819D01*
X55868255Y-139297819D01*
X56241513Y-139452427D01*
X56241514Y-139452428D01*
X56577439Y-139676886D01*
X56863114Y-139962561D01*
X56863116Y-139962564D01*
X57087573Y-140298487D01*
X57198753Y-140566900D01*
X57242182Y-140671748D01*
X57321000Y-141067993D01*
X57321000Y-141472007D01*
X57274101Y-141707786D01*
X57242181Y-141868255D01*
X57087573Y-142241513D01*
X56866143Y-142572905D01*
X56863114Y-142577439D01*
X56577439Y-142863114D01*
X56577436Y-142863116D01*
X56241513Y-143087573D01*
X55868255Y-143242181D01*
X55868254Y-143242181D01*
X55868252Y-143242182D01*
X55472007Y-143321000D01*
X55067993Y-143321000D01*
X54671748Y-143242182D01*
X54671746Y-143242181D01*
X54671745Y-143242181D01*
X54298487Y-143087573D01*
X53962564Y-142863116D01*
X53962561Y-142863114D01*
X53676886Y-142577439D01*
X53673857Y-142572905D01*
X53452427Y-142241513D01*
X53297819Y-141868255D01*
X53265900Y-141707786D01*
X53219000Y-141472007D01*
X53219000Y-141067993D01*
X53297818Y-140671748D01*
X53341247Y-140566900D01*
X53452427Y-140298487D01*
X53676884Y-139962564D01*
X53676886Y-139962561D01*
X53962561Y-139676886D01*
X54298486Y-139452428D01*
X54298487Y-139452427D01*
X54671745Y-139297819D01*
X54671746Y-139297819D01*
X54671748Y-139297818D01*
X55067993Y-139219000D01*
X55472007Y-139219000D01*
X55868252Y-139297818D01*
X55868252Y-139297818D01*
G37*
G36*
X73558228Y-140151703D02*
X73713100Y-140215853D01*
X73852481Y-140308985D01*
X73971015Y-140427519D01*
X74064147Y-140566900D01*
X74128297Y-140721772D01*
X74161000Y-140886184D01*
X74161000Y-141053816D01*
X74128297Y-141218228D01*
X74064147Y-141373100D01*
X73971015Y-141512481D01*
X73852481Y-141631015D01*
X73713100Y-141724147D01*
X73558228Y-141788297D01*
X73393816Y-141821000D01*
X73226184Y-141821000D01*
X73061772Y-141788297D01*
X72906900Y-141724147D01*
X72767519Y-141631015D01*
X72648985Y-141512481D01*
X72555853Y-141373100D01*
X72491703Y-141218228D01*
X72459000Y-141053816D01*
X72459000Y-140886184D01*
X72491703Y-140721772D01*
X72555853Y-140566900D01*
X72648985Y-140427519D01*
X72767519Y-140308985D01*
X72906900Y-140215853D01*
X73061772Y-140151703D01*
X73226184Y-140119000D01*
X73393816Y-140119000D01*
X73558228Y-140151703D01*
X73558228Y-140151703D01*
G37*
G36*
X68018228Y-140151703D02*
X68173100Y-140215853D01*
X68312481Y-140308985D01*
X68431015Y-140427519D01*
X68524147Y-140566900D01*
X68588297Y-140721772D01*
X68621000Y-140886184D01*
X68621000Y-141053816D01*
X68588297Y-141218228D01*
X68524147Y-141373100D01*
X68431015Y-141512481D01*
X68312481Y-141631015D01*
X68173100Y-141724147D01*
X68018228Y-141788297D01*
X67853816Y-141821000D01*
X67686184Y-141821000D01*
X67521772Y-141788297D01*
X67366900Y-141724147D01*
X67227519Y-141631015D01*
X67108985Y-141512481D01*
X67015853Y-141373100D01*
X66951703Y-141218228D01*
X66919000Y-141053816D01*
X66919000Y-140886184D01*
X66951703Y-140721772D01*
X67015853Y-140566900D01*
X67108985Y-140427519D01*
X67227519Y-140308985D01*
X67366900Y-140215853D01*
X67521772Y-140151703D01*
X67686184Y-140119000D01*
X67853816Y-140119000D01*
X68018228Y-140151703D01*
X68018228Y-140151703D01*
G37*
G36*
X65248228Y-140151703D02*
X65403100Y-140215853D01*
X65542481Y-140308985D01*
X65661015Y-140427519D01*
X65754147Y-140566900D01*
X65818297Y-140721772D01*
X65851000Y-140886184D01*
X65851000Y-141053816D01*
X65818297Y-141218228D01*
X65754147Y-141373100D01*
X65661015Y-141512481D01*
X65542481Y-141631015D01*
X65403100Y-141724147D01*
X65248228Y-141788297D01*
X65083816Y-141821000D01*
X64916184Y-141821000D01*
X64751772Y-141788297D01*
X64596900Y-141724147D01*
X64457519Y-141631015D01*
X64338985Y-141512481D01*
X64245853Y-141373100D01*
X64181703Y-141218228D01*
X64149000Y-141053816D01*
X64149000Y-140886184D01*
X64181703Y-140721772D01*
X64245853Y-140566900D01*
X64338985Y-140427519D01*
X64457519Y-140308985D01*
X64596900Y-140215853D01*
X64751772Y-140151703D01*
X64916184Y-140119000D01*
X65083816Y-140119000D01*
X65248228Y-140151703D01*
X65248228Y-140151703D01*
G37*
G36*
X63081000Y-141821000D02*
X61379000Y-141821000D01*
X61379000Y-140119000D01*
X63081000Y-140119000D01*
X63081000Y-141821000D01*
X63081000Y-141821000D01*
G37*
G36*
X70788228Y-140151703D02*
X70943100Y-140215853D01*
X71082481Y-140308985D01*
X71201015Y-140427519D01*
X71294147Y-140566900D01*
X71358297Y-140721772D01*
X71391000Y-140886184D01*
X71391000Y-141053816D01*
X71358297Y-141218228D01*
X71294147Y-141373100D01*
X71201015Y-141512481D01*
X71082481Y-141631015D01*
X70943100Y-141724147D01*
X70788228Y-141788297D01*
X70623816Y-141821000D01*
X70456184Y-141821000D01*
X70291772Y-141788297D01*
X70136900Y-141724147D01*
X69997519Y-141631015D01*
X69878985Y-141512481D01*
X69785853Y-141373100D01*
X69721703Y-141218228D01*
X69689000Y-141053816D01*
X69689000Y-140886184D01*
X69721703Y-140721772D01*
X69785853Y-140566900D01*
X69878985Y-140427519D01*
X69997519Y-140308985D01*
X70136900Y-140215853D01*
X70291772Y-140151703D01*
X70456184Y-140119000D01*
X70623816Y-140119000D01*
X70788228Y-140151703D01*
X70788228Y-140151703D01*
G37*
G36*
X109356000Y-140686000D02*
X107304000Y-140686000D01*
X107304000Y-139984000D01*
X109356000Y-139984000D01*
X109356000Y-140686000D01*
X109356000Y-140686000D01*
G37*
G36*
X118756000Y-140686000D02*
X116704000Y-140686000D01*
X116704000Y-139984000D01*
X118756000Y-139984000D01*
X118756000Y-140686000D01*
X118756000Y-140686000D01*
G37*
G36*
X94141000Y-140051000D02*
X92039000Y-140051000D01*
X92039000Y-139349000D01*
X94141000Y-139349000D01*
X94141000Y-140051000D01*
X94141000Y-140051000D01*
G37*
G36*
X103541000Y-140051000D02*
X101439000Y-140051000D01*
X101439000Y-139349000D01*
X103541000Y-139349000D01*
X103541000Y-140051000D01*
X103541000Y-140051000D01*
G37*
G36*
X109356000Y-139416000D02*
X107304000Y-139416000D01*
X107304000Y-138714000D01*
X109356000Y-138714000D01*
X109356000Y-139416000D01*
X109356000Y-139416000D01*
G37*
G36*
X118756000Y-139416000D02*
X116704000Y-139416000D01*
X116704000Y-138714000D01*
X118756000Y-138714000D01*
X118756000Y-139416000D01*
X118756000Y-139416000D01*
G37*
G36*
X94141000Y-138781000D02*
X92039000Y-138781000D01*
X92039000Y-138079000D01*
X94141000Y-138079000D01*
X94141000Y-138781000D01*
X94141000Y-138781000D01*
G37*
G36*
X103541000Y-138781000D02*
X101439000Y-138781000D01*
X101439000Y-138079000D01*
X103541000Y-138079000D01*
X103541000Y-138781000D01*
X103541000Y-138781000D01*
G37*
G36*
X118756000Y-138146000D02*
X116704000Y-138146000D01*
X116704000Y-137444000D01*
X118756000Y-137444000D01*
X118756000Y-138146000D01*
X118756000Y-138146000D01*
G37*
G36*
X109356000Y-138146000D02*
X107304000Y-138146000D01*
X107304000Y-137444000D01*
X109356000Y-137444000D01*
X109356000Y-138146000D01*
X109356000Y-138146000D01*
G37*
G36*
X94141000Y-137511000D02*
X92039000Y-137511000D01*
X92039000Y-136809000D01*
X94141000Y-136809000D01*
X94141000Y-137511000D01*
X94141000Y-137511000D01*
G37*
G36*
X103541000Y-137511000D02*
X101439000Y-137511000D01*
X101439000Y-136809000D01*
X103541000Y-136809000D01*
X103541000Y-137511000D01*
X103541000Y-137511000D01*
G37*
G36*
X122695562Y-135983181D02*
X122730477Y-135993773D01*
X122762665Y-136010978D01*
X122790873Y-136034127D01*
X122814022Y-136062335D01*
X122831227Y-136094523D01*
X122841819Y-136129438D01*
X122846000Y-136171895D01*
X122846000Y-137313105D01*
X122841819Y-137355562D01*
X122831227Y-137390477D01*
X122814022Y-137422665D01*
X122790873Y-137450873D01*
X122762665Y-137474022D01*
X122730477Y-137491227D01*
X122695562Y-137501819D01*
X122653105Y-137506000D01*
X121186895Y-137506000D01*
X121144438Y-137501819D01*
X121109523Y-137491227D01*
X121077335Y-137474022D01*
X121049127Y-137450873D01*
X121025978Y-137422665D01*
X121008773Y-137390477D01*
X120998181Y-137355562D01*
X120994000Y-137313105D01*
X120994000Y-136171895D01*
X120998181Y-136129438D01*
X121008773Y-136094523D01*
X121025978Y-136062335D01*
X121049127Y-136034127D01*
X121077335Y-136010978D01*
X121109523Y-135993773D01*
X121144438Y-135983181D01*
X121186895Y-135979000D01*
X122653105Y-135979000D01*
X122695562Y-135983181D01*
X122695562Y-135983181D01*
G37*
G36*
X129045562Y-135983181D02*
X129080477Y-135993773D01*
X129112665Y-136010978D01*
X129140873Y-136034127D01*
X129164022Y-136062335D01*
X129181227Y-136094523D01*
X129191819Y-136129438D01*
X129196000Y-136171895D01*
X129196000Y-137313105D01*
X129191819Y-137355562D01*
X129181227Y-137390477D01*
X129164022Y-137422665D01*
X129140873Y-137450873D01*
X129112665Y-137474022D01*
X129080477Y-137491227D01*
X129045562Y-137501819D01*
X129003105Y-137506000D01*
X127536895Y-137506000D01*
X127494438Y-137501819D01*
X127459523Y-137491227D01*
X127427335Y-137474022D01*
X127399127Y-137450873D01*
X127375978Y-137422665D01*
X127358773Y-137390477D01*
X127348181Y-137355562D01*
X127344000Y-137313105D01*
X127344000Y-136171895D01*
X127348181Y-136129438D01*
X127358773Y-136094523D01*
X127375978Y-136062335D01*
X127399127Y-136034127D01*
X127427335Y-136010978D01*
X127459523Y-135993773D01*
X127494438Y-135983181D01*
X127536895Y-135979000D01*
X129003105Y-135979000D01*
X129045562Y-135983181D01*
X129045562Y-135983181D01*
G37*
G36*
X140475562Y-135983181D02*
X140510477Y-135993773D01*
X140542665Y-136010978D01*
X140570873Y-136034127D01*
X140594022Y-136062335D01*
X140611227Y-136094523D01*
X140621819Y-136129438D01*
X140626000Y-136171895D01*
X140626000Y-137313105D01*
X140621819Y-137355562D01*
X140611227Y-137390477D01*
X140594022Y-137422665D01*
X140570873Y-137450873D01*
X140542665Y-137474022D01*
X140510477Y-137491227D01*
X140475562Y-137501819D01*
X140433105Y-137506000D01*
X138966895Y-137506000D01*
X138924438Y-137501819D01*
X138889523Y-137491227D01*
X138857335Y-137474022D01*
X138829127Y-137450873D01*
X138805978Y-137422665D01*
X138788773Y-137390477D01*
X138778181Y-137355562D01*
X138774000Y-137313105D01*
X138774000Y-136171895D01*
X138778181Y-136129438D01*
X138788773Y-136094523D01*
X138805978Y-136062335D01*
X138829127Y-136034127D01*
X138857335Y-136010978D01*
X138889523Y-135993773D01*
X138924438Y-135983181D01*
X138966895Y-135979000D01*
X140433105Y-135979000D01*
X140475562Y-135983181D01*
X140475562Y-135983181D01*
G37*
G36*
X118756000Y-136876000D02*
X116704000Y-136876000D01*
X116704000Y-136174000D01*
X118756000Y-136174000D01*
X118756000Y-136876000D01*
X118756000Y-136876000D01*
G37*
G36*
X109356000Y-136876000D02*
X107304000Y-136876000D01*
X107304000Y-136174000D01*
X109356000Y-136174000D01*
X109356000Y-136876000D01*
X109356000Y-136876000D01*
G37*
G36*
X94141000Y-136241000D02*
X92039000Y-136241000D01*
X92039000Y-135539000D01*
X94141000Y-135539000D01*
X94141000Y-136241000D01*
X94141000Y-136241000D01*
G37*
G36*
X103541000Y-136241000D02*
X101439000Y-136241000D01*
X101439000Y-135539000D01*
X103541000Y-135539000D01*
X103541000Y-136241000D01*
X103541000Y-136241000D01*
G37*
G36*
X109356000Y-135606000D02*
X107304000Y-135606000D01*
X107304000Y-134904000D01*
X109356000Y-134904000D01*
X109356000Y-135606000D01*
X109356000Y-135606000D01*
G37*
G36*
X118756000Y-135606000D02*
X116704000Y-135606000D01*
X116704000Y-134904000D01*
X118756000Y-134904000D01*
X118756000Y-135606000D01*
X118756000Y-135606000D01*
G37*
G36*
X94141000Y-134971000D02*
X92039000Y-134971000D01*
X92039000Y-134269000D01*
X94141000Y-134269000D01*
X94141000Y-134971000D01*
X94141000Y-134971000D01*
G37*
G36*
X103541000Y-134971000D02*
X101439000Y-134971000D01*
X101439000Y-134269000D01*
X103541000Y-134269000D01*
X103541000Y-134971000D01*
X103541000Y-134971000D01*
G37*
G36*
X56259485Y-132098996D02*
X56259487Y-132098997D01*
X56259488Y-132098997D01*
X56496255Y-132197069D01*
X56709342Y-132339449D01*
X56890551Y-132520658D01*
X57032931Y-132733745D01*
X57131004Y-132970515D01*
X57181000Y-133221861D01*
X57181000Y-133478139D01*
X57131004Y-133729485D01*
X57032931Y-133966255D01*
X56890551Y-134179342D01*
X56709342Y-134360551D01*
X56709339Y-134360553D01*
X56496255Y-134502931D01*
X56259488Y-134601003D01*
X56259487Y-134601003D01*
X56259485Y-134601004D01*
X56008139Y-134651000D01*
X55751861Y-134651000D01*
X55500515Y-134601004D01*
X55500513Y-134601003D01*
X55500512Y-134601003D01*
X55263745Y-134502931D01*
X55050661Y-134360553D01*
X55050658Y-134360551D01*
X54869449Y-134179342D01*
X54727069Y-133966255D01*
X54628996Y-133729485D01*
X54579000Y-133478139D01*
X54579000Y-133221861D01*
X54628996Y-132970515D01*
X54727069Y-132733745D01*
X54869449Y-132520658D01*
X55050658Y-132339449D01*
X55263745Y-132197069D01*
X55500512Y-132098997D01*
X55500513Y-132098997D01*
X55500515Y-132098996D01*
X55751861Y-132049000D01*
X56008139Y-132049000D01*
X56259485Y-132098996D01*
X56259485Y-132098996D01*
G37*
G36*
X140475562Y-133008181D02*
X140510477Y-133018773D01*
X140542665Y-133035978D01*
X140570873Y-133059127D01*
X140594022Y-133087335D01*
X140611227Y-133119523D01*
X140621819Y-133154438D01*
X140626000Y-133196895D01*
X140626000Y-134338105D01*
X140621819Y-134380562D01*
X140611227Y-134415477D01*
X140594022Y-134447665D01*
X140570873Y-134475873D01*
X140542665Y-134499022D01*
X140510477Y-134516227D01*
X140475562Y-134526819D01*
X140433105Y-134531000D01*
X138966895Y-134531000D01*
X138924438Y-134526819D01*
X138889523Y-134516227D01*
X138857335Y-134499022D01*
X138829127Y-134475873D01*
X138805978Y-134447665D01*
X138788773Y-134415477D01*
X138778181Y-134380562D01*
X138774000Y-134338105D01*
X138774000Y-133196895D01*
X138778181Y-133154438D01*
X138788773Y-133119523D01*
X138805978Y-133087335D01*
X138829127Y-133059127D01*
X138857335Y-133035978D01*
X138889523Y-133018773D01*
X138924438Y-133008181D01*
X138966895Y-133004000D01*
X140433105Y-133004000D01*
X140475562Y-133008181D01*
X140475562Y-133008181D01*
G37*
G36*
X129045562Y-133008181D02*
X129080477Y-133018773D01*
X129112665Y-133035978D01*
X129140873Y-133059127D01*
X129164022Y-133087335D01*
X129181227Y-133119523D01*
X129191819Y-133154438D01*
X129196000Y-133196895D01*
X129196000Y-134338105D01*
X129191819Y-134380562D01*
X129181227Y-134415477D01*
X129164022Y-134447665D01*
X129140873Y-134475873D01*
X129112665Y-134499022D01*
X129080477Y-134516227D01*
X129045562Y-134526819D01*
X129003105Y-134531000D01*
X127536895Y-134531000D01*
X127494438Y-134526819D01*
X127459523Y-134516227D01*
X127427335Y-134499022D01*
X127399127Y-134475873D01*
X127375978Y-134447665D01*
X127358773Y-134415477D01*
X127348181Y-134380562D01*
X127344000Y-134338105D01*
X127344000Y-133196895D01*
X127348181Y-133154438D01*
X127358773Y-133119523D01*
X127375978Y-133087335D01*
X127399127Y-133059127D01*
X127427335Y-133035978D01*
X127459523Y-133018773D01*
X127494438Y-133008181D01*
X127536895Y-133004000D01*
X129003105Y-133004000D01*
X129045562Y-133008181D01*
X129045562Y-133008181D01*
G37*
G36*
X122695562Y-133008181D02*
X122730477Y-133018773D01*
X122762665Y-133035978D01*
X122790873Y-133059127D01*
X122814022Y-133087335D01*
X122831227Y-133119523D01*
X122841819Y-133154438D01*
X122846000Y-133196895D01*
X122846000Y-134338105D01*
X122841819Y-134380562D01*
X122831227Y-134415477D01*
X122814022Y-134447665D01*
X122790873Y-134475873D01*
X122762665Y-134499022D01*
X122730477Y-134516227D01*
X122695562Y-134526819D01*
X122653105Y-134531000D01*
X121186895Y-134531000D01*
X121144438Y-134526819D01*
X121109523Y-134516227D01*
X121077335Y-134499022D01*
X121049127Y-134475873D01*
X121025978Y-134447665D01*
X121008773Y-134415477D01*
X120998181Y-134380562D01*
X120994000Y-134338105D01*
X120994000Y-133196895D01*
X120998181Y-133154438D01*
X121008773Y-133119523D01*
X121025978Y-133087335D01*
X121049127Y-133059127D01*
X121077335Y-133035978D01*
X121109523Y-133018773D01*
X121144438Y-133008181D01*
X121186895Y-133004000D01*
X122653105Y-133004000D01*
X122695562Y-133008181D01*
X122695562Y-133008181D01*
G37*
G36*
X109356000Y-134336000D02*
X107304000Y-134336000D01*
X107304000Y-133634000D01*
X109356000Y-133634000D01*
X109356000Y-134336000D01*
X109356000Y-134336000D01*
G37*
G36*
X118756000Y-134336000D02*
X116704000Y-134336000D01*
X116704000Y-133634000D01*
X118756000Y-133634000D01*
X118756000Y-134336000D01*
X118756000Y-134336000D01*
G37*
G36*
X88681000Y-133941000D02*
X86579000Y-133941000D01*
X86579000Y-125964000D01*
X88681000Y-125964000D01*
X88681000Y-133941000D01*
X88681000Y-133941000D01*
G37*
G36*
X94141000Y-133701000D02*
X92039000Y-133701000D01*
X92039000Y-132999000D01*
X94141000Y-132999000D01*
X94141000Y-133701000D01*
X94141000Y-133701000D01*
G37*
G36*
X103541000Y-133701000D02*
X101439000Y-133701000D01*
X101439000Y-132999000D01*
X103541000Y-132999000D01*
X103541000Y-133701000D01*
X103541000Y-133701000D01*
G37*
G36*
X109356000Y-133066000D02*
X107304000Y-133066000D01*
X107304000Y-132364000D01*
X109356000Y-132364000D01*
X109356000Y-133066000D01*
X109356000Y-133066000D01*
G37*
G36*
X118756000Y-133066000D02*
X116704000Y-133066000D01*
X116704000Y-132364000D01*
X118756000Y-132364000D01*
X118756000Y-133066000D01*
X118756000Y-133066000D01*
G37*
G36*
X94141000Y-132431000D02*
X92039000Y-132431000D01*
X92039000Y-131729000D01*
X94141000Y-131729000D01*
X94141000Y-132431000D01*
X94141000Y-132431000D01*
G37*
G36*
X103541000Y-132431000D02*
X101439000Y-132431000D01*
X101439000Y-131729000D01*
X103541000Y-131729000D01*
X103541000Y-132431000D01*
X103541000Y-132431000D01*
G37*
G36*
X122695562Y-130485681D02*
X122730477Y-130496273D01*
X122762665Y-130513478D01*
X122790873Y-130536627D01*
X122814022Y-130564835D01*
X122831227Y-130597023D01*
X122841819Y-130631938D01*
X122846000Y-130674395D01*
X122846000Y-131815605D01*
X122841819Y-131858062D01*
X122831227Y-131892977D01*
X122814022Y-131925165D01*
X122790873Y-131953373D01*
X122762665Y-131976522D01*
X122730477Y-131993727D01*
X122695562Y-132004319D01*
X122653105Y-132008500D01*
X121186895Y-132008500D01*
X121144438Y-132004319D01*
X121109523Y-131993727D01*
X121077335Y-131976522D01*
X121049127Y-131953373D01*
X121025978Y-131925165D01*
X121008773Y-131892977D01*
X120998181Y-131858062D01*
X120994000Y-131815605D01*
X120994000Y-130674395D01*
X120998181Y-130631938D01*
X121008773Y-130597023D01*
X121025978Y-130564835D01*
X121049127Y-130536627D01*
X121077335Y-130513478D01*
X121109523Y-130496273D01*
X121144438Y-130485681D01*
X121186895Y-130481500D01*
X122653105Y-130481500D01*
X122695562Y-130485681D01*
X122695562Y-130485681D01*
G37*
G36*
X109356000Y-131796000D02*
X107304000Y-131796000D01*
X107304000Y-131094000D01*
X109356000Y-131094000D01*
X109356000Y-131796000D01*
X109356000Y-131796000D01*
G37*
G36*
X118756000Y-131796000D02*
X116704000Y-131796000D01*
X116704000Y-131094000D01*
X118756000Y-131094000D01*
X118756000Y-131796000D01*
X118756000Y-131796000D01*
G37*
G36*
X71950562Y-129888181D02*
X71985477Y-129898773D01*
X72017665Y-129915978D01*
X72045873Y-129939127D01*
X72069022Y-129967335D01*
X72086227Y-129999523D01*
X72096819Y-130034438D01*
X72101000Y-130076895D01*
X72101000Y-131543105D01*
X72096819Y-131585562D01*
X72086227Y-131620477D01*
X72069022Y-131652665D01*
X72045873Y-131680873D01*
X72017665Y-131704022D01*
X71985477Y-131721227D01*
X71950562Y-131731819D01*
X71908105Y-131736000D01*
X70766895Y-131736000D01*
X70724438Y-131731819D01*
X70689523Y-131721227D01*
X70657335Y-131704022D01*
X70629127Y-131680873D01*
X70605978Y-131652665D01*
X70588773Y-131620477D01*
X70578181Y-131585562D01*
X70574000Y-131543105D01*
X70574000Y-130076895D01*
X70578181Y-130034438D01*
X70588773Y-129999523D01*
X70605978Y-129967335D01*
X70629127Y-129939127D01*
X70657335Y-129915978D01*
X70689523Y-129898773D01*
X70724438Y-129888181D01*
X70766895Y-129884000D01*
X71908105Y-129884000D01*
X71950562Y-129888181D01*
X71950562Y-129888181D01*
G37*
G36*
X68975562Y-129888181D02*
X69010477Y-129898773D01*
X69042665Y-129915978D01*
X69070873Y-129939127D01*
X69094022Y-129967335D01*
X69111227Y-129999523D01*
X69121819Y-130034438D01*
X69126000Y-130076895D01*
X69126000Y-131543105D01*
X69121819Y-131585562D01*
X69111227Y-131620477D01*
X69094022Y-131652665D01*
X69070873Y-131680873D01*
X69042665Y-131704022D01*
X69010477Y-131721227D01*
X68975562Y-131731819D01*
X68933105Y-131736000D01*
X67791895Y-131736000D01*
X67749438Y-131731819D01*
X67714523Y-131721227D01*
X67682335Y-131704022D01*
X67654127Y-131680873D01*
X67630978Y-131652665D01*
X67613773Y-131620477D01*
X67603181Y-131585562D01*
X67599000Y-131543105D01*
X67599000Y-130076895D01*
X67603181Y-130034438D01*
X67613773Y-129999523D01*
X67630978Y-129967335D01*
X67654127Y-129939127D01*
X67682335Y-129915978D01*
X67714523Y-129898773D01*
X67749438Y-129888181D01*
X67791895Y-129884000D01*
X68933105Y-129884000D01*
X68975562Y-129888181D01*
X68975562Y-129888181D01*
G37*
G36*
X65600562Y-129888181D02*
X65635477Y-129898773D01*
X65667665Y-129915978D01*
X65695873Y-129939127D01*
X65719022Y-129967335D01*
X65736227Y-129999523D01*
X65746819Y-130034438D01*
X65751000Y-130076895D01*
X65751000Y-131543105D01*
X65746819Y-131585562D01*
X65736227Y-131620477D01*
X65719022Y-131652665D01*
X65695873Y-131680873D01*
X65667665Y-131704022D01*
X65635477Y-131721227D01*
X65600562Y-131731819D01*
X65558105Y-131736000D01*
X64416895Y-131736000D01*
X64374438Y-131731819D01*
X64339523Y-131721227D01*
X64307335Y-131704022D01*
X64279127Y-131680873D01*
X64255978Y-131652665D01*
X64238773Y-131620477D01*
X64228181Y-131585562D01*
X64224000Y-131543105D01*
X64224000Y-130076895D01*
X64228181Y-130034438D01*
X64238773Y-129999523D01*
X64255978Y-129967335D01*
X64279127Y-129939127D01*
X64307335Y-129915978D01*
X64339523Y-129898773D01*
X64374438Y-129888181D01*
X64416895Y-129884000D01*
X65558105Y-129884000D01*
X65600562Y-129888181D01*
X65600562Y-129888181D01*
G37*
G36*
X62625562Y-129888181D02*
X62660477Y-129898773D01*
X62692665Y-129915978D01*
X62720873Y-129939127D01*
X62744022Y-129967335D01*
X62761227Y-129999523D01*
X62771819Y-130034438D01*
X62776000Y-130076895D01*
X62776000Y-131543105D01*
X62771819Y-131585562D01*
X62761227Y-131620477D01*
X62744022Y-131652665D01*
X62720873Y-131680873D01*
X62692665Y-131704022D01*
X62660477Y-131721227D01*
X62625562Y-131731819D01*
X62583105Y-131736000D01*
X61441895Y-131736000D01*
X61399438Y-131731819D01*
X61364523Y-131721227D01*
X61332335Y-131704022D01*
X61304127Y-131680873D01*
X61280978Y-131652665D01*
X61263773Y-131620477D01*
X61253181Y-131585562D01*
X61249000Y-131543105D01*
X61249000Y-130076895D01*
X61253181Y-130034438D01*
X61263773Y-129999523D01*
X61280978Y-129967335D01*
X61304127Y-129939127D01*
X61332335Y-129915978D01*
X61364523Y-129898773D01*
X61399438Y-129888181D01*
X61441895Y-129884000D01*
X62583105Y-129884000D01*
X62625562Y-129888181D01*
X62625562Y-129888181D01*
G37*
G36*
X103541000Y-131161000D02*
X101439000Y-131161000D01*
X101439000Y-130459000D01*
X103541000Y-130459000D01*
X103541000Y-131161000D01*
X103541000Y-131161000D01*
G37*
G36*
X94141000Y-131161000D02*
X92039000Y-131161000D01*
X92039000Y-130459000D01*
X94141000Y-130459000D01*
X94141000Y-131161000D01*
X94141000Y-131161000D01*
G37*
G36*
X132082586Y-131081818D02*
X124105586Y-131081818D01*
X124105586Y-128979818D01*
X132082586Y-128979818D01*
X132082586Y-131081818D01*
X132082586Y-131081818D01*
G37*
G36*
X143957586Y-131081818D02*
X135980586Y-131081818D01*
X135980586Y-128979818D01*
X143957586Y-128979818D01*
X143957586Y-131081818D01*
X143957586Y-131081818D01*
G37*
G36*
X118756000Y-130526000D02*
X116704000Y-130526000D01*
X116704000Y-129824000D01*
X118756000Y-129824000D01*
X118756000Y-130526000D01*
X118756000Y-130526000D01*
G37*
G36*
X109356000Y-130526000D02*
X107304000Y-130526000D01*
X107304000Y-129824000D01*
X109356000Y-129824000D01*
X109356000Y-130526000D01*
X109356000Y-130526000D01*
G37*
G36*
X94141000Y-129891000D02*
X92039000Y-129891000D01*
X92039000Y-129189000D01*
X94141000Y-129189000D01*
X94141000Y-129891000D01*
X94141000Y-129891000D01*
G37*
G36*
X103541000Y-129891000D02*
X101439000Y-129891000D01*
X101439000Y-129189000D01*
X103541000Y-129189000D01*
X103541000Y-129891000D01*
X103541000Y-129891000D01*
G37*
G36*
X56259485Y-127018996D02*
X56259487Y-127018997D01*
X56259488Y-127018997D01*
X56496255Y-127117069D01*
X56709342Y-127259449D01*
X56890551Y-127440658D01*
X57032931Y-127653745D01*
X57131004Y-127890515D01*
X57181000Y-128141861D01*
X57181000Y-128398139D01*
X57131004Y-128649485D01*
X57032931Y-128886255D01*
X56890551Y-129099342D01*
X56709342Y-129280551D01*
X56709339Y-129280553D01*
X56496255Y-129422931D01*
X56259488Y-129521003D01*
X56259487Y-129521003D01*
X56259485Y-129521004D01*
X56008139Y-129571000D01*
X55751861Y-129571000D01*
X55500515Y-129521004D01*
X55500513Y-129521003D01*
X55500512Y-129521003D01*
X55263745Y-129422931D01*
X55050661Y-129280553D01*
X55050658Y-129280551D01*
X54869449Y-129099342D01*
X54727069Y-128886255D01*
X54628996Y-128649485D01*
X54579000Y-128398139D01*
X54579000Y-128141861D01*
X54628996Y-127890515D01*
X54727069Y-127653745D01*
X54869449Y-127440658D01*
X55050658Y-127259449D01*
X55263745Y-127117069D01*
X55500512Y-127018997D01*
X55500513Y-127018997D01*
X55500515Y-127018996D01*
X55751861Y-126969000D01*
X56008139Y-126969000D01*
X56259485Y-127018996D01*
X56259485Y-127018996D01*
G37*
G36*
X118756000Y-129256000D02*
X116704000Y-129256000D01*
X116704000Y-128554000D01*
X118756000Y-128554000D01*
X118756000Y-129256000D01*
X118756000Y-129256000D01*
G37*
G36*
X109356000Y-129256000D02*
X107304000Y-129256000D01*
X107304000Y-128554000D01*
X109356000Y-128554000D01*
X109356000Y-129256000D01*
X109356000Y-129256000D01*
G37*
G36*
X83366000Y-129231000D02*
X81514000Y-129231000D01*
X81514000Y-128579000D01*
X83366000Y-128579000D01*
X83366000Y-129231000D01*
X83366000Y-129231000D01*
G37*
G36*
X75966000Y-129231000D02*
X74114000Y-129231000D01*
X74114000Y-128579000D01*
X75966000Y-128579000D01*
X75966000Y-129231000D01*
X75966000Y-129231000D01*
G37*
G36*
X122695562Y-127510681D02*
X122730477Y-127521273D01*
X122762665Y-127538478D01*
X122790873Y-127561627D01*
X122814022Y-127589835D01*
X122831227Y-127622023D01*
X122841819Y-127656938D01*
X122846000Y-127699395D01*
X122846000Y-128840605D01*
X122841819Y-128883062D01*
X122831227Y-128917977D01*
X122814022Y-128950165D01*
X122790873Y-128978373D01*
X122762665Y-129001522D01*
X122730477Y-129018727D01*
X122695562Y-129029319D01*
X122653105Y-129033500D01*
X121186895Y-129033500D01*
X121144438Y-129029319D01*
X121109523Y-129018727D01*
X121077335Y-129001522D01*
X121049127Y-128978373D01*
X121025978Y-128950165D01*
X121008773Y-128917977D01*
X120998181Y-128883062D01*
X120994000Y-128840605D01*
X120994000Y-127699395D01*
X120998181Y-127656938D01*
X121008773Y-127622023D01*
X121025978Y-127589835D01*
X121049127Y-127561627D01*
X121077335Y-127538478D01*
X121109523Y-127521273D01*
X121144438Y-127510681D01*
X121186895Y-127506500D01*
X122653105Y-127506500D01*
X122695562Y-127510681D01*
X122695562Y-127510681D01*
G37*
G36*
X83366000Y-127961000D02*
X81514000Y-127961000D01*
X81514000Y-127309000D01*
X83366000Y-127309000D01*
X83366000Y-127961000D01*
X83366000Y-127961000D01*
G37*
G36*
X75966000Y-127961000D02*
X74114000Y-127961000D01*
X74114000Y-127309000D01*
X75966000Y-127309000D01*
X75966000Y-127961000D01*
X75966000Y-127961000D01*
G37*
G36*
X131331562Y-125188181D02*
X131366477Y-125198773D01*
X131398665Y-125215978D01*
X131426873Y-125239127D01*
X131450022Y-125267335D01*
X131467227Y-125299523D01*
X131477819Y-125334438D01*
X131482000Y-125376895D01*
X131482000Y-126518105D01*
X131477819Y-126560562D01*
X131467227Y-126595477D01*
X131450022Y-126627665D01*
X131426873Y-126655873D01*
X131398665Y-126679022D01*
X131366477Y-126696227D01*
X131331562Y-126706819D01*
X131289105Y-126711000D01*
X129822895Y-126711000D01*
X129780438Y-126706819D01*
X129745523Y-126696227D01*
X129713335Y-126679022D01*
X129685127Y-126655873D01*
X129661978Y-126627665D01*
X129644773Y-126595477D01*
X129634181Y-126560562D01*
X129630000Y-126518105D01*
X129630000Y-125376895D01*
X129634181Y-125334438D01*
X129644773Y-125299523D01*
X129661978Y-125267335D01*
X129685127Y-125239127D01*
X129713335Y-125215978D01*
X129745523Y-125198773D01*
X129780438Y-125188181D01*
X129822895Y-125184000D01*
X131289105Y-125184000D01*
X131331562Y-125188181D01*
X131331562Y-125188181D01*
G37*
G36*
X134887562Y-125188181D02*
X134922477Y-125198773D01*
X134954665Y-125215978D01*
X134982873Y-125239127D01*
X135006022Y-125267335D01*
X135023227Y-125299523D01*
X135033819Y-125334438D01*
X135038000Y-125376895D01*
X135038000Y-126518105D01*
X135033819Y-126560562D01*
X135023227Y-126595477D01*
X135006022Y-126627665D01*
X134982873Y-126655873D01*
X134954665Y-126679022D01*
X134922477Y-126696227D01*
X134887562Y-126706819D01*
X134845105Y-126711000D01*
X133378895Y-126711000D01*
X133336438Y-126706819D01*
X133301523Y-126696227D01*
X133269335Y-126679022D01*
X133241127Y-126655873D01*
X133217978Y-126627665D01*
X133200773Y-126595477D01*
X133190181Y-126560562D01*
X133186000Y-126518105D01*
X133186000Y-125376895D01*
X133190181Y-125334438D01*
X133200773Y-125299523D01*
X133217978Y-125267335D01*
X133241127Y-125239127D01*
X133269335Y-125215978D01*
X133301523Y-125198773D01*
X133336438Y-125188181D01*
X133378895Y-125184000D01*
X134845105Y-125184000D01*
X134887562Y-125188181D01*
X134887562Y-125188181D01*
G37*
G36*
X127775562Y-125188181D02*
X127810477Y-125198773D01*
X127842665Y-125215978D01*
X127870873Y-125239127D01*
X127894022Y-125267335D01*
X127911227Y-125299523D01*
X127921819Y-125334438D01*
X127926000Y-125376895D01*
X127926000Y-126518105D01*
X127921819Y-126560562D01*
X127911227Y-126595477D01*
X127894022Y-126627665D01*
X127870873Y-126655873D01*
X127842665Y-126679022D01*
X127810477Y-126696227D01*
X127775562Y-126706819D01*
X127733105Y-126711000D01*
X126266895Y-126711000D01*
X126224438Y-126706819D01*
X126189523Y-126696227D01*
X126157335Y-126679022D01*
X126129127Y-126655873D01*
X126105978Y-126627665D01*
X126088773Y-126595477D01*
X126078181Y-126560562D01*
X126074000Y-126518105D01*
X126074000Y-125376895D01*
X126078181Y-125334438D01*
X126088773Y-125299523D01*
X126105978Y-125267335D01*
X126129127Y-125239127D01*
X126157335Y-125215978D01*
X126189523Y-125198773D01*
X126224438Y-125188181D01*
X126266895Y-125184000D01*
X127733105Y-125184000D01*
X127775562Y-125188181D01*
X127775562Y-125188181D01*
G37*
G36*
X99506362Y-124858981D02*
X99541277Y-124869573D01*
X99573465Y-124886778D01*
X99601673Y-124909927D01*
X99624822Y-124938135D01*
X99642027Y-124970323D01*
X99652619Y-125005238D01*
X99656800Y-125047695D01*
X99656800Y-126513905D01*
X99652619Y-126556362D01*
X99642027Y-126591277D01*
X99624822Y-126623465D01*
X99601673Y-126651673D01*
X99573465Y-126674822D01*
X99541277Y-126692027D01*
X99506362Y-126702619D01*
X99463905Y-126706800D01*
X98322695Y-126706800D01*
X98280238Y-126702619D01*
X98245323Y-126692027D01*
X98213135Y-126674822D01*
X98184927Y-126651673D01*
X98161778Y-126623465D01*
X98144573Y-126591277D01*
X98133981Y-126556362D01*
X98129800Y-126513905D01*
X98129800Y-125047695D01*
X98133981Y-125005238D01*
X98144573Y-124970323D01*
X98161778Y-124938135D01*
X98184927Y-124909927D01*
X98213135Y-124886778D01*
X98245323Y-124869573D01*
X98280238Y-124858981D01*
X98322695Y-124854800D01*
X99463905Y-124854800D01*
X99506362Y-124858981D01*
X99506362Y-124858981D01*
G37*
G36*
X102481362Y-124858981D02*
X102516277Y-124869573D01*
X102548465Y-124886778D01*
X102576673Y-124909927D01*
X102599822Y-124938135D01*
X102617027Y-124970323D01*
X102627619Y-125005238D01*
X102631800Y-125047695D01*
X102631800Y-126513905D01*
X102627619Y-126556362D01*
X102617027Y-126591277D01*
X102599822Y-126623465D01*
X102576673Y-126651673D01*
X102548465Y-126674822D01*
X102516277Y-126692027D01*
X102481362Y-126702619D01*
X102438905Y-126706800D01*
X101297695Y-126706800D01*
X101255238Y-126702619D01*
X101220323Y-126692027D01*
X101188135Y-126674822D01*
X101159927Y-126651673D01*
X101136778Y-126623465D01*
X101119573Y-126591277D01*
X101108981Y-126556362D01*
X101104800Y-126513905D01*
X101104800Y-125047695D01*
X101108981Y-125005238D01*
X101119573Y-124970323D01*
X101136778Y-124938135D01*
X101159927Y-124909927D01*
X101188135Y-124886778D01*
X101220323Y-124869573D01*
X101255238Y-124858981D01*
X101297695Y-124854800D01*
X102438905Y-124854800D01*
X102481362Y-124858981D01*
X102481362Y-124858981D01*
G37*
G36*
X83366000Y-126691000D02*
X81514000Y-126691000D01*
X81514000Y-126039000D01*
X83366000Y-126039000D01*
X83366000Y-126691000D01*
X83366000Y-126691000D01*
G37*
G36*
X75966000Y-126691000D02*
X74114000Y-126691000D01*
X74114000Y-126039000D01*
X75966000Y-126039000D01*
X75966000Y-126691000D01*
X75966000Y-126691000D01*
G37*
G36*
X108780562Y-124808181D02*
X108815477Y-124818773D01*
X108847665Y-124835978D01*
X108875873Y-124859127D01*
X108899022Y-124887335D01*
X108916227Y-124919523D01*
X108926819Y-124954438D01*
X108931000Y-124996895D01*
X108931000Y-126463105D01*
X108926819Y-126505562D01*
X108916227Y-126540477D01*
X108899022Y-126572665D01*
X108875873Y-126600873D01*
X108847665Y-126624022D01*
X108815477Y-126641227D01*
X108780562Y-126651819D01*
X108738105Y-126656000D01*
X107596895Y-126656000D01*
X107554438Y-126651819D01*
X107519523Y-126641227D01*
X107487335Y-126624022D01*
X107459127Y-126600873D01*
X107435978Y-126572665D01*
X107418773Y-126540477D01*
X107408181Y-126505562D01*
X107404000Y-126463105D01*
X107404000Y-124996895D01*
X107408181Y-124954438D01*
X107418773Y-124919523D01*
X107435978Y-124887335D01*
X107459127Y-124859127D01*
X107487335Y-124835978D01*
X107519523Y-124818773D01*
X107554438Y-124808181D01*
X107596895Y-124804000D01*
X108738105Y-124804000D01*
X108780562Y-124808181D01*
X108780562Y-124808181D01*
G37*
G36*
X115548062Y-124808181D02*
X115582977Y-124818773D01*
X115615165Y-124835978D01*
X115643373Y-124859127D01*
X115666522Y-124887335D01*
X115683727Y-124919523D01*
X115694319Y-124954438D01*
X115698500Y-124996895D01*
X115698500Y-126463105D01*
X115694319Y-126505562D01*
X115683727Y-126540477D01*
X115666522Y-126572665D01*
X115643373Y-126600873D01*
X115615165Y-126624022D01*
X115582977Y-126641227D01*
X115548062Y-126651819D01*
X115505605Y-126656000D01*
X114364395Y-126656000D01*
X114321938Y-126651819D01*
X114287023Y-126641227D01*
X114254835Y-126624022D01*
X114226627Y-126600873D01*
X114203478Y-126572665D01*
X114186273Y-126540477D01*
X114175681Y-126505562D01*
X114171500Y-126463105D01*
X114171500Y-124996895D01*
X114175681Y-124954438D01*
X114186273Y-124919523D01*
X114203478Y-124887335D01*
X114226627Y-124859127D01*
X114254835Y-124835978D01*
X114287023Y-124818773D01*
X114321938Y-124808181D01*
X114364395Y-124804000D01*
X115505605Y-124804000D01*
X115548062Y-124808181D01*
X115548062Y-124808181D01*
G37*
G36*
X112573062Y-124808181D02*
X112607977Y-124818773D01*
X112640165Y-124835978D01*
X112668373Y-124859127D01*
X112691522Y-124887335D01*
X112708727Y-124919523D01*
X112719319Y-124954438D01*
X112723500Y-124996895D01*
X112723500Y-126463105D01*
X112719319Y-126505562D01*
X112708727Y-126540477D01*
X112691522Y-126572665D01*
X112668373Y-126600873D01*
X112640165Y-126624022D01*
X112607977Y-126641227D01*
X112573062Y-126651819D01*
X112530605Y-126656000D01*
X111389395Y-126656000D01*
X111346938Y-126651819D01*
X111312023Y-126641227D01*
X111279835Y-126624022D01*
X111251627Y-126600873D01*
X111228478Y-126572665D01*
X111211273Y-126540477D01*
X111200681Y-126505562D01*
X111196500Y-126463105D01*
X111196500Y-124996895D01*
X111200681Y-124954438D01*
X111211273Y-124919523D01*
X111228478Y-124887335D01*
X111251627Y-124859127D01*
X111279835Y-124835978D01*
X111312023Y-124818773D01*
X111346938Y-124808181D01*
X111389395Y-124804000D01*
X112530605Y-124804000D01*
X112573062Y-124808181D01*
X112573062Y-124808181D01*
G37*
G36*
X105805562Y-124808181D02*
X105840477Y-124818773D01*
X105872665Y-124835978D01*
X105900873Y-124859127D01*
X105924022Y-124887335D01*
X105941227Y-124919523D01*
X105951819Y-124954438D01*
X105956000Y-124996895D01*
X105956000Y-126463105D01*
X105951819Y-126505562D01*
X105941227Y-126540477D01*
X105924022Y-126572665D01*
X105900873Y-126600873D01*
X105872665Y-126624022D01*
X105840477Y-126641227D01*
X105805562Y-126651819D01*
X105763105Y-126656000D01*
X104621895Y-126656000D01*
X104579438Y-126651819D01*
X104544523Y-126641227D01*
X104512335Y-126624022D01*
X104484127Y-126600873D01*
X104460978Y-126572665D01*
X104443773Y-126540477D01*
X104433181Y-126505562D01*
X104429000Y-126463105D01*
X104429000Y-124996895D01*
X104433181Y-124954438D01*
X104443773Y-124919523D01*
X104460978Y-124887335D01*
X104484127Y-124859127D01*
X104512335Y-124835978D01*
X104544523Y-124818773D01*
X104579438Y-124808181D01*
X104621895Y-124804000D01*
X105763105Y-124804000D01*
X105805562Y-124808181D01*
X105805562Y-124808181D01*
G37*
G36*
X93105562Y-124808181D02*
X93140477Y-124818773D01*
X93172665Y-124835978D01*
X93200873Y-124859127D01*
X93224022Y-124887335D01*
X93241227Y-124919523D01*
X93251819Y-124954438D01*
X93256000Y-124996895D01*
X93256000Y-126463105D01*
X93251819Y-126505562D01*
X93241227Y-126540477D01*
X93224022Y-126572665D01*
X93200873Y-126600873D01*
X93172665Y-126624022D01*
X93140477Y-126641227D01*
X93105562Y-126651819D01*
X93063105Y-126656000D01*
X91921895Y-126656000D01*
X91879438Y-126651819D01*
X91844523Y-126641227D01*
X91812335Y-126624022D01*
X91784127Y-126600873D01*
X91760978Y-126572665D01*
X91743773Y-126540477D01*
X91733181Y-126505562D01*
X91729000Y-126463105D01*
X91729000Y-124996895D01*
X91733181Y-124954438D01*
X91743773Y-124919523D01*
X91760978Y-124887335D01*
X91784127Y-124859127D01*
X91812335Y-124835978D01*
X91844523Y-124818773D01*
X91879438Y-124808181D01*
X91921895Y-124804000D01*
X93063105Y-124804000D01*
X93105562Y-124808181D01*
X93105562Y-124808181D01*
G37*
G36*
X96080562Y-124808181D02*
X96115477Y-124818773D01*
X96147665Y-124835978D01*
X96175873Y-124859127D01*
X96199022Y-124887335D01*
X96216227Y-124919523D01*
X96226819Y-124954438D01*
X96231000Y-124996895D01*
X96231000Y-126463105D01*
X96226819Y-126505562D01*
X96216227Y-126540477D01*
X96199022Y-126572665D01*
X96175873Y-126600873D01*
X96147665Y-126624022D01*
X96115477Y-126641227D01*
X96080562Y-126651819D01*
X96038105Y-126656000D01*
X94896895Y-126656000D01*
X94854438Y-126651819D01*
X94819523Y-126641227D01*
X94787335Y-126624022D01*
X94759127Y-126600873D01*
X94735978Y-126572665D01*
X94718773Y-126540477D01*
X94708181Y-126505562D01*
X94704000Y-126463105D01*
X94704000Y-124996895D01*
X94708181Y-124954438D01*
X94718773Y-124919523D01*
X94735978Y-124887335D01*
X94759127Y-124859127D01*
X94787335Y-124835978D01*
X94819523Y-124818773D01*
X94854438Y-124808181D01*
X94896895Y-124804000D01*
X96038105Y-124804000D01*
X96080562Y-124808181D01*
X96080562Y-124808181D01*
G37*
G36*
X118242004Y-124990544D02*
X118329059Y-125007860D01*
X118465732Y-125064472D01*
X118545790Y-125117965D01*
X118588738Y-125146662D01*
X118693338Y-125251262D01*
X118693340Y-125251265D01*
X118775528Y-125374268D01*
X118832140Y-125510941D01*
X118861000Y-125656033D01*
X118861000Y-125803967D01*
X118832140Y-125949059D01*
X118775528Y-126085732D01*
X118775527Y-126085733D01*
X118693338Y-126208738D01*
X118588738Y-126313338D01*
X118588735Y-126313340D01*
X118465732Y-126395528D01*
X118329059Y-126452140D01*
X118242004Y-126469456D01*
X118183969Y-126481000D01*
X118036031Y-126481000D01*
X117977996Y-126469456D01*
X117890941Y-126452140D01*
X117754268Y-126395528D01*
X117631265Y-126313340D01*
X117631262Y-126313338D01*
X117526662Y-126208738D01*
X117444473Y-126085733D01*
X117444472Y-126085732D01*
X117387860Y-125949059D01*
X117359000Y-125803967D01*
X117359000Y-125656033D01*
X117387860Y-125510941D01*
X117444472Y-125374268D01*
X117526660Y-125251265D01*
X117526662Y-125251262D01*
X117631262Y-125146662D01*
X117674210Y-125117965D01*
X117754268Y-125064472D01*
X117890941Y-125007860D01*
X117977996Y-124990544D01*
X118036031Y-124979000D01*
X118183969Y-124979000D01*
X118242004Y-124990544D01*
X118242004Y-124990544D01*
G37*
G36*
X64902004Y-124990544D02*
X64989059Y-125007860D01*
X65125732Y-125064472D01*
X65205790Y-125117965D01*
X65248738Y-125146662D01*
X65353338Y-125251262D01*
X65353340Y-125251265D01*
X65435528Y-125374268D01*
X65492140Y-125510941D01*
X65521000Y-125656033D01*
X65521000Y-125803967D01*
X65492140Y-125949059D01*
X65435528Y-126085732D01*
X65435527Y-126085733D01*
X65353338Y-126208738D01*
X65248738Y-126313338D01*
X65248735Y-126313340D01*
X65125732Y-126395528D01*
X64989059Y-126452140D01*
X64902004Y-126469456D01*
X64843969Y-126481000D01*
X64696031Y-126481000D01*
X64637996Y-126469456D01*
X64550941Y-126452140D01*
X64414268Y-126395528D01*
X64291265Y-126313340D01*
X64291262Y-126313338D01*
X64186662Y-126208738D01*
X64104473Y-126085733D01*
X64104472Y-126085732D01*
X64047860Y-125949059D01*
X64019000Y-125803967D01*
X64019000Y-125656033D01*
X64047860Y-125510941D01*
X64104472Y-125374268D01*
X64186660Y-125251265D01*
X64186662Y-125251262D01*
X64291262Y-125146662D01*
X64334210Y-125117965D01*
X64414268Y-125064472D01*
X64550941Y-125007860D01*
X64637996Y-124990544D01*
X64696031Y-124979000D01*
X64843969Y-124979000D01*
X64902004Y-124990544D01*
X64902004Y-124990544D01*
G37*
G36*
X148095562Y-123918181D02*
X148130477Y-123928773D01*
X148162665Y-123945978D01*
X148190873Y-123969127D01*
X148214022Y-123997335D01*
X148231227Y-124029523D01*
X148241819Y-124064438D01*
X148246000Y-124106895D01*
X148246000Y-125248105D01*
X148241819Y-125290562D01*
X148231227Y-125325477D01*
X148214022Y-125357665D01*
X148190873Y-125385873D01*
X148162665Y-125409022D01*
X148130477Y-125426227D01*
X148095562Y-125436819D01*
X148053105Y-125441000D01*
X146586895Y-125441000D01*
X146544438Y-125436819D01*
X146509523Y-125426227D01*
X146477335Y-125409022D01*
X146449127Y-125385873D01*
X146425978Y-125357665D01*
X146408773Y-125325477D01*
X146398181Y-125290562D01*
X146394000Y-125248105D01*
X146394000Y-124106895D01*
X146398181Y-124064438D01*
X146408773Y-124029523D01*
X146425978Y-123997335D01*
X146449127Y-123969127D01*
X146477335Y-123945978D01*
X146509523Y-123928773D01*
X146544438Y-123918181D01*
X146586895Y-123914000D01*
X148053105Y-123914000D01*
X148095562Y-123918181D01*
X148095562Y-123918181D01*
G37*
G36*
X75966000Y-125421000D02*
X74114000Y-125421000D01*
X74114000Y-124769000D01*
X75966000Y-124769000D01*
X75966000Y-125421000D01*
X75966000Y-125421000D01*
G37*
G36*
X83366000Y-125421000D02*
X81514000Y-125421000D01*
X81514000Y-124769000D01*
X83366000Y-124769000D01*
X83366000Y-125421000D01*
X83366000Y-125421000D01*
G37*
G36*
X140678762Y-123729281D02*
X140713677Y-123739873D01*
X140745865Y-123757078D01*
X140774073Y-123780227D01*
X140797222Y-123808435D01*
X140814427Y-123840623D01*
X140825019Y-123875538D01*
X140829200Y-123917995D01*
X140829200Y-125059205D01*
X140825019Y-125101662D01*
X140814427Y-125136577D01*
X140797222Y-125168765D01*
X140774073Y-125196973D01*
X140745865Y-125220122D01*
X140713677Y-125237327D01*
X140678762Y-125247919D01*
X140636305Y-125252100D01*
X139170095Y-125252100D01*
X139127638Y-125247919D01*
X139092723Y-125237327D01*
X139060535Y-125220122D01*
X139032327Y-125196973D01*
X139009178Y-125168765D01*
X138991973Y-125136577D01*
X138981381Y-125101662D01*
X138977200Y-125059205D01*
X138977200Y-123917995D01*
X138981381Y-123875538D01*
X138991973Y-123840623D01*
X139009178Y-123808435D01*
X139032327Y-123780227D01*
X139060535Y-123757078D01*
X139092723Y-123739873D01*
X139127638Y-123729281D01*
X139170095Y-123725100D01*
X140636305Y-123725100D01*
X140678762Y-123729281D01*
X140678762Y-123729281D01*
G37*
G36*
X137986362Y-123678481D02*
X138021277Y-123689073D01*
X138053465Y-123706278D01*
X138081673Y-123729427D01*
X138104822Y-123757635D01*
X138122027Y-123789823D01*
X138132619Y-123824738D01*
X138136800Y-123867195D01*
X138136800Y-125008405D01*
X138132619Y-125050862D01*
X138122027Y-125085777D01*
X138104822Y-125117965D01*
X138081673Y-125146173D01*
X138053465Y-125169322D01*
X138021277Y-125186527D01*
X137986362Y-125197119D01*
X137943905Y-125201300D01*
X136477695Y-125201300D01*
X136435238Y-125197119D01*
X136400323Y-125186527D01*
X136368135Y-125169322D01*
X136339927Y-125146173D01*
X136316778Y-125117965D01*
X136299573Y-125085777D01*
X136288981Y-125050862D01*
X136284800Y-125008405D01*
X136284800Y-123867195D01*
X136288981Y-123824738D01*
X136299573Y-123789823D01*
X136316778Y-123757635D01*
X136339927Y-123729427D01*
X136368135Y-123706278D01*
X136400323Y-123689073D01*
X136435238Y-123678481D01*
X136477695Y-123674300D01*
X137943905Y-123674300D01*
X137986362Y-123678481D01*
X137986362Y-123678481D01*
G37*
G36*
X56259485Y-121938996D02*
X56259487Y-121938997D01*
X56259488Y-121938997D01*
X56306343Y-121958405D01*
X56496255Y-122037069D01*
X56709342Y-122179449D01*
X56890551Y-122360658D01*
X56890553Y-122360661D01*
X57032931Y-122573745D01*
X57089894Y-122711265D01*
X57131004Y-122810515D01*
X57181000Y-123061861D01*
X57181000Y-123318139D01*
X57135729Y-123545733D01*
X57131003Y-123569488D01*
X57060427Y-123739873D01*
X57032931Y-123806255D01*
X56890551Y-124019342D01*
X56709342Y-124200551D01*
X56709339Y-124200553D01*
X56496255Y-124342931D01*
X56259488Y-124441003D01*
X56259487Y-124441003D01*
X56259485Y-124441004D01*
X56008139Y-124491000D01*
X55751861Y-124491000D01*
X55500515Y-124441004D01*
X55500513Y-124441003D01*
X55500512Y-124441003D01*
X55263745Y-124342931D01*
X55050661Y-124200553D01*
X55050658Y-124200551D01*
X54869449Y-124019342D01*
X54727069Y-123806255D01*
X54699573Y-123739873D01*
X54628997Y-123569488D01*
X54624272Y-123545733D01*
X54579000Y-123318139D01*
X54579000Y-123061861D01*
X54628996Y-122810515D01*
X54670107Y-122711265D01*
X54727069Y-122573745D01*
X54869447Y-122360661D01*
X54869449Y-122360658D01*
X55050658Y-122179449D01*
X55263745Y-122037069D01*
X55453657Y-121958405D01*
X55500512Y-121938997D01*
X55500513Y-121938997D01*
X55500515Y-121938996D01*
X55751861Y-121889000D01*
X56008139Y-121889000D01*
X56259485Y-121938996D01*
X56259485Y-121938996D01*
G37*
G36*
X118242004Y-122450544D02*
X118329059Y-122467860D01*
X118465732Y-122524472D01*
X118465733Y-122524473D01*
X118588738Y-122606662D01*
X118693338Y-122711262D01*
X118693340Y-122711265D01*
X118775528Y-122834268D01*
X118832140Y-122970941D01*
X118861000Y-123116033D01*
X118861000Y-123263967D01*
X118832140Y-123409059D01*
X118775528Y-123545732D01*
X118748914Y-123585562D01*
X118693338Y-123668738D01*
X118588738Y-123773338D01*
X118588735Y-123773340D01*
X118465732Y-123855528D01*
X118329059Y-123912140D01*
X118242004Y-123929456D01*
X118183969Y-123941000D01*
X118036031Y-123941000D01*
X117977996Y-123929456D01*
X117890941Y-123912140D01*
X117754268Y-123855528D01*
X117631265Y-123773340D01*
X117631262Y-123773338D01*
X117526662Y-123668738D01*
X117471086Y-123585562D01*
X117444472Y-123545732D01*
X117387860Y-123409059D01*
X117359000Y-123263967D01*
X117359000Y-123116033D01*
X117387860Y-122970941D01*
X117444472Y-122834268D01*
X117526660Y-122711265D01*
X117526662Y-122711262D01*
X117631262Y-122606662D01*
X117754267Y-122524473D01*
X117754268Y-122524472D01*
X117890941Y-122467860D01*
X117977996Y-122450544D01*
X118036031Y-122439000D01*
X118183969Y-122439000D01*
X118242004Y-122450544D01*
X118242004Y-122450544D01*
G37*
G36*
X64902004Y-122450544D02*
X64989059Y-122467860D01*
X65125732Y-122524472D01*
X65125733Y-122524473D01*
X65248738Y-122606662D01*
X65353338Y-122711262D01*
X65353340Y-122711265D01*
X65435528Y-122834268D01*
X65492140Y-122970941D01*
X65521000Y-123116033D01*
X65521000Y-123263967D01*
X65492140Y-123409059D01*
X65435528Y-123545732D01*
X65408914Y-123585562D01*
X65353338Y-123668738D01*
X65248738Y-123773338D01*
X65248735Y-123773340D01*
X65125732Y-123855528D01*
X64989059Y-123912140D01*
X64902004Y-123929456D01*
X64843969Y-123941000D01*
X64696031Y-123941000D01*
X64637996Y-123929456D01*
X64550941Y-123912140D01*
X64414268Y-123855528D01*
X64291265Y-123773340D01*
X64291262Y-123773338D01*
X64186662Y-123668738D01*
X64131086Y-123585562D01*
X64104472Y-123545732D01*
X64047860Y-123409059D01*
X64019000Y-123263967D01*
X64019000Y-123116033D01*
X64047860Y-122970941D01*
X64104472Y-122834268D01*
X64186660Y-122711265D01*
X64186662Y-122711262D01*
X64291262Y-122606662D01*
X64414267Y-122524473D01*
X64414268Y-122524472D01*
X64550941Y-122467860D01*
X64637996Y-122450544D01*
X64696031Y-122439000D01*
X64843969Y-122439000D01*
X64902004Y-122450544D01*
X64902004Y-122450544D01*
G37*
G36*
X131331562Y-122213181D02*
X131366477Y-122223773D01*
X131398665Y-122240978D01*
X131426873Y-122264127D01*
X131450022Y-122292335D01*
X131467227Y-122324523D01*
X131477819Y-122359438D01*
X131482000Y-122401895D01*
X131482000Y-123543105D01*
X131477819Y-123585562D01*
X131467227Y-123620477D01*
X131450022Y-123652665D01*
X131426873Y-123680873D01*
X131398665Y-123704022D01*
X131366477Y-123721227D01*
X131331562Y-123731819D01*
X131289105Y-123736000D01*
X129822895Y-123736000D01*
X129780438Y-123731819D01*
X129745523Y-123721227D01*
X129713335Y-123704022D01*
X129685127Y-123680873D01*
X129661978Y-123652665D01*
X129644773Y-123620477D01*
X129634181Y-123585562D01*
X129630000Y-123543105D01*
X129630000Y-122401895D01*
X129634181Y-122359438D01*
X129644773Y-122324523D01*
X129661978Y-122292335D01*
X129685127Y-122264127D01*
X129713335Y-122240978D01*
X129745523Y-122223773D01*
X129780438Y-122213181D01*
X129822895Y-122209000D01*
X131289105Y-122209000D01*
X131331562Y-122213181D01*
X131331562Y-122213181D01*
G37*
G36*
X127775562Y-122213181D02*
X127810477Y-122223773D01*
X127842665Y-122240978D01*
X127870873Y-122264127D01*
X127894022Y-122292335D01*
X127911227Y-122324523D01*
X127921819Y-122359438D01*
X127926000Y-122401895D01*
X127926000Y-123543105D01*
X127921819Y-123585562D01*
X127911227Y-123620477D01*
X127894022Y-123652665D01*
X127870873Y-123680873D01*
X127842665Y-123704022D01*
X127810477Y-123721227D01*
X127775562Y-123731819D01*
X127733105Y-123736000D01*
X126266895Y-123736000D01*
X126224438Y-123731819D01*
X126189523Y-123721227D01*
X126157335Y-123704022D01*
X126129127Y-123680873D01*
X126105978Y-123652665D01*
X126088773Y-123620477D01*
X126078181Y-123585562D01*
X126074000Y-123543105D01*
X126074000Y-122401895D01*
X126078181Y-122359438D01*
X126088773Y-122324523D01*
X126105978Y-122292335D01*
X126129127Y-122264127D01*
X126157335Y-122240978D01*
X126189523Y-122223773D01*
X126224438Y-122213181D01*
X126266895Y-122209000D01*
X127733105Y-122209000D01*
X127775562Y-122213181D01*
X127775562Y-122213181D01*
G37*
G36*
X134887562Y-122213181D02*
X134922477Y-122223773D01*
X134954665Y-122240978D01*
X134982873Y-122264127D01*
X135006022Y-122292335D01*
X135023227Y-122324523D01*
X135033819Y-122359438D01*
X135038000Y-122401895D01*
X135038000Y-123543105D01*
X135033819Y-123585562D01*
X135023227Y-123620477D01*
X135006022Y-123652665D01*
X134982873Y-123680873D01*
X134954665Y-123704022D01*
X134922477Y-123721227D01*
X134887562Y-123731819D01*
X134845105Y-123736000D01*
X133378895Y-123736000D01*
X133336438Y-123731819D01*
X133301523Y-123721227D01*
X133269335Y-123704022D01*
X133241127Y-123680873D01*
X133217978Y-123652665D01*
X133200773Y-123620477D01*
X133190181Y-123585562D01*
X133186000Y-123543105D01*
X133186000Y-122401895D01*
X133190181Y-122359438D01*
X133200773Y-122324523D01*
X133217978Y-122292335D01*
X133241127Y-122264127D01*
X133269335Y-122240978D01*
X133301523Y-122223773D01*
X133336438Y-122213181D01*
X133378895Y-122209000D01*
X134845105Y-122209000D01*
X134887562Y-122213181D01*
X134887562Y-122213181D01*
G37*
G36*
X148095562Y-120943181D02*
X148130477Y-120953773D01*
X148162665Y-120970978D01*
X148190873Y-120994127D01*
X148214022Y-121022335D01*
X148231227Y-121054523D01*
X148241819Y-121089438D01*
X148246000Y-121131895D01*
X148246000Y-122273105D01*
X148241819Y-122315562D01*
X148231227Y-122350477D01*
X148214022Y-122382665D01*
X148190873Y-122410873D01*
X148162665Y-122434022D01*
X148130477Y-122451227D01*
X148095562Y-122461819D01*
X148053105Y-122466000D01*
X146586895Y-122466000D01*
X146544438Y-122461819D01*
X146509523Y-122451227D01*
X146477335Y-122434022D01*
X146449127Y-122410873D01*
X146425978Y-122382665D01*
X146408773Y-122350477D01*
X146398181Y-122315562D01*
X146394000Y-122273105D01*
X146394000Y-121131895D01*
X146398181Y-121089438D01*
X146408773Y-121054523D01*
X146425978Y-121022335D01*
X146449127Y-120994127D01*
X146477335Y-120970978D01*
X146509523Y-120953773D01*
X146544438Y-120943181D01*
X146586895Y-120939000D01*
X148053105Y-120939000D01*
X148095562Y-120943181D01*
X148095562Y-120943181D01*
G37*
G36*
X112332362Y-120855881D02*
X112367277Y-120866473D01*
X112399465Y-120883678D01*
X112427673Y-120906827D01*
X112450822Y-120935035D01*
X112468027Y-120967223D01*
X112478619Y-121002138D01*
X112482800Y-121044595D01*
X112482800Y-122185805D01*
X112478619Y-122228262D01*
X112468027Y-122263177D01*
X112450822Y-122295365D01*
X112427673Y-122323573D01*
X112399465Y-122346722D01*
X112367277Y-122363927D01*
X112332362Y-122374519D01*
X112289905Y-122378700D01*
X110823695Y-122378700D01*
X110781238Y-122374519D01*
X110746323Y-122363927D01*
X110714135Y-122346722D01*
X110685927Y-122323573D01*
X110662778Y-122295365D01*
X110645573Y-122263177D01*
X110634981Y-122228262D01*
X110630800Y-122185805D01*
X110630800Y-121044595D01*
X110634981Y-121002138D01*
X110645573Y-120967223D01*
X110662778Y-120935035D01*
X110685927Y-120906827D01*
X110714135Y-120883678D01*
X110746323Y-120866473D01*
X110781238Y-120855881D01*
X110823695Y-120851700D01*
X112289905Y-120851700D01*
X112332362Y-120855881D01*
X112332362Y-120855881D01*
G37*
G36*
X108471562Y-120805081D02*
X108506477Y-120815673D01*
X108538665Y-120832878D01*
X108566873Y-120856027D01*
X108590022Y-120884235D01*
X108607227Y-120916423D01*
X108617819Y-120951338D01*
X108622000Y-120993795D01*
X108622000Y-122135005D01*
X108617819Y-122177462D01*
X108607227Y-122212377D01*
X108590022Y-122244565D01*
X108566873Y-122272773D01*
X108538665Y-122295922D01*
X108506477Y-122313127D01*
X108471562Y-122323719D01*
X108429105Y-122327900D01*
X106962895Y-122327900D01*
X106920438Y-122323719D01*
X106885523Y-122313127D01*
X106853335Y-122295922D01*
X106825127Y-122272773D01*
X106801978Y-122244565D01*
X106784773Y-122212377D01*
X106774181Y-122177462D01*
X106770000Y-122135005D01*
X106770000Y-120993795D01*
X106774181Y-120951338D01*
X106784773Y-120916423D01*
X106801978Y-120884235D01*
X106825127Y-120856027D01*
X106853335Y-120832878D01*
X106885523Y-120815673D01*
X106920438Y-120805081D01*
X106962895Y-120800900D01*
X108429105Y-120800900D01*
X108471562Y-120805081D01*
X108471562Y-120805081D01*
G37*
G36*
X140678762Y-120754281D02*
X140713677Y-120764873D01*
X140745865Y-120782078D01*
X140774073Y-120805227D01*
X140797222Y-120833435D01*
X140814427Y-120865623D01*
X140825019Y-120900538D01*
X140829200Y-120942995D01*
X140829200Y-122084205D01*
X140825019Y-122126662D01*
X140814427Y-122161577D01*
X140797222Y-122193765D01*
X140774073Y-122221973D01*
X140745865Y-122245122D01*
X140713677Y-122262327D01*
X140678762Y-122272919D01*
X140636305Y-122277100D01*
X139170095Y-122277100D01*
X139127638Y-122272919D01*
X139092723Y-122262327D01*
X139060535Y-122245122D01*
X139032327Y-122221973D01*
X139009178Y-122193765D01*
X138991973Y-122161577D01*
X138981381Y-122126662D01*
X138977200Y-122084205D01*
X138977200Y-120942995D01*
X138981381Y-120900538D01*
X138991973Y-120865623D01*
X139009178Y-120833435D01*
X139032327Y-120805227D01*
X139060535Y-120782078D01*
X139092723Y-120764873D01*
X139127638Y-120754281D01*
X139170095Y-120750100D01*
X140636305Y-120750100D01*
X140678762Y-120754281D01*
X140678762Y-120754281D01*
G37*
G36*
X137986362Y-120703481D02*
X138021277Y-120714073D01*
X138053465Y-120731278D01*
X138081673Y-120754427D01*
X138104822Y-120782635D01*
X138122027Y-120814823D01*
X138132619Y-120849738D01*
X138136800Y-120892195D01*
X138136800Y-122033405D01*
X138132619Y-122075862D01*
X138122027Y-122110777D01*
X138104822Y-122142965D01*
X138081673Y-122171173D01*
X138053465Y-122194322D01*
X138021277Y-122211527D01*
X137986362Y-122222119D01*
X137943905Y-122226300D01*
X136477695Y-122226300D01*
X136435238Y-122222119D01*
X136400323Y-122211527D01*
X136368135Y-122194322D01*
X136339927Y-122171173D01*
X136316778Y-122142965D01*
X136299573Y-122110777D01*
X136288981Y-122075862D01*
X136284800Y-122033405D01*
X136284800Y-120892195D01*
X136288981Y-120849738D01*
X136299573Y-120814823D01*
X136316778Y-120782635D01*
X136339927Y-120754427D01*
X136368135Y-120731278D01*
X136400323Y-120714073D01*
X136435238Y-120703481D01*
X136477695Y-120699300D01*
X137943905Y-120699300D01*
X137986362Y-120703481D01*
X137986362Y-120703481D01*
G37*
G36*
X82640762Y-120286981D02*
X82675677Y-120297573D01*
X82707865Y-120314778D01*
X82736073Y-120337927D01*
X82759222Y-120366135D01*
X82776427Y-120398323D01*
X82787019Y-120433238D01*
X82791200Y-120475695D01*
X82791200Y-121941905D01*
X82787019Y-121984362D01*
X82776427Y-122019277D01*
X82759222Y-122051465D01*
X82736073Y-122079673D01*
X82707865Y-122102822D01*
X82675677Y-122120027D01*
X82640762Y-122130619D01*
X82598305Y-122134800D01*
X81457095Y-122134800D01*
X81414638Y-122130619D01*
X81379723Y-122120027D01*
X81347535Y-122102822D01*
X81319327Y-122079673D01*
X81296178Y-122051465D01*
X81278973Y-122019277D01*
X81268381Y-121984362D01*
X81264200Y-121941905D01*
X81264200Y-120475695D01*
X81268381Y-120433238D01*
X81278973Y-120398323D01*
X81296178Y-120366135D01*
X81319327Y-120337927D01*
X81347535Y-120314778D01*
X81379723Y-120297573D01*
X81414638Y-120286981D01*
X81457095Y-120282800D01*
X82598305Y-120282800D01*
X82640762Y-120286981D01*
X82640762Y-120286981D01*
G37*
G36*
X85615762Y-120286981D02*
X85650677Y-120297573D01*
X85682865Y-120314778D01*
X85711073Y-120337927D01*
X85734222Y-120366135D01*
X85751427Y-120398323D01*
X85762019Y-120433238D01*
X85766200Y-120475695D01*
X85766200Y-121941905D01*
X85762019Y-121984362D01*
X85751427Y-122019277D01*
X85734222Y-122051465D01*
X85711073Y-122079673D01*
X85682865Y-122102822D01*
X85650677Y-122120027D01*
X85615762Y-122130619D01*
X85573305Y-122134800D01*
X84432095Y-122134800D01*
X84389638Y-122130619D01*
X84354723Y-122120027D01*
X84322535Y-122102822D01*
X84294327Y-122079673D01*
X84271178Y-122051465D01*
X84253973Y-122019277D01*
X84243381Y-121984362D01*
X84239200Y-121941905D01*
X84239200Y-120475695D01*
X84243381Y-120433238D01*
X84253973Y-120398323D01*
X84271178Y-120366135D01*
X84294327Y-120337927D01*
X84322535Y-120314778D01*
X84354723Y-120297573D01*
X84389638Y-120286981D01*
X84432095Y-120282800D01*
X85573305Y-120282800D01*
X85615762Y-120286981D01*
X85615762Y-120286981D01*
G37*
G36*
X130866000Y-120731000D02*
X121864000Y-120731000D01*
X121864000Y-118879000D01*
X130866000Y-118879000D01*
X130866000Y-120731000D01*
X130866000Y-120731000D01*
G37*
G36*
X148923500Y-119031886D02*
X148924102Y-119044138D01*
X148926649Y-119070000D01*
X148924102Y-119095862D01*
X148923500Y-119108114D01*
X148923500Y-119181407D01*
X148914543Y-119198165D01*
X148910413Y-119209708D01*
X148896788Y-119254622D01*
X148876855Y-119320333D01*
X148843194Y-119383308D01*
X148816405Y-119433426D01*
X148735053Y-119532553D01*
X148635926Y-119613905D01*
X148635924Y-119613906D01*
X148522833Y-119674355D01*
X148481927Y-119686763D01*
X148400118Y-119711580D01*
X148336355Y-119717860D01*
X148304474Y-119721000D01*
X147540526Y-119721000D01*
X147508645Y-119717860D01*
X147444882Y-119711580D01*
X147363073Y-119686763D01*
X147322167Y-119674355D01*
X147209076Y-119613906D01*
X147209074Y-119613905D01*
X147109947Y-119532553D01*
X147028595Y-119433426D01*
X147001806Y-119383308D01*
X146968145Y-119320333D01*
X146948212Y-119254622D01*
X146934588Y-119209711D01*
X146925212Y-119187076D01*
X146921500Y-119181520D01*
X146921500Y-119108114D01*
X146920898Y-119095862D01*
X146918351Y-119070000D01*
X146920898Y-119044138D01*
X146921500Y-119031886D01*
X146921500Y-117819000D01*
X148923500Y-117819000D01*
X148923500Y-119031886D01*
X148923500Y-119031886D01*
G37*
G36*
X112332362Y-117880881D02*
X112367277Y-117891473D01*
X112399465Y-117908678D01*
X112427673Y-117931827D01*
X112450822Y-117960035D01*
X112468027Y-117992223D01*
X112478619Y-118027138D01*
X112482800Y-118069595D01*
X112482800Y-119210805D01*
X112478619Y-119253262D01*
X112468027Y-119288177D01*
X112450822Y-119320365D01*
X112427673Y-119348573D01*
X112399465Y-119371722D01*
X112367277Y-119388927D01*
X112332362Y-119399519D01*
X112289905Y-119403700D01*
X110823695Y-119403700D01*
X110781238Y-119399519D01*
X110746323Y-119388927D01*
X110714135Y-119371722D01*
X110685927Y-119348573D01*
X110662778Y-119320365D01*
X110645573Y-119288177D01*
X110634981Y-119253262D01*
X110630800Y-119210805D01*
X110630800Y-118069595D01*
X110634981Y-118027138D01*
X110645573Y-117992223D01*
X110662778Y-117960035D01*
X110685927Y-117931827D01*
X110714135Y-117908678D01*
X110746323Y-117891473D01*
X110781238Y-117880881D01*
X110823695Y-117876700D01*
X112289905Y-117876700D01*
X112332362Y-117880881D01*
X112332362Y-117880881D01*
G37*
G36*
X137709652Y-117525864D02*
X137744567Y-117536456D01*
X137776755Y-117553661D01*
X137804963Y-117576810D01*
X137828112Y-117605018D01*
X137845317Y-117637206D01*
X137855909Y-117672121D01*
X137860090Y-117714578D01*
X137860090Y-119180788D01*
X137855909Y-119223245D01*
X137845317Y-119258160D01*
X137828112Y-119290348D01*
X137804963Y-119318556D01*
X137776755Y-119341705D01*
X137744567Y-119358910D01*
X137709652Y-119369502D01*
X137667195Y-119373683D01*
X136525985Y-119373683D01*
X136483528Y-119369502D01*
X136448613Y-119358910D01*
X136416425Y-119341705D01*
X136388217Y-119318556D01*
X136365068Y-119290348D01*
X136347863Y-119258160D01*
X136337271Y-119223245D01*
X136333090Y-119180788D01*
X136333090Y-117714578D01*
X136337271Y-117672121D01*
X136347863Y-117637206D01*
X136365068Y-117605018D01*
X136388217Y-117576810D01*
X136416425Y-117553661D01*
X136448613Y-117536456D01*
X136483528Y-117525864D01*
X136525985Y-117521683D01*
X137667195Y-117521683D01*
X137709652Y-117525864D01*
X137709652Y-117525864D01*
G37*
G36*
X140684652Y-117525864D02*
X140719567Y-117536456D01*
X140751755Y-117553661D01*
X140779963Y-117576810D01*
X140803112Y-117605018D01*
X140820317Y-117637206D01*
X140830909Y-117672121D01*
X140835090Y-117714578D01*
X140835090Y-119180788D01*
X140830909Y-119223245D01*
X140820317Y-119258160D01*
X140803112Y-119290348D01*
X140779963Y-119318556D01*
X140751755Y-119341705D01*
X140719567Y-119358910D01*
X140684652Y-119369502D01*
X140642195Y-119373683D01*
X139500985Y-119373683D01*
X139458528Y-119369502D01*
X139423613Y-119358910D01*
X139391425Y-119341705D01*
X139363217Y-119318556D01*
X139340068Y-119290348D01*
X139322863Y-119258160D01*
X139312271Y-119223245D01*
X139308090Y-119180788D01*
X139308090Y-117714578D01*
X139312271Y-117672121D01*
X139322863Y-117637206D01*
X139340068Y-117605018D01*
X139363217Y-117576810D01*
X139391425Y-117553661D01*
X139423613Y-117536456D01*
X139458528Y-117525864D01*
X139500985Y-117521683D01*
X140642195Y-117521683D01*
X140684652Y-117525864D01*
X140684652Y-117525864D01*
G37*
G36*
X108471562Y-117830081D02*
X108506477Y-117840673D01*
X108538665Y-117857878D01*
X108566873Y-117881027D01*
X108590022Y-117909235D01*
X108607227Y-117941423D01*
X108617819Y-117976338D01*
X108622000Y-118018795D01*
X108622000Y-119160005D01*
X108617819Y-119202462D01*
X108607227Y-119237377D01*
X108590022Y-119269565D01*
X108566873Y-119297773D01*
X108538665Y-119320922D01*
X108506477Y-119338127D01*
X108471562Y-119348719D01*
X108429105Y-119352900D01*
X106962895Y-119352900D01*
X106920438Y-119348719D01*
X106885523Y-119338127D01*
X106853335Y-119320922D01*
X106825127Y-119297773D01*
X106801978Y-119269565D01*
X106784773Y-119237377D01*
X106774181Y-119202462D01*
X106770000Y-119160005D01*
X106770000Y-118018795D01*
X106774181Y-117976338D01*
X106784773Y-117941423D01*
X106801978Y-117909235D01*
X106825127Y-117881027D01*
X106853335Y-117857878D01*
X106885523Y-117840673D01*
X106920438Y-117830081D01*
X106962895Y-117825900D01*
X108429105Y-117825900D01*
X108471562Y-117830081D01*
X108471562Y-117830081D01*
G37*
G36*
X75949727Y-114533990D02*
X75949729Y-114533991D01*
X75949730Y-114533991D01*
X76395784Y-114718752D01*
X76739678Y-114948535D01*
X76797224Y-114986986D01*
X77138614Y-115328376D01*
X77138616Y-115328379D01*
X77406848Y-115729816D01*
X77507442Y-115972673D01*
X77591610Y-116175873D01*
X77685800Y-116649396D01*
X77685800Y-117132204D01*
X77592720Y-117600148D01*
X77591609Y-117605730D01*
X77406848Y-118051784D01*
X77149071Y-118437574D01*
X77138614Y-118453224D01*
X76797224Y-118794614D01*
X76797221Y-118794616D01*
X76395784Y-119062848D01*
X75949730Y-119247609D01*
X75949729Y-119247609D01*
X75949727Y-119247610D01*
X75476204Y-119341800D01*
X74993396Y-119341800D01*
X74519873Y-119247610D01*
X74519871Y-119247609D01*
X74519870Y-119247609D01*
X74073816Y-119062848D01*
X73672379Y-118794616D01*
X73672376Y-118794614D01*
X73330986Y-118453224D01*
X73320529Y-118437574D01*
X73062752Y-118051784D01*
X72877991Y-117605730D01*
X72876881Y-117600148D01*
X72783800Y-117132204D01*
X72783800Y-116649396D01*
X72877990Y-116175873D01*
X72962158Y-115972673D01*
X73062752Y-115729816D01*
X73330984Y-115328379D01*
X73330986Y-115328376D01*
X73672376Y-114986986D01*
X73729922Y-114948535D01*
X74073816Y-114718752D01*
X74519870Y-114533991D01*
X74519871Y-114533991D01*
X74519873Y-114533990D01*
X74993396Y-114439800D01*
X75476204Y-114439800D01*
X75949727Y-114533990D01*
X75949727Y-114533990D01*
G37*
G36*
X99216127Y-114330790D02*
X99216129Y-114330791D01*
X99216130Y-114330791D01*
X99662184Y-114515552D01*
X99907531Y-114679488D01*
X100063624Y-114783786D01*
X100405014Y-115125176D01*
X100405016Y-115125179D01*
X100673248Y-115526616D01*
X100773646Y-115769000D01*
X100858010Y-115972673D01*
X100952200Y-116446196D01*
X100952200Y-116929004D01*
X100862030Y-117382318D01*
X100858009Y-117402530D01*
X100673248Y-117848584D01*
X100406226Y-118248210D01*
X100405014Y-118250024D01*
X100063624Y-118591414D01*
X100063621Y-118591416D01*
X99662184Y-118859648D01*
X99216130Y-119044409D01*
X99216129Y-119044409D01*
X99216127Y-119044410D01*
X98742604Y-119138600D01*
X98259796Y-119138600D01*
X97786273Y-119044410D01*
X97786271Y-119044409D01*
X97786270Y-119044409D01*
X97340216Y-118859648D01*
X96938779Y-118591416D01*
X96938776Y-118591414D01*
X96597386Y-118250024D01*
X96596174Y-118248210D01*
X96329152Y-117848584D01*
X96144391Y-117402530D01*
X96140371Y-117382318D01*
X96050200Y-116929004D01*
X96050200Y-116446196D01*
X96144390Y-115972673D01*
X96228754Y-115769000D01*
X96329152Y-115526616D01*
X96597384Y-115125179D01*
X96597386Y-115125176D01*
X96938776Y-114783786D01*
X97094869Y-114679488D01*
X97340216Y-114515552D01*
X97786270Y-114330791D01*
X97786271Y-114330791D01*
X97786273Y-114330790D01*
X98259796Y-114236600D01*
X98742604Y-114236600D01*
X99216127Y-114330790D01*
X99216127Y-114330790D01*
G37*
G36*
X145448849Y-112323820D02*
X145448852Y-112323821D01*
X145448851Y-112323821D01*
X145590074Y-112382317D01*
X145715456Y-112466095D01*
X145717174Y-112467243D01*
X145825257Y-112575326D01*
X145825259Y-112575329D01*
X145910183Y-112702426D01*
X145955427Y-112811657D01*
X145968680Y-112843651D01*
X145998500Y-112993569D01*
X145998500Y-113146431D01*
X145968680Y-113296349D01*
X145960201Y-113316819D01*
X145910183Y-113437574D01*
X145910182Y-113437575D01*
X145825257Y-113564674D01*
X145717174Y-113672757D01*
X145717171Y-113672759D01*
X145590074Y-113757683D01*
X145539778Y-113778516D01*
X145518169Y-113790067D01*
X145499227Y-113805612D01*
X145483682Y-113824554D01*
X145472131Y-113846165D01*
X145465018Y-113869614D01*
X145462616Y-113894000D01*
X145465018Y-113918387D01*
X145472131Y-113941836D01*
X145483683Y-113963447D01*
X145499228Y-113982389D01*
X145518170Y-113997934D01*
X145539781Y-114009485D01*
X145563230Y-114016598D01*
X145587616Y-114019000D01*
X145948500Y-114019000D01*
X145948500Y-117121000D01*
X145587616Y-117121000D01*
X145563230Y-117123402D01*
X145539781Y-117130515D01*
X145518170Y-117142066D01*
X145499228Y-117157612D01*
X145483682Y-117176554D01*
X145472131Y-117198165D01*
X145465018Y-117221614D01*
X145462616Y-117246000D01*
X145465018Y-117270386D01*
X145472131Y-117293835D01*
X145483682Y-117315446D01*
X145499228Y-117334388D01*
X145518170Y-117349934D01*
X145539778Y-117361484D01*
X145590074Y-117382317D01*
X145715456Y-117466095D01*
X145717174Y-117467243D01*
X145825257Y-117575326D01*
X145825259Y-117575329D01*
X145910183Y-117702426D01*
X145915216Y-117714578D01*
X145968680Y-117843651D01*
X145998500Y-117993569D01*
X145998500Y-118146431D01*
X145968680Y-118296349D01*
X145968679Y-118296351D01*
X145910183Y-118437574D01*
X145910182Y-118437575D01*
X145825257Y-118564674D01*
X145717174Y-118672757D01*
X145717171Y-118672759D01*
X145590074Y-118757683D01*
X145500914Y-118794614D01*
X145448849Y-118816180D01*
X145298931Y-118846000D01*
X145146069Y-118846000D01*
X144996151Y-118816180D01*
X144944086Y-118794614D01*
X144854926Y-118757683D01*
X144727829Y-118672759D01*
X144727826Y-118672757D01*
X144619743Y-118564674D01*
X144534818Y-118437575D01*
X144534817Y-118437574D01*
X144476321Y-118296351D01*
X144476320Y-118296349D01*
X144446500Y-118146431D01*
X144446500Y-117993569D01*
X144476320Y-117843651D01*
X144529784Y-117714578D01*
X144534817Y-117702426D01*
X144619741Y-117575329D01*
X144619743Y-117575326D01*
X144727826Y-117467243D01*
X144729544Y-117466095D01*
X144854926Y-117382317D01*
X144905222Y-117361484D01*
X144926831Y-117349933D01*
X144945773Y-117334388D01*
X144961318Y-117315446D01*
X144972869Y-117293835D01*
X144979982Y-117270386D01*
X144982384Y-117246000D01*
X144979982Y-117221613D01*
X144972869Y-117198164D01*
X144961317Y-117176553D01*
X144945772Y-117157611D01*
X144926830Y-117142066D01*
X144905219Y-117130515D01*
X144881770Y-117123402D01*
X144857384Y-117121000D01*
X144496500Y-117121000D01*
X144496500Y-114019000D01*
X144857384Y-114019000D01*
X144881770Y-114016598D01*
X144905219Y-114009485D01*
X144926830Y-113997934D01*
X144945772Y-113982388D01*
X144961318Y-113963446D01*
X144972869Y-113941835D01*
X144979982Y-113918386D01*
X144982384Y-113894000D01*
X144979982Y-113869614D01*
X144972869Y-113846165D01*
X144961318Y-113824554D01*
X144945772Y-113805612D01*
X144926830Y-113790066D01*
X144905222Y-113778516D01*
X144854926Y-113757683D01*
X144727829Y-113672759D01*
X144727826Y-113672757D01*
X144619743Y-113564674D01*
X144534818Y-113437575D01*
X144534817Y-113437574D01*
X144484799Y-113316819D01*
X144476320Y-113296349D01*
X144446500Y-113146431D01*
X144446500Y-112993569D01*
X144476320Y-112843651D01*
X144489573Y-112811657D01*
X144534817Y-112702426D01*
X144619741Y-112575329D01*
X144619743Y-112575326D01*
X144727826Y-112467243D01*
X144729544Y-112466095D01*
X144854926Y-112382317D01*
X144996149Y-112323821D01*
X144996148Y-112323821D01*
X144996151Y-112323820D01*
X145146069Y-112294000D01*
X145298931Y-112294000D01*
X145448849Y-112323820D01*
X145448849Y-112323820D01*
G37*
G36*
X148923500Y-117371000D02*
X146921500Y-117371000D01*
X146921500Y-115769000D01*
X148923500Y-115769000D01*
X148923500Y-117371000D01*
X148923500Y-117371000D01*
G37*
G36*
X56259485Y-113048996D02*
X56259487Y-113048997D01*
X56259488Y-113048997D01*
X56330659Y-113078477D01*
X56496255Y-113147069D01*
X56709342Y-113289449D01*
X56890551Y-113470658D01*
X56890553Y-113470661D01*
X57032931Y-113683745D01*
X57109883Y-113869523D01*
X57131004Y-113920515D01*
X57181000Y-114171861D01*
X57181000Y-114428139D01*
X57133090Y-114669000D01*
X57131003Y-114679488D01*
X57087802Y-114783784D01*
X57032931Y-114916255D01*
X56890551Y-115129342D01*
X56709342Y-115310551D01*
X56709339Y-115310553D01*
X56496255Y-115452931D01*
X56259488Y-115551003D01*
X56259487Y-115551003D01*
X56259485Y-115551004D01*
X56008139Y-115601000D01*
X55751861Y-115601000D01*
X55500515Y-115551004D01*
X55500513Y-115551003D01*
X55500512Y-115551003D01*
X55263745Y-115452931D01*
X55050661Y-115310553D01*
X55050658Y-115310551D01*
X54869449Y-115129342D01*
X54727069Y-114916255D01*
X54672198Y-114783784D01*
X54628997Y-114679488D01*
X54626911Y-114669000D01*
X54579000Y-114428139D01*
X54579000Y-114171861D01*
X54628996Y-113920515D01*
X54650118Y-113869523D01*
X54727069Y-113683745D01*
X54869447Y-113470661D01*
X54869449Y-113470658D01*
X55050658Y-113289449D01*
X55263745Y-113147069D01*
X55429341Y-113078477D01*
X55500512Y-113048997D01*
X55500513Y-113048997D01*
X55500515Y-113048996D01*
X55751861Y-112999000D01*
X56008139Y-112999000D01*
X56259485Y-113048996D01*
X56259485Y-113048996D01*
G37*
G36*
X85296662Y-113530581D02*
X85331577Y-113541173D01*
X85363765Y-113558378D01*
X85391973Y-113581527D01*
X85415122Y-113609735D01*
X85432327Y-113641923D01*
X85442919Y-113676838D01*
X85447100Y-113719295D01*
X85447100Y-115185505D01*
X85442919Y-115227962D01*
X85432327Y-115262877D01*
X85415122Y-115295065D01*
X85391973Y-115323273D01*
X85363765Y-115346422D01*
X85331577Y-115363627D01*
X85296662Y-115374219D01*
X85254205Y-115378400D01*
X84112995Y-115378400D01*
X84070538Y-115374219D01*
X84035623Y-115363627D01*
X84003435Y-115346422D01*
X83975227Y-115323273D01*
X83952078Y-115295065D01*
X83934873Y-115262877D01*
X83924281Y-115227962D01*
X83920100Y-115185505D01*
X83920100Y-113719295D01*
X83924281Y-113676838D01*
X83934873Y-113641923D01*
X83952078Y-113609735D01*
X83975227Y-113581527D01*
X84003435Y-113558378D01*
X84035623Y-113541173D01*
X84070538Y-113530581D01*
X84112995Y-113526400D01*
X85254205Y-113526400D01*
X85296662Y-113530581D01*
X85296662Y-113530581D01*
G37*
G36*
X82321662Y-113530581D02*
X82356577Y-113541173D01*
X82388765Y-113558378D01*
X82416973Y-113581527D01*
X82440122Y-113609735D01*
X82457327Y-113641923D01*
X82467919Y-113676838D01*
X82472100Y-113719295D01*
X82472100Y-115185505D01*
X82467919Y-115227962D01*
X82457327Y-115262877D01*
X82440122Y-115295065D01*
X82416973Y-115323273D01*
X82388765Y-115346422D01*
X82356577Y-115363627D01*
X82321662Y-115374219D01*
X82279205Y-115378400D01*
X81137995Y-115378400D01*
X81095538Y-115374219D01*
X81060623Y-115363627D01*
X81028435Y-115346422D01*
X81000227Y-115323273D01*
X80977078Y-115295065D01*
X80959873Y-115262877D01*
X80949281Y-115227962D01*
X80945100Y-115185505D01*
X80945100Y-113719295D01*
X80949281Y-113676838D01*
X80959873Y-113641923D01*
X80977078Y-113609735D01*
X81000227Y-113581527D01*
X81028435Y-113558378D01*
X81060623Y-113541173D01*
X81095538Y-113530581D01*
X81137995Y-113526400D01*
X82279205Y-113526400D01*
X82321662Y-113530581D01*
X82321662Y-113530581D01*
G37*
G36*
X148923500Y-115371000D02*
X146921500Y-115371000D01*
X146921500Y-113769000D01*
X148923500Y-113769000D01*
X148923500Y-115371000D01*
X148923500Y-115371000D01*
G37*
G36*
X118123562Y-113758181D02*
X118158477Y-113768773D01*
X118190665Y-113785978D01*
X118218873Y-113809127D01*
X118242022Y-113837335D01*
X118259227Y-113869523D01*
X118269819Y-113904438D01*
X118274000Y-113946895D01*
X118274000Y-115088105D01*
X118269819Y-115130562D01*
X118259227Y-115165477D01*
X118242022Y-115197665D01*
X118218873Y-115225873D01*
X118190665Y-115249022D01*
X118158477Y-115266227D01*
X118123562Y-115276819D01*
X118081105Y-115281000D01*
X116614895Y-115281000D01*
X116572438Y-115276819D01*
X116537523Y-115266227D01*
X116505335Y-115249022D01*
X116477127Y-115225873D01*
X116453978Y-115197665D01*
X116436773Y-115165477D01*
X116426181Y-115130562D01*
X116422000Y-115088105D01*
X116422000Y-113946895D01*
X116426181Y-113904438D01*
X116436773Y-113869523D01*
X116453978Y-113837335D01*
X116477127Y-113809127D01*
X116505335Y-113785978D01*
X116537523Y-113768773D01*
X116572438Y-113758181D01*
X116614895Y-113754000D01*
X118081105Y-113754000D01*
X118123562Y-113758181D01*
X118123562Y-113758181D01*
G37*
G36*
X142405962Y-113504181D02*
X142440877Y-113514773D01*
X142473065Y-113531978D01*
X142501273Y-113555127D01*
X142524422Y-113583335D01*
X142541627Y-113615523D01*
X142552219Y-113650438D01*
X142556400Y-113692895D01*
X142556400Y-114834105D01*
X142552219Y-114876562D01*
X142541627Y-114911477D01*
X142524422Y-114943665D01*
X142501273Y-114971873D01*
X142473065Y-114995022D01*
X142440877Y-115012227D01*
X142405962Y-115022819D01*
X142363505Y-115027000D01*
X140897295Y-115027000D01*
X140854838Y-115022819D01*
X140819923Y-115012227D01*
X140787735Y-114995022D01*
X140759527Y-114971873D01*
X140736378Y-114943665D01*
X140719173Y-114911477D01*
X140708581Y-114876562D01*
X140704400Y-114834105D01*
X140704400Y-113692895D01*
X140708581Y-113650438D01*
X140719173Y-113615523D01*
X140736378Y-113583335D01*
X140759527Y-113555127D01*
X140787735Y-113531978D01*
X140819923Y-113514773D01*
X140854838Y-113504181D01*
X140897295Y-113500000D01*
X142363505Y-113500000D01*
X142405962Y-113504181D01*
X142405962Y-113504181D01*
G37*
G36*
X130866000Y-113531000D02*
X121864000Y-113531000D01*
X121864000Y-111679000D01*
X130866000Y-111679000D01*
X130866000Y-113531000D01*
X130866000Y-113531000D01*
G37*
G36*
X148319348Y-111420465D02*
X148400118Y-111428420D01*
X148481927Y-111453237D01*
X148522833Y-111465645D01*
X148600905Y-111507376D01*
X148635926Y-111526095D01*
X148735053Y-111607447D01*
X148816405Y-111706574D01*
X148816406Y-111706576D01*
X148876855Y-111819667D01*
X148910410Y-111930285D01*
X148919788Y-111952924D01*
X148923500Y-111958480D01*
X148923500Y-112031886D01*
X148924102Y-112044138D01*
X148926649Y-112070000D01*
X148924102Y-112095862D01*
X148923500Y-112108114D01*
X148923500Y-113321000D01*
X146921500Y-113321000D01*
X146921500Y-112108114D01*
X146920898Y-112095862D01*
X146918351Y-112070000D01*
X146920898Y-112044138D01*
X146921500Y-112031886D01*
X146921500Y-111958593D01*
X146930457Y-111941835D01*
X146934590Y-111930285D01*
X146968145Y-111819667D01*
X147028594Y-111706576D01*
X147028595Y-111706574D01*
X147109947Y-111607447D01*
X147209074Y-111526095D01*
X147244095Y-111507376D01*
X147322167Y-111465645D01*
X147363073Y-111453237D01*
X147444882Y-111428420D01*
X147525652Y-111420465D01*
X147540526Y-111419000D01*
X148304474Y-111419000D01*
X148319348Y-111420465D01*
X148319348Y-111420465D01*
G37*
G36*
X65600562Y-111473181D02*
X65635477Y-111483773D01*
X65667665Y-111500978D01*
X65695873Y-111524127D01*
X65719022Y-111552335D01*
X65736227Y-111584523D01*
X65746819Y-111619438D01*
X65751000Y-111661895D01*
X65751000Y-113128105D01*
X65746819Y-113170562D01*
X65736227Y-113205477D01*
X65719022Y-113237665D01*
X65695873Y-113265873D01*
X65667665Y-113289022D01*
X65635477Y-113306227D01*
X65600562Y-113316819D01*
X65558105Y-113321000D01*
X64416895Y-113321000D01*
X64374438Y-113316819D01*
X64339523Y-113306227D01*
X64307335Y-113289022D01*
X64279127Y-113265873D01*
X64255978Y-113237665D01*
X64238773Y-113205477D01*
X64228181Y-113170562D01*
X64224000Y-113128105D01*
X64224000Y-111661895D01*
X64228181Y-111619438D01*
X64238773Y-111584523D01*
X64255978Y-111552335D01*
X64279127Y-111524127D01*
X64307335Y-111500978D01*
X64339523Y-111483773D01*
X64374438Y-111473181D01*
X64416895Y-111469000D01*
X65558105Y-111469000D01*
X65600562Y-111473181D01*
X65600562Y-111473181D01*
G37*
G36*
X62625562Y-111473181D02*
X62660477Y-111483773D01*
X62692665Y-111500978D01*
X62720873Y-111524127D01*
X62744022Y-111552335D01*
X62761227Y-111584523D01*
X62771819Y-111619438D01*
X62776000Y-111661895D01*
X62776000Y-113128105D01*
X62771819Y-113170562D01*
X62761227Y-113205477D01*
X62744022Y-113237665D01*
X62720873Y-113265873D01*
X62692665Y-113289022D01*
X62660477Y-113306227D01*
X62625562Y-113316819D01*
X62583105Y-113321000D01*
X61441895Y-113321000D01*
X61399438Y-113316819D01*
X61364523Y-113306227D01*
X61332335Y-113289022D01*
X61304127Y-113265873D01*
X61280978Y-113237665D01*
X61263773Y-113205477D01*
X61253181Y-113170562D01*
X61249000Y-113128105D01*
X61249000Y-111661895D01*
X61253181Y-111619438D01*
X61263773Y-111584523D01*
X61280978Y-111552335D01*
X61304127Y-111524127D01*
X61332335Y-111500978D01*
X61364523Y-111483773D01*
X61399438Y-111473181D01*
X61441895Y-111469000D01*
X62583105Y-111469000D01*
X62625562Y-111473181D01*
X62625562Y-111473181D01*
G37*
G36*
X71950562Y-111473181D02*
X71985477Y-111483773D01*
X72017665Y-111500978D01*
X72045873Y-111524127D01*
X72069022Y-111552335D01*
X72086227Y-111584523D01*
X72096819Y-111619438D01*
X72101000Y-111661895D01*
X72101000Y-113128105D01*
X72096819Y-113170562D01*
X72086227Y-113205477D01*
X72069022Y-113237665D01*
X72045873Y-113265873D01*
X72017665Y-113289022D01*
X71985477Y-113306227D01*
X71950562Y-113316819D01*
X71908105Y-113321000D01*
X70766895Y-113321000D01*
X70724438Y-113316819D01*
X70689523Y-113306227D01*
X70657335Y-113289022D01*
X70629127Y-113265873D01*
X70605978Y-113237665D01*
X70588773Y-113205477D01*
X70578181Y-113170562D01*
X70574000Y-113128105D01*
X70574000Y-111661895D01*
X70578181Y-111619438D01*
X70588773Y-111584523D01*
X70605978Y-111552335D01*
X70629127Y-111524127D01*
X70657335Y-111500978D01*
X70689523Y-111483773D01*
X70724438Y-111473181D01*
X70766895Y-111469000D01*
X71908105Y-111469000D01*
X71950562Y-111473181D01*
X71950562Y-111473181D01*
G37*
G36*
X68975562Y-111473181D02*
X69010477Y-111483773D01*
X69042665Y-111500978D01*
X69070873Y-111524127D01*
X69094022Y-111552335D01*
X69111227Y-111584523D01*
X69121819Y-111619438D01*
X69126000Y-111661895D01*
X69126000Y-113128105D01*
X69121819Y-113170562D01*
X69111227Y-113205477D01*
X69094022Y-113237665D01*
X69070873Y-113265873D01*
X69042665Y-113289022D01*
X69010477Y-113306227D01*
X68975562Y-113316819D01*
X68933105Y-113321000D01*
X67791895Y-113321000D01*
X67749438Y-113316819D01*
X67714523Y-113306227D01*
X67682335Y-113289022D01*
X67654127Y-113265873D01*
X67630978Y-113237665D01*
X67613773Y-113205477D01*
X67603181Y-113170562D01*
X67599000Y-113128105D01*
X67599000Y-111661895D01*
X67603181Y-111619438D01*
X67613773Y-111584523D01*
X67630978Y-111552335D01*
X67654127Y-111524127D01*
X67682335Y-111500978D01*
X67714523Y-111483773D01*
X67749438Y-111473181D01*
X67791895Y-111469000D01*
X68933105Y-111469000D01*
X68975562Y-111473181D01*
X68975562Y-111473181D01*
G37*
G36*
X134471062Y-111346181D02*
X134505977Y-111356773D01*
X134538165Y-111373978D01*
X134566373Y-111397127D01*
X134589522Y-111425335D01*
X134606727Y-111457523D01*
X134617319Y-111492438D01*
X134621500Y-111534895D01*
X134621500Y-113001105D01*
X134617319Y-113043562D01*
X134606727Y-113078477D01*
X134589522Y-113110665D01*
X134566373Y-113138873D01*
X134538165Y-113162022D01*
X134505977Y-113179227D01*
X134471062Y-113189819D01*
X134428605Y-113194000D01*
X133287395Y-113194000D01*
X133244938Y-113189819D01*
X133210023Y-113179227D01*
X133177835Y-113162022D01*
X133149627Y-113138873D01*
X133126478Y-113110665D01*
X133109273Y-113078477D01*
X133098681Y-113043562D01*
X133094500Y-113001105D01*
X133094500Y-111534895D01*
X133098681Y-111492438D01*
X133109273Y-111457523D01*
X133126478Y-111425335D01*
X133149627Y-111397127D01*
X133177835Y-111373978D01*
X133210023Y-111356773D01*
X133244938Y-111346181D01*
X133287395Y-111342000D01*
X134428605Y-111342000D01*
X134471062Y-111346181D01*
X134471062Y-111346181D01*
G37*
G36*
X137446062Y-111346181D02*
X137480977Y-111356773D01*
X137513165Y-111373978D01*
X137541373Y-111397127D01*
X137564522Y-111425335D01*
X137581727Y-111457523D01*
X137592319Y-111492438D01*
X137596500Y-111534895D01*
X137596500Y-113001105D01*
X137592319Y-113043562D01*
X137581727Y-113078477D01*
X137564522Y-113110665D01*
X137541373Y-113138873D01*
X137513165Y-113162022D01*
X137480977Y-113179227D01*
X137446062Y-113189819D01*
X137403605Y-113194000D01*
X136262395Y-113194000D01*
X136219938Y-113189819D01*
X136185023Y-113179227D01*
X136152835Y-113162022D01*
X136124627Y-113138873D01*
X136101478Y-113110665D01*
X136084273Y-113078477D01*
X136073681Y-113043562D01*
X136069500Y-113001105D01*
X136069500Y-111534895D01*
X136073681Y-111492438D01*
X136084273Y-111457523D01*
X136101478Y-111425335D01*
X136124627Y-111397127D01*
X136152835Y-111373978D01*
X136185023Y-111356773D01*
X136219938Y-111346181D01*
X136262395Y-111342000D01*
X137403605Y-111342000D01*
X137446062Y-111346181D01*
X137446062Y-111346181D01*
G37*
G36*
X112590562Y-110838181D02*
X112625477Y-110848773D01*
X112657665Y-110865978D01*
X112685873Y-110889127D01*
X112709022Y-110917335D01*
X112726227Y-110949523D01*
X112736819Y-110984438D01*
X112741000Y-111026895D01*
X112741000Y-112493105D01*
X112736819Y-112535562D01*
X112726227Y-112570477D01*
X112709022Y-112602665D01*
X112685873Y-112630873D01*
X112657665Y-112654022D01*
X112625477Y-112671227D01*
X112590562Y-112681819D01*
X112548105Y-112686000D01*
X111406895Y-112686000D01*
X111364438Y-112681819D01*
X111329523Y-112671227D01*
X111297335Y-112654022D01*
X111269127Y-112630873D01*
X111245978Y-112602665D01*
X111228773Y-112570477D01*
X111218181Y-112535562D01*
X111214000Y-112493105D01*
X111214000Y-111026895D01*
X111218181Y-110984438D01*
X111228773Y-110949523D01*
X111245978Y-110917335D01*
X111269127Y-110889127D01*
X111297335Y-110865978D01*
X111329523Y-110848773D01*
X111364438Y-110838181D01*
X111406895Y-110834000D01*
X112548105Y-110834000D01*
X112590562Y-110838181D01*
X112590562Y-110838181D01*
G37*
G36*
X104970562Y-110838181D02*
X105005477Y-110848773D01*
X105037665Y-110865978D01*
X105065873Y-110889127D01*
X105089022Y-110917335D01*
X105106227Y-110949523D01*
X105116819Y-110984438D01*
X105121000Y-111026895D01*
X105121000Y-112493105D01*
X105116819Y-112535562D01*
X105106227Y-112570477D01*
X105089022Y-112602665D01*
X105065873Y-112630873D01*
X105037665Y-112654022D01*
X105005477Y-112671227D01*
X104970562Y-112681819D01*
X104928105Y-112686000D01*
X103786895Y-112686000D01*
X103744438Y-112681819D01*
X103709523Y-112671227D01*
X103677335Y-112654022D01*
X103649127Y-112630873D01*
X103625978Y-112602665D01*
X103608773Y-112570477D01*
X103598181Y-112535562D01*
X103594000Y-112493105D01*
X103594000Y-111026895D01*
X103598181Y-110984438D01*
X103608773Y-110949523D01*
X103625978Y-110917335D01*
X103649127Y-110889127D01*
X103677335Y-110865978D01*
X103709523Y-110848773D01*
X103744438Y-110838181D01*
X103786895Y-110834000D01*
X104928105Y-110834000D01*
X104970562Y-110838181D01*
X104970562Y-110838181D01*
G37*
G36*
X109615562Y-110838181D02*
X109650477Y-110848773D01*
X109682665Y-110865978D01*
X109710873Y-110889127D01*
X109734022Y-110917335D01*
X109751227Y-110949523D01*
X109761819Y-110984438D01*
X109766000Y-111026895D01*
X109766000Y-112493105D01*
X109761819Y-112535562D01*
X109751227Y-112570477D01*
X109734022Y-112602665D01*
X109710873Y-112630873D01*
X109682665Y-112654022D01*
X109650477Y-112671227D01*
X109615562Y-112681819D01*
X109573105Y-112686000D01*
X108431895Y-112686000D01*
X108389438Y-112681819D01*
X108354523Y-112671227D01*
X108322335Y-112654022D01*
X108294127Y-112630873D01*
X108270978Y-112602665D01*
X108253773Y-112570477D01*
X108243181Y-112535562D01*
X108239000Y-112493105D01*
X108239000Y-111026895D01*
X108243181Y-110984438D01*
X108253773Y-110949523D01*
X108270978Y-110917335D01*
X108294127Y-110889127D01*
X108322335Y-110865978D01*
X108354523Y-110848773D01*
X108389438Y-110838181D01*
X108431895Y-110834000D01*
X109573105Y-110834000D01*
X109615562Y-110838181D01*
X109615562Y-110838181D01*
G37*
G36*
X101995562Y-110838181D02*
X102030477Y-110848773D01*
X102062665Y-110865978D01*
X102090873Y-110889127D01*
X102114022Y-110917335D01*
X102131227Y-110949523D01*
X102141819Y-110984438D01*
X102146000Y-111026895D01*
X102146000Y-112493105D01*
X102141819Y-112535562D01*
X102131227Y-112570477D01*
X102114022Y-112602665D01*
X102090873Y-112630873D01*
X102062665Y-112654022D01*
X102030477Y-112671227D01*
X101995562Y-112681819D01*
X101953105Y-112686000D01*
X100811895Y-112686000D01*
X100769438Y-112681819D01*
X100734523Y-112671227D01*
X100702335Y-112654022D01*
X100674127Y-112630873D01*
X100650978Y-112602665D01*
X100633773Y-112570477D01*
X100623181Y-112535562D01*
X100619000Y-112493105D01*
X100619000Y-111026895D01*
X100623181Y-110984438D01*
X100633773Y-110949523D01*
X100650978Y-110917335D01*
X100674127Y-110889127D01*
X100702335Y-110865978D01*
X100734523Y-110848773D01*
X100769438Y-110838181D01*
X100811895Y-110834000D01*
X101953105Y-110834000D01*
X101995562Y-110838181D01*
X101995562Y-110838181D01*
G37*
G36*
X95228062Y-110838181D02*
X95262977Y-110848773D01*
X95295165Y-110865978D01*
X95323373Y-110889127D01*
X95346522Y-110917335D01*
X95363727Y-110949523D01*
X95374319Y-110984438D01*
X95378500Y-111026895D01*
X95378500Y-112493105D01*
X95374319Y-112535562D01*
X95363727Y-112570477D01*
X95346522Y-112602665D01*
X95323373Y-112630873D01*
X95295165Y-112654022D01*
X95262977Y-112671227D01*
X95228062Y-112681819D01*
X95185605Y-112686000D01*
X94044395Y-112686000D01*
X94001938Y-112681819D01*
X93967023Y-112671227D01*
X93934835Y-112654022D01*
X93906627Y-112630873D01*
X93883478Y-112602665D01*
X93866273Y-112570477D01*
X93855681Y-112535562D01*
X93851500Y-112493105D01*
X93851500Y-111026895D01*
X93855681Y-110984438D01*
X93866273Y-110949523D01*
X93883478Y-110917335D01*
X93906627Y-110889127D01*
X93934835Y-110865978D01*
X93967023Y-110848773D01*
X94001938Y-110838181D01*
X94044395Y-110834000D01*
X95185605Y-110834000D01*
X95228062Y-110838181D01*
X95228062Y-110838181D01*
G37*
G36*
X92253062Y-110838181D02*
X92287977Y-110848773D01*
X92320165Y-110865978D01*
X92348373Y-110889127D01*
X92371522Y-110917335D01*
X92388727Y-110949523D01*
X92399319Y-110984438D01*
X92403500Y-111026895D01*
X92403500Y-112493105D01*
X92399319Y-112535562D01*
X92388727Y-112570477D01*
X92371522Y-112602665D01*
X92348373Y-112630873D01*
X92320165Y-112654022D01*
X92287977Y-112671227D01*
X92253062Y-112681819D01*
X92210605Y-112686000D01*
X91069395Y-112686000D01*
X91026938Y-112681819D01*
X90992023Y-112671227D01*
X90959835Y-112654022D01*
X90931627Y-112630873D01*
X90908478Y-112602665D01*
X90891273Y-112570477D01*
X90880681Y-112535562D01*
X90876500Y-112493105D01*
X90876500Y-111026895D01*
X90880681Y-110984438D01*
X90891273Y-110949523D01*
X90908478Y-110917335D01*
X90931627Y-110889127D01*
X90959835Y-110865978D01*
X90992023Y-110848773D01*
X91026938Y-110838181D01*
X91069395Y-110834000D01*
X92210605Y-110834000D01*
X92253062Y-110838181D01*
X92253062Y-110838181D01*
G37*
G36*
X118123562Y-110783181D02*
X118158477Y-110793773D01*
X118190665Y-110810978D01*
X118218873Y-110834127D01*
X118242022Y-110862335D01*
X118259227Y-110894523D01*
X118269819Y-110929438D01*
X118274000Y-110971895D01*
X118274000Y-112113105D01*
X118269819Y-112155562D01*
X118259227Y-112190477D01*
X118242022Y-112222665D01*
X118218873Y-112250873D01*
X118190665Y-112274022D01*
X118158477Y-112291227D01*
X118123562Y-112301819D01*
X118081105Y-112306000D01*
X116614895Y-112306000D01*
X116572438Y-112301819D01*
X116537523Y-112291227D01*
X116505335Y-112274022D01*
X116477127Y-112250873D01*
X116453978Y-112222665D01*
X116436773Y-112190477D01*
X116426181Y-112155562D01*
X116422000Y-112113105D01*
X116422000Y-110971895D01*
X116426181Y-110929438D01*
X116436773Y-110894523D01*
X116453978Y-110862335D01*
X116477127Y-110834127D01*
X116505335Y-110810978D01*
X116537523Y-110793773D01*
X116572438Y-110783181D01*
X116614895Y-110779000D01*
X118081105Y-110779000D01*
X118123562Y-110783181D01*
X118123562Y-110783181D01*
G37*
G36*
X142405962Y-110529181D02*
X142440877Y-110539773D01*
X142473065Y-110556978D01*
X142501273Y-110580127D01*
X142524422Y-110608335D01*
X142541627Y-110640523D01*
X142552219Y-110675438D01*
X142556400Y-110717895D01*
X142556400Y-111859105D01*
X142552219Y-111901562D01*
X142541627Y-111936477D01*
X142524422Y-111968665D01*
X142501273Y-111996873D01*
X142473065Y-112020022D01*
X142440877Y-112037227D01*
X142405962Y-112047819D01*
X142363505Y-112052000D01*
X140897295Y-112052000D01*
X140854838Y-112047819D01*
X140819923Y-112037227D01*
X140787735Y-112020022D01*
X140759527Y-111996873D01*
X140736378Y-111968665D01*
X140719173Y-111936477D01*
X140708581Y-111901562D01*
X140704400Y-111859105D01*
X140704400Y-110717895D01*
X140708581Y-110675438D01*
X140719173Y-110640523D01*
X140736378Y-110608335D01*
X140759527Y-110580127D01*
X140787735Y-110556978D01*
X140819923Y-110539773D01*
X140854838Y-110529181D01*
X140897295Y-110525000D01*
X142363505Y-110525000D01*
X142405962Y-110529181D01*
X142405962Y-110529181D01*
G37*
G36*
X88046000Y-111113500D02*
X85944000Y-111113500D01*
X85944000Y-103136500D01*
X88046000Y-103136500D01*
X88046000Y-111113500D01*
X88046000Y-111113500D01*
G37*
G36*
X131585562Y-109476681D02*
X131620477Y-109487273D01*
X131652665Y-109504478D01*
X131680873Y-109527627D01*
X131704022Y-109555835D01*
X131721227Y-109588023D01*
X131731819Y-109622938D01*
X131736000Y-109665395D01*
X131736000Y-110806605D01*
X131731819Y-110849062D01*
X131721227Y-110883977D01*
X131704022Y-110916165D01*
X131680873Y-110944373D01*
X131652665Y-110967522D01*
X131620477Y-110984727D01*
X131585562Y-110995319D01*
X131543105Y-110999500D01*
X130076895Y-110999500D01*
X130034438Y-110995319D01*
X129999523Y-110984727D01*
X129967335Y-110967522D01*
X129939127Y-110944373D01*
X129915978Y-110916165D01*
X129898773Y-110883977D01*
X129888181Y-110849062D01*
X129884000Y-110806605D01*
X129884000Y-109665395D01*
X129888181Y-109622938D01*
X129898773Y-109588023D01*
X129915978Y-109555835D01*
X129939127Y-109527627D01*
X129967335Y-109504478D01*
X129999523Y-109487273D01*
X130034438Y-109476681D01*
X130076895Y-109472500D01*
X131543105Y-109472500D01*
X131585562Y-109476681D01*
X131585562Y-109476681D01*
G37*
G36*
X75966000Y-110816000D02*
X74114000Y-110816000D01*
X74114000Y-110164000D01*
X75966000Y-110164000D01*
X75966000Y-110816000D01*
X75966000Y-110816000D01*
G37*
G36*
X83366000Y-110816000D02*
X81514000Y-110816000D01*
X81514000Y-110164000D01*
X83366000Y-110164000D01*
X83366000Y-110816000D01*
X83366000Y-110816000D01*
G37*
G36*
X56259485Y-107968996D02*
X56259487Y-107968997D01*
X56259488Y-107968997D01*
X56381056Y-108019352D01*
X56496255Y-108067069D01*
X56709342Y-108209449D01*
X56890551Y-108390658D01*
X57032931Y-108603745D01*
X57131004Y-108840515D01*
X57181000Y-109091861D01*
X57181000Y-109348139D01*
X57139687Y-109555835D01*
X57131003Y-109599488D01*
X57115102Y-109637876D01*
X57032931Y-109836255D01*
X56890551Y-110049342D01*
X56709342Y-110230551D01*
X56709339Y-110230553D01*
X56496255Y-110372931D01*
X56259488Y-110471003D01*
X56259487Y-110471003D01*
X56259485Y-110471004D01*
X56008139Y-110521000D01*
X55751861Y-110521000D01*
X55500515Y-110471004D01*
X55500513Y-110471003D01*
X55500512Y-110471003D01*
X55263745Y-110372931D01*
X55050661Y-110230553D01*
X55050658Y-110230551D01*
X54869449Y-110049342D01*
X54727069Y-109836255D01*
X54644898Y-109637876D01*
X54628997Y-109599488D01*
X54620314Y-109555835D01*
X54579000Y-109348139D01*
X54579000Y-109091861D01*
X54628996Y-108840515D01*
X54727069Y-108603745D01*
X54869449Y-108390658D01*
X55050658Y-108209449D01*
X55263745Y-108067069D01*
X55378944Y-108019352D01*
X55500512Y-107968997D01*
X55500513Y-107968997D01*
X55500515Y-107968996D01*
X55751861Y-107919000D01*
X56008139Y-107919000D01*
X56259485Y-107968996D01*
X56259485Y-107968996D01*
G37*
G36*
X75966000Y-109546000D02*
X74114000Y-109546000D01*
X74114000Y-108894000D01*
X75966000Y-108894000D01*
X75966000Y-109546000D01*
X75966000Y-109546000D01*
G37*
G36*
X83366000Y-109546000D02*
X81514000Y-109546000D01*
X81514000Y-108894000D01*
X83366000Y-108894000D01*
X83366000Y-109546000D01*
X83366000Y-109546000D01*
G37*
G36*
X142405962Y-107901881D02*
X142440877Y-107912473D01*
X142473065Y-107929678D01*
X142501273Y-107952827D01*
X142524422Y-107981035D01*
X142541627Y-108013223D01*
X142552219Y-108048138D01*
X142556400Y-108090595D01*
X142556400Y-109231805D01*
X142552219Y-109274262D01*
X142541627Y-109309177D01*
X142524422Y-109341365D01*
X142501273Y-109369573D01*
X142473065Y-109392722D01*
X142440877Y-109409927D01*
X142405962Y-109420519D01*
X142363505Y-109424700D01*
X140897295Y-109424700D01*
X140854838Y-109420519D01*
X140819923Y-109409927D01*
X140787735Y-109392722D01*
X140759527Y-109369573D01*
X140736378Y-109341365D01*
X140719173Y-109309177D01*
X140708581Y-109274262D01*
X140704400Y-109231805D01*
X140704400Y-108090595D01*
X140708581Y-108048138D01*
X140719173Y-108013223D01*
X140736378Y-107981035D01*
X140759527Y-107952827D01*
X140787735Y-107929678D01*
X140819923Y-107912473D01*
X140854838Y-107901881D01*
X140897295Y-107897700D01*
X142363505Y-107897700D01*
X142405962Y-107901881D01*
X142405962Y-107901881D01*
G37*
G36*
X148760162Y-107536181D02*
X148795077Y-107546773D01*
X148827265Y-107563978D01*
X148855473Y-107587127D01*
X148878622Y-107615335D01*
X148895827Y-107647523D01*
X148906419Y-107682438D01*
X148910600Y-107724895D01*
X148910600Y-109191105D01*
X148906419Y-109233562D01*
X148895827Y-109268477D01*
X148878622Y-109300665D01*
X148855473Y-109328873D01*
X148827265Y-109352022D01*
X148795077Y-109369227D01*
X148760162Y-109379819D01*
X148717705Y-109384000D01*
X147576495Y-109384000D01*
X147534038Y-109379819D01*
X147499123Y-109369227D01*
X147466935Y-109352022D01*
X147438727Y-109328873D01*
X147415578Y-109300665D01*
X147398373Y-109268477D01*
X147387781Y-109233562D01*
X147383600Y-109191105D01*
X147383600Y-107724895D01*
X147387781Y-107682438D01*
X147398373Y-107647523D01*
X147415578Y-107615335D01*
X147438727Y-107587127D01*
X147466935Y-107563978D01*
X147499123Y-107546773D01*
X147534038Y-107536181D01*
X147576495Y-107532000D01*
X148717705Y-107532000D01*
X148760162Y-107536181D01*
X148760162Y-107536181D01*
G37*
G36*
X145785162Y-107536181D02*
X145820077Y-107546773D01*
X145852265Y-107563978D01*
X145880473Y-107587127D01*
X145903622Y-107615335D01*
X145920827Y-107647523D01*
X145931419Y-107682438D01*
X145935600Y-107724895D01*
X145935600Y-109191105D01*
X145931419Y-109233562D01*
X145920827Y-109268477D01*
X145903622Y-109300665D01*
X145880473Y-109328873D01*
X145852265Y-109352022D01*
X145820077Y-109369227D01*
X145785162Y-109379819D01*
X145742705Y-109384000D01*
X144601495Y-109384000D01*
X144559038Y-109379819D01*
X144524123Y-109369227D01*
X144491935Y-109352022D01*
X144463727Y-109328873D01*
X144440578Y-109300665D01*
X144423373Y-109268477D01*
X144412781Y-109233562D01*
X144408600Y-109191105D01*
X144408600Y-107724895D01*
X144412781Y-107682438D01*
X144423373Y-107647523D01*
X144440578Y-107615335D01*
X144463727Y-107587127D01*
X144491935Y-107563978D01*
X144524123Y-107546773D01*
X144559038Y-107536181D01*
X144601495Y-107532000D01*
X145742705Y-107532000D01*
X145785162Y-107536181D01*
X145785162Y-107536181D01*
G37*
G36*
X137079347Y-107461950D02*
X137114262Y-107472542D01*
X137146450Y-107489747D01*
X137174658Y-107512896D01*
X137197807Y-107541104D01*
X137215012Y-107573292D01*
X137225604Y-107608207D01*
X137229785Y-107650664D01*
X137229785Y-109116874D01*
X137225604Y-109159331D01*
X137215012Y-109194246D01*
X137197807Y-109226434D01*
X137174658Y-109254642D01*
X137146450Y-109277791D01*
X137114262Y-109294996D01*
X137079347Y-109305588D01*
X137036890Y-109309769D01*
X135895680Y-109309769D01*
X135853223Y-109305588D01*
X135818308Y-109294996D01*
X135786120Y-109277791D01*
X135757912Y-109254642D01*
X135734763Y-109226434D01*
X135717558Y-109194246D01*
X135706966Y-109159331D01*
X135702785Y-109116874D01*
X135702785Y-107650664D01*
X135706966Y-107608207D01*
X135717558Y-107573292D01*
X135734763Y-107541104D01*
X135757912Y-107512896D01*
X135786120Y-107489747D01*
X135818308Y-107472542D01*
X135853223Y-107461950D01*
X135895680Y-107457769D01*
X137036890Y-107457769D01*
X137079347Y-107461950D01*
X137079347Y-107461950D01*
G37*
G36*
X134104347Y-107461950D02*
X134139262Y-107472542D01*
X134171450Y-107489747D01*
X134199658Y-107512896D01*
X134222807Y-107541104D01*
X134240012Y-107573292D01*
X134250604Y-107608207D01*
X134254785Y-107650664D01*
X134254785Y-109116874D01*
X134250604Y-109159331D01*
X134240012Y-109194246D01*
X134222807Y-109226434D01*
X134199658Y-109254642D01*
X134171450Y-109277791D01*
X134139262Y-109294996D01*
X134104347Y-109305588D01*
X134061890Y-109309769D01*
X132920680Y-109309769D01*
X132878223Y-109305588D01*
X132843308Y-109294996D01*
X132811120Y-109277791D01*
X132782912Y-109254642D01*
X132759763Y-109226434D01*
X132742558Y-109194246D01*
X132731966Y-109159331D01*
X132727785Y-109116874D01*
X132727785Y-107650664D01*
X132731966Y-107608207D01*
X132742558Y-107573292D01*
X132759763Y-107541104D01*
X132782912Y-107512896D01*
X132811120Y-107489747D01*
X132843308Y-107472542D01*
X132878223Y-107461950D01*
X132920680Y-107457769D01*
X134061890Y-107457769D01*
X134104347Y-107461950D01*
X134104347Y-107461950D01*
G37*
G36*
X83366000Y-108276000D02*
X81514000Y-108276000D01*
X81514000Y-107624000D01*
X83366000Y-107624000D01*
X83366000Y-108276000D01*
X83366000Y-108276000D01*
G37*
G36*
X75966000Y-108276000D02*
X74114000Y-108276000D01*
X74114000Y-107624000D01*
X75966000Y-107624000D01*
X75966000Y-108276000D01*
X75966000Y-108276000D01*
G37*
G36*
X64902004Y-106575544D02*
X64989059Y-106592860D01*
X65125732Y-106649472D01*
X65209181Y-106705231D01*
X65248738Y-106731662D01*
X65353338Y-106836262D01*
X65353340Y-106836265D01*
X65435528Y-106959268D01*
X65492140Y-107095941D01*
X65521000Y-107241033D01*
X65521000Y-107388967D01*
X65492140Y-107534059D01*
X65435528Y-107670732D01*
X65384146Y-107747631D01*
X65353338Y-107793738D01*
X65248738Y-107898338D01*
X65248735Y-107898340D01*
X65125732Y-107980528D01*
X64989059Y-108037140D01*
X64902004Y-108054456D01*
X64843969Y-108066000D01*
X64696031Y-108066000D01*
X64637996Y-108054456D01*
X64550941Y-108037140D01*
X64414268Y-107980528D01*
X64291265Y-107898340D01*
X64291262Y-107898338D01*
X64186662Y-107793738D01*
X64155854Y-107747631D01*
X64104472Y-107670732D01*
X64047860Y-107534059D01*
X64019000Y-107388967D01*
X64019000Y-107241033D01*
X64047860Y-107095941D01*
X64104472Y-106959268D01*
X64186660Y-106836265D01*
X64186662Y-106836262D01*
X64291262Y-106731662D01*
X64330819Y-106705231D01*
X64414268Y-106649472D01*
X64550941Y-106592860D01*
X64637996Y-106575544D01*
X64696031Y-106564000D01*
X64843969Y-106564000D01*
X64902004Y-106575544D01*
X64902004Y-106575544D01*
G37*
G36*
X131585562Y-106501681D02*
X131620477Y-106512273D01*
X131652665Y-106529478D01*
X131680873Y-106552627D01*
X131704022Y-106580835D01*
X131721227Y-106613023D01*
X131731819Y-106647938D01*
X131736000Y-106690395D01*
X131736000Y-107831605D01*
X131731819Y-107874062D01*
X131721227Y-107908977D01*
X131704022Y-107941165D01*
X131680873Y-107969373D01*
X131652665Y-107992522D01*
X131620477Y-108009727D01*
X131585562Y-108020319D01*
X131543105Y-108024500D01*
X130076895Y-108024500D01*
X130034438Y-108020319D01*
X129999523Y-108009727D01*
X129967335Y-107992522D01*
X129939127Y-107969373D01*
X129915978Y-107941165D01*
X129898773Y-107908977D01*
X129888181Y-107874062D01*
X129884000Y-107831605D01*
X129884000Y-106690395D01*
X129888181Y-106647938D01*
X129898773Y-106613023D01*
X129915978Y-106580835D01*
X129939127Y-106552627D01*
X129967335Y-106529478D01*
X129999523Y-106512273D01*
X130034438Y-106501681D01*
X130076895Y-106497500D01*
X131543105Y-106497500D01*
X131585562Y-106501681D01*
X131585562Y-106501681D01*
G37*
G36*
X128740762Y-106493781D02*
X128775677Y-106504373D01*
X128807865Y-106521578D01*
X128836073Y-106544727D01*
X128859222Y-106572935D01*
X128876427Y-106605123D01*
X128887019Y-106640038D01*
X128891200Y-106682495D01*
X128891200Y-107823705D01*
X128887019Y-107866162D01*
X128876427Y-107901077D01*
X128859222Y-107933265D01*
X128836073Y-107961473D01*
X128807865Y-107984622D01*
X128775677Y-108001827D01*
X128740762Y-108012419D01*
X128698305Y-108016600D01*
X127232095Y-108016600D01*
X127189638Y-108012419D01*
X127154723Y-108001827D01*
X127122535Y-107984622D01*
X127094327Y-107961473D01*
X127071178Y-107933265D01*
X127053973Y-107901077D01*
X127043381Y-107866162D01*
X127039200Y-107823705D01*
X127039200Y-106682495D01*
X127043381Y-106640038D01*
X127053973Y-106605123D01*
X127071178Y-106572935D01*
X127094327Y-106544727D01*
X127122535Y-106521578D01*
X127154723Y-106504373D01*
X127189638Y-106493781D01*
X127232095Y-106489600D01*
X128698305Y-106489600D01*
X128740762Y-106493781D01*
X128740762Y-106493781D01*
G37*
G36*
X125565762Y-106493781D02*
X125600677Y-106504373D01*
X125632865Y-106521578D01*
X125661073Y-106544727D01*
X125684222Y-106572935D01*
X125701427Y-106605123D01*
X125712019Y-106640038D01*
X125716200Y-106682495D01*
X125716200Y-107823705D01*
X125712019Y-107866162D01*
X125701427Y-107901077D01*
X125684222Y-107933265D01*
X125661073Y-107961473D01*
X125632865Y-107984622D01*
X125600677Y-108001827D01*
X125565762Y-108012419D01*
X125523305Y-108016600D01*
X124057095Y-108016600D01*
X124014638Y-108012419D01*
X123979723Y-108001827D01*
X123947535Y-107984622D01*
X123919327Y-107961473D01*
X123896178Y-107933265D01*
X123878973Y-107901077D01*
X123868381Y-107866162D01*
X123864200Y-107823705D01*
X123864200Y-106682495D01*
X123868381Y-106640038D01*
X123878973Y-106605123D01*
X123896178Y-106572935D01*
X123919327Y-106544727D01*
X123947535Y-106521578D01*
X123979723Y-106504373D01*
X124014638Y-106493781D01*
X124057095Y-106489600D01*
X125523305Y-106489600D01*
X125565762Y-106493781D01*
X125565762Y-106493781D01*
G37*
G36*
X118756000Y-107666000D02*
X116704000Y-107666000D01*
X116704000Y-106964000D01*
X118756000Y-106964000D01*
X118756000Y-107666000D01*
X118756000Y-107666000D01*
G37*
G36*
X109356000Y-107666000D02*
X107304000Y-107666000D01*
X107304000Y-106964000D01*
X109356000Y-106964000D01*
X109356000Y-107666000D01*
X109356000Y-107666000D01*
G37*
G36*
X94141000Y-107031000D02*
X92039000Y-107031000D01*
X92039000Y-106329000D01*
X94141000Y-106329000D01*
X94141000Y-107031000D01*
X94141000Y-107031000D01*
G37*
G36*
X103541000Y-107031000D02*
X101439000Y-107031000D01*
X101439000Y-106329000D01*
X103541000Y-106329000D01*
X103541000Y-107031000D01*
X103541000Y-107031000D01*
G37*
G36*
X83366000Y-107006000D02*
X81514000Y-107006000D01*
X81514000Y-106354000D01*
X83366000Y-106354000D01*
X83366000Y-107006000D01*
X83366000Y-107006000D01*
G37*
G36*
X75966000Y-107006000D02*
X74114000Y-107006000D01*
X74114000Y-106354000D01*
X75966000Y-106354000D01*
X75966000Y-107006000D01*
X75966000Y-107006000D01*
G37*
G36*
X142405962Y-104926881D02*
X142440877Y-104937473D01*
X142473065Y-104954678D01*
X142501273Y-104977827D01*
X142524422Y-105006035D01*
X142541627Y-105038223D01*
X142552219Y-105073138D01*
X142556400Y-105115595D01*
X142556400Y-106256805D01*
X142552219Y-106299262D01*
X142541627Y-106334177D01*
X142524422Y-106366365D01*
X142501273Y-106394573D01*
X142473065Y-106417722D01*
X142440877Y-106434927D01*
X142405962Y-106445519D01*
X142363505Y-106449700D01*
X140897295Y-106449700D01*
X140854838Y-106445519D01*
X140819923Y-106434927D01*
X140787735Y-106417722D01*
X140759527Y-106394573D01*
X140736378Y-106366365D01*
X140719173Y-106334177D01*
X140708581Y-106299262D01*
X140704400Y-106256805D01*
X140704400Y-105115595D01*
X140708581Y-105073138D01*
X140719173Y-105038223D01*
X140736378Y-105006035D01*
X140759527Y-104977827D01*
X140787735Y-104954678D01*
X140819923Y-104937473D01*
X140854838Y-104926881D01*
X140897295Y-104922700D01*
X142363505Y-104922700D01*
X142405962Y-104926881D01*
X142405962Y-104926881D01*
G37*
G36*
X109356000Y-106396000D02*
X107304000Y-106396000D01*
X107304000Y-105694000D01*
X109356000Y-105694000D01*
X109356000Y-106396000D01*
X109356000Y-106396000D01*
G37*
G36*
X118756000Y-106396000D02*
X116704000Y-106396000D01*
X116704000Y-105694000D01*
X118756000Y-105694000D01*
X118756000Y-106396000D01*
X118756000Y-106396000D01*
G37*
G36*
X103541000Y-105761000D02*
X101439000Y-105761000D01*
X101439000Y-105059000D01*
X103541000Y-105059000D01*
X103541000Y-105761000D01*
X103541000Y-105761000D01*
G37*
G36*
X94141000Y-105761000D02*
X92039000Y-105761000D01*
X92039000Y-105059000D01*
X94141000Y-105059000D01*
X94141000Y-105761000D01*
X94141000Y-105761000D01*
G37*
G36*
X137267247Y-104220850D02*
X137302162Y-104231442D01*
X137334350Y-104248647D01*
X137362558Y-104271796D01*
X137385707Y-104300004D01*
X137402912Y-104332192D01*
X137413504Y-104367107D01*
X137417685Y-104409564D01*
X137417685Y-105550774D01*
X137413504Y-105593231D01*
X137402912Y-105628146D01*
X137385707Y-105660334D01*
X137362558Y-105688542D01*
X137334350Y-105711691D01*
X137302162Y-105728896D01*
X137267247Y-105739488D01*
X137224790Y-105743669D01*
X135758580Y-105743669D01*
X135716123Y-105739488D01*
X135681208Y-105728896D01*
X135649020Y-105711691D01*
X135620812Y-105688542D01*
X135597663Y-105660334D01*
X135580458Y-105628146D01*
X135569866Y-105593231D01*
X135565685Y-105550774D01*
X135565685Y-104409564D01*
X135569866Y-104367107D01*
X135580458Y-104332192D01*
X135597663Y-104300004D01*
X135620812Y-104271796D01*
X135649020Y-104248647D01*
X135681208Y-104231442D01*
X135716123Y-104220850D01*
X135758580Y-104216669D01*
X137224790Y-104216669D01*
X137267247Y-104220850D01*
X137267247Y-104220850D01*
G37*
G36*
X134066847Y-104220850D02*
X134101762Y-104231442D01*
X134133950Y-104248647D01*
X134162158Y-104271796D01*
X134185307Y-104300004D01*
X134202512Y-104332192D01*
X134213104Y-104367107D01*
X134217285Y-104409564D01*
X134217285Y-105550774D01*
X134213104Y-105593231D01*
X134202512Y-105628146D01*
X134185307Y-105660334D01*
X134162158Y-105688542D01*
X134133950Y-105711691D01*
X134101762Y-105728896D01*
X134066847Y-105739488D01*
X134024390Y-105743669D01*
X132558180Y-105743669D01*
X132515723Y-105739488D01*
X132480808Y-105728896D01*
X132448620Y-105711691D01*
X132420412Y-105688542D01*
X132397263Y-105660334D01*
X132380058Y-105628146D01*
X132369466Y-105593231D01*
X132365285Y-105550774D01*
X132365285Y-104409564D01*
X132369466Y-104367107D01*
X132380058Y-104332192D01*
X132397263Y-104300004D01*
X132420412Y-104271796D01*
X132448620Y-104248647D01*
X132480808Y-104231442D01*
X132515723Y-104220850D01*
X132558180Y-104216669D01*
X134024390Y-104216669D01*
X134066847Y-104220850D01*
X134066847Y-104220850D01*
G37*
G36*
X64902004Y-104035544D02*
X64989059Y-104052860D01*
X65125732Y-104109472D01*
X65125733Y-104109473D01*
X65248738Y-104191662D01*
X65353338Y-104296262D01*
X65353340Y-104296265D01*
X65435528Y-104419268D01*
X65492140Y-104555941D01*
X65509456Y-104642996D01*
X65521000Y-104701031D01*
X65521000Y-104848969D01*
X65512607Y-104891162D01*
X65492140Y-104994059D01*
X65435528Y-105130732D01*
X65422285Y-105150551D01*
X65353338Y-105253738D01*
X65248738Y-105358338D01*
X65248735Y-105358340D01*
X65125732Y-105440528D01*
X64989059Y-105497140D01*
X64902004Y-105514456D01*
X64843969Y-105526000D01*
X64696031Y-105526000D01*
X64637996Y-105514456D01*
X64550941Y-105497140D01*
X64414268Y-105440528D01*
X64291265Y-105358340D01*
X64291262Y-105358338D01*
X64186662Y-105253738D01*
X64117715Y-105150551D01*
X64104472Y-105130732D01*
X64047860Y-104994059D01*
X64027393Y-104891162D01*
X64019000Y-104848969D01*
X64019000Y-104701031D01*
X64030544Y-104642996D01*
X64047860Y-104555941D01*
X64104472Y-104419268D01*
X64186660Y-104296265D01*
X64186662Y-104296262D01*
X64291262Y-104191662D01*
X64414267Y-104109473D01*
X64414268Y-104109472D01*
X64550941Y-104052860D01*
X64637996Y-104035544D01*
X64696031Y-104024000D01*
X64843969Y-104024000D01*
X64902004Y-104035544D01*
X64902004Y-104035544D01*
G37*
G36*
X56259485Y-102888996D02*
X56259487Y-102888997D01*
X56259488Y-102888997D01*
X56496255Y-102987069D01*
X56709342Y-103129449D01*
X56890551Y-103310658D01*
X56890553Y-103310661D01*
X57032931Y-103523745D01*
X57109043Y-103707495D01*
X57131004Y-103760515D01*
X57181000Y-104011861D01*
X57181000Y-104268139D01*
X57150939Y-104419267D01*
X57131003Y-104519488D01*
X57055805Y-104701033D01*
X57032931Y-104756255D01*
X56890551Y-104969342D01*
X56709342Y-105150551D01*
X56709339Y-105150553D01*
X56496255Y-105292931D01*
X56259488Y-105391003D01*
X56259487Y-105391003D01*
X56259485Y-105391004D01*
X56008139Y-105441000D01*
X55751861Y-105441000D01*
X55500515Y-105391004D01*
X55500513Y-105391003D01*
X55500512Y-105391003D01*
X55263745Y-105292931D01*
X55050661Y-105150553D01*
X55050658Y-105150551D01*
X54869449Y-104969342D01*
X54727069Y-104756255D01*
X54704195Y-104701033D01*
X54628997Y-104519488D01*
X54609062Y-104419267D01*
X54579000Y-104268139D01*
X54579000Y-104011861D01*
X54628996Y-103760515D01*
X54650958Y-103707495D01*
X54727069Y-103523745D01*
X54869447Y-103310661D01*
X54869449Y-103310658D01*
X55050658Y-103129449D01*
X55263745Y-102987069D01*
X55500512Y-102888997D01*
X55500513Y-102888997D01*
X55500515Y-102888996D01*
X55751861Y-102839000D01*
X56008139Y-102839000D01*
X56259485Y-102888996D01*
X56259485Y-102888996D01*
G37*
G36*
X118756000Y-105126000D02*
X116704000Y-105126000D01*
X116704000Y-104424000D01*
X118756000Y-104424000D01*
X118756000Y-105126000D01*
X118756000Y-105126000D01*
G37*
G36*
X109356000Y-105126000D02*
X107304000Y-105126000D01*
X107304000Y-104424000D01*
X109356000Y-104424000D01*
X109356000Y-105126000D01*
X109356000Y-105126000D01*
G37*
G36*
X125565762Y-103518781D02*
X125600677Y-103529373D01*
X125632865Y-103546578D01*
X125661073Y-103569727D01*
X125684222Y-103597935D01*
X125701427Y-103630123D01*
X125712019Y-103665038D01*
X125716200Y-103707495D01*
X125716200Y-104848705D01*
X125712019Y-104891162D01*
X125701427Y-104926077D01*
X125684222Y-104958265D01*
X125661073Y-104986473D01*
X125632865Y-105009622D01*
X125600677Y-105026827D01*
X125565762Y-105037419D01*
X125523305Y-105041600D01*
X124057095Y-105041600D01*
X124014638Y-105037419D01*
X123979723Y-105026827D01*
X123947535Y-105009622D01*
X123919327Y-104986473D01*
X123896178Y-104958265D01*
X123878973Y-104926077D01*
X123868381Y-104891162D01*
X123864200Y-104848705D01*
X123864200Y-103707495D01*
X123868381Y-103665038D01*
X123878973Y-103630123D01*
X123896178Y-103597935D01*
X123919327Y-103569727D01*
X123947535Y-103546578D01*
X123979723Y-103529373D01*
X124014638Y-103518781D01*
X124057095Y-103514600D01*
X125523305Y-103514600D01*
X125565762Y-103518781D01*
X125565762Y-103518781D01*
G37*
G36*
X128740762Y-103518781D02*
X128775677Y-103529373D01*
X128807865Y-103546578D01*
X128836073Y-103569727D01*
X128859222Y-103597935D01*
X128876427Y-103630123D01*
X128887019Y-103665038D01*
X128891200Y-103707495D01*
X128891200Y-104848705D01*
X128887019Y-104891162D01*
X128876427Y-104926077D01*
X128859222Y-104958265D01*
X128836073Y-104986473D01*
X128807865Y-105009622D01*
X128775677Y-105026827D01*
X128740762Y-105037419D01*
X128698305Y-105041600D01*
X127232095Y-105041600D01*
X127189638Y-105037419D01*
X127154723Y-105026827D01*
X127122535Y-105009622D01*
X127094327Y-104986473D01*
X127071178Y-104958265D01*
X127053973Y-104926077D01*
X127043381Y-104891162D01*
X127039200Y-104848705D01*
X127039200Y-103707495D01*
X127043381Y-103665038D01*
X127053973Y-103630123D01*
X127071178Y-103597935D01*
X127094327Y-103569727D01*
X127122535Y-103546578D01*
X127154723Y-103529373D01*
X127189638Y-103518781D01*
X127232095Y-103514600D01*
X128698305Y-103514600D01*
X128740762Y-103518781D01*
X128740762Y-103518781D01*
G37*
G36*
X103541000Y-104491000D02*
X101439000Y-104491000D01*
X101439000Y-103789000D01*
X103541000Y-103789000D01*
X103541000Y-104491000D01*
X103541000Y-104491000D01*
G37*
G36*
X94141000Y-104491000D02*
X92039000Y-104491000D01*
X92039000Y-103789000D01*
X94141000Y-103789000D01*
X94141000Y-104491000D01*
X94141000Y-104491000D01*
G37*
G36*
X148840600Y-104399200D02*
X147178600Y-104399200D01*
X147178600Y-103647200D01*
X148840600Y-103647200D01*
X148840600Y-104399200D01*
X148840600Y-104399200D01*
G37*
G36*
X146140600Y-104399200D02*
X144478600Y-104399200D01*
X144478600Y-101747200D01*
X146140600Y-101747200D01*
X146140600Y-104399200D01*
X146140600Y-104399200D01*
G37*
G36*
X109356000Y-103856000D02*
X107304000Y-103856000D01*
X107304000Y-103154000D01*
X109356000Y-103154000D01*
X109356000Y-103856000D01*
X109356000Y-103856000D01*
G37*
G36*
X118756000Y-103856000D02*
X116704000Y-103856000D01*
X116704000Y-103154000D01*
X118756000Y-103154000D01*
X118756000Y-103856000D01*
X118756000Y-103856000D01*
G37*
G36*
X94141000Y-103221000D02*
X92039000Y-103221000D01*
X92039000Y-102519000D01*
X94141000Y-102519000D01*
X94141000Y-103221000D01*
X94141000Y-103221000D01*
G37*
G36*
X103541000Y-103221000D02*
X101439000Y-103221000D01*
X101439000Y-102519000D01*
X103541000Y-102519000D01*
X103541000Y-103221000D01*
X103541000Y-103221000D01*
G37*
G36*
X134066847Y-101245850D02*
X134101762Y-101256442D01*
X134133950Y-101273647D01*
X134162158Y-101296796D01*
X134185307Y-101325004D01*
X134202512Y-101357192D01*
X134213104Y-101392107D01*
X134217285Y-101434564D01*
X134217285Y-102575774D01*
X134213104Y-102618231D01*
X134202512Y-102653146D01*
X134185307Y-102685334D01*
X134162158Y-102713542D01*
X134133950Y-102736691D01*
X134101762Y-102753896D01*
X134066847Y-102764488D01*
X134024390Y-102768669D01*
X132558180Y-102768669D01*
X132515723Y-102764488D01*
X132480808Y-102753896D01*
X132448620Y-102736691D01*
X132420412Y-102713542D01*
X132397263Y-102685334D01*
X132380058Y-102653146D01*
X132369466Y-102618231D01*
X132365285Y-102575774D01*
X132365285Y-101434564D01*
X132369466Y-101392107D01*
X132380058Y-101357192D01*
X132397263Y-101325004D01*
X132420412Y-101296796D01*
X132448620Y-101273647D01*
X132480808Y-101256442D01*
X132515723Y-101245850D01*
X132558180Y-101241669D01*
X134024390Y-101241669D01*
X134066847Y-101245850D01*
X134066847Y-101245850D01*
G37*
G36*
X137267247Y-101245850D02*
X137302162Y-101256442D01*
X137334350Y-101273647D01*
X137362558Y-101296796D01*
X137385707Y-101325004D01*
X137402912Y-101357192D01*
X137413504Y-101392107D01*
X137417685Y-101434564D01*
X137417685Y-102575774D01*
X137413504Y-102618231D01*
X137402912Y-102653146D01*
X137385707Y-102685334D01*
X137362558Y-102713542D01*
X137334350Y-102736691D01*
X137302162Y-102753896D01*
X137267247Y-102764488D01*
X137224790Y-102768669D01*
X135758580Y-102768669D01*
X135716123Y-102764488D01*
X135681208Y-102753896D01*
X135649020Y-102736691D01*
X135620812Y-102713542D01*
X135597663Y-102685334D01*
X135580458Y-102653146D01*
X135569866Y-102618231D01*
X135565685Y-102575774D01*
X135565685Y-101434564D01*
X135569866Y-101392107D01*
X135580458Y-101357192D01*
X135597663Y-101325004D01*
X135620812Y-101296796D01*
X135649020Y-101273647D01*
X135681208Y-101256442D01*
X135716123Y-101245850D01*
X135758580Y-101241669D01*
X137224790Y-101241669D01*
X137267247Y-101245850D01*
X137267247Y-101245850D01*
G37*
G36*
X109356000Y-102586000D02*
X107304000Y-102586000D01*
X107304000Y-101884000D01*
X109356000Y-101884000D01*
X109356000Y-102586000D01*
X109356000Y-102586000D01*
G37*
G36*
X118756000Y-102586000D02*
X116704000Y-102586000D01*
X116704000Y-101884000D01*
X118756000Y-101884000D01*
X118756000Y-102586000D01*
X118756000Y-102586000D01*
G37*
G36*
X148840600Y-102499200D02*
X147178600Y-102499200D01*
X147178600Y-101747200D01*
X148840600Y-101747200D01*
X148840600Y-102499200D01*
X148840600Y-102499200D01*
G37*
G36*
X94141000Y-101951000D02*
X92039000Y-101951000D01*
X92039000Y-101249000D01*
X94141000Y-101249000D01*
X94141000Y-101951000D01*
X94141000Y-101951000D01*
G37*
G36*
X103541000Y-101951000D02*
X101439000Y-101951000D01*
X101439000Y-101249000D01*
X103541000Y-101249000D01*
X103541000Y-101951000D01*
X103541000Y-101951000D01*
G37*
G36*
X124727562Y-99824681D02*
X124762477Y-99835273D01*
X124794665Y-99852478D01*
X124822873Y-99875627D01*
X124846022Y-99903835D01*
X124863227Y-99936023D01*
X124873819Y-99970938D01*
X124878000Y-100013395D01*
X124878000Y-101154605D01*
X124873819Y-101197062D01*
X124863227Y-101231977D01*
X124846022Y-101264165D01*
X124822873Y-101292373D01*
X124794665Y-101315522D01*
X124762477Y-101332727D01*
X124727562Y-101343319D01*
X124685105Y-101347500D01*
X123218895Y-101347500D01*
X123176438Y-101343319D01*
X123141523Y-101332727D01*
X123109335Y-101315522D01*
X123081127Y-101292373D01*
X123057978Y-101264165D01*
X123040773Y-101231977D01*
X123030181Y-101197062D01*
X123026000Y-101154605D01*
X123026000Y-100013395D01*
X123030181Y-99970938D01*
X123040773Y-99936023D01*
X123057978Y-99903835D01*
X123081127Y-99875627D01*
X123109335Y-99852478D01*
X123141523Y-99835273D01*
X123176438Y-99824681D01*
X123218895Y-99820500D01*
X124685105Y-99820500D01*
X124727562Y-99824681D01*
X124727562Y-99824681D01*
G37*
G36*
X127775562Y-99824681D02*
X127810477Y-99835273D01*
X127842665Y-99852478D01*
X127870873Y-99875627D01*
X127894022Y-99903835D01*
X127911227Y-99936023D01*
X127921819Y-99970938D01*
X127926000Y-100013395D01*
X127926000Y-101154605D01*
X127921819Y-101197062D01*
X127911227Y-101231977D01*
X127894022Y-101264165D01*
X127870873Y-101292373D01*
X127842665Y-101315522D01*
X127810477Y-101332727D01*
X127775562Y-101343319D01*
X127733105Y-101347500D01*
X126266895Y-101347500D01*
X126224438Y-101343319D01*
X126189523Y-101332727D01*
X126157335Y-101315522D01*
X126129127Y-101292373D01*
X126105978Y-101264165D01*
X126088773Y-101231977D01*
X126078181Y-101197062D01*
X126074000Y-101154605D01*
X126074000Y-100013395D01*
X126078181Y-99970938D01*
X126088773Y-99936023D01*
X126105978Y-99903835D01*
X126129127Y-99875627D01*
X126157335Y-99852478D01*
X126189523Y-99835273D01*
X126224438Y-99824681D01*
X126266895Y-99820500D01*
X127733105Y-99820500D01*
X127775562Y-99824681D01*
X127775562Y-99824681D01*
G37*
G36*
X109356000Y-101316000D02*
X107304000Y-101316000D01*
X107304000Y-100614000D01*
X109356000Y-100614000D01*
X109356000Y-101316000D01*
X109356000Y-101316000D01*
G37*
G36*
X118756000Y-101316000D02*
X116704000Y-101316000D01*
X116704000Y-100614000D01*
X118756000Y-100614000D01*
X118756000Y-101316000D01*
X118756000Y-101316000D01*
G37*
G36*
X103541000Y-100681000D02*
X101439000Y-100681000D01*
X101439000Y-99979000D01*
X103541000Y-99979000D01*
X103541000Y-100681000D01*
X103541000Y-100681000D01*
G37*
G36*
X94141000Y-100681000D02*
X92039000Y-100681000D01*
X92039000Y-99979000D01*
X94141000Y-99979000D01*
X94141000Y-100681000D01*
X94141000Y-100681000D01*
G37*
G36*
X118756000Y-100046000D02*
X116704000Y-100046000D01*
X116704000Y-99344000D01*
X118756000Y-99344000D01*
X118756000Y-100046000D01*
X118756000Y-100046000D01*
G37*
G36*
X109356000Y-100046000D02*
X107304000Y-100046000D01*
X107304000Y-99344000D01*
X109356000Y-99344000D01*
X109356000Y-100046000D01*
X109356000Y-100046000D01*
G37*
G36*
X94141000Y-99411000D02*
X92039000Y-99411000D01*
X92039000Y-98709000D01*
X94141000Y-98709000D01*
X94141000Y-99411000D01*
X94141000Y-99411000D01*
G37*
G36*
X103541000Y-99411000D02*
X101439000Y-99411000D01*
X101439000Y-98709000D01*
X103541000Y-98709000D01*
X103541000Y-99411000D01*
X103541000Y-99411000D01*
G37*
G36*
X88046000Y-99238500D02*
X85944000Y-99238500D01*
X85944000Y-91261500D01*
X88046000Y-91261500D01*
X88046000Y-99238500D01*
X88046000Y-99238500D01*
G37*
G36*
X142117537Y-97380336D02*
X142152452Y-97390928D01*
X142184640Y-97408133D01*
X142212848Y-97431282D01*
X142235997Y-97459490D01*
X142253202Y-97491678D01*
X142263794Y-97526593D01*
X142267975Y-97569050D01*
X142267975Y-99035260D01*
X142263794Y-99077717D01*
X142253202Y-99112632D01*
X142235997Y-99144820D01*
X142212848Y-99173028D01*
X142184640Y-99196177D01*
X142152452Y-99213382D01*
X142117537Y-99223974D01*
X142075080Y-99228155D01*
X140933870Y-99228155D01*
X140891413Y-99223974D01*
X140856498Y-99213382D01*
X140824310Y-99196177D01*
X140796102Y-99173028D01*
X140772953Y-99144820D01*
X140755748Y-99112632D01*
X140745156Y-99077717D01*
X140740975Y-99035260D01*
X140740975Y-97569050D01*
X140745156Y-97526593D01*
X140755748Y-97491678D01*
X140772953Y-97459490D01*
X140796102Y-97431282D01*
X140824310Y-97408133D01*
X140856498Y-97390928D01*
X140891413Y-97380336D01*
X140933870Y-97376155D01*
X142075080Y-97376155D01*
X142117537Y-97380336D01*
X142117537Y-97380336D01*
G37*
G36*
X139142537Y-97380336D02*
X139177452Y-97390928D01*
X139209640Y-97408133D01*
X139237848Y-97431282D01*
X139260997Y-97459490D01*
X139278202Y-97491678D01*
X139288794Y-97526593D01*
X139292975Y-97569050D01*
X139292975Y-99035260D01*
X139288794Y-99077717D01*
X139278202Y-99112632D01*
X139260997Y-99144820D01*
X139237848Y-99173028D01*
X139209640Y-99196177D01*
X139177452Y-99213382D01*
X139142537Y-99223974D01*
X139100080Y-99228155D01*
X137958870Y-99228155D01*
X137916413Y-99223974D01*
X137881498Y-99213382D01*
X137849310Y-99196177D01*
X137821102Y-99173028D01*
X137797953Y-99144820D01*
X137780748Y-99112632D01*
X137770156Y-99077717D01*
X137765975Y-99035260D01*
X137765975Y-97569050D01*
X137770156Y-97526593D01*
X137780748Y-97491678D01*
X137797953Y-97459490D01*
X137821102Y-97431282D01*
X137849310Y-97408133D01*
X137881498Y-97390928D01*
X137916413Y-97380336D01*
X137958870Y-97376155D01*
X139100080Y-97376155D01*
X139142537Y-97380336D01*
X139142537Y-97380336D01*
G37*
G36*
X109356000Y-98776000D02*
X107304000Y-98776000D01*
X107304000Y-98074000D01*
X109356000Y-98074000D01*
X109356000Y-98776000D01*
X109356000Y-98776000D01*
G37*
G36*
X118756000Y-98776000D02*
X116704000Y-98776000D01*
X116704000Y-98074000D01*
X118756000Y-98074000D01*
X118756000Y-98776000D01*
X118756000Y-98776000D01*
G37*
G36*
X127775562Y-96849681D02*
X127810477Y-96860273D01*
X127842665Y-96877478D01*
X127870873Y-96900627D01*
X127894022Y-96928835D01*
X127911227Y-96961023D01*
X127921819Y-96995938D01*
X127926000Y-97038395D01*
X127926000Y-98179605D01*
X127921819Y-98222062D01*
X127911227Y-98256977D01*
X127894022Y-98289165D01*
X127870873Y-98317373D01*
X127842665Y-98340522D01*
X127810477Y-98357727D01*
X127775562Y-98368319D01*
X127733105Y-98372500D01*
X126266895Y-98372500D01*
X126224438Y-98368319D01*
X126189523Y-98357727D01*
X126157335Y-98340522D01*
X126129127Y-98317373D01*
X126105978Y-98289165D01*
X126088773Y-98256977D01*
X126078181Y-98222062D01*
X126074000Y-98179605D01*
X126074000Y-97038395D01*
X126078181Y-96995938D01*
X126088773Y-96961023D01*
X126105978Y-96928835D01*
X126129127Y-96900627D01*
X126157335Y-96877478D01*
X126189523Y-96860273D01*
X126224438Y-96849681D01*
X126266895Y-96845500D01*
X127733105Y-96845500D01*
X127775562Y-96849681D01*
X127775562Y-96849681D01*
G37*
G36*
X124727562Y-96849681D02*
X124762477Y-96860273D01*
X124794665Y-96877478D01*
X124822873Y-96900627D01*
X124846022Y-96928835D01*
X124863227Y-96961023D01*
X124873819Y-96995938D01*
X124878000Y-97038395D01*
X124878000Y-98179605D01*
X124873819Y-98222062D01*
X124863227Y-98256977D01*
X124846022Y-98289165D01*
X124822873Y-98317373D01*
X124794665Y-98340522D01*
X124762477Y-98357727D01*
X124727562Y-98368319D01*
X124685105Y-98372500D01*
X123218895Y-98372500D01*
X123176438Y-98368319D01*
X123141523Y-98357727D01*
X123109335Y-98340522D01*
X123081127Y-98317373D01*
X123057978Y-98289165D01*
X123040773Y-98256977D01*
X123030181Y-98222062D01*
X123026000Y-98179605D01*
X123026000Y-97038395D01*
X123030181Y-96995938D01*
X123040773Y-96961023D01*
X123057978Y-96928835D01*
X123081127Y-96900627D01*
X123109335Y-96877478D01*
X123141523Y-96860273D01*
X123176438Y-96849681D01*
X123218895Y-96845500D01*
X124685105Y-96845500D01*
X124727562Y-96849681D01*
X124727562Y-96849681D01*
G37*
G36*
X94141000Y-98141000D02*
X92039000Y-98141000D01*
X92039000Y-97439000D01*
X94141000Y-97439000D01*
X94141000Y-98141000D01*
X94141000Y-98141000D01*
G37*
G36*
X103541000Y-98141000D02*
X101439000Y-98141000D01*
X101439000Y-97439000D01*
X103541000Y-97439000D01*
X103541000Y-98141000D01*
X103541000Y-98141000D01*
G37*
G36*
X55583252Y-93612818D02*
X55583254Y-93612819D01*
X55583255Y-93612819D01*
X55956513Y-93767427D01*
X56003985Y-93799147D01*
X56292439Y-93991886D01*
X56578114Y-94277561D01*
X56578116Y-94277564D01*
X56802573Y-94613487D01*
X56957181Y-94986745D01*
X56957182Y-94986748D01*
X57027949Y-95342519D01*
X57036000Y-95382994D01*
X57036000Y-95787006D01*
X56957181Y-96183255D01*
X56802573Y-96556513D01*
X56704495Y-96703297D01*
X56578114Y-96892439D01*
X56292439Y-97178114D01*
X56292436Y-97178116D01*
X55956513Y-97402573D01*
X55583255Y-97557181D01*
X55583254Y-97557181D01*
X55583252Y-97557182D01*
X55187007Y-97636000D01*
X54782993Y-97636000D01*
X54386748Y-97557182D01*
X54386746Y-97557181D01*
X54386745Y-97557181D01*
X54013487Y-97402573D01*
X53677564Y-97178116D01*
X53677561Y-97178114D01*
X53391886Y-96892439D01*
X53265505Y-96703297D01*
X53167427Y-96556513D01*
X53012819Y-96183255D01*
X52934000Y-95787006D01*
X52934000Y-95382994D01*
X52942051Y-95342519D01*
X53012818Y-94986748D01*
X53012819Y-94986745D01*
X53167427Y-94613487D01*
X53391884Y-94277564D01*
X53391886Y-94277561D01*
X53677561Y-93991886D01*
X53966015Y-93799147D01*
X54013487Y-93767427D01*
X54386745Y-93612819D01*
X54386746Y-93612819D01*
X54386748Y-93612818D01*
X54782993Y-93534000D01*
X55187007Y-93534000D01*
X55583252Y-93612818D01*
X55583252Y-93612818D01*
G37*
G36*
X80583252Y-93612818D02*
X80583254Y-93612819D01*
X80583255Y-93612819D01*
X80956513Y-93767427D01*
X81003985Y-93799147D01*
X81292439Y-93991886D01*
X81578114Y-94277561D01*
X81578116Y-94277564D01*
X81802573Y-94613487D01*
X81957181Y-94986745D01*
X81957182Y-94986748D01*
X82027949Y-95342519D01*
X82036000Y-95382994D01*
X82036000Y-95787006D01*
X81957181Y-96183255D01*
X81802573Y-96556513D01*
X81704495Y-96703297D01*
X81578114Y-96892439D01*
X81292439Y-97178114D01*
X81292436Y-97178116D01*
X80956513Y-97402573D01*
X80583255Y-97557181D01*
X80583254Y-97557181D01*
X80583252Y-97557182D01*
X80187007Y-97636000D01*
X79782993Y-97636000D01*
X79386748Y-97557182D01*
X79386746Y-97557181D01*
X79386745Y-97557181D01*
X79013487Y-97402573D01*
X78677564Y-97178116D01*
X78677561Y-97178114D01*
X78391886Y-96892439D01*
X78265505Y-96703297D01*
X78167427Y-96556513D01*
X78012819Y-96183255D01*
X77934000Y-95787006D01*
X77934000Y-95382994D01*
X77942051Y-95342519D01*
X78012818Y-94986748D01*
X78012819Y-94986745D01*
X78167427Y-94613487D01*
X78391884Y-94277564D01*
X78391886Y-94277561D01*
X78677561Y-93991886D01*
X78966015Y-93799147D01*
X79013487Y-93767427D01*
X79386745Y-93612819D01*
X79386746Y-93612819D01*
X79386748Y-93612818D01*
X79782993Y-93534000D01*
X80187007Y-93534000D01*
X80583252Y-93612818D01*
X80583252Y-93612818D01*
G37*
G36*
X118756000Y-97506000D02*
X116704000Y-97506000D01*
X116704000Y-96804000D01*
X118756000Y-96804000D01*
X118756000Y-97506000D01*
X118756000Y-97506000D01*
G37*
G36*
X109356000Y-97506000D02*
X107304000Y-97506000D01*
X107304000Y-96804000D01*
X109356000Y-96804000D01*
X109356000Y-97506000D01*
X109356000Y-97506000D01*
G37*
G36*
X103541000Y-96871000D02*
X101439000Y-96871000D01*
X101439000Y-96169000D01*
X103541000Y-96169000D01*
X103541000Y-96871000D01*
X103541000Y-96871000D01*
G37*
G36*
X94141000Y-96871000D02*
X92039000Y-96871000D01*
X92039000Y-96169000D01*
X94141000Y-96169000D01*
X94141000Y-96871000D01*
X94141000Y-96871000D01*
G37*
G36*
X70503228Y-95066703D02*
X70658100Y-95130853D01*
X70797481Y-95223985D01*
X70916015Y-95342519D01*
X71009147Y-95481900D01*
X71073297Y-95636772D01*
X71106000Y-95801184D01*
X71106000Y-95968816D01*
X71073297Y-96133228D01*
X71009147Y-96288100D01*
X70916015Y-96427481D01*
X70797481Y-96546015D01*
X70658100Y-96639147D01*
X70503228Y-96703297D01*
X70338816Y-96736000D01*
X70171184Y-96736000D01*
X70006772Y-96703297D01*
X69851900Y-96639147D01*
X69712519Y-96546015D01*
X69593985Y-96427481D01*
X69500853Y-96288100D01*
X69436703Y-96133228D01*
X69404000Y-95968816D01*
X69404000Y-95801184D01*
X69436703Y-95636772D01*
X69500853Y-95481900D01*
X69593985Y-95342519D01*
X69712519Y-95223985D01*
X69851900Y-95130853D01*
X70006772Y-95066703D01*
X70171184Y-95034000D01*
X70338816Y-95034000D01*
X70503228Y-95066703D01*
X70503228Y-95066703D01*
G37*
G36*
X67733228Y-95066703D02*
X67888100Y-95130853D01*
X68027481Y-95223985D01*
X68146015Y-95342519D01*
X68239147Y-95481900D01*
X68303297Y-95636772D01*
X68336000Y-95801184D01*
X68336000Y-95968816D01*
X68303297Y-96133228D01*
X68239147Y-96288100D01*
X68146015Y-96427481D01*
X68027481Y-96546015D01*
X67888100Y-96639147D01*
X67733228Y-96703297D01*
X67568816Y-96736000D01*
X67401184Y-96736000D01*
X67236772Y-96703297D01*
X67081900Y-96639147D01*
X66942519Y-96546015D01*
X66823985Y-96427481D01*
X66730853Y-96288100D01*
X66666703Y-96133228D01*
X66634000Y-95968816D01*
X66634000Y-95801184D01*
X66666703Y-95636772D01*
X66730853Y-95481900D01*
X66823985Y-95342519D01*
X66942519Y-95223985D01*
X67081900Y-95130853D01*
X67236772Y-95066703D01*
X67401184Y-95034000D01*
X67568816Y-95034000D01*
X67733228Y-95066703D01*
X67733228Y-95066703D01*
G37*
G36*
X62193228Y-95066703D02*
X62348100Y-95130853D01*
X62487481Y-95223985D01*
X62606015Y-95342519D01*
X62699147Y-95481900D01*
X62763297Y-95636772D01*
X62796000Y-95801184D01*
X62796000Y-95968816D01*
X62763297Y-96133228D01*
X62699147Y-96288100D01*
X62606015Y-96427481D01*
X62487481Y-96546015D01*
X62348100Y-96639147D01*
X62193228Y-96703297D01*
X62028816Y-96736000D01*
X61861184Y-96736000D01*
X61696772Y-96703297D01*
X61541900Y-96639147D01*
X61402519Y-96546015D01*
X61283985Y-96427481D01*
X61190853Y-96288100D01*
X61126703Y-96133228D01*
X61094000Y-95968816D01*
X61094000Y-95801184D01*
X61126703Y-95636772D01*
X61190853Y-95481900D01*
X61283985Y-95342519D01*
X61402519Y-95223985D01*
X61541900Y-95130853D01*
X61696772Y-95066703D01*
X61861184Y-95034000D01*
X62028816Y-95034000D01*
X62193228Y-95066703D01*
X62193228Y-95066703D01*
G37*
G36*
X73876000Y-96736000D02*
X72174000Y-96736000D01*
X72174000Y-95034000D01*
X73876000Y-95034000D01*
X73876000Y-96736000D01*
X73876000Y-96736000D01*
G37*
G36*
X64963228Y-95066703D02*
X65118100Y-95130853D01*
X65257481Y-95223985D01*
X65376015Y-95342519D01*
X65469147Y-95481900D01*
X65533297Y-95636772D01*
X65566000Y-95801184D01*
X65566000Y-95968816D01*
X65533297Y-96133228D01*
X65469147Y-96288100D01*
X65376015Y-96427481D01*
X65257481Y-96546015D01*
X65118100Y-96639147D01*
X64963228Y-96703297D01*
X64798816Y-96736000D01*
X64631184Y-96736000D01*
X64466772Y-96703297D01*
X64311900Y-96639147D01*
X64172519Y-96546015D01*
X64053985Y-96427481D01*
X63960853Y-96288100D01*
X63896703Y-96133228D01*
X63864000Y-95968816D01*
X63864000Y-95801184D01*
X63896703Y-95636772D01*
X63960853Y-95481900D01*
X64053985Y-95342519D01*
X64172519Y-95223985D01*
X64311900Y-95130853D01*
X64466772Y-95066703D01*
X64631184Y-95034000D01*
X64798816Y-95034000D01*
X64963228Y-95066703D01*
X64963228Y-95066703D01*
G37*
G36*
X118756000Y-96236000D02*
X116704000Y-96236000D01*
X116704000Y-95534000D01*
X118756000Y-95534000D01*
X118756000Y-96236000D01*
X118756000Y-96236000D01*
G37*
G36*
X109356000Y-96236000D02*
X107304000Y-96236000D01*
X107304000Y-95534000D01*
X109356000Y-95534000D01*
X109356000Y-96236000D01*
X109356000Y-96236000D01*
G37*
G36*
X136982537Y-93097836D02*
X137017452Y-93108428D01*
X137049640Y-93125633D01*
X137077848Y-93148782D01*
X137100997Y-93176990D01*
X137118202Y-93209178D01*
X137128794Y-93244093D01*
X137132975Y-93286550D01*
X137132975Y-94427760D01*
X137128794Y-94470217D01*
X137118202Y-94505132D01*
X137100997Y-94537320D01*
X137077848Y-94565528D01*
X137049640Y-94588677D01*
X137017452Y-94605882D01*
X136982537Y-94616474D01*
X136940080Y-94620655D01*
X135473870Y-94620655D01*
X135431413Y-94616474D01*
X135396498Y-94605882D01*
X135364310Y-94588677D01*
X135336102Y-94565528D01*
X135312953Y-94537320D01*
X135295748Y-94505132D01*
X135285156Y-94470217D01*
X135280975Y-94427760D01*
X135280975Y-93286550D01*
X135285156Y-93244093D01*
X135295748Y-93209178D01*
X135312953Y-93176990D01*
X135336102Y-93148782D01*
X135364310Y-93125633D01*
X135396498Y-93108428D01*
X135431413Y-93097836D01*
X135473870Y-93093655D01*
X136940080Y-93093655D01*
X136982537Y-93097836D01*
X136982537Y-93097836D01*
G37*
G36*
X131902537Y-93097836D02*
X131937452Y-93108428D01*
X131969640Y-93125633D01*
X131997848Y-93148782D01*
X132020997Y-93176990D01*
X132038202Y-93209178D01*
X132048794Y-93244093D01*
X132052975Y-93286550D01*
X132052975Y-94427760D01*
X132048794Y-94470217D01*
X132038202Y-94505132D01*
X132020997Y-94537320D01*
X131997848Y-94565528D01*
X131969640Y-94588677D01*
X131937452Y-94605882D01*
X131902537Y-94616474D01*
X131860080Y-94620655D01*
X130393870Y-94620655D01*
X130351413Y-94616474D01*
X130316498Y-94605882D01*
X130284310Y-94588677D01*
X130256102Y-94565528D01*
X130232953Y-94537320D01*
X130215748Y-94505132D01*
X130205156Y-94470217D01*
X130200975Y-94427760D01*
X130200975Y-93286550D01*
X130205156Y-93244093D01*
X130215748Y-93209178D01*
X130232953Y-93176990D01*
X130256102Y-93148782D01*
X130284310Y-93125633D01*
X130316498Y-93108428D01*
X130351413Y-93097836D01*
X130393870Y-93093655D01*
X131860080Y-93093655D01*
X131902537Y-93097836D01*
X131902537Y-93097836D01*
G37*
G36*
X126822537Y-93097836D02*
X126857452Y-93108428D01*
X126889640Y-93125633D01*
X126917848Y-93148782D01*
X126940997Y-93176990D01*
X126958202Y-93209178D01*
X126968794Y-93244093D01*
X126972975Y-93286550D01*
X126972975Y-94427760D01*
X126968794Y-94470217D01*
X126958202Y-94505132D01*
X126940997Y-94537320D01*
X126917848Y-94565528D01*
X126889640Y-94588677D01*
X126857452Y-94605882D01*
X126822537Y-94616474D01*
X126780080Y-94620655D01*
X125313870Y-94620655D01*
X125271413Y-94616474D01*
X125236498Y-94605882D01*
X125204310Y-94588677D01*
X125176102Y-94565528D01*
X125152953Y-94537320D01*
X125135748Y-94505132D01*
X125125156Y-94470217D01*
X125120975Y-94427760D01*
X125120975Y-93286550D01*
X125125156Y-93244093D01*
X125135748Y-93209178D01*
X125152953Y-93176990D01*
X125176102Y-93148782D01*
X125204310Y-93125633D01*
X125236498Y-93108428D01*
X125271413Y-93097836D01*
X125313870Y-93093655D01*
X126780080Y-93093655D01*
X126822537Y-93097836D01*
X126822537Y-93097836D01*
G37*
G36*
X143550037Y-93097836D02*
X143584952Y-93108428D01*
X143617140Y-93125633D01*
X143645348Y-93148782D01*
X143668497Y-93176990D01*
X143685702Y-93209178D01*
X143696294Y-93244093D01*
X143700475Y-93286550D01*
X143700475Y-94427760D01*
X143696294Y-94470217D01*
X143685702Y-94505132D01*
X143668497Y-94537320D01*
X143645348Y-94565528D01*
X143617140Y-94588677D01*
X143584952Y-94605882D01*
X143550037Y-94616474D01*
X143507580Y-94620655D01*
X142041370Y-94620655D01*
X141998913Y-94616474D01*
X141963998Y-94605882D01*
X141931810Y-94588677D01*
X141903602Y-94565528D01*
X141880453Y-94537320D01*
X141863248Y-94505132D01*
X141852656Y-94470217D01*
X141848475Y-94427760D01*
X141848475Y-93286550D01*
X141852656Y-93244093D01*
X141863248Y-93209178D01*
X141880453Y-93176990D01*
X141903602Y-93148782D01*
X141931810Y-93125633D01*
X141963998Y-93108428D01*
X141998913Y-93097836D01*
X142041370Y-93093655D01*
X143507580Y-93093655D01*
X143550037Y-93097836D01*
X143550037Y-93097836D01*
G37*
G36*
X148412537Y-93097836D02*
X148447452Y-93108428D01*
X148479640Y-93125633D01*
X148507848Y-93148782D01*
X148530997Y-93176990D01*
X148548202Y-93209178D01*
X148558794Y-93244093D01*
X148562975Y-93286550D01*
X148562975Y-94427760D01*
X148558794Y-94470217D01*
X148548202Y-94505132D01*
X148530997Y-94537320D01*
X148507848Y-94565528D01*
X148479640Y-94588677D01*
X148447452Y-94605882D01*
X148412537Y-94616474D01*
X148370080Y-94620655D01*
X146903870Y-94620655D01*
X146861413Y-94616474D01*
X146826498Y-94605882D01*
X146794310Y-94588677D01*
X146766102Y-94565528D01*
X146742953Y-94537320D01*
X146725748Y-94505132D01*
X146715156Y-94470217D01*
X146710975Y-94427760D01*
X146710975Y-93286550D01*
X146715156Y-93244093D01*
X146725748Y-93209178D01*
X146742953Y-93176990D01*
X146766102Y-93148782D01*
X146794310Y-93125633D01*
X146826498Y-93108428D01*
X146861413Y-93097836D01*
X146903870Y-93093655D01*
X148370080Y-93093655D01*
X148412537Y-93097836D01*
X148412537Y-93097836D01*
G37*
G36*
X63578228Y-92226703D02*
X63733100Y-92290853D01*
X63872481Y-92383985D01*
X63991015Y-92502519D01*
X64084147Y-92641900D01*
X64148297Y-92796772D01*
X64181000Y-92961184D01*
X64181000Y-93128816D01*
X64148297Y-93293228D01*
X64084147Y-93448100D01*
X63991015Y-93587481D01*
X63872481Y-93706015D01*
X63733100Y-93799147D01*
X63578228Y-93863297D01*
X63413816Y-93896000D01*
X63246184Y-93896000D01*
X63081772Y-93863297D01*
X62926900Y-93799147D01*
X62787519Y-93706015D01*
X62668985Y-93587481D01*
X62575853Y-93448100D01*
X62511703Y-93293228D01*
X62479000Y-93128816D01*
X62479000Y-92961184D01*
X62511703Y-92796772D01*
X62575853Y-92641900D01*
X62668985Y-92502519D01*
X62787519Y-92383985D01*
X62926900Y-92290853D01*
X63081772Y-92226703D01*
X63246184Y-92194000D01*
X63413816Y-92194000D01*
X63578228Y-92226703D01*
X63578228Y-92226703D01*
G37*
G36*
X71888228Y-92226703D02*
X72043100Y-92290853D01*
X72182481Y-92383985D01*
X72301015Y-92502519D01*
X72394147Y-92641900D01*
X72458297Y-92796772D01*
X72491000Y-92961184D01*
X72491000Y-93128816D01*
X72458297Y-93293228D01*
X72394147Y-93448100D01*
X72301015Y-93587481D01*
X72182481Y-93706015D01*
X72043100Y-93799147D01*
X71888228Y-93863297D01*
X71723816Y-93896000D01*
X71556184Y-93896000D01*
X71391772Y-93863297D01*
X71236900Y-93799147D01*
X71097519Y-93706015D01*
X70978985Y-93587481D01*
X70885853Y-93448100D01*
X70821703Y-93293228D01*
X70789000Y-93128816D01*
X70789000Y-92961184D01*
X70821703Y-92796772D01*
X70885853Y-92641900D01*
X70978985Y-92502519D01*
X71097519Y-92383985D01*
X71236900Y-92290853D01*
X71391772Y-92226703D01*
X71556184Y-92194000D01*
X71723816Y-92194000D01*
X71888228Y-92226703D01*
X71888228Y-92226703D01*
G37*
G36*
X69118228Y-92226703D02*
X69273100Y-92290853D01*
X69412481Y-92383985D01*
X69531015Y-92502519D01*
X69624147Y-92641900D01*
X69688297Y-92796772D01*
X69721000Y-92961184D01*
X69721000Y-93128816D01*
X69688297Y-93293228D01*
X69624147Y-93448100D01*
X69531015Y-93587481D01*
X69412481Y-93706015D01*
X69273100Y-93799147D01*
X69118228Y-93863297D01*
X68953816Y-93896000D01*
X68786184Y-93896000D01*
X68621772Y-93863297D01*
X68466900Y-93799147D01*
X68327519Y-93706015D01*
X68208985Y-93587481D01*
X68115853Y-93448100D01*
X68051703Y-93293228D01*
X68019000Y-93128816D01*
X68019000Y-92961184D01*
X68051703Y-92796772D01*
X68115853Y-92641900D01*
X68208985Y-92502519D01*
X68327519Y-92383985D01*
X68466900Y-92290853D01*
X68621772Y-92226703D01*
X68786184Y-92194000D01*
X68953816Y-92194000D01*
X69118228Y-92226703D01*
X69118228Y-92226703D01*
G37*
G36*
X66348228Y-92226703D02*
X66503100Y-92290853D01*
X66642481Y-92383985D01*
X66761015Y-92502519D01*
X66854147Y-92641900D01*
X66918297Y-92796772D01*
X66951000Y-92961184D01*
X66951000Y-93128816D01*
X66918297Y-93293228D01*
X66854147Y-93448100D01*
X66761015Y-93587481D01*
X66642481Y-93706015D01*
X66503100Y-93799147D01*
X66348228Y-93863297D01*
X66183816Y-93896000D01*
X66016184Y-93896000D01*
X65851772Y-93863297D01*
X65696900Y-93799147D01*
X65557519Y-93706015D01*
X65438985Y-93587481D01*
X65345853Y-93448100D01*
X65281703Y-93293228D01*
X65249000Y-93128816D01*
X65249000Y-92961184D01*
X65281703Y-92796772D01*
X65345853Y-92641900D01*
X65438985Y-92502519D01*
X65557519Y-92383985D01*
X65696900Y-92290853D01*
X65851772Y-92226703D01*
X66016184Y-92194000D01*
X66183816Y-92194000D01*
X66348228Y-92226703D01*
X66348228Y-92226703D01*
G37*
G36*
X115548062Y-91788181D02*
X115582977Y-91798773D01*
X115615165Y-91815978D01*
X115643373Y-91839127D01*
X115666522Y-91867335D01*
X115683727Y-91899523D01*
X115694319Y-91934438D01*
X115698500Y-91976895D01*
X115698500Y-93443105D01*
X115694319Y-93485562D01*
X115683727Y-93520477D01*
X115666522Y-93552665D01*
X115643373Y-93580873D01*
X115615165Y-93604022D01*
X115582977Y-93621227D01*
X115548062Y-93631819D01*
X115505605Y-93636000D01*
X114364395Y-93636000D01*
X114321938Y-93631819D01*
X114287023Y-93621227D01*
X114254835Y-93604022D01*
X114226627Y-93580873D01*
X114203478Y-93552665D01*
X114186273Y-93520477D01*
X114175681Y-93485562D01*
X114171500Y-93443105D01*
X114171500Y-91976895D01*
X114175681Y-91934438D01*
X114186273Y-91899523D01*
X114203478Y-91867335D01*
X114226627Y-91839127D01*
X114254835Y-91815978D01*
X114287023Y-91798773D01*
X114321938Y-91788181D01*
X114364395Y-91784000D01*
X115505605Y-91784000D01*
X115548062Y-91788181D01*
X115548062Y-91788181D01*
G37*
G36*
X112573062Y-91788181D02*
X112607977Y-91798773D01*
X112640165Y-91815978D01*
X112668373Y-91839127D01*
X112691522Y-91867335D01*
X112708727Y-91899523D01*
X112719319Y-91934438D01*
X112723500Y-91976895D01*
X112723500Y-93443105D01*
X112719319Y-93485562D01*
X112708727Y-93520477D01*
X112691522Y-93552665D01*
X112668373Y-93580873D01*
X112640165Y-93604022D01*
X112607977Y-93621227D01*
X112573062Y-93631819D01*
X112530605Y-93636000D01*
X111389395Y-93636000D01*
X111346938Y-93631819D01*
X111312023Y-93621227D01*
X111279835Y-93604022D01*
X111251627Y-93580873D01*
X111228478Y-93552665D01*
X111211273Y-93520477D01*
X111200681Y-93485562D01*
X111196500Y-93443105D01*
X111196500Y-91976895D01*
X111200681Y-91934438D01*
X111211273Y-91899523D01*
X111228478Y-91867335D01*
X111251627Y-91839127D01*
X111279835Y-91815978D01*
X111312023Y-91798773D01*
X111346938Y-91788181D01*
X111389395Y-91784000D01*
X112530605Y-91784000D01*
X112573062Y-91788181D01*
X112573062Y-91788181D01*
G37*
G36*
X105588062Y-91788181D02*
X105622977Y-91798773D01*
X105655165Y-91815978D01*
X105683373Y-91839127D01*
X105706522Y-91867335D01*
X105723727Y-91899523D01*
X105734319Y-91934438D01*
X105738500Y-91976895D01*
X105738500Y-93443105D01*
X105734319Y-93485562D01*
X105723727Y-93520477D01*
X105706522Y-93552665D01*
X105683373Y-93580873D01*
X105655165Y-93604022D01*
X105622977Y-93621227D01*
X105588062Y-93631819D01*
X105545605Y-93636000D01*
X104404395Y-93636000D01*
X104361938Y-93631819D01*
X104327023Y-93621227D01*
X104294835Y-93604022D01*
X104266627Y-93580873D01*
X104243478Y-93552665D01*
X104226273Y-93520477D01*
X104215681Y-93485562D01*
X104211500Y-93443105D01*
X104211500Y-91976895D01*
X104215681Y-91934438D01*
X104226273Y-91899523D01*
X104243478Y-91867335D01*
X104266627Y-91839127D01*
X104294835Y-91815978D01*
X104327023Y-91798773D01*
X104361938Y-91788181D01*
X104404395Y-91784000D01*
X105545605Y-91784000D01*
X105588062Y-91788181D01*
X105588062Y-91788181D01*
G37*
G36*
X108563062Y-91788181D02*
X108597977Y-91798773D01*
X108630165Y-91815978D01*
X108658373Y-91839127D01*
X108681522Y-91867335D01*
X108698727Y-91899523D01*
X108709319Y-91934438D01*
X108713500Y-91976895D01*
X108713500Y-93443105D01*
X108709319Y-93485562D01*
X108698727Y-93520477D01*
X108681522Y-93552665D01*
X108658373Y-93580873D01*
X108630165Y-93604022D01*
X108597977Y-93621227D01*
X108563062Y-93631819D01*
X108520605Y-93636000D01*
X107379395Y-93636000D01*
X107336938Y-93631819D01*
X107302023Y-93621227D01*
X107269835Y-93604022D01*
X107241627Y-93580873D01*
X107218478Y-93552665D01*
X107201273Y-93520477D01*
X107190681Y-93485562D01*
X107186500Y-93443105D01*
X107186500Y-91976895D01*
X107190681Y-91934438D01*
X107201273Y-91899523D01*
X107218478Y-91867335D01*
X107241627Y-91839127D01*
X107269835Y-91815978D01*
X107302023Y-91798773D01*
X107336938Y-91788181D01*
X107379395Y-91784000D01*
X108520605Y-91784000D01*
X108563062Y-91788181D01*
X108563062Y-91788181D01*
G37*
G36*
X117988004Y-91970544D02*
X118075059Y-91987860D01*
X118211732Y-92044472D01*
X118211733Y-92044473D01*
X118334738Y-92126662D01*
X118439338Y-92231262D01*
X118439340Y-92231265D01*
X118521528Y-92354268D01*
X118578140Y-92490941D01*
X118595456Y-92577996D01*
X118607000Y-92636031D01*
X118607000Y-92783969D01*
X118596725Y-92835624D01*
X118578140Y-92929059D01*
X118521528Y-93065732D01*
X118466036Y-93148782D01*
X118439338Y-93188738D01*
X118334738Y-93293338D01*
X118334735Y-93293340D01*
X118211732Y-93375528D01*
X118075059Y-93432140D01*
X117994821Y-93448100D01*
X117929969Y-93461000D01*
X117782031Y-93461000D01*
X117717179Y-93448100D01*
X117636941Y-93432140D01*
X117500268Y-93375528D01*
X117377265Y-93293340D01*
X117377262Y-93293338D01*
X117272662Y-93188738D01*
X117245964Y-93148782D01*
X117190472Y-93065732D01*
X117133860Y-92929059D01*
X117115275Y-92835624D01*
X117105000Y-92783969D01*
X117105000Y-92636031D01*
X117116544Y-92577996D01*
X117133860Y-92490941D01*
X117190472Y-92354268D01*
X117272660Y-92231265D01*
X117272662Y-92231262D01*
X117377262Y-92126662D01*
X117500267Y-92044473D01*
X117500268Y-92044472D01*
X117636941Y-91987860D01*
X117723996Y-91970544D01*
X117782031Y-91959000D01*
X117929969Y-91959000D01*
X117988004Y-91970544D01*
X117988004Y-91970544D01*
G37*
G36*
X120528004Y-91970544D02*
X120615059Y-91987860D01*
X120751732Y-92044472D01*
X120751733Y-92044473D01*
X120874738Y-92126662D01*
X120979338Y-92231262D01*
X120979340Y-92231265D01*
X121061528Y-92354268D01*
X121118140Y-92490941D01*
X121135456Y-92577996D01*
X121147000Y-92636031D01*
X121147000Y-92783969D01*
X121136725Y-92835624D01*
X121118140Y-92929059D01*
X121061528Y-93065732D01*
X121006036Y-93148782D01*
X120979338Y-93188738D01*
X120874738Y-93293338D01*
X120874735Y-93293340D01*
X120751732Y-93375528D01*
X120615059Y-93432140D01*
X120534821Y-93448100D01*
X120469969Y-93461000D01*
X120322031Y-93461000D01*
X120257179Y-93448100D01*
X120176941Y-93432140D01*
X120040268Y-93375528D01*
X119917265Y-93293340D01*
X119917262Y-93293338D01*
X119812662Y-93188738D01*
X119785964Y-93148782D01*
X119730472Y-93065732D01*
X119673860Y-92929059D01*
X119655275Y-92835624D01*
X119645000Y-92783969D01*
X119645000Y-92636031D01*
X119656544Y-92577996D01*
X119673860Y-92490941D01*
X119730472Y-92354268D01*
X119812660Y-92231265D01*
X119812662Y-92231262D01*
X119917262Y-92126662D01*
X120040267Y-92044473D01*
X120040268Y-92044472D01*
X120176941Y-91987860D01*
X120263996Y-91970544D01*
X120322031Y-91959000D01*
X120469969Y-91959000D01*
X120528004Y-91970544D01*
X120528004Y-91970544D01*
G37*
G36*
X101654262Y-91178581D02*
X101689177Y-91189173D01*
X101721365Y-91206378D01*
X101749573Y-91229527D01*
X101772722Y-91257735D01*
X101789927Y-91289923D01*
X101800519Y-91324838D01*
X101804700Y-91367295D01*
X101804700Y-92833505D01*
X101800519Y-92875962D01*
X101789927Y-92910877D01*
X101772722Y-92943065D01*
X101749573Y-92971273D01*
X101721365Y-92994422D01*
X101689177Y-93011627D01*
X101654262Y-93022219D01*
X101611805Y-93026400D01*
X100470595Y-93026400D01*
X100428138Y-93022219D01*
X100393223Y-93011627D01*
X100361035Y-92994422D01*
X100332827Y-92971273D01*
X100309678Y-92943065D01*
X100292473Y-92910877D01*
X100281881Y-92875962D01*
X100277700Y-92833505D01*
X100277700Y-91367295D01*
X100281881Y-91324838D01*
X100292473Y-91289923D01*
X100309678Y-91257735D01*
X100332827Y-91229527D01*
X100361035Y-91206378D01*
X100393223Y-91189173D01*
X100428138Y-91178581D01*
X100470595Y-91174400D01*
X101611805Y-91174400D01*
X101654262Y-91178581D01*
X101654262Y-91178581D01*
G37*
G36*
X98679262Y-91178581D02*
X98714177Y-91189173D01*
X98746365Y-91206378D01*
X98774573Y-91229527D01*
X98797722Y-91257735D01*
X98814927Y-91289923D01*
X98825519Y-91324838D01*
X98829700Y-91367295D01*
X98829700Y-92833505D01*
X98825519Y-92875962D01*
X98814927Y-92910877D01*
X98797722Y-92943065D01*
X98774573Y-92971273D01*
X98746365Y-92994422D01*
X98714177Y-93011627D01*
X98679262Y-93022219D01*
X98636805Y-93026400D01*
X97495595Y-93026400D01*
X97453138Y-93022219D01*
X97418223Y-93011627D01*
X97386035Y-92994422D01*
X97357827Y-92971273D01*
X97334678Y-92943065D01*
X97317473Y-92910877D01*
X97306881Y-92875962D01*
X97302700Y-92833505D01*
X97302700Y-91367295D01*
X97306881Y-91324838D01*
X97317473Y-91289923D01*
X97334678Y-91257735D01*
X97357827Y-91229527D01*
X97386035Y-91206378D01*
X97418223Y-91189173D01*
X97453138Y-91178581D01*
X97495595Y-91174400D01*
X98636805Y-91174400D01*
X98679262Y-91178581D01*
X98679262Y-91178581D01*
G37*
G36*
X95028062Y-91153181D02*
X95062977Y-91163773D01*
X95095165Y-91180978D01*
X95123373Y-91204127D01*
X95146522Y-91232335D01*
X95163727Y-91264523D01*
X95174319Y-91299438D01*
X95178500Y-91341895D01*
X95178500Y-92808105D01*
X95174319Y-92850562D01*
X95163727Y-92885477D01*
X95146522Y-92917665D01*
X95123373Y-92945873D01*
X95095165Y-92969022D01*
X95062977Y-92986227D01*
X95028062Y-92996819D01*
X94985605Y-93001000D01*
X93844395Y-93001000D01*
X93801938Y-92996819D01*
X93767023Y-92986227D01*
X93734835Y-92969022D01*
X93706627Y-92945873D01*
X93683478Y-92917665D01*
X93666273Y-92885477D01*
X93655681Y-92850562D01*
X93651500Y-92808105D01*
X93651500Y-91341895D01*
X93655681Y-91299438D01*
X93666273Y-91264523D01*
X93683478Y-91232335D01*
X93706627Y-91204127D01*
X93734835Y-91180978D01*
X93767023Y-91163773D01*
X93801938Y-91153181D01*
X93844395Y-91149000D01*
X94985605Y-91149000D01*
X95028062Y-91153181D01*
X95028062Y-91153181D01*
G37*
G36*
X92053062Y-91153181D02*
X92087977Y-91163773D01*
X92120165Y-91180978D01*
X92148373Y-91204127D01*
X92171522Y-91232335D01*
X92188727Y-91264523D01*
X92199319Y-91299438D01*
X92203500Y-91341895D01*
X92203500Y-92808105D01*
X92199319Y-92850562D01*
X92188727Y-92885477D01*
X92171522Y-92917665D01*
X92148373Y-92945873D01*
X92120165Y-92969022D01*
X92087977Y-92986227D01*
X92053062Y-92996819D01*
X92010605Y-93001000D01*
X90869395Y-93001000D01*
X90826938Y-92996819D01*
X90792023Y-92986227D01*
X90759835Y-92969022D01*
X90731627Y-92945873D01*
X90708478Y-92917665D01*
X90691273Y-92885477D01*
X90680681Y-92850562D01*
X90676500Y-92808105D01*
X90676500Y-91341895D01*
X90680681Y-91299438D01*
X90691273Y-91264523D01*
X90708478Y-91232335D01*
X90731627Y-91204127D01*
X90759835Y-91180978D01*
X90792023Y-91163773D01*
X90826938Y-91153181D01*
X90869395Y-91149000D01*
X92010605Y-91149000D01*
X92053062Y-91153181D01*
X92053062Y-91153181D01*
G37*
G36*
X143550037Y-90122836D02*
X143584952Y-90133428D01*
X143617140Y-90150633D01*
X143645348Y-90173782D01*
X143668497Y-90201990D01*
X143685702Y-90234178D01*
X143696294Y-90269093D01*
X143700475Y-90311550D01*
X143700475Y-91452760D01*
X143696294Y-91495217D01*
X143685702Y-91530132D01*
X143668497Y-91562320D01*
X143645348Y-91590528D01*
X143617140Y-91613677D01*
X143584952Y-91630882D01*
X143550037Y-91641474D01*
X143507580Y-91645655D01*
X142041370Y-91645655D01*
X141998913Y-91641474D01*
X141963998Y-91630882D01*
X141931810Y-91613677D01*
X141903602Y-91590528D01*
X141880453Y-91562320D01*
X141863248Y-91530132D01*
X141852656Y-91495217D01*
X141848475Y-91452760D01*
X141848475Y-90311550D01*
X141852656Y-90269093D01*
X141863248Y-90234178D01*
X141880453Y-90201990D01*
X141903602Y-90173782D01*
X141931810Y-90150633D01*
X141963998Y-90133428D01*
X141998913Y-90122836D01*
X142041370Y-90118655D01*
X143507580Y-90118655D01*
X143550037Y-90122836D01*
X143550037Y-90122836D01*
G37*
G36*
X126822537Y-90122836D02*
X126857452Y-90133428D01*
X126889640Y-90150633D01*
X126917848Y-90173782D01*
X126940997Y-90201990D01*
X126958202Y-90234178D01*
X126968794Y-90269093D01*
X126972975Y-90311550D01*
X126972975Y-91452760D01*
X126968794Y-91495217D01*
X126958202Y-91530132D01*
X126940997Y-91562320D01*
X126917848Y-91590528D01*
X126889640Y-91613677D01*
X126857452Y-91630882D01*
X126822537Y-91641474D01*
X126780080Y-91645655D01*
X125313870Y-91645655D01*
X125271413Y-91641474D01*
X125236498Y-91630882D01*
X125204310Y-91613677D01*
X125176102Y-91590528D01*
X125152953Y-91562320D01*
X125135748Y-91530132D01*
X125125156Y-91495217D01*
X125120975Y-91452760D01*
X125120975Y-90311550D01*
X125125156Y-90269093D01*
X125135748Y-90234178D01*
X125152953Y-90201990D01*
X125176102Y-90173782D01*
X125204310Y-90150633D01*
X125236498Y-90133428D01*
X125271413Y-90122836D01*
X125313870Y-90118655D01*
X126780080Y-90118655D01*
X126822537Y-90122836D01*
X126822537Y-90122836D01*
G37*
G36*
X148412537Y-90122836D02*
X148447452Y-90133428D01*
X148479640Y-90150633D01*
X148507848Y-90173782D01*
X148530997Y-90201990D01*
X148548202Y-90234178D01*
X148558794Y-90269093D01*
X148562975Y-90311550D01*
X148562975Y-91452760D01*
X148558794Y-91495217D01*
X148548202Y-91530132D01*
X148530997Y-91562320D01*
X148507848Y-91590528D01*
X148479640Y-91613677D01*
X148447452Y-91630882D01*
X148412537Y-91641474D01*
X148370080Y-91645655D01*
X146903870Y-91645655D01*
X146861413Y-91641474D01*
X146826498Y-91630882D01*
X146794310Y-91613677D01*
X146766102Y-91590528D01*
X146742953Y-91562320D01*
X146725748Y-91530132D01*
X146715156Y-91495217D01*
X146710975Y-91452760D01*
X146710975Y-90311550D01*
X146715156Y-90269093D01*
X146725748Y-90234178D01*
X146742953Y-90201990D01*
X146766102Y-90173782D01*
X146794310Y-90150633D01*
X146826498Y-90133428D01*
X146861413Y-90122836D01*
X146903870Y-90118655D01*
X148370080Y-90118655D01*
X148412537Y-90122836D01*
X148412537Y-90122836D01*
G37*
G36*
X131902537Y-90122836D02*
X131937452Y-90133428D01*
X131969640Y-90150633D01*
X131997848Y-90173782D01*
X132020997Y-90201990D01*
X132038202Y-90234178D01*
X132048794Y-90269093D01*
X132052975Y-90311550D01*
X132052975Y-91452760D01*
X132048794Y-91495217D01*
X132038202Y-91530132D01*
X132020997Y-91562320D01*
X131997848Y-91590528D01*
X131969640Y-91613677D01*
X131937452Y-91630882D01*
X131902537Y-91641474D01*
X131860080Y-91645655D01*
X130393870Y-91645655D01*
X130351413Y-91641474D01*
X130316498Y-91630882D01*
X130284310Y-91613677D01*
X130256102Y-91590528D01*
X130232953Y-91562320D01*
X130215748Y-91530132D01*
X130205156Y-91495217D01*
X130200975Y-91452760D01*
X130200975Y-90311550D01*
X130205156Y-90269093D01*
X130215748Y-90234178D01*
X130232953Y-90201990D01*
X130256102Y-90173782D01*
X130284310Y-90150633D01*
X130316498Y-90133428D01*
X130351413Y-90122836D01*
X130393870Y-90118655D01*
X131860080Y-90118655D01*
X131902537Y-90122836D01*
X131902537Y-90122836D01*
G37*
G36*
X136982537Y-90122836D02*
X137017452Y-90133428D01*
X137049640Y-90150633D01*
X137077848Y-90173782D01*
X137100997Y-90201990D01*
X137118202Y-90234178D01*
X137128794Y-90269093D01*
X137132975Y-90311550D01*
X137132975Y-91452760D01*
X137128794Y-91495217D01*
X137118202Y-91530132D01*
X137100997Y-91562320D01*
X137077848Y-91590528D01*
X137049640Y-91613677D01*
X137017452Y-91630882D01*
X136982537Y-91641474D01*
X136940080Y-91645655D01*
X135473870Y-91645655D01*
X135431413Y-91641474D01*
X135396498Y-91630882D01*
X135364310Y-91613677D01*
X135336102Y-91590528D01*
X135312953Y-91562320D01*
X135295748Y-91530132D01*
X135285156Y-91495217D01*
X135280975Y-91452760D01*
X135280975Y-90311550D01*
X135285156Y-90269093D01*
X135295748Y-90234178D01*
X135312953Y-90201990D01*
X135336102Y-90173782D01*
X135364310Y-90150633D01*
X135396498Y-90133428D01*
X135431413Y-90122836D01*
X135473870Y-90118655D01*
X136940080Y-90118655D01*
X136982537Y-90122836D01*
X136982537Y-90122836D01*
G37*
G36*
X122228262Y-87927381D02*
X122263177Y-87937973D01*
X122295365Y-87955178D01*
X122323573Y-87978327D01*
X122346722Y-88006535D01*
X122363927Y-88038723D01*
X122374519Y-88073638D01*
X122378700Y-88116095D01*
X122378700Y-89582305D01*
X122374519Y-89624762D01*
X122363927Y-89659677D01*
X122346722Y-89691865D01*
X122323573Y-89720073D01*
X122295365Y-89743222D01*
X122263177Y-89760427D01*
X122228262Y-89771019D01*
X122185805Y-89775200D01*
X121044595Y-89775200D01*
X121002138Y-89771019D01*
X120967223Y-89760427D01*
X120935035Y-89743222D01*
X120906827Y-89720073D01*
X120883678Y-89691865D01*
X120866473Y-89659677D01*
X120855881Y-89624762D01*
X120851700Y-89582305D01*
X120851700Y-88116095D01*
X120855881Y-88073638D01*
X120866473Y-88038723D01*
X120883678Y-88006535D01*
X120906827Y-87978327D01*
X120935035Y-87955178D01*
X120967223Y-87937973D01*
X121002138Y-87927381D01*
X121044595Y-87923200D01*
X122185805Y-87923200D01*
X122228262Y-87927381D01*
X122228262Y-87927381D01*
G37*
G36*
X119253262Y-87927381D02*
X119288177Y-87937973D01*
X119320365Y-87955178D01*
X119348573Y-87978327D01*
X119371722Y-88006535D01*
X119388927Y-88038723D01*
X119399519Y-88073638D01*
X119403700Y-88116095D01*
X119403700Y-89582305D01*
X119399519Y-89624762D01*
X119388927Y-89659677D01*
X119371722Y-89691865D01*
X119348573Y-89720073D01*
X119320365Y-89743222D01*
X119288177Y-89760427D01*
X119253262Y-89771019D01*
X119210805Y-89775200D01*
X118069595Y-89775200D01*
X118027138Y-89771019D01*
X117992223Y-89760427D01*
X117960035Y-89743222D01*
X117931827Y-89720073D01*
X117908678Y-89691865D01*
X117891473Y-89659677D01*
X117880881Y-89624762D01*
X117876700Y-89582305D01*
X117876700Y-88116095D01*
X117880881Y-88073638D01*
X117891473Y-88038723D01*
X117908678Y-88006535D01*
X117931827Y-87978327D01*
X117960035Y-87955178D01*
X117992223Y-87937973D01*
X118027138Y-87927381D01*
X118069595Y-87923200D01*
X119210805Y-87923200D01*
X119253262Y-87927381D01*
X119253262Y-87927381D01*
G37*
G36*
X113360462Y-87927381D02*
X113395377Y-87937973D01*
X113427565Y-87955178D01*
X113455773Y-87978327D01*
X113478922Y-88006535D01*
X113496127Y-88038723D01*
X113506719Y-88073638D01*
X113510900Y-88116095D01*
X113510900Y-89582305D01*
X113506719Y-89624762D01*
X113496127Y-89659677D01*
X113478922Y-89691865D01*
X113455773Y-89720073D01*
X113427565Y-89743222D01*
X113395377Y-89760427D01*
X113360462Y-89771019D01*
X113318005Y-89775200D01*
X112176795Y-89775200D01*
X112134338Y-89771019D01*
X112099423Y-89760427D01*
X112067235Y-89743222D01*
X112039027Y-89720073D01*
X112015878Y-89691865D01*
X111998673Y-89659677D01*
X111988081Y-89624762D01*
X111983900Y-89582305D01*
X111983900Y-88116095D01*
X111988081Y-88073638D01*
X111998673Y-88038723D01*
X112015878Y-88006535D01*
X112039027Y-87978327D01*
X112067235Y-87955178D01*
X112099423Y-87937973D01*
X112134338Y-87927381D01*
X112176795Y-87923200D01*
X113318005Y-87923200D01*
X113360462Y-87927381D01*
X113360462Y-87927381D01*
G37*
G36*
X116335462Y-87927381D02*
X116370377Y-87937973D01*
X116402565Y-87955178D01*
X116430773Y-87978327D01*
X116453922Y-88006535D01*
X116471127Y-88038723D01*
X116481719Y-88073638D01*
X116485900Y-88116095D01*
X116485900Y-89582305D01*
X116481719Y-89624762D01*
X116471127Y-89659677D01*
X116453922Y-89691865D01*
X116430773Y-89720073D01*
X116402565Y-89743222D01*
X116370377Y-89760427D01*
X116335462Y-89771019D01*
X116293005Y-89775200D01*
X115151795Y-89775200D01*
X115109338Y-89771019D01*
X115074423Y-89760427D01*
X115042235Y-89743222D01*
X115014027Y-89720073D01*
X114990878Y-89691865D01*
X114973673Y-89659677D01*
X114963081Y-89624762D01*
X114958900Y-89582305D01*
X114958900Y-88116095D01*
X114963081Y-88073638D01*
X114973673Y-88038723D01*
X114990878Y-88006535D01*
X115014027Y-87978327D01*
X115042235Y-87955178D01*
X115074423Y-87937973D01*
X115109338Y-87927381D01*
X115151795Y-87923200D01*
X116293005Y-87923200D01*
X116335462Y-87927381D01*
X116335462Y-87927381D01*
G37*
M02*
