G04 #@! TF.GenerationSoftware,KiCad,Pcbnew,(5.0.1)-3*
G04 #@! TF.CreationDate,2018-12-19T00:20:38+01:00*
G04 #@! TF.ProjectId,cret,637265742E6B696361645F7063620000,rev?*
G04 #@! TF.SameCoordinates,Original*
G04 #@! TF.FileFunction,Copper,L2,Bot,Signal*
G04 #@! TF.FilePolarity,Positive*
%FSLAX46Y46*%
G04 Gerber Fmt 4.6, Leading zero omitted, Abs format (unit mm)*
G04 Created by KiCad (PCBNEW (5.0.1)-3) date 19/12/2018 0:20:38*
%MOMM*%
%LPD*%
G01*
G04 APERTURE LIST*
G04 #@! TA.AperFunction,ComponentPad*
%ADD10R,1.600000X1.600000*%
G04 #@! TD*
G04 #@! TA.AperFunction,ComponentPad*
%ADD11C,1.600000*%
G04 #@! TD*
G04 #@! TA.AperFunction,ComponentPad*
%ADD12C,4.000000*%
G04 #@! TD*
G04 #@! TA.AperFunction,ComponentPad*
%ADD13C,1.450000*%
G04 #@! TD*
G04 #@! TA.AperFunction,ComponentPad*
%ADD14O,1.900000X1.200000*%
G04 #@! TD*
G04 #@! TA.AperFunction,ComponentPad*
%ADD15C,1.400000*%
G04 #@! TD*
G04 #@! TA.AperFunction,ComponentPad*
%ADD16C,4.800000*%
G04 #@! TD*
G04 #@! TA.AperFunction,ViaPad*
%ADD17C,0.800000*%
G04 #@! TD*
G04 #@! TA.AperFunction,Conductor*
%ADD18C,0.250000*%
G04 #@! TD*
G04 #@! TA.AperFunction,Conductor*
%ADD19C,0.254000*%
G04 #@! TD*
G04 APERTURE END LIST*
D10*
G04 #@! TO.P,CAN1,1*
G04 #@! TO.N,N/C*
X73025000Y-95885000D03*
D11*
G04 #@! TO.P,CAN1,2*
G04 #@! TO.N,Net-(CAN1-Pad2)*
X70255000Y-95885000D03*
G04 #@! TO.P,CAN1,3*
G04 #@! TO.N,GND*
X67485000Y-95885000D03*
G04 #@! TO.P,CAN1,4*
G04 #@! TO.N,N/C*
X64715000Y-95885000D03*
G04 #@! TO.P,CAN1,5*
X61945000Y-95885000D03*
G04 #@! TO.P,CAN1,6*
X71640000Y-93045000D03*
G04 #@! TO.P,CAN1,7*
G04 #@! TO.N,Net-(CAN1-Pad7)*
X68870000Y-93045000D03*
G04 #@! TO.P,CAN1,8*
G04 #@! TO.N,N/C*
X66100000Y-93045000D03*
G04 #@! TO.P,CAN1,9*
X63330000Y-93045000D03*
D12*
G04 #@! TO.P,CAN1,0*
X79985000Y-95585000D03*
X54985000Y-95585000D03*
G04 #@! TD*
G04 #@! TO.P,CAN2,0*
G04 #@! TO.N,N/C*
X80270000Y-141270000D03*
X55270000Y-141270000D03*
D11*
G04 #@! TO.P,CAN2,9*
X71925000Y-143810000D03*
G04 #@! TO.P,CAN2,8*
X69155000Y-143810000D03*
G04 #@! TO.P,CAN2,7*
G04 #@! TO.N,Net-(CAN2-Pad7)*
X66385000Y-143810000D03*
G04 #@! TO.P,CAN2,6*
G04 #@! TO.N,N/C*
X63615000Y-143810000D03*
G04 #@! TO.P,CAN2,5*
X73310000Y-140970000D03*
G04 #@! TO.P,CAN2,4*
X70540000Y-140970000D03*
G04 #@! TO.P,CAN2,3*
G04 #@! TO.N,GND*
X67770000Y-140970000D03*
G04 #@! TO.P,CAN2,2*
G04 #@! TO.N,Net-(CAN2-Pad2)*
X65000000Y-140970000D03*
D10*
G04 #@! TO.P,CAN2,1*
G04 #@! TO.N,N/C*
X62230000Y-140970000D03*
G04 #@! TD*
D13*
G04 #@! TO.P,J7,6*
G04 #@! TO.N,Net-(J7-Pad6)*
X145222500Y-118070000D03*
X145222500Y-113070000D03*
D14*
X147922500Y-119070000D03*
X147922500Y-112070000D03*
G04 #@! TD*
D15*
G04 #@! TO.P,JP1,2*
G04 #@! TO.N,Net-(CAN1-Pad2)*
X64770000Y-104775000D03*
G04 #@! TO.P,JP1,1*
G04 #@! TO.N,Net-(JP1-Pad1)*
X64770000Y-107315000D03*
G04 #@! TD*
G04 #@! TO.P,JP2,2*
G04 #@! TO.N,Net-(CAN2-Pad2)*
X64770000Y-123190000D03*
G04 #@! TO.P,JP2,1*
G04 #@! TO.N,Net-(JP2-Pad1)*
X64770000Y-125730000D03*
G04 #@! TD*
G04 #@! TO.P,JP3,1*
G04 #@! TO.N,GND*
X120396000Y-92710000D03*
G04 #@! TO.P,JP3,2*
G04 #@! TO.N,Net-(IC1-1-Pad4)*
X117856000Y-92710000D03*
G04 #@! TD*
G04 #@! TO.P,JP4,1*
G04 #@! TO.N,GND*
X118110000Y-123190000D03*
G04 #@! TO.P,JP4,2*
G04 #@! TO.N,Net-(IC1-2-Pad4)*
X118110000Y-125730000D03*
G04 #@! TD*
D16*
G04 #@! TO.P,Support1,1*
G04 #@! TO.N,N/C*
X139852400Y-143611600D03*
G04 #@! TD*
G04 #@! TO.P,Support2,1*
G04 #@! TO.N,N/C*
X75234800Y-116890800D03*
G04 #@! TD*
G04 #@! TO.P,Support3,1*
G04 #@! TO.N,N/C*
X98501200Y-116687600D03*
G04 #@! TD*
D17*
G04 #@! TO.N,GND*
X131978400Y-114147600D03*
X131978400Y-116636800D03*
X135331200Y-110642400D03*
X139852400Y-110032800D03*
X127000000Y-121666000D03*
X134874000Y-103327200D03*
X134975600Y-106629200D03*
X143814800Y-111404400D03*
X143662400Y-113634900D03*
X143052800Y-103073200D03*
X55930800Y-118567200D03*
X120700800Y-123088400D03*
X118160800Y-118719600D03*
X132689600Y-99415600D03*
X146608800Y-105968800D03*
X143865600Y-120345200D03*
X135839200Y-127711200D03*
X113487200Y-138379200D03*
X115011200Y-129438400D03*
X87274400Y-135890000D03*
X114046000Y-98653600D03*
X134924800Y-96926400D03*
X64566800Y-128371600D03*
G04 #@! TO.N,V2*
X114849229Y-120396000D03*
X138684000Y-120294400D03*
G04 #@! TO.N,V1*
X131064000Y-102616000D03*
X119837200Y-90474800D03*
X84683600Y-108305600D03*
X99822000Y-93980000D03*
G04 #@! TO.N,Net-(C15-Pad1)*
X136906000Y-116586000D03*
X136906000Y-114554000D03*
G04 #@! TO.N,Net-(C21-Pad1)*
X140970000Y-100838000D03*
X131064000Y-104140000D03*
X123952000Y-110692000D03*
G04 #@! TO.N,Net-(C23-Pad1)*
X122710000Y-115725000D03*
X130048000Y-99060000D03*
G04 #@! TO.N,Net-(CAN1-Pad7)*
X68162500Y-109220000D03*
G04 #@! TO.N,Net-(CAN2-Pad2)*
X58420000Y-128270000D03*
G04 #@! TO.N,Net-(D1-Pad2)*
X139700000Y-115218900D03*
X142240000Y-117348000D03*
G04 #@! TO.N,Net-(IC1-1-Pad2)*
X106045000Y-97155000D03*
X95250000Y-99060000D03*
G04 #@! TO.N,Net-(IC1-1-Pad7)*
X105410000Y-105410000D03*
X110490000Y-105410000D03*
G04 #@! TO.N,Net-(IC1-1-Pad11)*
X115570000Y-107315000D03*
X99695000Y-104140000D03*
G04 #@! TO.N,Net-(IC1-1-Pad13)*
X104460000Y-101600000D03*
X115570000Y-104775000D03*
G04 #@! TO.N,Net-(IC1-1-Pad14)*
X104140000Y-104140000D03*
X112395000Y-104140000D03*
G04 #@! TO.N,Net-(IC1-2-Pad19)*
X122631200Y-126339600D03*
X119278400Y-127508000D03*
G04 #@! TO.N,Net-(IC1-2-Pad14)*
X114935000Y-136525000D03*
X104140000Y-137160000D03*
G04 #@! TO.N,Net-(IC1-2-Pad13)*
X111956998Y-134620000D03*
X104460000Y-134620000D03*
G04 #@! TO.N,Net-(IC1-2-Pad11)*
X115570000Y-140335000D03*
X100520000Y-137160000D03*
G04 #@! TO.N,Net-(IC1-2-Pad7)*
X104775000Y-138430000D03*
X111125000Y-137160000D03*
G04 #@! TO.N,Net-(IC1-2-Pad2)*
X95250000Y-132080000D03*
X106045000Y-130175000D03*
G04 #@! TO.N,Net-(IC2-1-Pad1)*
X90805000Y-96520000D03*
X81026000Y-103886000D03*
G04 #@! TO.N,Net-(IC2-1-Pad2)*
X90678000Y-97790000D03*
X84455000Y-103505000D03*
G04 #@! TO.N,Net-(IC2-2-Pad2)*
X81280000Y-130810000D03*
X90805000Y-130810000D03*
G04 #@! TO.N,Net-(IC2-2-Pad1)*
X90805000Y-129540000D03*
X84455000Y-128905000D03*
G04 #@! TO.N,Net-(J7-Pad3)*
X143535500Y-114808000D03*
X124460000Y-115570000D03*
G04 #@! TO.N,Net-(R7-Pad2)*
X126690000Y-110800000D03*
X129073000Y-109474000D03*
G04 #@! TD*
D18*
G04 #@! TO.N,V2*
X138582400Y-120396000D02*
X138684000Y-120294400D01*
X114849229Y-120396000D02*
X138582400Y-120396000D01*
G04 #@! TO.N,V1*
X131064000Y-97790000D02*
X131064000Y-102616000D01*
X98247200Y-94742000D02*
X84683600Y-108305600D01*
X99060000Y-94742000D02*
X99822000Y-93980000D01*
X98247200Y-94742000D02*
X99060000Y-94742000D01*
X123748800Y-90474800D02*
X124409200Y-91135200D01*
X119837200Y-90474800D02*
X123748800Y-90474800D01*
X124215001Y-90941001D02*
X124409200Y-91135200D01*
X124409200Y-91135200D02*
X131064000Y-97790000D01*
G04 #@! TO.N,Net-(C15-Pad1)*
X136906000Y-116586000D02*
X136906000Y-114554000D01*
G04 #@! TO.N,Net-(C21-Pad1)*
X137668000Y-104140000D02*
X140970000Y-100838000D01*
X130504000Y-104140000D02*
X123952000Y-110692000D01*
X132588000Y-104140000D02*
X130504000Y-104140000D01*
X132588000Y-104140000D02*
X137668000Y-104140000D01*
X131064000Y-104140000D02*
X132588000Y-104140000D01*
G04 #@! TO.N,Net-(C23-Pad1)*
X122710000Y-106398000D02*
X130048000Y-99060000D01*
X122710000Y-115725000D02*
X122710000Y-106398000D01*
G04 #@! TO.N,Net-(CAN1-Pad7)*
X68870000Y-108512500D02*
X68162500Y-109220000D01*
X68870000Y-93045000D02*
X68870000Y-108512500D01*
G04 #@! TO.N,Net-(CAN2-Pad2)*
X60325000Y-136295000D02*
X65000000Y-140970000D01*
X60325000Y-129540000D02*
X60325000Y-136295000D01*
X58420000Y-128270000D02*
X59055000Y-128270000D01*
X59055000Y-128270000D02*
X60325000Y-129540000D01*
G04 #@! TO.N,Net-(D1-Pad2)*
X141829100Y-117348000D02*
X142240000Y-117348000D01*
X139700000Y-115218900D02*
X141829100Y-117348000D01*
G04 #@! TO.N,Net-(IC1-1-Pad2)*
X97155000Y-97155000D02*
X95250000Y-99060000D01*
X106045000Y-97155000D02*
X97155000Y-97155000D01*
G04 #@! TO.N,Net-(IC1-1-Pad7)*
X105410000Y-105410000D02*
X110490000Y-105410000D01*
G04 #@! TO.N,Net-(IC1-1-Pad11)*
X101600000Y-107315000D02*
X115570000Y-107315000D01*
X99695000Y-104140000D02*
X99695000Y-105410000D01*
X99695000Y-105410000D02*
X101600000Y-107315000D01*
G04 #@! TO.N,Net-(IC1-1-Pad13)*
X112395000Y-101600000D02*
X115570000Y-104775000D01*
X104460000Y-101600000D02*
X112395000Y-101600000D01*
G04 #@! TO.N,Net-(IC1-1-Pad14)*
X104140000Y-104140000D02*
X112395000Y-104140000D01*
G04 #@! TO.N,Net-(IC1-2-Pad19)*
X122231201Y-126739599D02*
X119792801Y-126739599D01*
X122631200Y-126339600D02*
X122231201Y-126739599D01*
X119792801Y-126739599D02*
X119488001Y-126739599D01*
X119488001Y-126739599D02*
X119278400Y-126949200D01*
X119278400Y-126949200D02*
X119278400Y-127508000D01*
X119278400Y-127508000D02*
X119278400Y-127508000D01*
G04 #@! TO.N,Net-(IC1-2-Pad14)*
X114535001Y-136125001D02*
X114935000Y-136525000D01*
X114209999Y-135799999D02*
X114535001Y-136125001D01*
X106135001Y-135799999D02*
X114209999Y-135799999D01*
X104775000Y-137160000D02*
X106135001Y-135799999D01*
X104140000Y-137160000D02*
X104775000Y-137160000D01*
G04 #@! TO.N,Net-(IC1-2-Pad13)*
X104460000Y-134620000D02*
X111956998Y-134620000D01*
G04 #@! TO.N,Net-(IC1-2-Pad11)*
X100520000Y-137160000D02*
X100520000Y-138240000D01*
X102615000Y-140335000D02*
X115570000Y-140335000D01*
X100520000Y-138240000D02*
X102615000Y-140335000D01*
G04 #@! TO.N,Net-(IC1-2-Pad7)*
X109855000Y-138430000D02*
X111125000Y-137160000D01*
X104775000Y-138430000D02*
X109855000Y-138430000D01*
G04 #@! TO.N,Net-(IC1-2-Pad2)*
X97155000Y-130175000D02*
X97155000Y-130175000D01*
X97155000Y-130175000D02*
X95250000Y-132080000D01*
X97155000Y-130175000D02*
X106045000Y-130175000D01*
G04 #@! TO.N,Net-(IC2-1-Pad1)*
X88392000Y-96520000D02*
X81026000Y-103886000D01*
X90805000Y-96520000D02*
X88392000Y-96520000D01*
G04 #@! TO.N,Net-(IC2-1-Pad2)*
X90170000Y-97790000D02*
X90678000Y-97790000D01*
X84455000Y-103505000D02*
X90170000Y-97790000D01*
G04 #@! TO.N,Net-(IC2-2-Pad2)*
X81280000Y-130810000D02*
X90805000Y-130810000D01*
G04 #@! TO.N,Net-(IC2-2-Pad1)*
X85090000Y-129540000D02*
X84455000Y-128905000D01*
X90805000Y-129540000D02*
X85090000Y-129540000D01*
G04 #@! TO.N,Net-(J7-Pad3)*
X142265500Y-113538000D02*
X143535500Y-114808000D01*
X135128000Y-113538000D02*
X142265500Y-113538000D01*
X124460000Y-115570000D02*
X133096000Y-115570000D01*
X133096000Y-115570000D02*
X135128000Y-113538000D01*
G04 #@! TO.N,Net-(R7-Pad2)*
X128016000Y-109474000D02*
X126690000Y-110800000D01*
X129073000Y-109474000D02*
X128016000Y-109474000D01*
G04 #@! TD*
D19*
G04 #@! TO.N,GND*
G36*
X149225000Y-111272577D02*
X149162885Y-111179615D01*
X148754373Y-110906656D01*
X148394136Y-110835000D01*
X147450864Y-110835000D01*
X147090627Y-110906656D01*
X146682115Y-111179615D01*
X146409156Y-111588127D01*
X146313305Y-112070000D01*
X146354890Y-112279060D01*
X145992878Y-111917048D01*
X145493021Y-111710000D01*
X144951979Y-111710000D01*
X144452122Y-111917048D01*
X144069548Y-112299622D01*
X143862500Y-112799479D01*
X143862500Y-113340521D01*
X144069548Y-113840378D01*
X144452122Y-114222952D01*
X144951979Y-114430000D01*
X145493021Y-114430000D01*
X145992878Y-114222952D01*
X146375452Y-113840378D01*
X146582500Y-113340521D01*
X146582500Y-112811301D01*
X146682115Y-112960385D01*
X147090627Y-113233344D01*
X147450864Y-113305000D01*
X148394136Y-113305000D01*
X148754373Y-113233344D01*
X149162885Y-112960385D01*
X149225000Y-112867423D01*
X149225000Y-118272577D01*
X149162885Y-118179615D01*
X148754373Y-117906656D01*
X148394136Y-117835000D01*
X147450864Y-117835000D01*
X147090627Y-117906656D01*
X146682115Y-118179615D01*
X146582500Y-118328699D01*
X146582500Y-117799479D01*
X146375452Y-117299622D01*
X145992878Y-116917048D01*
X145493021Y-116710000D01*
X144951979Y-116710000D01*
X144452122Y-116917048D01*
X144069548Y-117299622D01*
X143862500Y-117799479D01*
X143862500Y-118340521D01*
X144069548Y-118840378D01*
X144452122Y-119222952D01*
X144951979Y-119430000D01*
X145493021Y-119430000D01*
X145992878Y-119222952D01*
X146354890Y-118860940D01*
X146313305Y-119070000D01*
X146409156Y-119551873D01*
X146682115Y-119960385D01*
X147090627Y-120233344D01*
X147450864Y-120305000D01*
X148394136Y-120305000D01*
X148754373Y-120233344D01*
X149162885Y-119960385D01*
X149225000Y-119867423D01*
X149225000Y-149225000D01*
X51435000Y-149225000D01*
X51435000Y-140745866D01*
X52635000Y-140745866D01*
X52635000Y-141794134D01*
X53036155Y-142762608D01*
X53777392Y-143503845D01*
X54745866Y-143905000D01*
X55794134Y-143905000D01*
X56712595Y-143524561D01*
X62180000Y-143524561D01*
X62180000Y-144095439D01*
X62398466Y-144622862D01*
X62802138Y-145026534D01*
X63329561Y-145245000D01*
X63900439Y-145245000D01*
X64427862Y-145026534D01*
X64831534Y-144622862D01*
X65000000Y-144216150D01*
X65168466Y-144622862D01*
X65572138Y-145026534D01*
X66099561Y-145245000D01*
X66670439Y-145245000D01*
X67197862Y-145026534D01*
X67601534Y-144622862D01*
X67770000Y-144216150D01*
X67938466Y-144622862D01*
X68342138Y-145026534D01*
X68869561Y-145245000D01*
X69440439Y-145245000D01*
X69967862Y-145026534D01*
X70371534Y-144622862D01*
X70540000Y-144216150D01*
X70708466Y-144622862D01*
X71112138Y-145026534D01*
X71639561Y-145245000D01*
X72210439Y-145245000D01*
X72737862Y-145026534D01*
X73141534Y-144622862D01*
X73360000Y-144095439D01*
X73360000Y-143524561D01*
X73141534Y-142997138D01*
X72737862Y-142593466D01*
X72210439Y-142375000D01*
X71639561Y-142375000D01*
X71112138Y-142593466D01*
X70708466Y-142997138D01*
X70540000Y-143403850D01*
X70371534Y-142997138D01*
X69967862Y-142593466D01*
X69440439Y-142375000D01*
X68869561Y-142375000D01*
X68342138Y-142593466D01*
X67938466Y-142997138D01*
X67770000Y-143403850D01*
X67601534Y-142997138D01*
X67197862Y-142593466D01*
X66670439Y-142375000D01*
X66099561Y-142375000D01*
X65572138Y-142593466D01*
X65168466Y-142997138D01*
X65000000Y-143403850D01*
X64831534Y-142997138D01*
X64427862Y-142593466D01*
X63900439Y-142375000D01*
X63329561Y-142375000D01*
X62802138Y-142593466D01*
X62398466Y-142997138D01*
X62180000Y-143524561D01*
X56712595Y-143524561D01*
X56762608Y-143503845D01*
X57503845Y-142762608D01*
X57905000Y-141794134D01*
X57905000Y-140745866D01*
X57503845Y-139777392D01*
X56762608Y-139036155D01*
X55794134Y-138635000D01*
X54745866Y-138635000D01*
X53777392Y-139036155D01*
X53036155Y-139777392D01*
X52635000Y-140745866D01*
X51435000Y-140745866D01*
X51435000Y-128064126D01*
X57385000Y-128064126D01*
X57385000Y-128475874D01*
X57542569Y-128856280D01*
X57833720Y-129147431D01*
X58214126Y-129305000D01*
X58625874Y-129305000D01*
X58901168Y-129190970D01*
X59565000Y-129854802D01*
X59565001Y-136220148D01*
X59550112Y-136295000D01*
X59565001Y-136369852D01*
X59609097Y-136591537D01*
X59777072Y-136842929D01*
X59840528Y-136885329D01*
X62477758Y-139522560D01*
X61430000Y-139522560D01*
X61182235Y-139571843D01*
X60972191Y-139712191D01*
X60831843Y-139922235D01*
X60782560Y-140170000D01*
X60782560Y-141770000D01*
X60831843Y-142017765D01*
X60972191Y-142227809D01*
X61182235Y-142368157D01*
X61430000Y-142417440D01*
X63030000Y-142417440D01*
X63277765Y-142368157D01*
X63487809Y-142227809D01*
X63628157Y-142017765D01*
X63677440Y-141770000D01*
X63677440Y-141526893D01*
X63783466Y-141782862D01*
X64187138Y-142186534D01*
X64714561Y-142405000D01*
X65285439Y-142405000D01*
X65812862Y-142186534D01*
X66021651Y-141977745D01*
X66941861Y-141977745D01*
X67015995Y-142223864D01*
X67553223Y-142416965D01*
X68123454Y-142389778D01*
X68524005Y-142223864D01*
X68598139Y-141977745D01*
X67770000Y-141149605D01*
X66941861Y-141977745D01*
X66021651Y-141977745D01*
X66216534Y-141782862D01*
X66378525Y-141391782D01*
X66516136Y-141724005D01*
X66762255Y-141798139D01*
X67590395Y-140970000D01*
X67949605Y-140970000D01*
X68777745Y-141798139D01*
X69023864Y-141724005D01*
X69151732Y-141368261D01*
X69323466Y-141782862D01*
X69727138Y-142186534D01*
X70254561Y-142405000D01*
X70825439Y-142405000D01*
X71352862Y-142186534D01*
X71756534Y-141782862D01*
X71925000Y-141376150D01*
X72093466Y-141782862D01*
X72497138Y-142186534D01*
X73024561Y-142405000D01*
X73595439Y-142405000D01*
X74122862Y-142186534D01*
X74526534Y-141782862D01*
X74745000Y-141255439D01*
X74745000Y-140745866D01*
X77635000Y-140745866D01*
X77635000Y-141794134D01*
X78036155Y-142762608D01*
X78777392Y-143503845D01*
X79745866Y-143905000D01*
X80794134Y-143905000D01*
X81762608Y-143503845D01*
X82258552Y-143007901D01*
X136817400Y-143007901D01*
X136817400Y-144215299D01*
X137279451Y-145330789D01*
X138133211Y-146184549D01*
X139248701Y-146646600D01*
X140456099Y-146646600D01*
X141571589Y-146184549D01*
X142425349Y-145330789D01*
X142887400Y-144215299D01*
X142887400Y-143007901D01*
X142425349Y-141892411D01*
X141571589Y-141038651D01*
X140456099Y-140576600D01*
X139248701Y-140576600D01*
X138133211Y-141038651D01*
X137279451Y-141892411D01*
X136817400Y-143007901D01*
X82258552Y-143007901D01*
X82503845Y-142762608D01*
X82905000Y-141794134D01*
X82905000Y-140745866D01*
X82503845Y-139777392D01*
X81762608Y-139036155D01*
X80794134Y-138635000D01*
X79745866Y-138635000D01*
X78777392Y-139036155D01*
X78036155Y-139777392D01*
X77635000Y-140745866D01*
X74745000Y-140745866D01*
X74745000Y-140684561D01*
X74526534Y-140157138D01*
X74122862Y-139753466D01*
X73595439Y-139535000D01*
X73024561Y-139535000D01*
X72497138Y-139753466D01*
X72093466Y-140157138D01*
X71925000Y-140563850D01*
X71756534Y-140157138D01*
X71352862Y-139753466D01*
X70825439Y-139535000D01*
X70254561Y-139535000D01*
X69727138Y-139753466D01*
X69323466Y-140157138D01*
X69161475Y-140548218D01*
X69023864Y-140215995D01*
X68777745Y-140141861D01*
X67949605Y-140970000D01*
X67590395Y-140970000D01*
X66762255Y-140141861D01*
X66516136Y-140215995D01*
X66388268Y-140571739D01*
X66216534Y-140157138D01*
X66021651Y-139962255D01*
X66941861Y-139962255D01*
X67770000Y-140790395D01*
X68598139Y-139962255D01*
X68524005Y-139716136D01*
X67986777Y-139523035D01*
X67416546Y-139550222D01*
X67015995Y-139716136D01*
X66941861Y-139962255D01*
X66021651Y-139962255D01*
X65812862Y-139753466D01*
X65285439Y-139535000D01*
X64714561Y-139535000D01*
X64661699Y-139556896D01*
X62058928Y-136954126D01*
X99485000Y-136954126D01*
X99485000Y-137365874D01*
X99642569Y-137746280D01*
X99760001Y-137863712D01*
X99760001Y-138165149D01*
X99745112Y-138240000D01*
X99760001Y-138314852D01*
X99804097Y-138536537D01*
X99972072Y-138787929D01*
X100035528Y-138830329D01*
X102024673Y-140819476D01*
X102067071Y-140882929D01*
X102130524Y-140925327D01*
X102130526Y-140925329D01*
X102255902Y-141009102D01*
X102318463Y-141050904D01*
X102540148Y-141095000D01*
X102540152Y-141095000D01*
X102614999Y-141109888D01*
X102689846Y-141095000D01*
X114866289Y-141095000D01*
X114983720Y-141212431D01*
X115364126Y-141370000D01*
X115775874Y-141370000D01*
X116156280Y-141212431D01*
X116447431Y-140921280D01*
X116605000Y-140540874D01*
X116605000Y-140129126D01*
X116447431Y-139748720D01*
X116156280Y-139457569D01*
X115775874Y-139300000D01*
X115364126Y-139300000D01*
X114983720Y-139457569D01*
X114866289Y-139575000D01*
X102929803Y-139575000D01*
X101280000Y-137925199D01*
X101280000Y-137863711D01*
X101397431Y-137746280D01*
X101555000Y-137365874D01*
X101555000Y-136954126D01*
X103105000Y-136954126D01*
X103105000Y-137365874D01*
X103262569Y-137746280D01*
X103553720Y-138037431D01*
X103778727Y-138130632D01*
X103740000Y-138224126D01*
X103740000Y-138635874D01*
X103897569Y-139016280D01*
X104188720Y-139307431D01*
X104569126Y-139465000D01*
X104980874Y-139465000D01*
X105361280Y-139307431D01*
X105478711Y-139190000D01*
X109780153Y-139190000D01*
X109855000Y-139204888D01*
X109929847Y-139190000D01*
X109929852Y-139190000D01*
X110151537Y-139145904D01*
X110402929Y-138977929D01*
X110445331Y-138914470D01*
X111164802Y-138195000D01*
X111330874Y-138195000D01*
X111711280Y-138037431D01*
X112002431Y-137746280D01*
X112160000Y-137365874D01*
X112160000Y-136954126D01*
X112002431Y-136573720D01*
X111988710Y-136559999D01*
X113895198Y-136559999D01*
X113900000Y-136564801D01*
X113900000Y-136730874D01*
X114057569Y-137111280D01*
X114348720Y-137402431D01*
X114729126Y-137560000D01*
X115140874Y-137560000D01*
X115521280Y-137402431D01*
X115812431Y-137111280D01*
X115970000Y-136730874D01*
X115970000Y-136319126D01*
X115812431Y-135938720D01*
X115521280Y-135647569D01*
X115140874Y-135490000D01*
X114974801Y-135490000D01*
X114800330Y-135315529D01*
X114757928Y-135252070D01*
X114506536Y-135084095D01*
X114284851Y-135039999D01*
X114284846Y-135039999D01*
X114209999Y-135025111D01*
X114135152Y-135039999D01*
X112903305Y-135039999D01*
X112991998Y-134825874D01*
X112991998Y-134414126D01*
X112834429Y-134033720D01*
X112543278Y-133742569D01*
X112162872Y-133585000D01*
X111751124Y-133585000D01*
X111370718Y-133742569D01*
X111253287Y-133860000D01*
X105163711Y-133860000D01*
X105046280Y-133742569D01*
X104665874Y-133585000D01*
X104254126Y-133585000D01*
X103873720Y-133742569D01*
X103582569Y-134033720D01*
X103425000Y-134414126D01*
X103425000Y-134825874D01*
X103582569Y-135206280D01*
X103873720Y-135497431D01*
X104254126Y-135655000D01*
X104665874Y-135655000D01*
X105046280Y-135497431D01*
X105163711Y-135380000D01*
X105480198Y-135380000D01*
X104621168Y-136239030D01*
X104345874Y-136125000D01*
X103934126Y-136125000D01*
X103553720Y-136282569D01*
X103262569Y-136573720D01*
X103105000Y-136954126D01*
X101555000Y-136954126D01*
X101397431Y-136573720D01*
X101106280Y-136282569D01*
X100725874Y-136125000D01*
X100314126Y-136125000D01*
X99933720Y-136282569D01*
X99642569Y-136573720D01*
X99485000Y-136954126D01*
X62058928Y-136954126D01*
X61085000Y-135980199D01*
X61085000Y-131874126D01*
X94215000Y-131874126D01*
X94215000Y-132285874D01*
X94372569Y-132666280D01*
X94663720Y-132957431D01*
X95044126Y-133115000D01*
X95455874Y-133115000D01*
X95836280Y-132957431D01*
X96127431Y-132666280D01*
X96285000Y-132285874D01*
X96285000Y-132119801D01*
X97469802Y-130935000D01*
X105341289Y-130935000D01*
X105458720Y-131052431D01*
X105839126Y-131210000D01*
X106250874Y-131210000D01*
X106631280Y-131052431D01*
X106922431Y-130761280D01*
X107080000Y-130380874D01*
X107080000Y-129969126D01*
X106922431Y-129588720D01*
X106631280Y-129297569D01*
X106250874Y-129140000D01*
X105839126Y-129140000D01*
X105458720Y-129297569D01*
X105341289Y-129415000D01*
X97229848Y-129415000D01*
X97155000Y-129400112D01*
X97080152Y-129415000D01*
X97080148Y-129415000D01*
X96906605Y-129449520D01*
X96858462Y-129459096D01*
X96671418Y-129584076D01*
X96607071Y-129627071D01*
X96564671Y-129690527D01*
X95210199Y-131045000D01*
X95044126Y-131045000D01*
X94663720Y-131202569D01*
X94372569Y-131493720D01*
X94215000Y-131874126D01*
X61085000Y-131874126D01*
X61085000Y-130604126D01*
X80245000Y-130604126D01*
X80245000Y-131015874D01*
X80402569Y-131396280D01*
X80693720Y-131687431D01*
X81074126Y-131845000D01*
X81485874Y-131845000D01*
X81866280Y-131687431D01*
X81983711Y-131570000D01*
X90101289Y-131570000D01*
X90218720Y-131687431D01*
X90599126Y-131845000D01*
X91010874Y-131845000D01*
X91391280Y-131687431D01*
X91682431Y-131396280D01*
X91840000Y-131015874D01*
X91840000Y-130604126D01*
X91682431Y-130223720D01*
X91633711Y-130175000D01*
X91682431Y-130126280D01*
X91840000Y-129745874D01*
X91840000Y-129334126D01*
X91682431Y-128953720D01*
X91391280Y-128662569D01*
X91010874Y-128505000D01*
X90599126Y-128505000D01*
X90218720Y-128662569D01*
X90101289Y-128780000D01*
X85490000Y-128780000D01*
X85490000Y-128699126D01*
X85332431Y-128318720D01*
X85041280Y-128027569D01*
X84660874Y-127870000D01*
X84249126Y-127870000D01*
X83868720Y-128027569D01*
X83577569Y-128318720D01*
X83420000Y-128699126D01*
X83420000Y-129110874D01*
X83577569Y-129491280D01*
X83868720Y-129782431D01*
X84249126Y-129940000D01*
X84415198Y-129940000D01*
X84499671Y-130024473D01*
X84516728Y-130050000D01*
X81983711Y-130050000D01*
X81866280Y-129932569D01*
X81485874Y-129775000D01*
X81074126Y-129775000D01*
X80693720Y-129932569D01*
X80402569Y-130223720D01*
X80245000Y-130604126D01*
X61085000Y-130604126D01*
X61085000Y-129614846D01*
X61099888Y-129539999D01*
X61085000Y-129465152D01*
X61085000Y-129465148D01*
X61040904Y-129243463D01*
X60872929Y-128992071D01*
X60809473Y-128949671D01*
X59645331Y-127785530D01*
X59602929Y-127722071D01*
X59351537Y-127554096D01*
X59129852Y-127510000D01*
X59129847Y-127510000D01*
X59122187Y-127508476D01*
X59006280Y-127392569D01*
X58625874Y-127235000D01*
X58214126Y-127235000D01*
X57833720Y-127392569D01*
X57542569Y-127683720D01*
X57385000Y-128064126D01*
X51435000Y-128064126D01*
X51435000Y-122924452D01*
X63435000Y-122924452D01*
X63435000Y-123455548D01*
X63638242Y-123946217D01*
X64013783Y-124321758D01*
X64347528Y-124460000D01*
X64013783Y-124598242D01*
X63638242Y-124973783D01*
X63435000Y-125464452D01*
X63435000Y-125995548D01*
X63638242Y-126486217D01*
X64013783Y-126861758D01*
X64504452Y-127065000D01*
X65035548Y-127065000D01*
X65526217Y-126861758D01*
X65901758Y-126486217D01*
X66105000Y-125995548D01*
X66105000Y-125464452D01*
X116775000Y-125464452D01*
X116775000Y-125995548D01*
X116978242Y-126486217D01*
X117353783Y-126861758D01*
X117844452Y-127065000D01*
X118341621Y-127065000D01*
X118243400Y-127302126D01*
X118243400Y-127713874D01*
X118400969Y-128094280D01*
X118692120Y-128385431D01*
X119072526Y-128543000D01*
X119484274Y-128543000D01*
X119864680Y-128385431D01*
X120155831Y-128094280D01*
X120313400Y-127713874D01*
X120313400Y-127499599D01*
X122156354Y-127499599D01*
X122231201Y-127514487D01*
X122306048Y-127499599D01*
X122306053Y-127499599D01*
X122527738Y-127455503D01*
X122648818Y-127374600D01*
X122837074Y-127374600D01*
X123217480Y-127217031D01*
X123508631Y-126925880D01*
X123666200Y-126545474D01*
X123666200Y-126133726D01*
X123508631Y-125753320D01*
X123217480Y-125462169D01*
X122837074Y-125304600D01*
X122425326Y-125304600D01*
X122044920Y-125462169D01*
X121753769Y-125753320D01*
X121660041Y-125979599D01*
X119562849Y-125979599D01*
X119488001Y-125964711D01*
X119445000Y-125973264D01*
X119445000Y-125464452D01*
X119241758Y-124973783D01*
X118866217Y-124598242D01*
X118548698Y-124466721D01*
X118803831Y-124361042D01*
X118865669Y-124125275D01*
X118110000Y-123369605D01*
X117354331Y-124125275D01*
X117416169Y-124361042D01*
X117691987Y-124458153D01*
X117353783Y-124598242D01*
X116978242Y-124973783D01*
X116775000Y-125464452D01*
X66105000Y-125464452D01*
X65901758Y-124973783D01*
X65526217Y-124598242D01*
X65192472Y-124460000D01*
X65526217Y-124321758D01*
X65901758Y-123946217D01*
X66105000Y-123455548D01*
X66105000Y-122997122D01*
X116762581Y-122997122D01*
X116791336Y-123527440D01*
X116938958Y-123883831D01*
X117174725Y-123945669D01*
X117930395Y-123190000D01*
X118289605Y-123190000D01*
X119045275Y-123945669D01*
X119281042Y-123883831D01*
X119457419Y-123382878D01*
X119428664Y-122852560D01*
X119281042Y-122496169D01*
X119045275Y-122434331D01*
X118289605Y-123190000D01*
X117930395Y-123190000D01*
X117174725Y-122434331D01*
X116938958Y-122496169D01*
X116762581Y-122997122D01*
X66105000Y-122997122D01*
X66105000Y-122924452D01*
X65901758Y-122433783D01*
X65722700Y-122254725D01*
X117354331Y-122254725D01*
X118110000Y-123010395D01*
X118865669Y-122254725D01*
X118803831Y-122018958D01*
X118302878Y-121842581D01*
X117772560Y-121871336D01*
X117416169Y-122018958D01*
X117354331Y-122254725D01*
X65722700Y-122254725D01*
X65526217Y-122058242D01*
X65035548Y-121855000D01*
X64504452Y-121855000D01*
X64013783Y-122058242D01*
X63638242Y-122433783D01*
X63435000Y-122924452D01*
X51435000Y-122924452D01*
X51435000Y-120190126D01*
X113814229Y-120190126D01*
X113814229Y-120601874D01*
X113971798Y-120982280D01*
X114262949Y-121273431D01*
X114643355Y-121431000D01*
X115055103Y-121431000D01*
X115435509Y-121273431D01*
X115552940Y-121156000D01*
X138081889Y-121156000D01*
X138097720Y-121171831D01*
X138478126Y-121329400D01*
X138889874Y-121329400D01*
X139270280Y-121171831D01*
X139561431Y-120880680D01*
X139719000Y-120500274D01*
X139719000Y-120088526D01*
X139561431Y-119708120D01*
X139270280Y-119416969D01*
X138889874Y-119259400D01*
X138478126Y-119259400D01*
X138097720Y-119416969D01*
X137878689Y-119636000D01*
X115552940Y-119636000D01*
X115435509Y-119518569D01*
X115055103Y-119361000D01*
X114643355Y-119361000D01*
X114262949Y-119518569D01*
X113971798Y-119809720D01*
X113814229Y-120190126D01*
X51435000Y-120190126D01*
X51435000Y-116287101D01*
X72199800Y-116287101D01*
X72199800Y-117494499D01*
X72661851Y-118609989D01*
X73515611Y-119463749D01*
X74631101Y-119925800D01*
X75838499Y-119925800D01*
X76953989Y-119463749D01*
X77807749Y-118609989D01*
X78269800Y-117494499D01*
X78269800Y-116287101D01*
X78185632Y-116083901D01*
X95466200Y-116083901D01*
X95466200Y-117291299D01*
X95928251Y-118406789D01*
X96782011Y-119260549D01*
X97897501Y-119722600D01*
X99104899Y-119722600D01*
X100220389Y-119260549D01*
X101074149Y-118406789D01*
X101536200Y-117291299D01*
X101536200Y-116083901D01*
X101074149Y-114968411D01*
X100220389Y-114114651D01*
X99104899Y-113652600D01*
X97897501Y-113652600D01*
X96782011Y-114114651D01*
X95928251Y-114968411D01*
X95466200Y-116083901D01*
X78185632Y-116083901D01*
X77807749Y-115171611D01*
X76953989Y-114317851D01*
X75838499Y-113855800D01*
X74631101Y-113855800D01*
X73515611Y-114317851D01*
X72661851Y-115171611D01*
X72199800Y-116287101D01*
X51435000Y-116287101D01*
X51435000Y-104509452D01*
X63435000Y-104509452D01*
X63435000Y-105040548D01*
X63638242Y-105531217D01*
X64013783Y-105906758D01*
X64347528Y-106045000D01*
X64013783Y-106183242D01*
X63638242Y-106558783D01*
X63435000Y-107049452D01*
X63435000Y-107580548D01*
X63638242Y-108071217D01*
X64013783Y-108446758D01*
X64504452Y-108650000D01*
X65035548Y-108650000D01*
X65526217Y-108446758D01*
X65901758Y-108071217D01*
X66105000Y-107580548D01*
X66105000Y-107049452D01*
X65901758Y-106558783D01*
X65526217Y-106183242D01*
X65192472Y-106045000D01*
X65526217Y-105906758D01*
X65901758Y-105531217D01*
X66105000Y-105040548D01*
X66105000Y-104509452D01*
X65901758Y-104018783D01*
X65526217Y-103643242D01*
X65035548Y-103440000D01*
X64504452Y-103440000D01*
X64013783Y-103643242D01*
X63638242Y-104018783D01*
X63435000Y-104509452D01*
X51435000Y-104509452D01*
X51435000Y-95060866D01*
X52350000Y-95060866D01*
X52350000Y-96109134D01*
X52751155Y-97077608D01*
X53492392Y-97818845D01*
X54460866Y-98220000D01*
X55509134Y-98220000D01*
X56477608Y-97818845D01*
X57218845Y-97077608D01*
X57620000Y-96109134D01*
X57620000Y-95599561D01*
X60510000Y-95599561D01*
X60510000Y-96170439D01*
X60728466Y-96697862D01*
X61132138Y-97101534D01*
X61659561Y-97320000D01*
X62230439Y-97320000D01*
X62757862Y-97101534D01*
X63161534Y-96697862D01*
X63330000Y-96291150D01*
X63498466Y-96697862D01*
X63902138Y-97101534D01*
X64429561Y-97320000D01*
X65000439Y-97320000D01*
X65527862Y-97101534D01*
X65931534Y-96697862D01*
X66093525Y-96306782D01*
X66231136Y-96639005D01*
X66477255Y-96713139D01*
X67305395Y-95885000D01*
X66477255Y-95056861D01*
X66231136Y-95130995D01*
X66103268Y-95486739D01*
X65931534Y-95072138D01*
X65527862Y-94668466D01*
X65000439Y-94450000D01*
X64429561Y-94450000D01*
X63902138Y-94668466D01*
X63498466Y-95072138D01*
X63330000Y-95478850D01*
X63161534Y-95072138D01*
X62757862Y-94668466D01*
X62230439Y-94450000D01*
X61659561Y-94450000D01*
X61132138Y-94668466D01*
X60728466Y-95072138D01*
X60510000Y-95599561D01*
X57620000Y-95599561D01*
X57620000Y-95060866D01*
X57218845Y-94092392D01*
X56477608Y-93351155D01*
X55509134Y-92950000D01*
X54460866Y-92950000D01*
X53492392Y-93351155D01*
X52751155Y-94092392D01*
X52350000Y-95060866D01*
X51435000Y-95060866D01*
X51435000Y-92759561D01*
X61895000Y-92759561D01*
X61895000Y-93330439D01*
X62113466Y-93857862D01*
X62517138Y-94261534D01*
X63044561Y-94480000D01*
X63615439Y-94480000D01*
X64142862Y-94261534D01*
X64546534Y-93857862D01*
X64715000Y-93451150D01*
X64883466Y-93857862D01*
X65287138Y-94261534D01*
X65814561Y-94480000D01*
X66385439Y-94480000D01*
X66912862Y-94261534D01*
X67316534Y-93857862D01*
X67485000Y-93451150D01*
X67653466Y-93857862D01*
X68057138Y-94261534D01*
X68110000Y-94283430D01*
X68110000Y-94584767D01*
X67701777Y-94438035D01*
X67131546Y-94465222D01*
X66730995Y-94631136D01*
X66656861Y-94877255D01*
X67485000Y-95705395D01*
X67499142Y-95691252D01*
X67678748Y-95870858D01*
X67664605Y-95885000D01*
X67678748Y-95899143D01*
X67499142Y-96078748D01*
X67485000Y-96064605D01*
X66656861Y-96892745D01*
X66730995Y-97138864D01*
X67268223Y-97331965D01*
X67838454Y-97304778D01*
X68110000Y-97192300D01*
X68110001Y-108185000D01*
X67956626Y-108185000D01*
X67576220Y-108342569D01*
X67285069Y-108633720D01*
X67127500Y-109014126D01*
X67127500Y-109425874D01*
X67285069Y-109806280D01*
X67576220Y-110097431D01*
X67956626Y-110255000D01*
X68368374Y-110255000D01*
X68748780Y-110097431D01*
X69039931Y-109806280D01*
X69197500Y-109425874D01*
X69197500Y-109259802D01*
X69354473Y-109102829D01*
X69417929Y-109060429D01*
X69585904Y-108809037D01*
X69630000Y-108587352D01*
X69630000Y-108587348D01*
X69644888Y-108512501D01*
X69630000Y-108437654D01*
X69630000Y-108099726D01*
X83648600Y-108099726D01*
X83648600Y-108511474D01*
X83806169Y-108891880D01*
X84097320Y-109183031D01*
X84477726Y-109340600D01*
X84889474Y-109340600D01*
X85269880Y-109183031D01*
X85561031Y-108891880D01*
X85718600Y-108511474D01*
X85718600Y-108345401D01*
X90129875Y-103934126D01*
X98660000Y-103934126D01*
X98660000Y-104345874D01*
X98817569Y-104726280D01*
X98935001Y-104843712D01*
X98935001Y-105335149D01*
X98920112Y-105410000D01*
X98935001Y-105484852D01*
X98979097Y-105706537D01*
X99147072Y-105957929D01*
X99210528Y-106000329D01*
X101009671Y-107799473D01*
X101052071Y-107862929D01*
X101115527Y-107905329D01*
X101303462Y-108030904D01*
X101351605Y-108040480D01*
X101525148Y-108075000D01*
X101525152Y-108075000D01*
X101600000Y-108089888D01*
X101674848Y-108075000D01*
X114866289Y-108075000D01*
X114983720Y-108192431D01*
X115364126Y-108350000D01*
X115775874Y-108350000D01*
X116156280Y-108192431D01*
X116447431Y-107901280D01*
X116605000Y-107520874D01*
X116605000Y-107109126D01*
X116447431Y-106728720D01*
X116156280Y-106437569D01*
X115775874Y-106280000D01*
X115364126Y-106280000D01*
X114983720Y-106437569D01*
X114866289Y-106555000D01*
X101914802Y-106555000D01*
X100455000Y-105095199D01*
X100455000Y-104843711D01*
X100572431Y-104726280D01*
X100730000Y-104345874D01*
X100730000Y-103934126D01*
X103105000Y-103934126D01*
X103105000Y-104345874D01*
X103262569Y-104726280D01*
X103553720Y-105017431D01*
X103934126Y-105175000D01*
X104345874Y-105175000D01*
X104395595Y-105154405D01*
X104375000Y-105204126D01*
X104375000Y-105615874D01*
X104532569Y-105996280D01*
X104823720Y-106287431D01*
X105204126Y-106445000D01*
X105615874Y-106445000D01*
X105996280Y-106287431D01*
X106113711Y-106170000D01*
X109786289Y-106170000D01*
X109903720Y-106287431D01*
X110284126Y-106445000D01*
X110695874Y-106445000D01*
X111076280Y-106287431D01*
X111367431Y-105996280D01*
X111525000Y-105615874D01*
X111525000Y-105204126D01*
X111399027Y-104900000D01*
X111691289Y-104900000D01*
X111808720Y-105017431D01*
X112189126Y-105175000D01*
X112600874Y-105175000D01*
X112981280Y-105017431D01*
X113272431Y-104726280D01*
X113430000Y-104345874D01*
X113430000Y-103934126D01*
X113272431Y-103553720D01*
X112981280Y-103262569D01*
X112600874Y-103105000D01*
X112189126Y-103105000D01*
X111808720Y-103262569D01*
X111691289Y-103380000D01*
X104843711Y-103380000D01*
X104726280Y-103262569D01*
X104345874Y-103105000D01*
X103934126Y-103105000D01*
X103553720Y-103262569D01*
X103262569Y-103553720D01*
X103105000Y-103934126D01*
X100730000Y-103934126D01*
X100572431Y-103553720D01*
X100281280Y-103262569D01*
X99900874Y-103105000D01*
X99489126Y-103105000D01*
X99108720Y-103262569D01*
X98817569Y-103553720D01*
X98660000Y-103934126D01*
X90129875Y-103934126D01*
X92669875Y-101394126D01*
X103425000Y-101394126D01*
X103425000Y-101805874D01*
X103582569Y-102186280D01*
X103873720Y-102477431D01*
X104254126Y-102635000D01*
X104665874Y-102635000D01*
X105046280Y-102477431D01*
X105163711Y-102360000D01*
X112080199Y-102360000D01*
X114535000Y-104814802D01*
X114535000Y-104980874D01*
X114692569Y-105361280D01*
X114983720Y-105652431D01*
X115364126Y-105810000D01*
X115775874Y-105810000D01*
X116156280Y-105652431D01*
X116447431Y-105361280D01*
X116605000Y-104980874D01*
X116605000Y-104569126D01*
X116447431Y-104188720D01*
X116156280Y-103897569D01*
X115775874Y-103740000D01*
X115609802Y-103740000D01*
X112985331Y-101115530D01*
X112942929Y-101052071D01*
X112691537Y-100884096D01*
X112469852Y-100840000D01*
X112469847Y-100840000D01*
X112395000Y-100825112D01*
X112320153Y-100840000D01*
X105163711Y-100840000D01*
X105046280Y-100722569D01*
X104665874Y-100565000D01*
X104254126Y-100565000D01*
X103873720Y-100722569D01*
X103582569Y-101013720D01*
X103425000Y-101394126D01*
X92669875Y-101394126D01*
X94395145Y-99668856D01*
X94663720Y-99937431D01*
X95044126Y-100095000D01*
X95455874Y-100095000D01*
X95836280Y-99937431D01*
X96127431Y-99646280D01*
X96285000Y-99265874D01*
X96285000Y-99099801D01*
X97469802Y-97915000D01*
X105341289Y-97915000D01*
X105458720Y-98032431D01*
X105839126Y-98190000D01*
X106250874Y-98190000D01*
X106631280Y-98032431D01*
X106922431Y-97741280D01*
X107080000Y-97360874D01*
X107080000Y-96949126D01*
X106922431Y-96568720D01*
X106631280Y-96277569D01*
X106250874Y-96120000D01*
X105839126Y-96120000D01*
X105458720Y-96277569D01*
X105341289Y-96395000D01*
X97669002Y-96395000D01*
X98562002Y-95502000D01*
X98985153Y-95502000D01*
X99060000Y-95516888D01*
X99134847Y-95502000D01*
X99134852Y-95502000D01*
X99356537Y-95457904D01*
X99607929Y-95289929D01*
X99650331Y-95226470D01*
X99861801Y-95015000D01*
X100027874Y-95015000D01*
X100408280Y-94857431D01*
X100699431Y-94566280D01*
X100857000Y-94185874D01*
X100857000Y-93774126D01*
X100699431Y-93393720D01*
X100408280Y-93102569D01*
X100027874Y-92945000D01*
X99616126Y-92945000D01*
X99235720Y-93102569D01*
X98944569Y-93393720D01*
X98787000Y-93774126D01*
X98787000Y-93940199D01*
X98745199Y-93982000D01*
X98322046Y-93982000D01*
X98247199Y-93967112D01*
X98172352Y-93982000D01*
X98172348Y-93982000D01*
X97950663Y-94026096D01*
X97699271Y-94194071D01*
X97656871Y-94257527D01*
X84643799Y-107270600D01*
X84477726Y-107270600D01*
X84097320Y-107428169D01*
X83806169Y-107719320D01*
X83648600Y-108099726D01*
X69630000Y-108099726D01*
X69630000Y-103680126D01*
X79991000Y-103680126D01*
X79991000Y-104091874D01*
X80148569Y-104472280D01*
X80439720Y-104763431D01*
X80820126Y-104921000D01*
X81231874Y-104921000D01*
X81612280Y-104763431D01*
X81903431Y-104472280D01*
X82061000Y-104091874D01*
X82061000Y-103925801D01*
X88706802Y-97280000D01*
X89596728Y-97280000D01*
X89579672Y-97305526D01*
X84415199Y-102470000D01*
X84249126Y-102470000D01*
X83868720Y-102627569D01*
X83577569Y-102918720D01*
X83420000Y-103299126D01*
X83420000Y-103710874D01*
X83577569Y-104091280D01*
X83868720Y-104382431D01*
X84249126Y-104540000D01*
X84660874Y-104540000D01*
X85041280Y-104382431D01*
X85332431Y-104091280D01*
X85490000Y-103710874D01*
X85490000Y-103544801D01*
X90286635Y-98748167D01*
X90472126Y-98825000D01*
X90883874Y-98825000D01*
X91264280Y-98667431D01*
X91555431Y-98376280D01*
X91713000Y-97995874D01*
X91713000Y-97584126D01*
X91564089Y-97224622D01*
X91682431Y-97106280D01*
X91840000Y-96725874D01*
X91840000Y-96314126D01*
X91682431Y-95933720D01*
X91391280Y-95642569D01*
X91010874Y-95485000D01*
X90599126Y-95485000D01*
X90218720Y-95642569D01*
X90101289Y-95760000D01*
X88466846Y-95760000D01*
X88391999Y-95745112D01*
X88317152Y-95760000D01*
X88317148Y-95760000D01*
X88095463Y-95804096D01*
X87844071Y-95972071D01*
X87801671Y-96035527D01*
X80986199Y-102851000D01*
X80820126Y-102851000D01*
X80439720Y-103008569D01*
X80148569Y-103299720D01*
X79991000Y-103680126D01*
X69630000Y-103680126D01*
X69630000Y-97179349D01*
X69969561Y-97320000D01*
X70540439Y-97320000D01*
X71067862Y-97101534D01*
X71471534Y-96697862D01*
X71577560Y-96441893D01*
X71577560Y-96685000D01*
X71626843Y-96932765D01*
X71767191Y-97142809D01*
X71977235Y-97283157D01*
X72225000Y-97332440D01*
X73825000Y-97332440D01*
X74072765Y-97283157D01*
X74282809Y-97142809D01*
X74423157Y-96932765D01*
X74472440Y-96685000D01*
X74472440Y-95085000D01*
X74467640Y-95060866D01*
X77350000Y-95060866D01*
X77350000Y-96109134D01*
X77751155Y-97077608D01*
X78492392Y-97818845D01*
X79460866Y-98220000D01*
X80509134Y-98220000D01*
X81477608Y-97818845D01*
X82218845Y-97077608D01*
X82620000Y-96109134D01*
X82620000Y-95060866D01*
X82218845Y-94092392D01*
X81477608Y-93351155D01*
X80509134Y-92950000D01*
X79460866Y-92950000D01*
X78492392Y-93351155D01*
X77751155Y-94092392D01*
X77350000Y-95060866D01*
X74467640Y-95060866D01*
X74423157Y-94837235D01*
X74282809Y-94627191D01*
X74072765Y-94486843D01*
X73825000Y-94437560D01*
X72225000Y-94437560D01*
X71977235Y-94486843D01*
X71767191Y-94627191D01*
X71626843Y-94837235D01*
X71577560Y-95085000D01*
X71577560Y-95328107D01*
X71471534Y-95072138D01*
X71067862Y-94668466D01*
X70540439Y-94450000D01*
X69969561Y-94450000D01*
X69630000Y-94590651D01*
X69630000Y-94283430D01*
X69682862Y-94261534D01*
X70086534Y-93857862D01*
X70255000Y-93451150D01*
X70423466Y-93857862D01*
X70827138Y-94261534D01*
X71354561Y-94480000D01*
X71925439Y-94480000D01*
X72452862Y-94261534D01*
X72856534Y-93857862D01*
X73075000Y-93330439D01*
X73075000Y-92759561D01*
X72944478Y-92444452D01*
X116521000Y-92444452D01*
X116521000Y-92975548D01*
X116724242Y-93466217D01*
X117099783Y-93841758D01*
X117590452Y-94045000D01*
X118121548Y-94045000D01*
X118612217Y-93841758D01*
X118808700Y-93645275D01*
X119640331Y-93645275D01*
X119702169Y-93881042D01*
X120203122Y-94057419D01*
X120733440Y-94028664D01*
X121089831Y-93881042D01*
X121151669Y-93645275D01*
X120396000Y-92889605D01*
X119640331Y-93645275D01*
X118808700Y-93645275D01*
X118987758Y-93466217D01*
X119119279Y-93148698D01*
X119224958Y-93403831D01*
X119460725Y-93465669D01*
X120216395Y-92710000D01*
X120575605Y-92710000D01*
X121331275Y-93465669D01*
X121567042Y-93403831D01*
X121743419Y-92902878D01*
X121714664Y-92372560D01*
X121567042Y-92016169D01*
X121331275Y-91954331D01*
X120575605Y-92710000D01*
X120216395Y-92710000D01*
X119460725Y-91954331D01*
X119224958Y-92016169D01*
X119127847Y-92291987D01*
X118987758Y-91953783D01*
X118612217Y-91578242D01*
X118121548Y-91375000D01*
X117590452Y-91375000D01*
X117099783Y-91578242D01*
X116724242Y-91953783D01*
X116521000Y-92444452D01*
X72944478Y-92444452D01*
X72856534Y-92232138D01*
X72452862Y-91828466D01*
X71925439Y-91610000D01*
X71354561Y-91610000D01*
X70827138Y-91828466D01*
X70423466Y-92232138D01*
X70255000Y-92638850D01*
X70086534Y-92232138D01*
X69682862Y-91828466D01*
X69155439Y-91610000D01*
X68584561Y-91610000D01*
X68057138Y-91828466D01*
X67653466Y-92232138D01*
X67485000Y-92638850D01*
X67316534Y-92232138D01*
X66912862Y-91828466D01*
X66385439Y-91610000D01*
X65814561Y-91610000D01*
X65287138Y-91828466D01*
X64883466Y-92232138D01*
X64715000Y-92638850D01*
X64546534Y-92232138D01*
X64142862Y-91828466D01*
X63615439Y-91610000D01*
X63044561Y-91610000D01*
X62517138Y-91828466D01*
X62113466Y-92232138D01*
X61895000Y-92759561D01*
X51435000Y-92759561D01*
X51435000Y-90268926D01*
X118802200Y-90268926D01*
X118802200Y-90680674D01*
X118959769Y-91061080D01*
X119250920Y-91352231D01*
X119631326Y-91509800D01*
X119772563Y-91509800D01*
X119702169Y-91538958D01*
X119640331Y-91774725D01*
X120396000Y-92530395D01*
X121151669Y-91774725D01*
X121089831Y-91538958D01*
X120588878Y-91362581D01*
X120369817Y-91374459D01*
X120423480Y-91352231D01*
X120540911Y-91234800D01*
X123433999Y-91234800D01*
X123924727Y-91725529D01*
X123924730Y-91725531D01*
X130224197Y-98025000D01*
X129842126Y-98025000D01*
X129461720Y-98182569D01*
X129170569Y-98473720D01*
X129013000Y-98854126D01*
X129013000Y-99020198D01*
X122225528Y-105807671D01*
X122162072Y-105850071D01*
X121994097Y-106101463D01*
X121977503Y-106184889D01*
X121935112Y-106398000D01*
X121950001Y-106472852D01*
X121950000Y-115021289D01*
X121832569Y-115138720D01*
X121675000Y-115519126D01*
X121675000Y-115930874D01*
X121832569Y-116311280D01*
X122123720Y-116602431D01*
X122504126Y-116760000D01*
X122915874Y-116760000D01*
X123296280Y-116602431D01*
X123587431Y-116311280D01*
X123631405Y-116205116D01*
X123873720Y-116447431D01*
X124254126Y-116605000D01*
X124665874Y-116605000D01*
X125046280Y-116447431D01*
X125163711Y-116330000D01*
X133021153Y-116330000D01*
X133096000Y-116344888D01*
X133170847Y-116330000D01*
X133170852Y-116330000D01*
X133392537Y-116285904D01*
X133643929Y-116117929D01*
X133686331Y-116054470D01*
X135442802Y-114298000D01*
X135891763Y-114298000D01*
X135871000Y-114348126D01*
X135871000Y-114759874D01*
X136028569Y-115140280D01*
X136146001Y-115257712D01*
X136146000Y-115882289D01*
X136028569Y-115999720D01*
X135871000Y-116380126D01*
X135871000Y-116791874D01*
X136028569Y-117172280D01*
X136319720Y-117463431D01*
X136700126Y-117621000D01*
X137111874Y-117621000D01*
X137492280Y-117463431D01*
X137783431Y-117172280D01*
X137941000Y-116791874D01*
X137941000Y-116380126D01*
X137783431Y-115999720D01*
X137666000Y-115882289D01*
X137666000Y-115257711D01*
X137783431Y-115140280D01*
X137941000Y-114759874D01*
X137941000Y-114348126D01*
X137920237Y-114298000D01*
X139218664Y-114298000D01*
X139113720Y-114341469D01*
X138822569Y-114632620D01*
X138665000Y-115013026D01*
X138665000Y-115424774D01*
X138822569Y-115805180D01*
X139113720Y-116096331D01*
X139494126Y-116253900D01*
X139660199Y-116253900D01*
X141238771Y-117832473D01*
X141281171Y-117895929D01*
X141410901Y-117982612D01*
X141653720Y-118225431D01*
X142034126Y-118383000D01*
X142445874Y-118383000D01*
X142826280Y-118225431D01*
X143117431Y-117934280D01*
X143275000Y-117553874D01*
X143275000Y-117142126D01*
X143117431Y-116761720D01*
X142826280Y-116470569D01*
X142445874Y-116313000D01*
X142034126Y-116313000D01*
X141917295Y-116361393D01*
X140735000Y-115179099D01*
X140735000Y-115013026D01*
X140577431Y-114632620D01*
X140286280Y-114341469D01*
X140181336Y-114298000D01*
X141950699Y-114298000D01*
X142500500Y-114847802D01*
X142500500Y-115013874D01*
X142658069Y-115394280D01*
X142949220Y-115685431D01*
X143329626Y-115843000D01*
X143741374Y-115843000D01*
X144121780Y-115685431D01*
X144412931Y-115394280D01*
X144570500Y-115013874D01*
X144570500Y-114602126D01*
X144412931Y-114221720D01*
X144121780Y-113930569D01*
X143741374Y-113773000D01*
X143575302Y-113773000D01*
X142855831Y-113053530D01*
X142813429Y-112990071D01*
X142562037Y-112822096D01*
X142340352Y-112778000D01*
X142340347Y-112778000D01*
X142265500Y-112763112D01*
X142190653Y-112778000D01*
X135202847Y-112778000D01*
X135128000Y-112763112D01*
X135053153Y-112778000D01*
X135053148Y-112778000D01*
X134831463Y-112822096D01*
X134580071Y-112990071D01*
X134537671Y-113053527D01*
X132781199Y-114810000D01*
X125163711Y-114810000D01*
X125046280Y-114692569D01*
X124665874Y-114535000D01*
X124254126Y-114535000D01*
X123873720Y-114692569D01*
X123582569Y-114983720D01*
X123538595Y-115089884D01*
X123470000Y-115021289D01*
X123470000Y-111612625D01*
X123746126Y-111727000D01*
X124157874Y-111727000D01*
X124538280Y-111569431D01*
X124829431Y-111278280D01*
X124987000Y-110897874D01*
X124987000Y-110731801D01*
X125124675Y-110594126D01*
X125655000Y-110594126D01*
X125655000Y-111005874D01*
X125812569Y-111386280D01*
X126103720Y-111677431D01*
X126484126Y-111835000D01*
X126895874Y-111835000D01*
X127276280Y-111677431D01*
X127567431Y-111386280D01*
X127725000Y-111005874D01*
X127725000Y-110839801D01*
X128330802Y-110234000D01*
X128369289Y-110234000D01*
X128486720Y-110351431D01*
X128867126Y-110509000D01*
X129278874Y-110509000D01*
X129659280Y-110351431D01*
X129950431Y-110060280D01*
X130108000Y-109679874D01*
X130108000Y-109268126D01*
X129950431Y-108887720D01*
X129659280Y-108596569D01*
X129278874Y-108439000D01*
X128867126Y-108439000D01*
X128486720Y-108596569D01*
X128369289Y-108714000D01*
X128090846Y-108714000D01*
X128015999Y-108699112D01*
X127941152Y-108714000D01*
X127941148Y-108714000D01*
X127719463Y-108758096D01*
X127468071Y-108926071D01*
X127425671Y-108989527D01*
X126650199Y-109765000D01*
X126484126Y-109765000D01*
X126103720Y-109922569D01*
X125812569Y-110213720D01*
X125655000Y-110594126D01*
X125124675Y-110594126D01*
X130635865Y-105082937D01*
X130858126Y-105175000D01*
X131269874Y-105175000D01*
X131650280Y-105017431D01*
X131767711Y-104900000D01*
X137593153Y-104900000D01*
X137668000Y-104914888D01*
X137742847Y-104900000D01*
X137742852Y-104900000D01*
X137964537Y-104855904D01*
X138215929Y-104687929D01*
X138258331Y-104624470D01*
X141009802Y-101873000D01*
X141175874Y-101873000D01*
X141556280Y-101715431D01*
X141847431Y-101424280D01*
X142005000Y-101043874D01*
X142005000Y-100632126D01*
X141847431Y-100251720D01*
X141556280Y-99960569D01*
X141175874Y-99803000D01*
X140764126Y-99803000D01*
X140383720Y-99960569D01*
X140092569Y-100251720D01*
X139935000Y-100632126D01*
X139935000Y-100798198D01*
X137353199Y-103380000D01*
X131767711Y-103380000D01*
X131765711Y-103378000D01*
X131941431Y-103202280D01*
X132099000Y-102821874D01*
X132099000Y-102410126D01*
X131941431Y-102029720D01*
X131824000Y-101912289D01*
X131824000Y-97864846D01*
X131838888Y-97789999D01*
X131824000Y-97715152D01*
X131824000Y-97715148D01*
X131779904Y-97493463D01*
X131738102Y-97430902D01*
X131654329Y-97305526D01*
X131654327Y-97305524D01*
X131611929Y-97242071D01*
X131548476Y-97199673D01*
X124999531Y-90650730D01*
X124999529Y-90650727D01*
X124339131Y-89990330D01*
X124296729Y-89926871D01*
X124045337Y-89758896D01*
X123823652Y-89714800D01*
X123823647Y-89714800D01*
X123748800Y-89699912D01*
X123673953Y-89714800D01*
X120540911Y-89714800D01*
X120423480Y-89597369D01*
X120043074Y-89439800D01*
X119631326Y-89439800D01*
X119250920Y-89597369D01*
X118959769Y-89888520D01*
X118802200Y-90268926D01*
X51435000Y-90268926D01*
X51435000Y-87503000D01*
X149225000Y-87503000D01*
X149225000Y-111272577D01*
X149225000Y-111272577D01*
G37*
X149225000Y-111272577D02*
X149162885Y-111179615D01*
X148754373Y-110906656D01*
X148394136Y-110835000D01*
X147450864Y-110835000D01*
X147090627Y-110906656D01*
X146682115Y-111179615D01*
X146409156Y-111588127D01*
X146313305Y-112070000D01*
X146354890Y-112279060D01*
X145992878Y-111917048D01*
X145493021Y-111710000D01*
X144951979Y-111710000D01*
X144452122Y-111917048D01*
X144069548Y-112299622D01*
X143862500Y-112799479D01*
X143862500Y-113340521D01*
X144069548Y-113840378D01*
X144452122Y-114222952D01*
X144951979Y-114430000D01*
X145493021Y-114430000D01*
X145992878Y-114222952D01*
X146375452Y-113840378D01*
X146582500Y-113340521D01*
X146582500Y-112811301D01*
X146682115Y-112960385D01*
X147090627Y-113233344D01*
X147450864Y-113305000D01*
X148394136Y-113305000D01*
X148754373Y-113233344D01*
X149162885Y-112960385D01*
X149225000Y-112867423D01*
X149225000Y-118272577D01*
X149162885Y-118179615D01*
X148754373Y-117906656D01*
X148394136Y-117835000D01*
X147450864Y-117835000D01*
X147090627Y-117906656D01*
X146682115Y-118179615D01*
X146582500Y-118328699D01*
X146582500Y-117799479D01*
X146375452Y-117299622D01*
X145992878Y-116917048D01*
X145493021Y-116710000D01*
X144951979Y-116710000D01*
X144452122Y-116917048D01*
X144069548Y-117299622D01*
X143862500Y-117799479D01*
X143862500Y-118340521D01*
X144069548Y-118840378D01*
X144452122Y-119222952D01*
X144951979Y-119430000D01*
X145493021Y-119430000D01*
X145992878Y-119222952D01*
X146354890Y-118860940D01*
X146313305Y-119070000D01*
X146409156Y-119551873D01*
X146682115Y-119960385D01*
X147090627Y-120233344D01*
X147450864Y-120305000D01*
X148394136Y-120305000D01*
X148754373Y-120233344D01*
X149162885Y-119960385D01*
X149225000Y-119867423D01*
X149225000Y-149225000D01*
X51435000Y-149225000D01*
X51435000Y-140745866D01*
X52635000Y-140745866D01*
X52635000Y-141794134D01*
X53036155Y-142762608D01*
X53777392Y-143503845D01*
X54745866Y-143905000D01*
X55794134Y-143905000D01*
X56712595Y-143524561D01*
X62180000Y-143524561D01*
X62180000Y-144095439D01*
X62398466Y-144622862D01*
X62802138Y-145026534D01*
X63329561Y-145245000D01*
X63900439Y-145245000D01*
X64427862Y-145026534D01*
X64831534Y-144622862D01*
X65000000Y-144216150D01*
X65168466Y-144622862D01*
X65572138Y-145026534D01*
X66099561Y-145245000D01*
X66670439Y-145245000D01*
X67197862Y-145026534D01*
X67601534Y-144622862D01*
X67770000Y-144216150D01*
X67938466Y-144622862D01*
X68342138Y-145026534D01*
X68869561Y-145245000D01*
X69440439Y-145245000D01*
X69967862Y-145026534D01*
X70371534Y-144622862D01*
X70540000Y-144216150D01*
X70708466Y-144622862D01*
X71112138Y-145026534D01*
X71639561Y-145245000D01*
X72210439Y-145245000D01*
X72737862Y-145026534D01*
X73141534Y-144622862D01*
X73360000Y-144095439D01*
X73360000Y-143524561D01*
X73141534Y-142997138D01*
X72737862Y-142593466D01*
X72210439Y-142375000D01*
X71639561Y-142375000D01*
X71112138Y-142593466D01*
X70708466Y-142997138D01*
X70540000Y-143403850D01*
X70371534Y-142997138D01*
X69967862Y-142593466D01*
X69440439Y-142375000D01*
X68869561Y-142375000D01*
X68342138Y-142593466D01*
X67938466Y-142997138D01*
X67770000Y-143403850D01*
X67601534Y-142997138D01*
X67197862Y-142593466D01*
X66670439Y-142375000D01*
X66099561Y-142375000D01*
X65572138Y-142593466D01*
X65168466Y-142997138D01*
X65000000Y-143403850D01*
X64831534Y-142997138D01*
X64427862Y-142593466D01*
X63900439Y-142375000D01*
X63329561Y-142375000D01*
X62802138Y-142593466D01*
X62398466Y-142997138D01*
X62180000Y-143524561D01*
X56712595Y-143524561D01*
X56762608Y-143503845D01*
X57503845Y-142762608D01*
X57905000Y-141794134D01*
X57905000Y-140745866D01*
X57503845Y-139777392D01*
X56762608Y-139036155D01*
X55794134Y-138635000D01*
X54745866Y-138635000D01*
X53777392Y-139036155D01*
X53036155Y-139777392D01*
X52635000Y-140745866D01*
X51435000Y-140745866D01*
X51435000Y-128064126D01*
X57385000Y-128064126D01*
X57385000Y-128475874D01*
X57542569Y-128856280D01*
X57833720Y-129147431D01*
X58214126Y-129305000D01*
X58625874Y-129305000D01*
X58901168Y-129190970D01*
X59565000Y-129854802D01*
X59565001Y-136220148D01*
X59550112Y-136295000D01*
X59565001Y-136369852D01*
X59609097Y-136591537D01*
X59777072Y-136842929D01*
X59840528Y-136885329D01*
X62477758Y-139522560D01*
X61430000Y-139522560D01*
X61182235Y-139571843D01*
X60972191Y-139712191D01*
X60831843Y-139922235D01*
X60782560Y-140170000D01*
X60782560Y-141770000D01*
X60831843Y-142017765D01*
X60972191Y-142227809D01*
X61182235Y-142368157D01*
X61430000Y-142417440D01*
X63030000Y-142417440D01*
X63277765Y-142368157D01*
X63487809Y-142227809D01*
X63628157Y-142017765D01*
X63677440Y-141770000D01*
X63677440Y-141526893D01*
X63783466Y-141782862D01*
X64187138Y-142186534D01*
X64714561Y-142405000D01*
X65285439Y-142405000D01*
X65812862Y-142186534D01*
X66021651Y-141977745D01*
X66941861Y-141977745D01*
X67015995Y-142223864D01*
X67553223Y-142416965D01*
X68123454Y-142389778D01*
X68524005Y-142223864D01*
X68598139Y-141977745D01*
X67770000Y-141149605D01*
X66941861Y-141977745D01*
X66021651Y-141977745D01*
X66216534Y-141782862D01*
X66378525Y-141391782D01*
X66516136Y-141724005D01*
X66762255Y-141798139D01*
X67590395Y-140970000D01*
X67949605Y-140970000D01*
X68777745Y-141798139D01*
X69023864Y-141724005D01*
X69151732Y-141368261D01*
X69323466Y-141782862D01*
X69727138Y-142186534D01*
X70254561Y-142405000D01*
X70825439Y-142405000D01*
X71352862Y-142186534D01*
X71756534Y-141782862D01*
X71925000Y-141376150D01*
X72093466Y-141782862D01*
X72497138Y-142186534D01*
X73024561Y-142405000D01*
X73595439Y-142405000D01*
X74122862Y-142186534D01*
X74526534Y-141782862D01*
X74745000Y-141255439D01*
X74745000Y-140745866D01*
X77635000Y-140745866D01*
X77635000Y-141794134D01*
X78036155Y-142762608D01*
X78777392Y-143503845D01*
X79745866Y-143905000D01*
X80794134Y-143905000D01*
X81762608Y-143503845D01*
X82258552Y-143007901D01*
X136817400Y-143007901D01*
X136817400Y-144215299D01*
X137279451Y-145330789D01*
X138133211Y-146184549D01*
X139248701Y-146646600D01*
X140456099Y-146646600D01*
X141571589Y-146184549D01*
X142425349Y-145330789D01*
X142887400Y-144215299D01*
X142887400Y-143007901D01*
X142425349Y-141892411D01*
X141571589Y-141038651D01*
X140456099Y-140576600D01*
X139248701Y-140576600D01*
X138133211Y-141038651D01*
X137279451Y-141892411D01*
X136817400Y-143007901D01*
X82258552Y-143007901D01*
X82503845Y-142762608D01*
X82905000Y-141794134D01*
X82905000Y-140745866D01*
X82503845Y-139777392D01*
X81762608Y-139036155D01*
X80794134Y-138635000D01*
X79745866Y-138635000D01*
X78777392Y-139036155D01*
X78036155Y-139777392D01*
X77635000Y-140745866D01*
X74745000Y-140745866D01*
X74745000Y-140684561D01*
X74526534Y-140157138D01*
X74122862Y-139753466D01*
X73595439Y-139535000D01*
X73024561Y-139535000D01*
X72497138Y-139753466D01*
X72093466Y-140157138D01*
X71925000Y-140563850D01*
X71756534Y-140157138D01*
X71352862Y-139753466D01*
X70825439Y-139535000D01*
X70254561Y-139535000D01*
X69727138Y-139753466D01*
X69323466Y-140157138D01*
X69161475Y-140548218D01*
X69023864Y-140215995D01*
X68777745Y-140141861D01*
X67949605Y-140970000D01*
X67590395Y-140970000D01*
X66762255Y-140141861D01*
X66516136Y-140215995D01*
X66388268Y-140571739D01*
X66216534Y-140157138D01*
X66021651Y-139962255D01*
X66941861Y-139962255D01*
X67770000Y-140790395D01*
X68598139Y-139962255D01*
X68524005Y-139716136D01*
X67986777Y-139523035D01*
X67416546Y-139550222D01*
X67015995Y-139716136D01*
X66941861Y-139962255D01*
X66021651Y-139962255D01*
X65812862Y-139753466D01*
X65285439Y-139535000D01*
X64714561Y-139535000D01*
X64661699Y-139556896D01*
X62058928Y-136954126D01*
X99485000Y-136954126D01*
X99485000Y-137365874D01*
X99642569Y-137746280D01*
X99760001Y-137863712D01*
X99760001Y-138165149D01*
X99745112Y-138240000D01*
X99760001Y-138314852D01*
X99804097Y-138536537D01*
X99972072Y-138787929D01*
X100035528Y-138830329D01*
X102024673Y-140819476D01*
X102067071Y-140882929D01*
X102130524Y-140925327D01*
X102130526Y-140925329D01*
X102255902Y-141009102D01*
X102318463Y-141050904D01*
X102540148Y-141095000D01*
X102540152Y-141095000D01*
X102614999Y-141109888D01*
X102689846Y-141095000D01*
X114866289Y-141095000D01*
X114983720Y-141212431D01*
X115364126Y-141370000D01*
X115775874Y-141370000D01*
X116156280Y-141212431D01*
X116447431Y-140921280D01*
X116605000Y-140540874D01*
X116605000Y-140129126D01*
X116447431Y-139748720D01*
X116156280Y-139457569D01*
X115775874Y-139300000D01*
X115364126Y-139300000D01*
X114983720Y-139457569D01*
X114866289Y-139575000D01*
X102929803Y-139575000D01*
X101280000Y-137925199D01*
X101280000Y-137863711D01*
X101397431Y-137746280D01*
X101555000Y-137365874D01*
X101555000Y-136954126D01*
X103105000Y-136954126D01*
X103105000Y-137365874D01*
X103262569Y-137746280D01*
X103553720Y-138037431D01*
X103778727Y-138130632D01*
X103740000Y-138224126D01*
X103740000Y-138635874D01*
X103897569Y-139016280D01*
X104188720Y-139307431D01*
X104569126Y-139465000D01*
X104980874Y-139465000D01*
X105361280Y-139307431D01*
X105478711Y-139190000D01*
X109780153Y-139190000D01*
X109855000Y-139204888D01*
X109929847Y-139190000D01*
X109929852Y-139190000D01*
X110151537Y-139145904D01*
X110402929Y-138977929D01*
X110445331Y-138914470D01*
X111164802Y-138195000D01*
X111330874Y-138195000D01*
X111711280Y-138037431D01*
X112002431Y-137746280D01*
X112160000Y-137365874D01*
X112160000Y-136954126D01*
X112002431Y-136573720D01*
X111988710Y-136559999D01*
X113895198Y-136559999D01*
X113900000Y-136564801D01*
X113900000Y-136730874D01*
X114057569Y-137111280D01*
X114348720Y-137402431D01*
X114729126Y-137560000D01*
X115140874Y-137560000D01*
X115521280Y-137402431D01*
X115812431Y-137111280D01*
X115970000Y-136730874D01*
X115970000Y-136319126D01*
X115812431Y-135938720D01*
X115521280Y-135647569D01*
X115140874Y-135490000D01*
X114974801Y-135490000D01*
X114800330Y-135315529D01*
X114757928Y-135252070D01*
X114506536Y-135084095D01*
X114284851Y-135039999D01*
X114284846Y-135039999D01*
X114209999Y-135025111D01*
X114135152Y-135039999D01*
X112903305Y-135039999D01*
X112991998Y-134825874D01*
X112991998Y-134414126D01*
X112834429Y-134033720D01*
X112543278Y-133742569D01*
X112162872Y-133585000D01*
X111751124Y-133585000D01*
X111370718Y-133742569D01*
X111253287Y-133860000D01*
X105163711Y-133860000D01*
X105046280Y-133742569D01*
X104665874Y-133585000D01*
X104254126Y-133585000D01*
X103873720Y-133742569D01*
X103582569Y-134033720D01*
X103425000Y-134414126D01*
X103425000Y-134825874D01*
X103582569Y-135206280D01*
X103873720Y-135497431D01*
X104254126Y-135655000D01*
X104665874Y-135655000D01*
X105046280Y-135497431D01*
X105163711Y-135380000D01*
X105480198Y-135380000D01*
X104621168Y-136239030D01*
X104345874Y-136125000D01*
X103934126Y-136125000D01*
X103553720Y-136282569D01*
X103262569Y-136573720D01*
X103105000Y-136954126D01*
X101555000Y-136954126D01*
X101397431Y-136573720D01*
X101106280Y-136282569D01*
X100725874Y-136125000D01*
X100314126Y-136125000D01*
X99933720Y-136282569D01*
X99642569Y-136573720D01*
X99485000Y-136954126D01*
X62058928Y-136954126D01*
X61085000Y-135980199D01*
X61085000Y-131874126D01*
X94215000Y-131874126D01*
X94215000Y-132285874D01*
X94372569Y-132666280D01*
X94663720Y-132957431D01*
X95044126Y-133115000D01*
X95455874Y-133115000D01*
X95836280Y-132957431D01*
X96127431Y-132666280D01*
X96285000Y-132285874D01*
X96285000Y-132119801D01*
X97469802Y-130935000D01*
X105341289Y-130935000D01*
X105458720Y-131052431D01*
X105839126Y-131210000D01*
X106250874Y-131210000D01*
X106631280Y-131052431D01*
X106922431Y-130761280D01*
X107080000Y-130380874D01*
X107080000Y-129969126D01*
X106922431Y-129588720D01*
X106631280Y-129297569D01*
X106250874Y-129140000D01*
X105839126Y-129140000D01*
X105458720Y-129297569D01*
X105341289Y-129415000D01*
X97229848Y-129415000D01*
X97155000Y-129400112D01*
X97080152Y-129415000D01*
X97080148Y-129415000D01*
X96906605Y-129449520D01*
X96858462Y-129459096D01*
X96671418Y-129584076D01*
X96607071Y-129627071D01*
X96564671Y-129690527D01*
X95210199Y-131045000D01*
X95044126Y-131045000D01*
X94663720Y-131202569D01*
X94372569Y-131493720D01*
X94215000Y-131874126D01*
X61085000Y-131874126D01*
X61085000Y-130604126D01*
X80245000Y-130604126D01*
X80245000Y-131015874D01*
X80402569Y-131396280D01*
X80693720Y-131687431D01*
X81074126Y-131845000D01*
X81485874Y-131845000D01*
X81866280Y-131687431D01*
X81983711Y-131570000D01*
X90101289Y-131570000D01*
X90218720Y-131687431D01*
X90599126Y-131845000D01*
X91010874Y-131845000D01*
X91391280Y-131687431D01*
X91682431Y-131396280D01*
X91840000Y-131015874D01*
X91840000Y-130604126D01*
X91682431Y-130223720D01*
X91633711Y-130175000D01*
X91682431Y-130126280D01*
X91840000Y-129745874D01*
X91840000Y-129334126D01*
X91682431Y-128953720D01*
X91391280Y-128662569D01*
X91010874Y-128505000D01*
X90599126Y-128505000D01*
X90218720Y-128662569D01*
X90101289Y-128780000D01*
X85490000Y-128780000D01*
X85490000Y-128699126D01*
X85332431Y-128318720D01*
X85041280Y-128027569D01*
X84660874Y-127870000D01*
X84249126Y-127870000D01*
X83868720Y-128027569D01*
X83577569Y-128318720D01*
X83420000Y-128699126D01*
X83420000Y-129110874D01*
X83577569Y-129491280D01*
X83868720Y-129782431D01*
X84249126Y-129940000D01*
X84415198Y-129940000D01*
X84499671Y-130024473D01*
X84516728Y-130050000D01*
X81983711Y-130050000D01*
X81866280Y-129932569D01*
X81485874Y-129775000D01*
X81074126Y-129775000D01*
X80693720Y-129932569D01*
X80402569Y-130223720D01*
X80245000Y-130604126D01*
X61085000Y-130604126D01*
X61085000Y-129614846D01*
X61099888Y-129539999D01*
X61085000Y-129465152D01*
X61085000Y-129465148D01*
X61040904Y-129243463D01*
X60872929Y-128992071D01*
X60809473Y-128949671D01*
X59645331Y-127785530D01*
X59602929Y-127722071D01*
X59351537Y-127554096D01*
X59129852Y-127510000D01*
X59129847Y-127510000D01*
X59122187Y-127508476D01*
X59006280Y-127392569D01*
X58625874Y-127235000D01*
X58214126Y-127235000D01*
X57833720Y-127392569D01*
X57542569Y-127683720D01*
X57385000Y-128064126D01*
X51435000Y-128064126D01*
X51435000Y-122924452D01*
X63435000Y-122924452D01*
X63435000Y-123455548D01*
X63638242Y-123946217D01*
X64013783Y-124321758D01*
X64347528Y-124460000D01*
X64013783Y-124598242D01*
X63638242Y-124973783D01*
X63435000Y-125464452D01*
X63435000Y-125995548D01*
X63638242Y-126486217D01*
X64013783Y-126861758D01*
X64504452Y-127065000D01*
X65035548Y-127065000D01*
X65526217Y-126861758D01*
X65901758Y-126486217D01*
X66105000Y-125995548D01*
X66105000Y-125464452D01*
X116775000Y-125464452D01*
X116775000Y-125995548D01*
X116978242Y-126486217D01*
X117353783Y-126861758D01*
X117844452Y-127065000D01*
X118341621Y-127065000D01*
X118243400Y-127302126D01*
X118243400Y-127713874D01*
X118400969Y-128094280D01*
X118692120Y-128385431D01*
X119072526Y-128543000D01*
X119484274Y-128543000D01*
X119864680Y-128385431D01*
X120155831Y-128094280D01*
X120313400Y-127713874D01*
X120313400Y-127499599D01*
X122156354Y-127499599D01*
X122231201Y-127514487D01*
X122306048Y-127499599D01*
X122306053Y-127499599D01*
X122527738Y-127455503D01*
X122648818Y-127374600D01*
X122837074Y-127374600D01*
X123217480Y-127217031D01*
X123508631Y-126925880D01*
X123666200Y-126545474D01*
X123666200Y-126133726D01*
X123508631Y-125753320D01*
X123217480Y-125462169D01*
X122837074Y-125304600D01*
X122425326Y-125304600D01*
X122044920Y-125462169D01*
X121753769Y-125753320D01*
X121660041Y-125979599D01*
X119562849Y-125979599D01*
X119488001Y-125964711D01*
X119445000Y-125973264D01*
X119445000Y-125464452D01*
X119241758Y-124973783D01*
X118866217Y-124598242D01*
X118548698Y-124466721D01*
X118803831Y-124361042D01*
X118865669Y-124125275D01*
X118110000Y-123369605D01*
X117354331Y-124125275D01*
X117416169Y-124361042D01*
X117691987Y-124458153D01*
X117353783Y-124598242D01*
X116978242Y-124973783D01*
X116775000Y-125464452D01*
X66105000Y-125464452D01*
X65901758Y-124973783D01*
X65526217Y-124598242D01*
X65192472Y-124460000D01*
X65526217Y-124321758D01*
X65901758Y-123946217D01*
X66105000Y-123455548D01*
X66105000Y-122997122D01*
X116762581Y-122997122D01*
X116791336Y-123527440D01*
X116938958Y-123883831D01*
X117174725Y-123945669D01*
X117930395Y-123190000D01*
X118289605Y-123190000D01*
X119045275Y-123945669D01*
X119281042Y-123883831D01*
X119457419Y-123382878D01*
X119428664Y-122852560D01*
X119281042Y-122496169D01*
X119045275Y-122434331D01*
X118289605Y-123190000D01*
X117930395Y-123190000D01*
X117174725Y-122434331D01*
X116938958Y-122496169D01*
X116762581Y-122997122D01*
X66105000Y-122997122D01*
X66105000Y-122924452D01*
X65901758Y-122433783D01*
X65722700Y-122254725D01*
X117354331Y-122254725D01*
X118110000Y-123010395D01*
X118865669Y-122254725D01*
X118803831Y-122018958D01*
X118302878Y-121842581D01*
X117772560Y-121871336D01*
X117416169Y-122018958D01*
X117354331Y-122254725D01*
X65722700Y-122254725D01*
X65526217Y-122058242D01*
X65035548Y-121855000D01*
X64504452Y-121855000D01*
X64013783Y-122058242D01*
X63638242Y-122433783D01*
X63435000Y-122924452D01*
X51435000Y-122924452D01*
X51435000Y-120190126D01*
X113814229Y-120190126D01*
X113814229Y-120601874D01*
X113971798Y-120982280D01*
X114262949Y-121273431D01*
X114643355Y-121431000D01*
X115055103Y-121431000D01*
X115435509Y-121273431D01*
X115552940Y-121156000D01*
X138081889Y-121156000D01*
X138097720Y-121171831D01*
X138478126Y-121329400D01*
X138889874Y-121329400D01*
X139270280Y-121171831D01*
X139561431Y-120880680D01*
X139719000Y-120500274D01*
X139719000Y-120088526D01*
X139561431Y-119708120D01*
X139270280Y-119416969D01*
X138889874Y-119259400D01*
X138478126Y-119259400D01*
X138097720Y-119416969D01*
X137878689Y-119636000D01*
X115552940Y-119636000D01*
X115435509Y-119518569D01*
X115055103Y-119361000D01*
X114643355Y-119361000D01*
X114262949Y-119518569D01*
X113971798Y-119809720D01*
X113814229Y-120190126D01*
X51435000Y-120190126D01*
X51435000Y-116287101D01*
X72199800Y-116287101D01*
X72199800Y-117494499D01*
X72661851Y-118609989D01*
X73515611Y-119463749D01*
X74631101Y-119925800D01*
X75838499Y-119925800D01*
X76953989Y-119463749D01*
X77807749Y-118609989D01*
X78269800Y-117494499D01*
X78269800Y-116287101D01*
X78185632Y-116083901D01*
X95466200Y-116083901D01*
X95466200Y-117291299D01*
X95928251Y-118406789D01*
X96782011Y-119260549D01*
X97897501Y-119722600D01*
X99104899Y-119722600D01*
X100220389Y-119260549D01*
X101074149Y-118406789D01*
X101536200Y-117291299D01*
X101536200Y-116083901D01*
X101074149Y-114968411D01*
X100220389Y-114114651D01*
X99104899Y-113652600D01*
X97897501Y-113652600D01*
X96782011Y-114114651D01*
X95928251Y-114968411D01*
X95466200Y-116083901D01*
X78185632Y-116083901D01*
X77807749Y-115171611D01*
X76953989Y-114317851D01*
X75838499Y-113855800D01*
X74631101Y-113855800D01*
X73515611Y-114317851D01*
X72661851Y-115171611D01*
X72199800Y-116287101D01*
X51435000Y-116287101D01*
X51435000Y-104509452D01*
X63435000Y-104509452D01*
X63435000Y-105040548D01*
X63638242Y-105531217D01*
X64013783Y-105906758D01*
X64347528Y-106045000D01*
X64013783Y-106183242D01*
X63638242Y-106558783D01*
X63435000Y-107049452D01*
X63435000Y-107580548D01*
X63638242Y-108071217D01*
X64013783Y-108446758D01*
X64504452Y-108650000D01*
X65035548Y-108650000D01*
X65526217Y-108446758D01*
X65901758Y-108071217D01*
X66105000Y-107580548D01*
X66105000Y-107049452D01*
X65901758Y-106558783D01*
X65526217Y-106183242D01*
X65192472Y-106045000D01*
X65526217Y-105906758D01*
X65901758Y-105531217D01*
X66105000Y-105040548D01*
X66105000Y-104509452D01*
X65901758Y-104018783D01*
X65526217Y-103643242D01*
X65035548Y-103440000D01*
X64504452Y-103440000D01*
X64013783Y-103643242D01*
X63638242Y-104018783D01*
X63435000Y-104509452D01*
X51435000Y-104509452D01*
X51435000Y-95060866D01*
X52350000Y-95060866D01*
X52350000Y-96109134D01*
X52751155Y-97077608D01*
X53492392Y-97818845D01*
X54460866Y-98220000D01*
X55509134Y-98220000D01*
X56477608Y-97818845D01*
X57218845Y-97077608D01*
X57620000Y-96109134D01*
X57620000Y-95599561D01*
X60510000Y-95599561D01*
X60510000Y-96170439D01*
X60728466Y-96697862D01*
X61132138Y-97101534D01*
X61659561Y-97320000D01*
X62230439Y-97320000D01*
X62757862Y-97101534D01*
X63161534Y-96697862D01*
X63330000Y-96291150D01*
X63498466Y-96697862D01*
X63902138Y-97101534D01*
X64429561Y-97320000D01*
X65000439Y-97320000D01*
X65527862Y-97101534D01*
X65931534Y-96697862D01*
X66093525Y-96306782D01*
X66231136Y-96639005D01*
X66477255Y-96713139D01*
X67305395Y-95885000D01*
X66477255Y-95056861D01*
X66231136Y-95130995D01*
X66103268Y-95486739D01*
X65931534Y-95072138D01*
X65527862Y-94668466D01*
X65000439Y-94450000D01*
X64429561Y-94450000D01*
X63902138Y-94668466D01*
X63498466Y-95072138D01*
X63330000Y-95478850D01*
X63161534Y-95072138D01*
X62757862Y-94668466D01*
X62230439Y-94450000D01*
X61659561Y-94450000D01*
X61132138Y-94668466D01*
X60728466Y-95072138D01*
X60510000Y-95599561D01*
X57620000Y-95599561D01*
X57620000Y-95060866D01*
X57218845Y-94092392D01*
X56477608Y-93351155D01*
X55509134Y-92950000D01*
X54460866Y-92950000D01*
X53492392Y-93351155D01*
X52751155Y-94092392D01*
X52350000Y-95060866D01*
X51435000Y-95060866D01*
X51435000Y-92759561D01*
X61895000Y-92759561D01*
X61895000Y-93330439D01*
X62113466Y-93857862D01*
X62517138Y-94261534D01*
X63044561Y-94480000D01*
X63615439Y-94480000D01*
X64142862Y-94261534D01*
X64546534Y-93857862D01*
X64715000Y-93451150D01*
X64883466Y-93857862D01*
X65287138Y-94261534D01*
X65814561Y-94480000D01*
X66385439Y-94480000D01*
X66912862Y-94261534D01*
X67316534Y-93857862D01*
X67485000Y-93451150D01*
X67653466Y-93857862D01*
X68057138Y-94261534D01*
X68110000Y-94283430D01*
X68110000Y-94584767D01*
X67701777Y-94438035D01*
X67131546Y-94465222D01*
X66730995Y-94631136D01*
X66656861Y-94877255D01*
X67485000Y-95705395D01*
X67499142Y-95691252D01*
X67678748Y-95870858D01*
X67664605Y-95885000D01*
X67678748Y-95899143D01*
X67499142Y-96078748D01*
X67485000Y-96064605D01*
X66656861Y-96892745D01*
X66730995Y-97138864D01*
X67268223Y-97331965D01*
X67838454Y-97304778D01*
X68110000Y-97192300D01*
X68110001Y-108185000D01*
X67956626Y-108185000D01*
X67576220Y-108342569D01*
X67285069Y-108633720D01*
X67127500Y-109014126D01*
X67127500Y-109425874D01*
X67285069Y-109806280D01*
X67576220Y-110097431D01*
X67956626Y-110255000D01*
X68368374Y-110255000D01*
X68748780Y-110097431D01*
X69039931Y-109806280D01*
X69197500Y-109425874D01*
X69197500Y-109259802D01*
X69354473Y-109102829D01*
X69417929Y-109060429D01*
X69585904Y-108809037D01*
X69630000Y-108587352D01*
X69630000Y-108587348D01*
X69644888Y-108512501D01*
X69630000Y-108437654D01*
X69630000Y-108099726D01*
X83648600Y-108099726D01*
X83648600Y-108511474D01*
X83806169Y-108891880D01*
X84097320Y-109183031D01*
X84477726Y-109340600D01*
X84889474Y-109340600D01*
X85269880Y-109183031D01*
X85561031Y-108891880D01*
X85718600Y-108511474D01*
X85718600Y-108345401D01*
X90129875Y-103934126D01*
X98660000Y-103934126D01*
X98660000Y-104345874D01*
X98817569Y-104726280D01*
X98935001Y-104843712D01*
X98935001Y-105335149D01*
X98920112Y-105410000D01*
X98935001Y-105484852D01*
X98979097Y-105706537D01*
X99147072Y-105957929D01*
X99210528Y-106000329D01*
X101009671Y-107799473D01*
X101052071Y-107862929D01*
X101115527Y-107905329D01*
X101303462Y-108030904D01*
X101351605Y-108040480D01*
X101525148Y-108075000D01*
X101525152Y-108075000D01*
X101600000Y-108089888D01*
X101674848Y-108075000D01*
X114866289Y-108075000D01*
X114983720Y-108192431D01*
X115364126Y-108350000D01*
X115775874Y-108350000D01*
X116156280Y-108192431D01*
X116447431Y-107901280D01*
X116605000Y-107520874D01*
X116605000Y-107109126D01*
X116447431Y-106728720D01*
X116156280Y-106437569D01*
X115775874Y-106280000D01*
X115364126Y-106280000D01*
X114983720Y-106437569D01*
X114866289Y-106555000D01*
X101914802Y-106555000D01*
X100455000Y-105095199D01*
X100455000Y-104843711D01*
X100572431Y-104726280D01*
X100730000Y-104345874D01*
X100730000Y-103934126D01*
X103105000Y-103934126D01*
X103105000Y-104345874D01*
X103262569Y-104726280D01*
X103553720Y-105017431D01*
X103934126Y-105175000D01*
X104345874Y-105175000D01*
X104395595Y-105154405D01*
X104375000Y-105204126D01*
X104375000Y-105615874D01*
X104532569Y-105996280D01*
X104823720Y-106287431D01*
X105204126Y-106445000D01*
X105615874Y-106445000D01*
X105996280Y-106287431D01*
X106113711Y-106170000D01*
X109786289Y-106170000D01*
X109903720Y-106287431D01*
X110284126Y-106445000D01*
X110695874Y-106445000D01*
X111076280Y-106287431D01*
X111367431Y-105996280D01*
X111525000Y-105615874D01*
X111525000Y-105204126D01*
X111399027Y-104900000D01*
X111691289Y-104900000D01*
X111808720Y-105017431D01*
X112189126Y-105175000D01*
X112600874Y-105175000D01*
X112981280Y-105017431D01*
X113272431Y-104726280D01*
X113430000Y-104345874D01*
X113430000Y-103934126D01*
X113272431Y-103553720D01*
X112981280Y-103262569D01*
X112600874Y-103105000D01*
X112189126Y-103105000D01*
X111808720Y-103262569D01*
X111691289Y-103380000D01*
X104843711Y-103380000D01*
X104726280Y-103262569D01*
X104345874Y-103105000D01*
X103934126Y-103105000D01*
X103553720Y-103262569D01*
X103262569Y-103553720D01*
X103105000Y-103934126D01*
X100730000Y-103934126D01*
X100572431Y-103553720D01*
X100281280Y-103262569D01*
X99900874Y-103105000D01*
X99489126Y-103105000D01*
X99108720Y-103262569D01*
X98817569Y-103553720D01*
X98660000Y-103934126D01*
X90129875Y-103934126D01*
X92669875Y-101394126D01*
X103425000Y-101394126D01*
X103425000Y-101805874D01*
X103582569Y-102186280D01*
X103873720Y-102477431D01*
X104254126Y-102635000D01*
X104665874Y-102635000D01*
X105046280Y-102477431D01*
X105163711Y-102360000D01*
X112080199Y-102360000D01*
X114535000Y-104814802D01*
X114535000Y-104980874D01*
X114692569Y-105361280D01*
X114983720Y-105652431D01*
X115364126Y-105810000D01*
X115775874Y-105810000D01*
X116156280Y-105652431D01*
X116447431Y-105361280D01*
X116605000Y-104980874D01*
X116605000Y-104569126D01*
X116447431Y-104188720D01*
X116156280Y-103897569D01*
X115775874Y-103740000D01*
X115609802Y-103740000D01*
X112985331Y-101115530D01*
X112942929Y-101052071D01*
X112691537Y-100884096D01*
X112469852Y-100840000D01*
X112469847Y-100840000D01*
X112395000Y-100825112D01*
X112320153Y-100840000D01*
X105163711Y-100840000D01*
X105046280Y-100722569D01*
X104665874Y-100565000D01*
X104254126Y-100565000D01*
X103873720Y-100722569D01*
X103582569Y-101013720D01*
X103425000Y-101394126D01*
X92669875Y-101394126D01*
X94395145Y-99668856D01*
X94663720Y-99937431D01*
X95044126Y-100095000D01*
X95455874Y-100095000D01*
X95836280Y-99937431D01*
X96127431Y-99646280D01*
X96285000Y-99265874D01*
X96285000Y-99099801D01*
X97469802Y-97915000D01*
X105341289Y-97915000D01*
X105458720Y-98032431D01*
X105839126Y-98190000D01*
X106250874Y-98190000D01*
X106631280Y-98032431D01*
X106922431Y-97741280D01*
X107080000Y-97360874D01*
X107080000Y-96949126D01*
X106922431Y-96568720D01*
X106631280Y-96277569D01*
X106250874Y-96120000D01*
X105839126Y-96120000D01*
X105458720Y-96277569D01*
X105341289Y-96395000D01*
X97669002Y-96395000D01*
X98562002Y-95502000D01*
X98985153Y-95502000D01*
X99060000Y-95516888D01*
X99134847Y-95502000D01*
X99134852Y-95502000D01*
X99356537Y-95457904D01*
X99607929Y-95289929D01*
X99650331Y-95226470D01*
X99861801Y-95015000D01*
X100027874Y-95015000D01*
X100408280Y-94857431D01*
X100699431Y-94566280D01*
X100857000Y-94185874D01*
X100857000Y-93774126D01*
X100699431Y-93393720D01*
X100408280Y-93102569D01*
X100027874Y-92945000D01*
X99616126Y-92945000D01*
X99235720Y-93102569D01*
X98944569Y-93393720D01*
X98787000Y-93774126D01*
X98787000Y-93940199D01*
X98745199Y-93982000D01*
X98322046Y-93982000D01*
X98247199Y-93967112D01*
X98172352Y-93982000D01*
X98172348Y-93982000D01*
X97950663Y-94026096D01*
X97699271Y-94194071D01*
X97656871Y-94257527D01*
X84643799Y-107270600D01*
X84477726Y-107270600D01*
X84097320Y-107428169D01*
X83806169Y-107719320D01*
X83648600Y-108099726D01*
X69630000Y-108099726D01*
X69630000Y-103680126D01*
X79991000Y-103680126D01*
X79991000Y-104091874D01*
X80148569Y-104472280D01*
X80439720Y-104763431D01*
X80820126Y-104921000D01*
X81231874Y-104921000D01*
X81612280Y-104763431D01*
X81903431Y-104472280D01*
X82061000Y-104091874D01*
X82061000Y-103925801D01*
X88706802Y-97280000D01*
X89596728Y-97280000D01*
X89579672Y-97305526D01*
X84415199Y-102470000D01*
X84249126Y-102470000D01*
X83868720Y-102627569D01*
X83577569Y-102918720D01*
X83420000Y-103299126D01*
X83420000Y-103710874D01*
X83577569Y-104091280D01*
X83868720Y-104382431D01*
X84249126Y-104540000D01*
X84660874Y-104540000D01*
X85041280Y-104382431D01*
X85332431Y-104091280D01*
X85490000Y-103710874D01*
X85490000Y-103544801D01*
X90286635Y-98748167D01*
X90472126Y-98825000D01*
X90883874Y-98825000D01*
X91264280Y-98667431D01*
X91555431Y-98376280D01*
X91713000Y-97995874D01*
X91713000Y-97584126D01*
X91564089Y-97224622D01*
X91682431Y-97106280D01*
X91840000Y-96725874D01*
X91840000Y-96314126D01*
X91682431Y-95933720D01*
X91391280Y-95642569D01*
X91010874Y-95485000D01*
X90599126Y-95485000D01*
X90218720Y-95642569D01*
X90101289Y-95760000D01*
X88466846Y-95760000D01*
X88391999Y-95745112D01*
X88317152Y-95760000D01*
X88317148Y-95760000D01*
X88095463Y-95804096D01*
X87844071Y-95972071D01*
X87801671Y-96035527D01*
X80986199Y-102851000D01*
X80820126Y-102851000D01*
X80439720Y-103008569D01*
X80148569Y-103299720D01*
X79991000Y-103680126D01*
X69630000Y-103680126D01*
X69630000Y-97179349D01*
X69969561Y-97320000D01*
X70540439Y-97320000D01*
X71067862Y-97101534D01*
X71471534Y-96697862D01*
X71577560Y-96441893D01*
X71577560Y-96685000D01*
X71626843Y-96932765D01*
X71767191Y-97142809D01*
X71977235Y-97283157D01*
X72225000Y-97332440D01*
X73825000Y-97332440D01*
X74072765Y-97283157D01*
X74282809Y-97142809D01*
X74423157Y-96932765D01*
X74472440Y-96685000D01*
X74472440Y-95085000D01*
X74467640Y-95060866D01*
X77350000Y-95060866D01*
X77350000Y-96109134D01*
X77751155Y-97077608D01*
X78492392Y-97818845D01*
X79460866Y-98220000D01*
X80509134Y-98220000D01*
X81477608Y-97818845D01*
X82218845Y-97077608D01*
X82620000Y-96109134D01*
X82620000Y-95060866D01*
X82218845Y-94092392D01*
X81477608Y-93351155D01*
X80509134Y-92950000D01*
X79460866Y-92950000D01*
X78492392Y-93351155D01*
X77751155Y-94092392D01*
X77350000Y-95060866D01*
X74467640Y-95060866D01*
X74423157Y-94837235D01*
X74282809Y-94627191D01*
X74072765Y-94486843D01*
X73825000Y-94437560D01*
X72225000Y-94437560D01*
X71977235Y-94486843D01*
X71767191Y-94627191D01*
X71626843Y-94837235D01*
X71577560Y-95085000D01*
X71577560Y-95328107D01*
X71471534Y-95072138D01*
X71067862Y-94668466D01*
X70540439Y-94450000D01*
X69969561Y-94450000D01*
X69630000Y-94590651D01*
X69630000Y-94283430D01*
X69682862Y-94261534D01*
X70086534Y-93857862D01*
X70255000Y-93451150D01*
X70423466Y-93857862D01*
X70827138Y-94261534D01*
X71354561Y-94480000D01*
X71925439Y-94480000D01*
X72452862Y-94261534D01*
X72856534Y-93857862D01*
X73075000Y-93330439D01*
X73075000Y-92759561D01*
X72944478Y-92444452D01*
X116521000Y-92444452D01*
X116521000Y-92975548D01*
X116724242Y-93466217D01*
X117099783Y-93841758D01*
X117590452Y-94045000D01*
X118121548Y-94045000D01*
X118612217Y-93841758D01*
X118808700Y-93645275D01*
X119640331Y-93645275D01*
X119702169Y-93881042D01*
X120203122Y-94057419D01*
X120733440Y-94028664D01*
X121089831Y-93881042D01*
X121151669Y-93645275D01*
X120396000Y-92889605D01*
X119640331Y-93645275D01*
X118808700Y-93645275D01*
X118987758Y-93466217D01*
X119119279Y-93148698D01*
X119224958Y-93403831D01*
X119460725Y-93465669D01*
X120216395Y-92710000D01*
X120575605Y-92710000D01*
X121331275Y-93465669D01*
X121567042Y-93403831D01*
X121743419Y-92902878D01*
X121714664Y-92372560D01*
X121567042Y-92016169D01*
X121331275Y-91954331D01*
X120575605Y-92710000D01*
X120216395Y-92710000D01*
X119460725Y-91954331D01*
X119224958Y-92016169D01*
X119127847Y-92291987D01*
X118987758Y-91953783D01*
X118612217Y-91578242D01*
X118121548Y-91375000D01*
X117590452Y-91375000D01*
X117099783Y-91578242D01*
X116724242Y-91953783D01*
X116521000Y-92444452D01*
X72944478Y-92444452D01*
X72856534Y-92232138D01*
X72452862Y-91828466D01*
X71925439Y-91610000D01*
X71354561Y-91610000D01*
X70827138Y-91828466D01*
X70423466Y-92232138D01*
X70255000Y-92638850D01*
X70086534Y-92232138D01*
X69682862Y-91828466D01*
X69155439Y-91610000D01*
X68584561Y-91610000D01*
X68057138Y-91828466D01*
X67653466Y-92232138D01*
X67485000Y-92638850D01*
X67316534Y-92232138D01*
X66912862Y-91828466D01*
X66385439Y-91610000D01*
X65814561Y-91610000D01*
X65287138Y-91828466D01*
X64883466Y-92232138D01*
X64715000Y-92638850D01*
X64546534Y-92232138D01*
X64142862Y-91828466D01*
X63615439Y-91610000D01*
X63044561Y-91610000D01*
X62517138Y-91828466D01*
X62113466Y-92232138D01*
X61895000Y-92759561D01*
X51435000Y-92759561D01*
X51435000Y-90268926D01*
X118802200Y-90268926D01*
X118802200Y-90680674D01*
X118959769Y-91061080D01*
X119250920Y-91352231D01*
X119631326Y-91509800D01*
X119772563Y-91509800D01*
X119702169Y-91538958D01*
X119640331Y-91774725D01*
X120396000Y-92530395D01*
X121151669Y-91774725D01*
X121089831Y-91538958D01*
X120588878Y-91362581D01*
X120369817Y-91374459D01*
X120423480Y-91352231D01*
X120540911Y-91234800D01*
X123433999Y-91234800D01*
X123924727Y-91725529D01*
X123924730Y-91725531D01*
X130224197Y-98025000D01*
X129842126Y-98025000D01*
X129461720Y-98182569D01*
X129170569Y-98473720D01*
X129013000Y-98854126D01*
X129013000Y-99020198D01*
X122225528Y-105807671D01*
X122162072Y-105850071D01*
X121994097Y-106101463D01*
X121977503Y-106184889D01*
X121935112Y-106398000D01*
X121950001Y-106472852D01*
X121950000Y-115021289D01*
X121832569Y-115138720D01*
X121675000Y-115519126D01*
X121675000Y-115930874D01*
X121832569Y-116311280D01*
X122123720Y-116602431D01*
X122504126Y-116760000D01*
X122915874Y-116760000D01*
X123296280Y-116602431D01*
X123587431Y-116311280D01*
X123631405Y-116205116D01*
X123873720Y-116447431D01*
X124254126Y-116605000D01*
X124665874Y-116605000D01*
X125046280Y-116447431D01*
X125163711Y-116330000D01*
X133021153Y-116330000D01*
X133096000Y-116344888D01*
X133170847Y-116330000D01*
X133170852Y-116330000D01*
X133392537Y-116285904D01*
X133643929Y-116117929D01*
X133686331Y-116054470D01*
X135442802Y-114298000D01*
X135891763Y-114298000D01*
X135871000Y-114348126D01*
X135871000Y-114759874D01*
X136028569Y-115140280D01*
X136146001Y-115257712D01*
X136146000Y-115882289D01*
X136028569Y-115999720D01*
X135871000Y-116380126D01*
X135871000Y-116791874D01*
X136028569Y-117172280D01*
X136319720Y-117463431D01*
X136700126Y-117621000D01*
X137111874Y-117621000D01*
X137492280Y-117463431D01*
X137783431Y-117172280D01*
X137941000Y-116791874D01*
X137941000Y-116380126D01*
X137783431Y-115999720D01*
X137666000Y-115882289D01*
X137666000Y-115257711D01*
X137783431Y-115140280D01*
X137941000Y-114759874D01*
X137941000Y-114348126D01*
X137920237Y-114298000D01*
X139218664Y-114298000D01*
X139113720Y-114341469D01*
X138822569Y-114632620D01*
X138665000Y-115013026D01*
X138665000Y-115424774D01*
X138822569Y-115805180D01*
X139113720Y-116096331D01*
X139494126Y-116253900D01*
X139660199Y-116253900D01*
X141238771Y-117832473D01*
X141281171Y-117895929D01*
X141410901Y-117982612D01*
X141653720Y-118225431D01*
X142034126Y-118383000D01*
X142445874Y-118383000D01*
X142826280Y-118225431D01*
X143117431Y-117934280D01*
X143275000Y-117553874D01*
X143275000Y-117142126D01*
X143117431Y-116761720D01*
X142826280Y-116470569D01*
X142445874Y-116313000D01*
X142034126Y-116313000D01*
X141917295Y-116361393D01*
X140735000Y-115179099D01*
X140735000Y-115013026D01*
X140577431Y-114632620D01*
X140286280Y-114341469D01*
X140181336Y-114298000D01*
X141950699Y-114298000D01*
X142500500Y-114847802D01*
X142500500Y-115013874D01*
X142658069Y-115394280D01*
X142949220Y-115685431D01*
X143329626Y-115843000D01*
X143741374Y-115843000D01*
X144121780Y-115685431D01*
X144412931Y-115394280D01*
X144570500Y-115013874D01*
X144570500Y-114602126D01*
X144412931Y-114221720D01*
X144121780Y-113930569D01*
X143741374Y-113773000D01*
X143575302Y-113773000D01*
X142855831Y-113053530D01*
X142813429Y-112990071D01*
X142562037Y-112822096D01*
X142340352Y-112778000D01*
X142340347Y-112778000D01*
X142265500Y-112763112D01*
X142190653Y-112778000D01*
X135202847Y-112778000D01*
X135128000Y-112763112D01*
X135053153Y-112778000D01*
X135053148Y-112778000D01*
X134831463Y-112822096D01*
X134580071Y-112990071D01*
X134537671Y-113053527D01*
X132781199Y-114810000D01*
X125163711Y-114810000D01*
X125046280Y-114692569D01*
X124665874Y-114535000D01*
X124254126Y-114535000D01*
X123873720Y-114692569D01*
X123582569Y-114983720D01*
X123538595Y-115089884D01*
X123470000Y-115021289D01*
X123470000Y-111612625D01*
X123746126Y-111727000D01*
X124157874Y-111727000D01*
X124538280Y-111569431D01*
X124829431Y-111278280D01*
X124987000Y-110897874D01*
X124987000Y-110731801D01*
X125124675Y-110594126D01*
X125655000Y-110594126D01*
X125655000Y-111005874D01*
X125812569Y-111386280D01*
X126103720Y-111677431D01*
X126484126Y-111835000D01*
X126895874Y-111835000D01*
X127276280Y-111677431D01*
X127567431Y-111386280D01*
X127725000Y-111005874D01*
X127725000Y-110839801D01*
X128330802Y-110234000D01*
X128369289Y-110234000D01*
X128486720Y-110351431D01*
X128867126Y-110509000D01*
X129278874Y-110509000D01*
X129659280Y-110351431D01*
X129950431Y-110060280D01*
X130108000Y-109679874D01*
X130108000Y-109268126D01*
X129950431Y-108887720D01*
X129659280Y-108596569D01*
X129278874Y-108439000D01*
X128867126Y-108439000D01*
X128486720Y-108596569D01*
X128369289Y-108714000D01*
X128090846Y-108714000D01*
X128015999Y-108699112D01*
X127941152Y-108714000D01*
X127941148Y-108714000D01*
X127719463Y-108758096D01*
X127468071Y-108926071D01*
X127425671Y-108989527D01*
X126650199Y-109765000D01*
X126484126Y-109765000D01*
X126103720Y-109922569D01*
X125812569Y-110213720D01*
X125655000Y-110594126D01*
X125124675Y-110594126D01*
X130635865Y-105082937D01*
X130858126Y-105175000D01*
X131269874Y-105175000D01*
X131650280Y-105017431D01*
X131767711Y-104900000D01*
X137593153Y-104900000D01*
X137668000Y-104914888D01*
X137742847Y-104900000D01*
X137742852Y-104900000D01*
X137964537Y-104855904D01*
X138215929Y-104687929D01*
X138258331Y-104624470D01*
X141009802Y-101873000D01*
X141175874Y-101873000D01*
X141556280Y-101715431D01*
X141847431Y-101424280D01*
X142005000Y-101043874D01*
X142005000Y-100632126D01*
X141847431Y-100251720D01*
X141556280Y-99960569D01*
X141175874Y-99803000D01*
X140764126Y-99803000D01*
X140383720Y-99960569D01*
X140092569Y-100251720D01*
X139935000Y-100632126D01*
X139935000Y-100798198D01*
X137353199Y-103380000D01*
X131767711Y-103380000D01*
X131765711Y-103378000D01*
X131941431Y-103202280D01*
X132099000Y-102821874D01*
X132099000Y-102410126D01*
X131941431Y-102029720D01*
X131824000Y-101912289D01*
X131824000Y-97864846D01*
X131838888Y-97789999D01*
X131824000Y-97715152D01*
X131824000Y-97715148D01*
X131779904Y-97493463D01*
X131738102Y-97430902D01*
X131654329Y-97305526D01*
X131654327Y-97305524D01*
X131611929Y-97242071D01*
X131548476Y-97199673D01*
X124999531Y-90650730D01*
X124999529Y-90650727D01*
X124339131Y-89990330D01*
X124296729Y-89926871D01*
X124045337Y-89758896D01*
X123823652Y-89714800D01*
X123823647Y-89714800D01*
X123748800Y-89699912D01*
X123673953Y-89714800D01*
X120540911Y-89714800D01*
X120423480Y-89597369D01*
X120043074Y-89439800D01*
X119631326Y-89439800D01*
X119250920Y-89597369D01*
X118959769Y-89888520D01*
X118802200Y-90268926D01*
X51435000Y-90268926D01*
X51435000Y-87503000D01*
X149225000Y-87503000D01*
X149225000Y-111272577D01*
G04 #@! TD*
M02*
