M48
;DRILL file {KiCad (5.0.1)-3} date 19/12/2018 0:20:44
;FORMAT={-:-/ absolute / inch / decimal}
FMAT,2
INCH,TZ
T1C0.0157
T2C0.0236
T3C0.0315
T4C0.0335
T5C0.0394
T6C0.1102
T7C0.1260
%
G90
G05
M72
T1
X2.202Y-4.668
X2.3Y-5.05
X2.542Y-5.054
X2.6836Y-4.3
X3.19Y-4.09
X3.2Y-5.15
X3.325Y-4.075
X3.325Y-5.075
X3.334Y-4.264
X3.436Y-5.35
X3.57Y-3.85
X3.575Y-3.8
X3.575Y-5.1
X3.575Y-5.15
X3.75Y-3.9
X3.75Y-5.2
X3.925Y-4.1
X3.93Y-3.7
X3.9575Y-5.4
X4.1Y-4.1
X4.1Y-5.4
X4.1126Y-4.
X4.1126Y-5.3
X4.125Y-5.45
X4.15Y-4.15
X4.175Y-3.825
X4.175Y-5.125
X4.35Y-4.15
X4.375Y-5.4
X4.4078Y-5.3
X4.425Y-4.1
X4.468Y-5.448
X4.49Y-3.884
X4.5216Y-4.74
X4.525Y-5.375
X4.528Y-5.096
X4.55Y-4.125
X4.55Y-4.225
X4.55Y-5.525
X4.652Y-4.674
X4.696Y-5.02
X4.718Y-3.562
X4.752Y-4.846
X4.828Y-4.974
X4.8311Y-4.5561
X4.88Y-4.358
X4.9Y-4.55
X4.9878Y-4.3622
X5.Y-4.79
X5.0816Y-4.31
X5.12Y-3.9
X5.16Y-4.04
X5.16Y-4.1
X5.196Y-4.494
X5.196Y-4.592
X5.224Y-3.914
X5.31Y-4.068
X5.312Y-3.816
X5.314Y-4.198
X5.328Y-4.356
X5.348Y-5.028
X5.39Y-4.51
X5.39Y-4.59
X5.46Y-4.736
X5.5Y-4.5362
X5.506Y-4.332
X5.55Y-3.97
X5.6Y-4.62
X5.632Y-4.058
X5.651Y-4.52
X5.656Y-4.4738
X5.662Y-4.386
X5.664Y-4.738
X5.772Y-4.172
T3
X2.55Y-4.125
X2.55Y-4.225
X4.65Y-4.85
X4.65Y-4.95
X4.64Y-3.65
X4.74Y-3.65
X2.55Y-4.85
X2.55Y-4.95
T4
X5.7174Y-4.4516
X5.7174Y-4.6484
T5
X2.45Y-5.55
X2.5045Y-5.6618
X2.5591Y-5.55
X2.6136Y-5.6618
X2.6681Y-5.55
X2.7226Y-5.6618
X2.7772Y-5.55
X2.8317Y-5.6618
X2.8862Y-5.55
X2.4388Y-3.775
X2.4933Y-3.6632
X2.5478Y-3.775
X2.6024Y-3.6632
X2.6569Y-3.775
X2.7114Y-3.6632
X2.7659Y-3.775
X2.8205Y-3.6632
X2.875Y-3.775
T6
X5.506Y-5.654
X3.878Y-4.594
X2.962Y-4.602
T7
X2.176Y-5.5618
X3.1602Y-5.5618
X2.1648Y-3.7632
X3.149Y-3.7632
T2
X5.8099Y-4.4122G85X5.8375Y-4.4122
G05
X5.8375Y-4.6878G85X5.8099Y-4.6878
G05
T0
M30
