G04 #@! TF.GenerationSoftware,KiCad,Pcbnew,(5.0.1)-3*
G04 #@! TF.CreationDate,2018-12-19T00:20:38+01:00*
G04 #@! TF.ProjectId,cret,637265742E6B696361645F7063620000,rev?*
G04 #@! TF.SameCoordinates,Original*
G04 #@! TF.FileFunction,Legend,Top*
G04 #@! TF.FilePolarity,Positive*
%FSLAX46Y46*%
G04 Gerber Fmt 4.6, Leading zero omitted, Abs format (unit mm)*
G04 Created by KiCad (PCBNEW (5.0.1)-3) date 19/12/2018 0:20:38*
%MOMM*%
%LPD*%
G01*
G04 APERTURE LIST*
%ADD10C,0.300000*%
%ADD11C,0.200000*%
%ADD12C,0.120000*%
%ADD13C,0.150000*%
G04 APERTURE END LIST*
D10*
X124139580Y-143005085D02*
X124044342Y-143100323D01*
X123758628Y-143195561D01*
X123568152Y-143195561D01*
X123282438Y-143100323D01*
X123091961Y-142909847D01*
X122996723Y-142719371D01*
X122901485Y-142338419D01*
X122901485Y-142052704D01*
X122996723Y-141671752D01*
X123091961Y-141481276D01*
X123282438Y-141290800D01*
X123568152Y-141195561D01*
X123758628Y-141195561D01*
X124044342Y-141290800D01*
X124139580Y-141386038D01*
X126139580Y-143195561D02*
X125472914Y-142243180D01*
X124996723Y-143195561D02*
X124996723Y-141195561D01*
X125758628Y-141195561D01*
X125949104Y-141290800D01*
X126044342Y-141386038D01*
X126139580Y-141576514D01*
X126139580Y-141862228D01*
X126044342Y-142052704D01*
X125949104Y-142147942D01*
X125758628Y-142243180D01*
X124996723Y-142243180D01*
X126996723Y-142147942D02*
X127663390Y-142147942D01*
X127949104Y-143195561D02*
X126996723Y-143195561D01*
X126996723Y-141195561D01*
X127949104Y-141195561D01*
X128520533Y-141195561D02*
X129663390Y-141195561D01*
X129091961Y-143195561D02*
X129091961Y-141195561D01*
X118879314Y-147366800D02*
X119593600Y-147366800D01*
X118736457Y-147795371D02*
X119236457Y-146295371D01*
X119736457Y-147795371D01*
X120879314Y-147795371D02*
X120879314Y-146295371D01*
X120879314Y-147723942D02*
X120736457Y-147795371D01*
X120450742Y-147795371D01*
X120307885Y-147723942D01*
X120236457Y-147652514D01*
X120165028Y-147509657D01*
X120165028Y-147081085D01*
X120236457Y-146938228D01*
X120307885Y-146866800D01*
X120450742Y-146795371D01*
X120736457Y-146795371D01*
X120879314Y-146866800D01*
X121593600Y-147795371D02*
X121593600Y-146795371D01*
X121593600Y-147081085D02*
X121665028Y-146938228D01*
X121736457Y-146866800D01*
X121879314Y-146795371D01*
X122022171Y-146795371D01*
X122522171Y-147795371D02*
X122522171Y-146795371D01*
X122522171Y-146295371D02*
X122450742Y-146366800D01*
X122522171Y-146438228D01*
X122593600Y-146366800D01*
X122522171Y-146295371D01*
X122522171Y-146438228D01*
X123879314Y-147795371D02*
X123879314Y-147009657D01*
X123807885Y-146866800D01*
X123665028Y-146795371D01*
X123379314Y-146795371D01*
X123236457Y-146866800D01*
X123879314Y-147723942D02*
X123736457Y-147795371D01*
X123379314Y-147795371D01*
X123236457Y-147723942D01*
X123165028Y-147581085D01*
X123165028Y-147438228D01*
X123236457Y-147295371D01*
X123379314Y-147223942D01*
X123736457Y-147223942D01*
X123879314Y-147152514D01*
X124593600Y-146795371D02*
X124593600Y-147795371D01*
X124593600Y-146938228D02*
X124665028Y-146866800D01*
X124807885Y-146795371D01*
X125022171Y-146795371D01*
X125165028Y-146866800D01*
X125236457Y-147009657D01*
X125236457Y-147795371D01*
X127093600Y-147795371D02*
X127093600Y-146295371D01*
X127593600Y-147366800D01*
X128093600Y-146295371D01*
X128093600Y-147795371D01*
X129450742Y-147795371D02*
X129450742Y-147009657D01*
X129379314Y-146866800D01*
X129236457Y-146795371D01*
X128950742Y-146795371D01*
X128807885Y-146866800D01*
X129450742Y-147723942D02*
X129307885Y-147795371D01*
X128950742Y-147795371D01*
X128807885Y-147723942D01*
X128736457Y-147581085D01*
X128736457Y-147438228D01*
X128807885Y-147295371D01*
X128950742Y-147223942D01*
X129307885Y-147223942D01*
X129450742Y-147152514D01*
X130165028Y-147795371D02*
X130165028Y-146795371D01*
X130165028Y-147081085D02*
X130236457Y-146938228D01*
X130307885Y-146866800D01*
X130450742Y-146795371D01*
X130593600Y-146795371D01*
X131736457Y-147723942D02*
X131593600Y-147795371D01*
X131307885Y-147795371D01*
X131165028Y-147723942D01*
X131093600Y-147652514D01*
X131022171Y-147509657D01*
X131022171Y-147081085D01*
X131093600Y-146938228D01*
X131165028Y-146866800D01*
X131307885Y-146795371D01*
X131593600Y-146795371D01*
X131736457Y-146866800D01*
X132593600Y-147795371D02*
X132450742Y-147723942D01*
X132379314Y-147652514D01*
X132307885Y-147509657D01*
X132307885Y-147081085D01*
X132379314Y-146938228D01*
X132450742Y-146866800D01*
X132593600Y-146795371D01*
X132807885Y-146795371D01*
X132950742Y-146866800D01*
X133022171Y-146938228D01*
X133093600Y-147081085D01*
X133093600Y-147509657D01*
X133022171Y-147652514D01*
X132950742Y-147723942D01*
X132807885Y-147795371D01*
X132593600Y-147795371D01*
X133665028Y-147723942D02*
X133807885Y-147795371D01*
X134093600Y-147795371D01*
X134236457Y-147723942D01*
X134307885Y-147581085D01*
X134307885Y-147509657D01*
X134236457Y-147366800D01*
X134093600Y-147295371D01*
X133879314Y-147295371D01*
X133736457Y-147223942D01*
X133665028Y-147081085D01*
X133665028Y-147009657D01*
X133736457Y-146866800D01*
X133879314Y-146795371D01*
X134093600Y-146795371D01*
X134236457Y-146866800D01*
D11*
X149860000Y-86868000D02*
X50800000Y-86868000D01*
X149860000Y-149860000D02*
X149860000Y-86868000D01*
X50800000Y-149860000D02*
X149860000Y-149860000D01*
X50800000Y-86868000D02*
X50800000Y-149860000D01*
D12*
G04 #@! TO.C,C1*
X114836964Y-89759200D02*
X113632836Y-89759200D01*
X114836964Y-87939200D02*
X113632836Y-87939200D01*
G04 #@! TO.C,C2*
X100155764Y-93010400D02*
X98951636Y-93010400D01*
X100155764Y-91190400D02*
X98951636Y-91190400D01*
G04 #@! TO.C,C3*
X83798164Y-115362400D02*
X82594036Y-115362400D01*
X83798164Y-113542400D02*
X82594036Y-113542400D01*
G04 #@! TO.C,C4*
X106786000Y-120678964D02*
X106786000Y-119474836D01*
X108606000Y-120678964D02*
X108606000Y-119474836D01*
G04 #@! TO.C,C5*
X100982864Y-124870800D02*
X99778736Y-124870800D01*
X100982864Y-126690800D02*
X99778736Y-126690800D01*
G04 #@! TO.C,C6*
X84117264Y-122118800D02*
X82913136Y-122118800D01*
X84117264Y-120298800D02*
X82913136Y-120298800D01*
G04 #@! TO.C,C7*
X147261664Y-109368000D02*
X146057536Y-109368000D01*
X147261664Y-107548000D02*
X146057536Y-107548000D01*
G04 #@! TO.C,C8*
X134201285Y-102890605D02*
X134201285Y-104094733D01*
X132381285Y-102890605D02*
X132381285Y-104094733D01*
G04 #@! TO.C,C10*
X92525436Y-112670000D02*
X93729564Y-112670000D01*
X92525436Y-110850000D02*
X93729564Y-110850000D01*
G04 #@! TO.C,C11*
X92325436Y-91165000D02*
X93529564Y-91165000D01*
X92325436Y-92985000D02*
X93529564Y-92985000D01*
G04 #@! TO.C,C12*
X116438000Y-112427936D02*
X116438000Y-113632064D01*
X118258000Y-112427936D02*
X118258000Y-113632064D01*
G04 #@! TO.C,C13*
X127360000Y-134652936D02*
X127360000Y-135857064D01*
X129180000Y-134652936D02*
X129180000Y-135857064D01*
G04 #@! TO.C,C14*
X140610000Y-134652936D02*
X140610000Y-135857064D01*
X138790000Y-134652936D02*
X138790000Y-135857064D01*
G04 #@! TO.C,C15*
X124862000Y-99698564D02*
X124862000Y-98494436D01*
X123042000Y-99698564D02*
X123042000Y-98494436D01*
G04 #@! TO.C,C16*
X126090000Y-99698564D02*
X126090000Y-98494436D01*
X127910000Y-99698564D02*
X127910000Y-98494436D01*
G04 #@! TO.C,C17*
X126090000Y-125062064D02*
X126090000Y-123857936D01*
X127910000Y-125062064D02*
X127910000Y-123857936D01*
G04 #@! TO.C,C18*
X93160436Y-143870000D02*
X94364564Y-143870000D01*
X93160436Y-145690000D02*
X94364564Y-145690000D01*
G04 #@! TO.C,C19*
X93377936Y-126640000D02*
X94582064Y-126640000D01*
X93377936Y-124820000D02*
X94582064Y-124820000D01*
G04 #@! TO.C,C20*
X122830000Y-134652936D02*
X122830000Y-135857064D01*
X121010000Y-134652936D02*
X121010000Y-135857064D01*
G04 #@! TO.C,C21*
X148546975Y-92971719D02*
X148546975Y-91767591D01*
X146726975Y-92971719D02*
X146726975Y-91767591D01*
G04 #@! TO.C,C22*
X141864475Y-92971719D02*
X141864475Y-91767591D01*
X143684475Y-92971719D02*
X143684475Y-91767591D01*
G04 #@! TO.C,C23*
X137116975Y-92971719D02*
X137116975Y-91767591D01*
X135296975Y-92971719D02*
X135296975Y-91767591D01*
G04 #@! TO.C,C24*
X132036975Y-92971719D02*
X132036975Y-91767591D01*
X130216975Y-92971719D02*
X130216975Y-91767591D01*
G04 #@! TO.C,C25*
X126956975Y-92971719D02*
X126956975Y-91767591D01*
X125136975Y-92971719D02*
X125136975Y-91767591D01*
G04 #@! TO.C,CAN1*
X82970000Y-88165000D02*
X82970000Y-98645000D01*
X82970000Y-98645000D02*
X52000000Y-98645000D01*
X52000000Y-98645000D02*
X52000000Y-88165000D01*
X73275000Y-99539338D02*
X72775000Y-99539338D01*
X72775000Y-99539338D02*
X73025000Y-99106325D01*
X73025000Y-99106325D02*
X73275000Y-99539338D01*
G04 #@! TO.C,CAN2*
X62230000Y-137748675D02*
X61980000Y-137315662D01*
X62480000Y-137315662D02*
X62230000Y-137748675D01*
X61980000Y-137315662D02*
X62480000Y-137315662D01*
X83255000Y-138210000D02*
X83255000Y-148690000D01*
X52285000Y-138210000D02*
X83255000Y-138210000D01*
X52285000Y-148690000D02*
X52285000Y-138210000D01*
G04 #@! TO.C,CP1*
X119525636Y-89759200D02*
X120729764Y-89759200D01*
X119525636Y-87939200D02*
X120729764Y-87939200D01*
G04 #@! TO.C,CP2*
X112466800Y-120729764D02*
X112466800Y-119525636D01*
X110646800Y-120729764D02*
X110646800Y-119525636D01*
G04 #@! TO.C,CP3*
X137401685Y-104094733D02*
X137401685Y-102890605D01*
X135581685Y-104094733D02*
X135581685Y-102890605D01*
G04 #@! TO.C,D1*
X142765400Y-114376000D02*
X142765400Y-110316000D01*
X142765400Y-110316000D02*
X140495400Y-110316000D01*
X140495400Y-110316000D02*
X140495400Y-114376000D01*
G04 #@! TO.C,GND*
X57330000Y-104140000D02*
G75*
G03X57330000Y-104140000I-1450000J0D01*
G01*
X57330000Y-123190000D02*
G75*
G03X57330000Y-123190000I-1450000J0D01*
G01*
G04 #@! TO.C,H-1*
X57330000Y-114300000D02*
G75*
G03X57330000Y-114300000I-1450000J0D01*
G01*
G04 #@! TO.C,H-2*
X57330000Y-133350000D02*
G75*
G03X57330000Y-133350000I-1450000J0D01*
G01*
D13*
G04 #@! TO.C,IC1-1*
X109155000Y-95025000D02*
X109155000Y-95275000D01*
X116905000Y-95025000D02*
X116905000Y-95360000D01*
X116905000Y-108175000D02*
X116905000Y-107840000D01*
X109155000Y-108175000D02*
X109155000Y-107840000D01*
X109155000Y-95025000D02*
X116905000Y-95025000D01*
X109155000Y-108175000D02*
X116905000Y-108175000D01*
X109155000Y-95275000D02*
X107355000Y-95275000D01*
G04 #@! TO.C,IC1-2*
X109155000Y-128295000D02*
X107355000Y-128295000D01*
X109155000Y-141195000D02*
X116905000Y-141195000D01*
X109155000Y-128045000D02*
X116905000Y-128045000D01*
X109155000Y-141195000D02*
X109155000Y-140860000D01*
X116905000Y-141195000D02*
X116905000Y-140860000D01*
X116905000Y-128045000D02*
X116905000Y-128380000D01*
X109155000Y-128045000D02*
X109155000Y-128295000D01*
G04 #@! TO.C,IC2-1*
X93915000Y-95650000D02*
X93915000Y-95900000D01*
X101665000Y-95650000D02*
X101665000Y-95995000D01*
X101665000Y-107550000D02*
X101665000Y-107205000D01*
X93915000Y-107550000D02*
X93915000Y-107205000D01*
X93915000Y-95650000D02*
X101665000Y-95650000D01*
X93915000Y-107550000D02*
X101665000Y-107550000D01*
X93915000Y-95900000D02*
X92090000Y-95900000D01*
G04 #@! TO.C,IC2-2*
X93915000Y-128920000D02*
X92090000Y-128920000D01*
X93915000Y-140570000D02*
X101665000Y-140570000D01*
X93915000Y-128670000D02*
X101665000Y-128670000D01*
X93915000Y-140570000D02*
X93915000Y-140225000D01*
X101665000Y-140570000D02*
X101665000Y-140225000D01*
X101665000Y-128670000D02*
X101665000Y-129015000D01*
X93915000Y-128670000D02*
X93915000Y-128920000D01*
G04 #@! TO.C,IC3-1*
X81490000Y-111790000D02*
X81490000Y-111135000D01*
X75990000Y-111790000D02*
X75990000Y-111040000D01*
X75990000Y-105380000D02*
X75990000Y-106130000D01*
X81490000Y-105380000D02*
X81490000Y-106130000D01*
X81490000Y-111790000D02*
X75990000Y-111790000D01*
X81490000Y-105380000D02*
X75990000Y-105380000D01*
X81490000Y-111135000D02*
X83240000Y-111135000D01*
G04 #@! TO.C,IC3-2*
X81490000Y-129550000D02*
X83240000Y-129550000D01*
X81490000Y-123795000D02*
X75990000Y-123795000D01*
X81490000Y-130205000D02*
X75990000Y-130205000D01*
X81490000Y-123795000D02*
X81490000Y-124545000D01*
X75990000Y-123795000D02*
X75990000Y-124545000D01*
X75990000Y-130205000D02*
X75990000Y-129455000D01*
X81490000Y-130205000D02*
X81490000Y-129550000D01*
D12*
G04 #@! TO.C,J7*
X144922500Y-119470000D02*
X144922500Y-119020000D01*
X146772500Y-119470000D02*
X144922500Y-119470000D01*
X149322500Y-111670000D02*
X149072500Y-111670000D01*
X149322500Y-119470000D02*
X149072500Y-119470000D01*
X146772500Y-111670000D02*
X144922500Y-111670000D01*
X144922500Y-111670000D02*
X144922500Y-112120000D01*
X144372500Y-117270000D02*
X144372500Y-116820000D01*
X144372500Y-117270000D02*
X144822500Y-117270000D01*
D13*
G04 #@! TO.C,JP1*
X64370000Y-108345000D02*
X63870000Y-107845000D01*
X65170000Y-108345000D02*
X64370000Y-108345000D01*
X65670000Y-107845000D02*
X65170000Y-108345000D01*
X65670000Y-104245000D02*
X65670000Y-107845000D01*
X65170000Y-103745000D02*
X65670000Y-104245000D01*
X64370000Y-103745000D02*
X65170000Y-103745000D01*
X63870000Y-104245000D02*
X64370000Y-103745000D01*
X63870000Y-107845000D02*
X63870000Y-104245000D01*
G04 #@! TO.C,JP2*
X64370000Y-126760000D02*
X63870000Y-126260000D01*
X65170000Y-126760000D02*
X64370000Y-126760000D01*
X65670000Y-126260000D02*
X65170000Y-126760000D01*
X65670000Y-122660000D02*
X65670000Y-126260000D01*
X65170000Y-122160000D02*
X65670000Y-122660000D01*
X64370000Y-122160000D02*
X65170000Y-122160000D01*
X63870000Y-122660000D02*
X64370000Y-122160000D01*
X63870000Y-126260000D02*
X63870000Y-122660000D01*
G04 #@! TO.C,JP3*
X120926000Y-93610000D02*
X117326000Y-93610000D01*
X117326000Y-93610000D02*
X116826000Y-93110000D01*
X116826000Y-93110000D02*
X116826000Y-92310000D01*
X116826000Y-92310000D02*
X117326000Y-91810000D01*
X117326000Y-91810000D02*
X120926000Y-91810000D01*
X120926000Y-91810000D02*
X121426000Y-92310000D01*
X121426000Y-92310000D02*
X121426000Y-93110000D01*
X121426000Y-93110000D02*
X120926000Y-93610000D01*
G04 #@! TO.C,JP4*
X119010000Y-122660000D02*
X119010000Y-126260000D01*
X119010000Y-126260000D02*
X118510000Y-126760000D01*
X118510000Y-126760000D02*
X117710000Y-126760000D01*
X117710000Y-126760000D02*
X117210000Y-126260000D01*
X117210000Y-126260000D02*
X117210000Y-122660000D01*
X117210000Y-122660000D02*
X117710000Y-122160000D01*
X117710000Y-122160000D02*
X118510000Y-122160000D01*
X118510000Y-122160000D02*
X119010000Y-122660000D01*
D12*
G04 #@! TO.C,L1*
X146410000Y-123792064D02*
X146410000Y-122587936D01*
X148230000Y-123792064D02*
X148230000Y-122587936D01*
G04 #@! TO.C,L2*
X135580849Y-107473769D02*
X134376721Y-107473769D01*
X135580849Y-109293769D02*
X134376721Y-109293769D01*
G04 #@! TO.C,L4*
X140619039Y-99212155D02*
X139414911Y-99212155D01*
X140619039Y-97392155D02*
X139414911Y-97392155D01*
G04 #@! TO.C,L-1*
X57330000Y-109220000D02*
G75*
G03X57330000Y-109220000I-1450000J0D01*
G01*
G04 #@! TO.C,L-2*
X57330000Y-128270000D02*
G75*
G03X57330000Y-128270000I-1450000J0D01*
G01*
G04 #@! TO.C,LED1*
X104470000Y-110625000D02*
X100410000Y-110625000D01*
X100410000Y-110625000D02*
X100410000Y-112895000D01*
X100410000Y-112895000D02*
X104470000Y-112895000D01*
G04 #@! TO.C,Q1*
X89545000Y-107087500D02*
X89545000Y-91112500D01*
X89545000Y-91112500D02*
X84445000Y-91112500D01*
X84445000Y-91112500D02*
X84445000Y-107087500D01*
G04 #@! TO.C,Q2*
X85080000Y-125815000D02*
X85080000Y-141790000D01*
X90180000Y-125815000D02*
X85080000Y-125815000D01*
X90180000Y-141790000D02*
X90180000Y-125815000D01*
G04 #@! TO.C,Q3*
X139931586Y-127480818D02*
X123956586Y-127480818D01*
X123956586Y-127480818D02*
X123956586Y-132580818D01*
X123956586Y-132580818D02*
X139931586Y-132580818D01*
G04 #@! TO.C,R1*
X142540400Y-107775764D02*
X142540400Y-106571636D01*
X140720400Y-107775764D02*
X140720400Y-106571636D01*
G04 #@! TO.C,R3*
X112845436Y-93620000D02*
X114049564Y-93620000D01*
X112845436Y-91800000D02*
X114049564Y-91800000D01*
G04 #@! TO.C,R4*
X62897936Y-111485000D02*
X64102064Y-111485000D01*
X62897936Y-113305000D02*
X64102064Y-113305000D01*
G04 #@! TO.C,R5*
X70452064Y-111485000D02*
X69247936Y-111485000D01*
X70452064Y-113305000D02*
X69247936Y-113305000D01*
G04 #@! TO.C,R6*
X121010000Y-130359564D02*
X121010000Y-129155436D01*
X122830000Y-130359564D02*
X122830000Y-129155436D01*
G04 #@! TO.C,R7*
X135947564Y-111358000D02*
X134743436Y-111358000D01*
X135947564Y-113178000D02*
X134743436Y-113178000D01*
G04 #@! TO.C,R8*
X131720000Y-109350564D02*
X131720000Y-108146436D01*
X129900000Y-109350564D02*
X129900000Y-108146436D01*
G04 #@! TO.C,R9*
X125700200Y-105163536D02*
X125700200Y-106367664D01*
X123880200Y-105163536D02*
X123880200Y-106367664D01*
G04 #@! TO.C,R10*
X127055200Y-105163536D02*
X127055200Y-106367664D01*
X128875200Y-105163536D02*
X128875200Y-106367664D01*
G04 #@! TO.C,R11*
X133202000Y-125062064D02*
X133202000Y-123857936D01*
X135022000Y-125062064D02*
X135022000Y-123857936D01*
G04 #@! TO.C,R13*
X107282064Y-124820000D02*
X106077936Y-124820000D01*
X107282064Y-126640000D02*
X106077936Y-126640000D01*
G04 #@! TO.C,R14*
X112845436Y-124820000D02*
X114049564Y-124820000D01*
X112845436Y-126640000D02*
X114049564Y-126640000D01*
G04 #@! TO.C,R15*
X62897936Y-131720000D02*
X64102064Y-131720000D01*
X62897936Y-129900000D02*
X64102064Y-129900000D01*
G04 #@! TO.C,R16*
X70452064Y-131720000D02*
X69247936Y-131720000D01*
X70452064Y-129900000D02*
X69247936Y-129900000D01*
G04 #@! TO.C,R17*
X111092064Y-112670000D02*
X109887936Y-112670000D01*
X111092064Y-110850000D02*
X109887936Y-110850000D01*
G04 #@! TO.C,R18*
X111092064Y-143870000D02*
X109887936Y-143870000D01*
X111092064Y-145690000D02*
X109887936Y-145690000D01*
G04 #@! TO.C,U1*
X145759600Y-104683200D02*
X147559600Y-104683200D01*
X147559600Y-101463200D02*
X145109600Y-101463200D01*
D13*
G04 #@! TO.C,U2*
X121040000Y-119080000D02*
X121615000Y-119080000D01*
X121040000Y-113330000D02*
X121690000Y-113330000D01*
X131690000Y-113330000D02*
X131040000Y-113330000D01*
X131690000Y-119080000D02*
X131040000Y-119080000D01*
X121040000Y-119080000D02*
X121040000Y-113330000D01*
X131690000Y-119080000D02*
X131690000Y-113330000D01*
X121615000Y-119080000D02*
X121615000Y-120680000D01*
D12*
G04 #@! TO.C,R2*
X107064564Y-93620000D02*
X105860436Y-93620000D01*
X107064564Y-91800000D02*
X105860436Y-91800000D01*
G04 #@! TO.C,C9*
X138993200Y-123603164D02*
X138993200Y-122399036D01*
X140813200Y-123603164D02*
X140813200Y-122399036D01*
G04 #@! TO.C,CP4*
X136300800Y-122348236D02*
X136300800Y-123552364D01*
X138120800Y-122348236D02*
X138120800Y-123552364D01*
G04 #@! TO.C,L3*
X137982026Y-117537683D02*
X139186154Y-117537683D01*
X137982026Y-119357683D02*
X139186154Y-119357683D01*
G04 #@! TO.C,LED2*
X104470000Y-143645000D02*
X100410000Y-143645000D01*
X100410000Y-143645000D02*
X100410000Y-145915000D01*
X100410000Y-145915000D02*
X104470000Y-145915000D01*
G04 #@! TO.C,R12*
X129646000Y-125062064D02*
X129646000Y-123857936D01*
X131466000Y-125062064D02*
X131466000Y-123857936D01*
G04 #@! TO.C,Support1*
X142552400Y-143611600D02*
G75*
G03X142552400Y-143611600I-2700000J0D01*
G01*
G04 #@! TO.C,Support2*
X77934800Y-116890800D02*
G75*
G03X77934800Y-116890800I-2700000J0D01*
G01*
G04 #@! TO.C,Support3*
X101201200Y-116687600D02*
G75*
G03X101201200Y-116687600I-2700000J0D01*
G01*
G04 #@! TO.C,C1*
D13*
X110548733Y-89206342D02*
X110501114Y-89253961D01*
X110358257Y-89301580D01*
X110263019Y-89301580D01*
X110120161Y-89253961D01*
X110024923Y-89158723D01*
X109977304Y-89063485D01*
X109929685Y-88873009D01*
X109929685Y-88730152D01*
X109977304Y-88539676D01*
X110024923Y-88444438D01*
X110120161Y-88349200D01*
X110263019Y-88301580D01*
X110358257Y-88301580D01*
X110501114Y-88349200D01*
X110548733Y-88396819D01*
X111501114Y-89301580D02*
X110929685Y-89301580D01*
X111215400Y-89301580D02*
X111215400Y-88301580D01*
X111120161Y-88444438D01*
X111024923Y-88539676D01*
X110929685Y-88587295D01*
G04 #@! TO.C,C2*
X97115333Y-94387942D02*
X97067714Y-94435561D01*
X96924857Y-94483180D01*
X96829619Y-94483180D01*
X96686761Y-94435561D01*
X96591523Y-94340323D01*
X96543904Y-94245085D01*
X96496285Y-94054609D01*
X96496285Y-93911752D01*
X96543904Y-93721276D01*
X96591523Y-93626038D01*
X96686761Y-93530800D01*
X96829619Y-93483180D01*
X96924857Y-93483180D01*
X97067714Y-93530800D01*
X97115333Y-93578419D01*
X97496285Y-93578419D02*
X97543904Y-93530800D01*
X97639142Y-93483180D01*
X97877238Y-93483180D01*
X97972476Y-93530800D01*
X98020095Y-93578419D01*
X98067714Y-93673657D01*
X98067714Y-93768895D01*
X98020095Y-93911752D01*
X97448666Y-94483180D01*
X98067714Y-94483180D01*
G04 #@! TO.C,C3*
X83029433Y-116629542D02*
X82981814Y-116677161D01*
X82838957Y-116724780D01*
X82743719Y-116724780D01*
X82600861Y-116677161D01*
X82505623Y-116581923D01*
X82458004Y-116486685D01*
X82410385Y-116296209D01*
X82410385Y-116153352D01*
X82458004Y-115962876D01*
X82505623Y-115867638D01*
X82600861Y-115772400D01*
X82743719Y-115724780D01*
X82838957Y-115724780D01*
X82981814Y-115772400D01*
X83029433Y-115820019D01*
X83362766Y-115724780D02*
X83981814Y-115724780D01*
X83648480Y-116105733D01*
X83791338Y-116105733D01*
X83886576Y-116153352D01*
X83934195Y-116200971D01*
X83981814Y-116296209D01*
X83981814Y-116534304D01*
X83934195Y-116629542D01*
X83886576Y-116677161D01*
X83791338Y-116724780D01*
X83505623Y-116724780D01*
X83410385Y-116677161D01*
X83362766Y-116629542D01*
G04 #@! TO.C,C4*
X106233142Y-120243566D02*
X106280761Y-120291185D01*
X106328380Y-120434042D01*
X106328380Y-120529280D01*
X106280761Y-120672138D01*
X106185523Y-120767376D01*
X106090285Y-120814995D01*
X105899809Y-120862614D01*
X105756952Y-120862614D01*
X105566476Y-120814995D01*
X105471238Y-120767376D01*
X105376000Y-120672138D01*
X105328380Y-120529280D01*
X105328380Y-120434042D01*
X105376000Y-120291185D01*
X105423619Y-120243566D01*
X105661714Y-119386423D02*
X106328380Y-119386423D01*
X105280761Y-119624519D02*
X105995047Y-119862614D01*
X105995047Y-119243566D01*
G04 #@! TO.C,C5*
X100214133Y-124156742D02*
X100166514Y-124204361D01*
X100023657Y-124251980D01*
X99928419Y-124251980D01*
X99785561Y-124204361D01*
X99690323Y-124109123D01*
X99642704Y-124013885D01*
X99595085Y-123823409D01*
X99595085Y-123680552D01*
X99642704Y-123490076D01*
X99690323Y-123394838D01*
X99785561Y-123299600D01*
X99928419Y-123251980D01*
X100023657Y-123251980D01*
X100166514Y-123299600D01*
X100214133Y-123347219D01*
X101118895Y-123251980D02*
X100642704Y-123251980D01*
X100595085Y-123728171D01*
X100642704Y-123680552D01*
X100737942Y-123632933D01*
X100976038Y-123632933D01*
X101071276Y-123680552D01*
X101118895Y-123728171D01*
X101166514Y-123823409D01*
X101166514Y-124061504D01*
X101118895Y-124156742D01*
X101071276Y-124204361D01*
X100976038Y-124251980D01*
X100737942Y-124251980D01*
X100642704Y-124204361D01*
X100595085Y-124156742D01*
G04 #@! TO.C,C6*
X83348533Y-119787942D02*
X83300914Y-119835561D01*
X83158057Y-119883180D01*
X83062819Y-119883180D01*
X82919961Y-119835561D01*
X82824723Y-119740323D01*
X82777104Y-119645085D01*
X82729485Y-119454609D01*
X82729485Y-119311752D01*
X82777104Y-119121276D01*
X82824723Y-119026038D01*
X82919961Y-118930800D01*
X83062819Y-118883180D01*
X83158057Y-118883180D01*
X83300914Y-118930800D01*
X83348533Y-118978419D01*
X84205676Y-118883180D02*
X84015200Y-118883180D01*
X83919961Y-118930800D01*
X83872342Y-118978419D01*
X83777104Y-119121276D01*
X83729485Y-119311752D01*
X83729485Y-119692704D01*
X83777104Y-119787942D01*
X83824723Y-119835561D01*
X83919961Y-119883180D01*
X84110438Y-119883180D01*
X84205676Y-119835561D01*
X84253295Y-119787942D01*
X84300914Y-119692704D01*
X84300914Y-119454609D01*
X84253295Y-119359371D01*
X84205676Y-119311752D01*
X84110438Y-119264133D01*
X83919961Y-119264133D01*
X83824723Y-119311752D01*
X83777104Y-119359371D01*
X83729485Y-119454609D01*
G04 #@! TO.C,C7*
X146492933Y-110635142D02*
X146445314Y-110682761D01*
X146302457Y-110730380D01*
X146207219Y-110730380D01*
X146064361Y-110682761D01*
X145969123Y-110587523D01*
X145921504Y-110492285D01*
X145873885Y-110301809D01*
X145873885Y-110158952D01*
X145921504Y-109968476D01*
X145969123Y-109873238D01*
X146064361Y-109778000D01*
X146207219Y-109730380D01*
X146302457Y-109730380D01*
X146445314Y-109778000D01*
X146492933Y-109825619D01*
X146826266Y-109730380D02*
X147492933Y-109730380D01*
X147064361Y-110730380D01*
G04 #@! TO.C,C8*
X133081733Y-100636342D02*
X133034114Y-100683961D01*
X132891257Y-100731580D01*
X132796019Y-100731580D01*
X132653161Y-100683961D01*
X132557923Y-100588723D01*
X132510304Y-100493485D01*
X132462685Y-100303009D01*
X132462685Y-100160152D01*
X132510304Y-99969676D01*
X132557923Y-99874438D01*
X132653161Y-99779200D01*
X132796019Y-99731580D01*
X132891257Y-99731580D01*
X133034114Y-99779200D01*
X133081733Y-99826819D01*
X133653161Y-100160152D02*
X133557923Y-100112533D01*
X133510304Y-100064914D01*
X133462685Y-99969676D01*
X133462685Y-99922057D01*
X133510304Y-99826819D01*
X133557923Y-99779200D01*
X133653161Y-99731580D01*
X133843638Y-99731580D01*
X133938876Y-99779200D01*
X133986495Y-99826819D01*
X134034114Y-99922057D01*
X134034114Y-99969676D01*
X133986495Y-100064914D01*
X133938876Y-100112533D01*
X133843638Y-100160152D01*
X133653161Y-100160152D01*
X133557923Y-100207771D01*
X133510304Y-100255390D01*
X133462685Y-100350628D01*
X133462685Y-100541104D01*
X133510304Y-100636342D01*
X133557923Y-100683961D01*
X133653161Y-100731580D01*
X133843638Y-100731580D01*
X133938876Y-100683961D01*
X133986495Y-100636342D01*
X134034114Y-100541104D01*
X134034114Y-100350628D01*
X133986495Y-100255390D01*
X133938876Y-100207771D01*
X133843638Y-100160152D01*
G04 #@! TO.C,C10*
X92484642Y-110297142D02*
X92437023Y-110344761D01*
X92294166Y-110392380D01*
X92198928Y-110392380D01*
X92056071Y-110344761D01*
X91960833Y-110249523D01*
X91913214Y-110154285D01*
X91865595Y-109963809D01*
X91865595Y-109820952D01*
X91913214Y-109630476D01*
X91960833Y-109535238D01*
X92056071Y-109440000D01*
X92198928Y-109392380D01*
X92294166Y-109392380D01*
X92437023Y-109440000D01*
X92484642Y-109487619D01*
X93437023Y-110392380D02*
X92865595Y-110392380D01*
X93151309Y-110392380D02*
X93151309Y-109392380D01*
X93056071Y-109535238D01*
X92960833Y-109630476D01*
X92865595Y-109678095D01*
X94056071Y-109392380D02*
X94151309Y-109392380D01*
X94246547Y-109440000D01*
X94294166Y-109487619D01*
X94341785Y-109582857D01*
X94389404Y-109773333D01*
X94389404Y-110011428D01*
X94341785Y-110201904D01*
X94294166Y-110297142D01*
X94246547Y-110344761D01*
X94151309Y-110392380D01*
X94056071Y-110392380D01*
X93960833Y-110344761D01*
X93913214Y-110297142D01*
X93865595Y-110201904D01*
X93817976Y-110011428D01*
X93817976Y-109773333D01*
X93865595Y-109582857D01*
X93913214Y-109487619D01*
X93960833Y-109440000D01*
X94056071Y-109392380D01*
G04 #@! TO.C,C11*
X92284642Y-90612142D02*
X92237023Y-90659761D01*
X92094166Y-90707380D01*
X91998928Y-90707380D01*
X91856071Y-90659761D01*
X91760833Y-90564523D01*
X91713214Y-90469285D01*
X91665595Y-90278809D01*
X91665595Y-90135952D01*
X91713214Y-89945476D01*
X91760833Y-89850238D01*
X91856071Y-89755000D01*
X91998928Y-89707380D01*
X92094166Y-89707380D01*
X92237023Y-89755000D01*
X92284642Y-89802619D01*
X93237023Y-90707380D02*
X92665595Y-90707380D01*
X92951309Y-90707380D02*
X92951309Y-89707380D01*
X92856071Y-89850238D01*
X92760833Y-89945476D01*
X92665595Y-89993095D01*
X94189404Y-90707380D02*
X93617976Y-90707380D01*
X93903690Y-90707380D02*
X93903690Y-89707380D01*
X93808452Y-89850238D01*
X93713214Y-89945476D01*
X93617976Y-89993095D01*
G04 #@! TO.C,C12*
X115774742Y-113774457D02*
X115822361Y-113822076D01*
X115869980Y-113964933D01*
X115869980Y-114060171D01*
X115822361Y-114203028D01*
X115727123Y-114298266D01*
X115631885Y-114345885D01*
X115441409Y-114393504D01*
X115298552Y-114393504D01*
X115108076Y-114345885D01*
X115012838Y-114298266D01*
X114917600Y-114203028D01*
X114869980Y-114060171D01*
X114869980Y-113964933D01*
X114917600Y-113822076D01*
X114965219Y-113774457D01*
X115869980Y-112822076D02*
X115869980Y-113393504D01*
X115869980Y-113107790D02*
X114869980Y-113107790D01*
X115012838Y-113203028D01*
X115108076Y-113298266D01*
X115155695Y-113393504D01*
X114965219Y-112441123D02*
X114917600Y-112393504D01*
X114869980Y-112298266D01*
X114869980Y-112060171D01*
X114917600Y-111964933D01*
X114965219Y-111917314D01*
X115060457Y-111869695D01*
X115155695Y-111869695D01*
X115298552Y-111917314D01*
X115869980Y-112488742D01*
X115869980Y-111869695D01*
G04 #@! TO.C,C13*
X130447142Y-135897857D02*
X130494761Y-135945476D01*
X130542380Y-136088333D01*
X130542380Y-136183571D01*
X130494761Y-136326428D01*
X130399523Y-136421666D01*
X130304285Y-136469285D01*
X130113809Y-136516904D01*
X129970952Y-136516904D01*
X129780476Y-136469285D01*
X129685238Y-136421666D01*
X129590000Y-136326428D01*
X129542380Y-136183571D01*
X129542380Y-136088333D01*
X129590000Y-135945476D01*
X129637619Y-135897857D01*
X130542380Y-134945476D02*
X130542380Y-135516904D01*
X130542380Y-135231190D02*
X129542380Y-135231190D01*
X129685238Y-135326428D01*
X129780476Y-135421666D01*
X129828095Y-135516904D01*
X129542380Y-134612142D02*
X129542380Y-133993095D01*
X129923333Y-134326428D01*
X129923333Y-134183571D01*
X129970952Y-134088333D01*
X130018571Y-134040714D01*
X130113809Y-133993095D01*
X130351904Y-133993095D01*
X130447142Y-134040714D01*
X130494761Y-134088333D01*
X130542380Y-134183571D01*
X130542380Y-134469285D01*
X130494761Y-134564523D01*
X130447142Y-134612142D01*
G04 #@! TO.C,C14*
X141877142Y-135897857D02*
X141924761Y-135945476D01*
X141972380Y-136088333D01*
X141972380Y-136183571D01*
X141924761Y-136326428D01*
X141829523Y-136421666D01*
X141734285Y-136469285D01*
X141543809Y-136516904D01*
X141400952Y-136516904D01*
X141210476Y-136469285D01*
X141115238Y-136421666D01*
X141020000Y-136326428D01*
X140972380Y-136183571D01*
X140972380Y-136088333D01*
X141020000Y-135945476D01*
X141067619Y-135897857D01*
X141972380Y-134945476D02*
X141972380Y-135516904D01*
X141972380Y-135231190D02*
X140972380Y-135231190D01*
X141115238Y-135326428D01*
X141210476Y-135421666D01*
X141258095Y-135516904D01*
X141305714Y-134088333D02*
X141972380Y-134088333D01*
X140924761Y-134326428D02*
X141639047Y-134564523D01*
X141639047Y-133945476D01*
G04 #@! TO.C,C15*
X122489142Y-99739357D02*
X122536761Y-99786976D01*
X122584380Y-99929833D01*
X122584380Y-100025071D01*
X122536761Y-100167928D01*
X122441523Y-100263166D01*
X122346285Y-100310785D01*
X122155809Y-100358404D01*
X122012952Y-100358404D01*
X121822476Y-100310785D01*
X121727238Y-100263166D01*
X121632000Y-100167928D01*
X121584380Y-100025071D01*
X121584380Y-99929833D01*
X121632000Y-99786976D01*
X121679619Y-99739357D01*
X122584380Y-98786976D02*
X122584380Y-99358404D01*
X122584380Y-99072690D02*
X121584380Y-99072690D01*
X121727238Y-99167928D01*
X121822476Y-99263166D01*
X121870095Y-99358404D01*
X121584380Y-97882214D02*
X121584380Y-98358404D01*
X122060571Y-98406023D01*
X122012952Y-98358404D01*
X121965333Y-98263166D01*
X121965333Y-98025071D01*
X122012952Y-97929833D01*
X122060571Y-97882214D01*
X122155809Y-97834595D01*
X122393904Y-97834595D01*
X122489142Y-97882214D01*
X122536761Y-97929833D01*
X122584380Y-98025071D01*
X122584380Y-98263166D01*
X122536761Y-98358404D01*
X122489142Y-98406023D01*
G04 #@! TO.C,C16*
X129135142Y-99601257D02*
X129182761Y-99648876D01*
X129230380Y-99791733D01*
X129230380Y-99886971D01*
X129182761Y-100029828D01*
X129087523Y-100125066D01*
X128992285Y-100172685D01*
X128801809Y-100220304D01*
X128658952Y-100220304D01*
X128468476Y-100172685D01*
X128373238Y-100125066D01*
X128278000Y-100029828D01*
X128230380Y-99886971D01*
X128230380Y-99791733D01*
X128278000Y-99648876D01*
X128325619Y-99601257D01*
X129230380Y-98648876D02*
X129230380Y-99220304D01*
X129230380Y-98934590D02*
X128230380Y-98934590D01*
X128373238Y-99029828D01*
X128468476Y-99125066D01*
X128516095Y-99220304D01*
X128230380Y-97791733D02*
X128230380Y-97982209D01*
X128278000Y-98077447D01*
X128325619Y-98125066D01*
X128468476Y-98220304D01*
X128658952Y-98267923D01*
X129039904Y-98267923D01*
X129135142Y-98220304D01*
X129182761Y-98172685D01*
X129230380Y-98077447D01*
X129230380Y-97886971D01*
X129182761Y-97791733D01*
X129135142Y-97744114D01*
X129039904Y-97696495D01*
X128801809Y-97696495D01*
X128706571Y-97744114D01*
X128658952Y-97791733D01*
X128611333Y-97886971D01*
X128611333Y-98077447D01*
X128658952Y-98172685D01*
X128706571Y-98220304D01*
X128801809Y-98267923D01*
G04 #@! TO.C,C17*
X125537142Y-125102857D02*
X125584761Y-125150476D01*
X125632380Y-125293333D01*
X125632380Y-125388571D01*
X125584761Y-125531428D01*
X125489523Y-125626666D01*
X125394285Y-125674285D01*
X125203809Y-125721904D01*
X125060952Y-125721904D01*
X124870476Y-125674285D01*
X124775238Y-125626666D01*
X124680000Y-125531428D01*
X124632380Y-125388571D01*
X124632380Y-125293333D01*
X124680000Y-125150476D01*
X124727619Y-125102857D01*
X125632380Y-124150476D02*
X125632380Y-124721904D01*
X125632380Y-124436190D02*
X124632380Y-124436190D01*
X124775238Y-124531428D01*
X124870476Y-124626666D01*
X124918095Y-124721904D01*
X124632380Y-123817142D02*
X124632380Y-123150476D01*
X125632380Y-123579047D01*
G04 #@! TO.C,C18*
X93119642Y-143317142D02*
X93072023Y-143364761D01*
X92929166Y-143412380D01*
X92833928Y-143412380D01*
X92691071Y-143364761D01*
X92595833Y-143269523D01*
X92548214Y-143174285D01*
X92500595Y-142983809D01*
X92500595Y-142840952D01*
X92548214Y-142650476D01*
X92595833Y-142555238D01*
X92691071Y-142460000D01*
X92833928Y-142412380D01*
X92929166Y-142412380D01*
X93072023Y-142460000D01*
X93119642Y-142507619D01*
X94072023Y-143412380D02*
X93500595Y-143412380D01*
X93786309Y-143412380D02*
X93786309Y-142412380D01*
X93691071Y-142555238D01*
X93595833Y-142650476D01*
X93500595Y-142698095D01*
X94643452Y-142840952D02*
X94548214Y-142793333D01*
X94500595Y-142745714D01*
X94452976Y-142650476D01*
X94452976Y-142602857D01*
X94500595Y-142507619D01*
X94548214Y-142460000D01*
X94643452Y-142412380D01*
X94833928Y-142412380D01*
X94929166Y-142460000D01*
X94976785Y-142507619D01*
X95024404Y-142602857D01*
X95024404Y-142650476D01*
X94976785Y-142745714D01*
X94929166Y-142793333D01*
X94833928Y-142840952D01*
X94643452Y-142840952D01*
X94548214Y-142888571D01*
X94500595Y-142936190D01*
X94452976Y-143031428D01*
X94452976Y-143221904D01*
X94500595Y-143317142D01*
X94548214Y-143364761D01*
X94643452Y-143412380D01*
X94833928Y-143412380D01*
X94929166Y-143364761D01*
X94976785Y-143317142D01*
X95024404Y-143221904D01*
X95024404Y-143031428D01*
X94976785Y-142936190D01*
X94929166Y-142888571D01*
X94833928Y-142840952D01*
G04 #@! TO.C,C19*
X93337142Y-124267142D02*
X93289523Y-124314761D01*
X93146666Y-124362380D01*
X93051428Y-124362380D01*
X92908571Y-124314761D01*
X92813333Y-124219523D01*
X92765714Y-124124285D01*
X92718095Y-123933809D01*
X92718095Y-123790952D01*
X92765714Y-123600476D01*
X92813333Y-123505238D01*
X92908571Y-123410000D01*
X93051428Y-123362380D01*
X93146666Y-123362380D01*
X93289523Y-123410000D01*
X93337142Y-123457619D01*
X94289523Y-124362380D02*
X93718095Y-124362380D01*
X94003809Y-124362380D02*
X94003809Y-123362380D01*
X93908571Y-123505238D01*
X93813333Y-123600476D01*
X93718095Y-123648095D01*
X94765714Y-124362380D02*
X94956190Y-124362380D01*
X95051428Y-124314761D01*
X95099047Y-124267142D01*
X95194285Y-124124285D01*
X95241904Y-123933809D01*
X95241904Y-123552857D01*
X95194285Y-123457619D01*
X95146666Y-123410000D01*
X95051428Y-123362380D01*
X94860952Y-123362380D01*
X94765714Y-123410000D01*
X94718095Y-123457619D01*
X94670476Y-123552857D01*
X94670476Y-123790952D01*
X94718095Y-123886190D01*
X94765714Y-123933809D01*
X94860952Y-123981428D01*
X95051428Y-123981428D01*
X95146666Y-123933809D01*
X95194285Y-123886190D01*
X95241904Y-123790952D01*
G04 #@! TO.C,C20*
X124097142Y-135897857D02*
X124144761Y-135945476D01*
X124192380Y-136088333D01*
X124192380Y-136183571D01*
X124144761Y-136326428D01*
X124049523Y-136421666D01*
X123954285Y-136469285D01*
X123763809Y-136516904D01*
X123620952Y-136516904D01*
X123430476Y-136469285D01*
X123335238Y-136421666D01*
X123240000Y-136326428D01*
X123192380Y-136183571D01*
X123192380Y-136088333D01*
X123240000Y-135945476D01*
X123287619Y-135897857D01*
X123287619Y-135516904D02*
X123240000Y-135469285D01*
X123192380Y-135374047D01*
X123192380Y-135135952D01*
X123240000Y-135040714D01*
X123287619Y-134993095D01*
X123382857Y-134945476D01*
X123478095Y-134945476D01*
X123620952Y-134993095D01*
X124192380Y-135564523D01*
X124192380Y-134945476D01*
X123192380Y-134326428D02*
X123192380Y-134231190D01*
X123240000Y-134135952D01*
X123287619Y-134088333D01*
X123382857Y-134040714D01*
X123573333Y-133993095D01*
X123811428Y-133993095D01*
X124001904Y-134040714D01*
X124097142Y-134088333D01*
X124144761Y-134135952D01*
X124192380Y-134231190D01*
X124192380Y-134326428D01*
X124144761Y-134421666D01*
X124097142Y-134469285D01*
X124001904Y-134516904D01*
X123811428Y-134564523D01*
X123573333Y-134564523D01*
X123382857Y-134516904D01*
X123287619Y-134469285D01*
X123240000Y-134421666D01*
X123192380Y-134326428D01*
G04 #@! TO.C,C21*
X146174117Y-93012512D02*
X146221736Y-93060131D01*
X146269355Y-93202988D01*
X146269355Y-93298226D01*
X146221736Y-93441083D01*
X146126498Y-93536321D01*
X146031260Y-93583940D01*
X145840784Y-93631559D01*
X145697927Y-93631559D01*
X145507451Y-93583940D01*
X145412213Y-93536321D01*
X145316975Y-93441083D01*
X145269355Y-93298226D01*
X145269355Y-93202988D01*
X145316975Y-93060131D01*
X145364594Y-93012512D01*
X145364594Y-92631559D02*
X145316975Y-92583940D01*
X145269355Y-92488702D01*
X145269355Y-92250607D01*
X145316975Y-92155369D01*
X145364594Y-92107750D01*
X145459832Y-92060131D01*
X145555070Y-92060131D01*
X145697927Y-92107750D01*
X146269355Y-92679178D01*
X146269355Y-92060131D01*
X146269355Y-91107750D02*
X146269355Y-91679178D01*
X146269355Y-91393464D02*
X145269355Y-91393464D01*
X145412213Y-91488702D01*
X145507451Y-91583940D01*
X145555070Y-91679178D01*
G04 #@! TO.C,C22*
X141311617Y-93012512D02*
X141359236Y-93060131D01*
X141406855Y-93202988D01*
X141406855Y-93298226D01*
X141359236Y-93441083D01*
X141263998Y-93536321D01*
X141168760Y-93583940D01*
X140978284Y-93631559D01*
X140835427Y-93631559D01*
X140644951Y-93583940D01*
X140549713Y-93536321D01*
X140454475Y-93441083D01*
X140406855Y-93298226D01*
X140406855Y-93202988D01*
X140454475Y-93060131D01*
X140502094Y-93012512D01*
X140502094Y-92631559D02*
X140454475Y-92583940D01*
X140406855Y-92488702D01*
X140406855Y-92250607D01*
X140454475Y-92155369D01*
X140502094Y-92107750D01*
X140597332Y-92060131D01*
X140692570Y-92060131D01*
X140835427Y-92107750D01*
X141406855Y-92679178D01*
X141406855Y-92060131D01*
X140502094Y-91679178D02*
X140454475Y-91631559D01*
X140406855Y-91536321D01*
X140406855Y-91298226D01*
X140454475Y-91202988D01*
X140502094Y-91155369D01*
X140597332Y-91107750D01*
X140692570Y-91107750D01*
X140835427Y-91155369D01*
X141406855Y-91726797D01*
X141406855Y-91107750D01*
G04 #@! TO.C,C23*
X134744117Y-93012512D02*
X134791736Y-93060131D01*
X134839355Y-93202988D01*
X134839355Y-93298226D01*
X134791736Y-93441083D01*
X134696498Y-93536321D01*
X134601260Y-93583940D01*
X134410784Y-93631559D01*
X134267927Y-93631559D01*
X134077451Y-93583940D01*
X133982213Y-93536321D01*
X133886975Y-93441083D01*
X133839355Y-93298226D01*
X133839355Y-93202988D01*
X133886975Y-93060131D01*
X133934594Y-93012512D01*
X133934594Y-92631559D02*
X133886975Y-92583940D01*
X133839355Y-92488702D01*
X133839355Y-92250607D01*
X133886975Y-92155369D01*
X133934594Y-92107750D01*
X134029832Y-92060131D01*
X134125070Y-92060131D01*
X134267927Y-92107750D01*
X134839355Y-92679178D01*
X134839355Y-92060131D01*
X133839355Y-91726797D02*
X133839355Y-91107750D01*
X134220308Y-91441083D01*
X134220308Y-91298226D01*
X134267927Y-91202988D01*
X134315546Y-91155369D01*
X134410784Y-91107750D01*
X134648879Y-91107750D01*
X134744117Y-91155369D01*
X134791736Y-91202988D01*
X134839355Y-91298226D01*
X134839355Y-91583940D01*
X134791736Y-91679178D01*
X134744117Y-91726797D01*
G04 #@! TO.C,C24*
X129664117Y-93012512D02*
X129711736Y-93060131D01*
X129759355Y-93202988D01*
X129759355Y-93298226D01*
X129711736Y-93441083D01*
X129616498Y-93536321D01*
X129521260Y-93583940D01*
X129330784Y-93631559D01*
X129187927Y-93631559D01*
X128997451Y-93583940D01*
X128902213Y-93536321D01*
X128806975Y-93441083D01*
X128759355Y-93298226D01*
X128759355Y-93202988D01*
X128806975Y-93060131D01*
X128854594Y-93012512D01*
X128854594Y-92631559D02*
X128806975Y-92583940D01*
X128759355Y-92488702D01*
X128759355Y-92250607D01*
X128806975Y-92155369D01*
X128854594Y-92107750D01*
X128949832Y-92060131D01*
X129045070Y-92060131D01*
X129187927Y-92107750D01*
X129759355Y-92679178D01*
X129759355Y-92060131D01*
X129092689Y-91202988D02*
X129759355Y-91202988D01*
X128711736Y-91441083D02*
X129426022Y-91679178D01*
X129426022Y-91060131D01*
G04 #@! TO.C,C25*
X124584117Y-93012512D02*
X124631736Y-93060131D01*
X124679355Y-93202988D01*
X124679355Y-93298226D01*
X124631736Y-93441083D01*
X124536498Y-93536321D01*
X124441260Y-93583940D01*
X124250784Y-93631559D01*
X124107927Y-93631559D01*
X123917451Y-93583940D01*
X123822213Y-93536321D01*
X123726975Y-93441083D01*
X123679355Y-93298226D01*
X123679355Y-93202988D01*
X123726975Y-93060131D01*
X123774594Y-93012512D01*
X123774594Y-92631559D02*
X123726975Y-92583940D01*
X123679355Y-92488702D01*
X123679355Y-92250607D01*
X123726975Y-92155369D01*
X123774594Y-92107750D01*
X123869832Y-92060131D01*
X123965070Y-92060131D01*
X124107927Y-92107750D01*
X124679355Y-92679178D01*
X124679355Y-92060131D01*
X123679355Y-91155369D02*
X123679355Y-91631559D01*
X124155546Y-91679178D01*
X124107927Y-91631559D01*
X124060308Y-91536321D01*
X124060308Y-91298226D01*
X124107927Y-91202988D01*
X124155546Y-91155369D01*
X124250784Y-91107750D01*
X124488879Y-91107750D01*
X124584117Y-91155369D01*
X124631736Y-91202988D01*
X124679355Y-91298226D01*
X124679355Y-91536321D01*
X124631736Y-91631559D01*
X124584117Y-91679178D01*
G04 #@! TO.C,CAN1*
X66365952Y-99942142D02*
X66318333Y-99989761D01*
X66175476Y-100037380D01*
X66080238Y-100037380D01*
X65937380Y-99989761D01*
X65842142Y-99894523D01*
X65794523Y-99799285D01*
X65746904Y-99608809D01*
X65746904Y-99465952D01*
X65794523Y-99275476D01*
X65842142Y-99180238D01*
X65937380Y-99085000D01*
X66080238Y-99037380D01*
X66175476Y-99037380D01*
X66318333Y-99085000D01*
X66365952Y-99132619D01*
X66746904Y-99751666D02*
X67223095Y-99751666D01*
X66651666Y-100037380D02*
X66985000Y-99037380D01*
X67318333Y-100037380D01*
X67651666Y-100037380D02*
X67651666Y-99037380D01*
X68223095Y-100037380D01*
X68223095Y-99037380D01*
X69223095Y-100037380D02*
X68651666Y-100037380D01*
X68937380Y-100037380D02*
X68937380Y-99037380D01*
X68842142Y-99180238D01*
X68746904Y-99275476D01*
X68651666Y-99323095D01*
G04 #@! TO.C,CAN2*
X66650952Y-137627142D02*
X66603333Y-137674761D01*
X66460476Y-137722380D01*
X66365238Y-137722380D01*
X66222380Y-137674761D01*
X66127142Y-137579523D01*
X66079523Y-137484285D01*
X66031904Y-137293809D01*
X66031904Y-137150952D01*
X66079523Y-136960476D01*
X66127142Y-136865238D01*
X66222380Y-136770000D01*
X66365238Y-136722380D01*
X66460476Y-136722380D01*
X66603333Y-136770000D01*
X66650952Y-136817619D01*
X67031904Y-137436666D02*
X67508095Y-137436666D01*
X66936666Y-137722380D02*
X67270000Y-136722380D01*
X67603333Y-137722380D01*
X67936666Y-137722380D02*
X67936666Y-136722380D01*
X68508095Y-137722380D01*
X68508095Y-136722380D01*
X68936666Y-136817619D02*
X68984285Y-136770000D01*
X69079523Y-136722380D01*
X69317619Y-136722380D01*
X69412857Y-136770000D01*
X69460476Y-136817619D01*
X69508095Y-136912857D01*
X69508095Y-137008095D01*
X69460476Y-137150952D01*
X68889047Y-137722380D01*
X69508095Y-137722380D01*
G04 #@! TO.C,CP1*
X123713933Y-89206342D02*
X123666314Y-89253961D01*
X123523457Y-89301580D01*
X123428219Y-89301580D01*
X123285361Y-89253961D01*
X123190123Y-89158723D01*
X123142504Y-89063485D01*
X123094885Y-88873009D01*
X123094885Y-88730152D01*
X123142504Y-88539676D01*
X123190123Y-88444438D01*
X123285361Y-88349200D01*
X123428219Y-88301580D01*
X123523457Y-88301580D01*
X123666314Y-88349200D01*
X123713933Y-88396819D01*
X124142504Y-89301580D02*
X124142504Y-88301580D01*
X124523457Y-88301580D01*
X124618695Y-88349200D01*
X124666314Y-88396819D01*
X124713933Y-88492057D01*
X124713933Y-88634914D01*
X124666314Y-88730152D01*
X124618695Y-88777771D01*
X124523457Y-88825390D01*
X124142504Y-88825390D01*
X125666314Y-89301580D02*
X125094885Y-89301580D01*
X125380600Y-89301580D02*
X125380600Y-88301580D01*
X125285361Y-88444438D01*
X125190123Y-88539676D01*
X125094885Y-88587295D01*
G04 #@! TO.C,CP2*
X110093942Y-120794366D02*
X110141561Y-120841985D01*
X110189180Y-120984842D01*
X110189180Y-121080080D01*
X110141561Y-121222938D01*
X110046323Y-121318176D01*
X109951085Y-121365795D01*
X109760609Y-121413414D01*
X109617752Y-121413414D01*
X109427276Y-121365795D01*
X109332038Y-121318176D01*
X109236800Y-121222938D01*
X109189180Y-121080080D01*
X109189180Y-120984842D01*
X109236800Y-120841985D01*
X109284419Y-120794366D01*
X110189180Y-120365795D02*
X109189180Y-120365795D01*
X109189180Y-119984842D01*
X109236800Y-119889604D01*
X109284419Y-119841985D01*
X109379657Y-119794366D01*
X109522514Y-119794366D01*
X109617752Y-119841985D01*
X109665371Y-119889604D01*
X109712990Y-119984842D01*
X109712990Y-120365795D01*
X109284419Y-119413414D02*
X109236800Y-119365795D01*
X109189180Y-119270557D01*
X109189180Y-119032461D01*
X109236800Y-118937223D01*
X109284419Y-118889604D01*
X109379657Y-118841985D01*
X109474895Y-118841985D01*
X109617752Y-118889604D01*
X110189180Y-119461033D01*
X110189180Y-118841985D01*
G04 #@! TO.C,CP3*
X138939542Y-104298666D02*
X138987161Y-104346285D01*
X139034780Y-104489142D01*
X139034780Y-104584380D01*
X138987161Y-104727238D01*
X138891923Y-104822476D01*
X138796685Y-104870095D01*
X138606209Y-104917714D01*
X138463352Y-104917714D01*
X138272876Y-104870095D01*
X138177638Y-104822476D01*
X138082400Y-104727238D01*
X138034780Y-104584380D01*
X138034780Y-104489142D01*
X138082400Y-104346285D01*
X138130019Y-104298666D01*
X139034780Y-103870095D02*
X138034780Y-103870095D01*
X138034780Y-103489142D01*
X138082400Y-103393904D01*
X138130019Y-103346285D01*
X138225257Y-103298666D01*
X138368114Y-103298666D01*
X138463352Y-103346285D01*
X138510971Y-103393904D01*
X138558590Y-103489142D01*
X138558590Y-103870095D01*
X138034780Y-102965333D02*
X138034780Y-102346285D01*
X138415733Y-102679619D01*
X138415733Y-102536761D01*
X138463352Y-102441523D01*
X138510971Y-102393904D01*
X138606209Y-102346285D01*
X138844304Y-102346285D01*
X138939542Y-102393904D01*
X138987161Y-102441523D01*
X139034780Y-102536761D01*
X139034780Y-102822476D01*
X138987161Y-102917714D01*
X138939542Y-102965333D01*
G04 #@! TO.C,D1*
X140203180Y-113514095D02*
X139203180Y-113514095D01*
X139203180Y-113276000D01*
X139250800Y-113133142D01*
X139346038Y-113037904D01*
X139441276Y-112990285D01*
X139631752Y-112942666D01*
X139774609Y-112942666D01*
X139965085Y-112990285D01*
X140060323Y-113037904D01*
X140155561Y-113133142D01*
X140203180Y-113276000D01*
X140203180Y-113514095D01*
X140203180Y-111990285D02*
X140203180Y-112561714D01*
X140203180Y-112276000D02*
X139203180Y-112276000D01*
X139346038Y-112371238D01*
X139441276Y-112466476D01*
X139488895Y-112561714D01*
G04 #@! TO.C,GND*
X55168895Y-100947600D02*
X55073657Y-100899980D01*
X54930800Y-100899980D01*
X54787942Y-100947600D01*
X54692704Y-101042838D01*
X54645085Y-101138076D01*
X54597466Y-101328552D01*
X54597466Y-101471409D01*
X54645085Y-101661885D01*
X54692704Y-101757123D01*
X54787942Y-101852361D01*
X54930800Y-101899980D01*
X55026038Y-101899980D01*
X55168895Y-101852361D01*
X55216514Y-101804742D01*
X55216514Y-101471409D01*
X55026038Y-101471409D01*
X55645085Y-101899980D02*
X55645085Y-100899980D01*
X56216514Y-101899980D01*
X56216514Y-100899980D01*
X56692704Y-101899980D02*
X56692704Y-100899980D01*
X56930800Y-100899980D01*
X57073657Y-100947600D01*
X57168895Y-101042838D01*
X57216514Y-101138076D01*
X57264133Y-101328552D01*
X57264133Y-101471409D01*
X57216514Y-101661885D01*
X57168895Y-101757123D01*
X57073657Y-101852361D01*
X56930800Y-101899980D01*
X56692704Y-101899980D01*
X55118095Y-119946800D02*
X55022857Y-119899180D01*
X54880000Y-119899180D01*
X54737142Y-119946800D01*
X54641904Y-120042038D01*
X54594285Y-120137276D01*
X54546666Y-120327752D01*
X54546666Y-120470609D01*
X54594285Y-120661085D01*
X54641904Y-120756323D01*
X54737142Y-120851561D01*
X54880000Y-120899180D01*
X54975238Y-120899180D01*
X55118095Y-120851561D01*
X55165714Y-120803942D01*
X55165714Y-120470609D01*
X54975238Y-120470609D01*
X55594285Y-120899180D02*
X55594285Y-119899180D01*
X56165714Y-120899180D01*
X56165714Y-119899180D01*
X56641904Y-120899180D02*
X56641904Y-119899180D01*
X56880000Y-119899180D01*
X57022857Y-119946800D01*
X57118095Y-120042038D01*
X57165714Y-120137276D01*
X57213333Y-120327752D01*
X57213333Y-120470609D01*
X57165714Y-120661085D01*
X57118095Y-120756323D01*
X57022857Y-120851561D01*
X56880000Y-120899180D01*
X56641904Y-120899180D01*
G04 #@! TO.C,H-1*
X54499047Y-112212380D02*
X54499047Y-111212380D01*
X54499047Y-111688571D02*
X55070476Y-111688571D01*
X55070476Y-112212380D02*
X55070476Y-111212380D01*
X55546666Y-111831428D02*
X56308571Y-111831428D01*
X57308571Y-112212380D02*
X56737142Y-112212380D01*
X57022857Y-112212380D02*
X57022857Y-111212380D01*
X56927619Y-111355238D01*
X56832380Y-111450476D01*
X56737142Y-111498095D01*
G04 #@! TO.C,H-2*
X54499047Y-131313180D02*
X54499047Y-130313180D01*
X54499047Y-130789371D02*
X55070476Y-130789371D01*
X55070476Y-131313180D02*
X55070476Y-130313180D01*
X55546666Y-130932228D02*
X56308571Y-130932228D01*
X56737142Y-130408419D02*
X56784761Y-130360800D01*
X56880000Y-130313180D01*
X57118095Y-130313180D01*
X57213333Y-130360800D01*
X57260952Y-130408419D01*
X57308571Y-130503657D01*
X57308571Y-130598895D01*
X57260952Y-130741752D01*
X56689523Y-131313180D01*
X57308571Y-131313180D01*
G04 #@! TO.C,IC1-1*
X114412971Y-109621580D02*
X114412971Y-108621580D01*
X115460590Y-109526342D02*
X115412971Y-109573961D01*
X115270114Y-109621580D01*
X115174876Y-109621580D01*
X115032019Y-109573961D01*
X114936780Y-109478723D01*
X114889161Y-109383485D01*
X114841542Y-109193009D01*
X114841542Y-109050152D01*
X114889161Y-108859676D01*
X114936780Y-108764438D01*
X115032019Y-108669200D01*
X115174876Y-108621580D01*
X115270114Y-108621580D01*
X115412971Y-108669200D01*
X115460590Y-108716819D01*
X116412971Y-109621580D02*
X115841542Y-109621580D01*
X116127257Y-109621580D02*
X116127257Y-108621580D01*
X116032019Y-108764438D01*
X115936780Y-108859676D01*
X115841542Y-108907295D01*
X116841542Y-109240628D02*
X117603447Y-109240628D01*
X118603447Y-109621580D02*
X118032019Y-109621580D01*
X118317733Y-109621580D02*
X118317733Y-108621580D01*
X118222495Y-108764438D01*
X118127257Y-108859676D01*
X118032019Y-108907295D01*
G04 #@! TO.C,IC1-2*
X114616171Y-142641580D02*
X114616171Y-141641580D01*
X115663790Y-142546342D02*
X115616171Y-142593961D01*
X115473314Y-142641580D01*
X115378076Y-142641580D01*
X115235219Y-142593961D01*
X115139980Y-142498723D01*
X115092361Y-142403485D01*
X115044742Y-142213009D01*
X115044742Y-142070152D01*
X115092361Y-141879676D01*
X115139980Y-141784438D01*
X115235219Y-141689200D01*
X115378076Y-141641580D01*
X115473314Y-141641580D01*
X115616171Y-141689200D01*
X115663790Y-141736819D01*
X116616171Y-142641580D02*
X116044742Y-142641580D01*
X116330457Y-142641580D02*
X116330457Y-141641580D01*
X116235219Y-141784438D01*
X116139980Y-141879676D01*
X116044742Y-141927295D01*
X117044742Y-142260628D02*
X117806647Y-142260628D01*
X118235219Y-141736819D02*
X118282838Y-141689200D01*
X118378076Y-141641580D01*
X118616171Y-141641580D01*
X118711409Y-141689200D01*
X118759028Y-141736819D01*
X118806647Y-141832057D01*
X118806647Y-141927295D01*
X118759028Y-142070152D01*
X118187600Y-142641580D01*
X118806647Y-142641580D01*
G04 #@! TO.C,IC2-1*
X96226571Y-109062780D02*
X96226571Y-108062780D01*
X97274190Y-108967542D02*
X97226571Y-109015161D01*
X97083714Y-109062780D01*
X96988476Y-109062780D01*
X96845619Y-109015161D01*
X96750380Y-108919923D01*
X96702761Y-108824685D01*
X96655142Y-108634209D01*
X96655142Y-108491352D01*
X96702761Y-108300876D01*
X96750380Y-108205638D01*
X96845619Y-108110400D01*
X96988476Y-108062780D01*
X97083714Y-108062780D01*
X97226571Y-108110400D01*
X97274190Y-108158019D01*
X97655142Y-108158019D02*
X97702761Y-108110400D01*
X97798000Y-108062780D01*
X98036095Y-108062780D01*
X98131333Y-108110400D01*
X98178952Y-108158019D01*
X98226571Y-108253257D01*
X98226571Y-108348495D01*
X98178952Y-108491352D01*
X97607523Y-109062780D01*
X98226571Y-109062780D01*
X98655142Y-108681828D02*
X99417047Y-108681828D01*
X100417047Y-109062780D02*
X99845619Y-109062780D01*
X100131333Y-109062780D02*
X100131333Y-108062780D01*
X100036095Y-108205638D01*
X99940857Y-108300876D01*
X99845619Y-108348495D01*
G04 #@! TO.C,IC2-2*
X96124971Y-142235180D02*
X96124971Y-141235180D01*
X97172590Y-142139942D02*
X97124971Y-142187561D01*
X96982114Y-142235180D01*
X96886876Y-142235180D01*
X96744019Y-142187561D01*
X96648780Y-142092323D01*
X96601161Y-141997085D01*
X96553542Y-141806609D01*
X96553542Y-141663752D01*
X96601161Y-141473276D01*
X96648780Y-141378038D01*
X96744019Y-141282800D01*
X96886876Y-141235180D01*
X96982114Y-141235180D01*
X97124971Y-141282800D01*
X97172590Y-141330419D01*
X97553542Y-141330419D02*
X97601161Y-141282800D01*
X97696400Y-141235180D01*
X97934495Y-141235180D01*
X98029733Y-141282800D01*
X98077352Y-141330419D01*
X98124971Y-141425657D01*
X98124971Y-141520895D01*
X98077352Y-141663752D01*
X97505923Y-142235180D01*
X98124971Y-142235180D01*
X98553542Y-141854228D02*
X99315447Y-141854228D01*
X99744019Y-141330419D02*
X99791638Y-141282800D01*
X99886876Y-141235180D01*
X100124971Y-141235180D01*
X100220209Y-141282800D01*
X100267828Y-141330419D01*
X100315447Y-141425657D01*
X100315447Y-141520895D01*
X100267828Y-141663752D01*
X99696400Y-142235180D01*
X100315447Y-142235180D01*
G04 #@! TO.C,IC3-1*
X74738171Y-113380780D02*
X74738171Y-112380780D01*
X75785790Y-113285542D02*
X75738171Y-113333161D01*
X75595314Y-113380780D01*
X75500076Y-113380780D01*
X75357219Y-113333161D01*
X75261980Y-113237923D01*
X75214361Y-113142685D01*
X75166742Y-112952209D01*
X75166742Y-112809352D01*
X75214361Y-112618876D01*
X75261980Y-112523638D01*
X75357219Y-112428400D01*
X75500076Y-112380780D01*
X75595314Y-112380780D01*
X75738171Y-112428400D01*
X75785790Y-112476019D01*
X76119123Y-112380780D02*
X76738171Y-112380780D01*
X76404838Y-112761733D01*
X76547695Y-112761733D01*
X76642933Y-112809352D01*
X76690552Y-112856971D01*
X76738171Y-112952209D01*
X76738171Y-113190304D01*
X76690552Y-113285542D01*
X76642933Y-113333161D01*
X76547695Y-113380780D01*
X76261980Y-113380780D01*
X76166742Y-113333161D01*
X76119123Y-113285542D01*
X77166742Y-112999828D02*
X77928647Y-112999828D01*
X78928647Y-113380780D02*
X78357219Y-113380780D01*
X78642933Y-113380780D02*
X78642933Y-112380780D01*
X78547695Y-112523638D01*
X78452457Y-112618876D01*
X78357219Y-112666495D01*
G04 #@! TO.C,IC3-2*
X74788971Y-131770380D02*
X74788971Y-130770380D01*
X75836590Y-131675142D02*
X75788971Y-131722761D01*
X75646114Y-131770380D01*
X75550876Y-131770380D01*
X75408019Y-131722761D01*
X75312780Y-131627523D01*
X75265161Y-131532285D01*
X75217542Y-131341809D01*
X75217542Y-131198952D01*
X75265161Y-131008476D01*
X75312780Y-130913238D01*
X75408019Y-130818000D01*
X75550876Y-130770380D01*
X75646114Y-130770380D01*
X75788971Y-130818000D01*
X75836590Y-130865619D01*
X76169923Y-130770380D02*
X76788971Y-130770380D01*
X76455638Y-131151333D01*
X76598495Y-131151333D01*
X76693733Y-131198952D01*
X76741352Y-131246571D01*
X76788971Y-131341809D01*
X76788971Y-131579904D01*
X76741352Y-131675142D01*
X76693733Y-131722761D01*
X76598495Y-131770380D01*
X76312780Y-131770380D01*
X76217542Y-131722761D01*
X76169923Y-131675142D01*
X77217542Y-131389428D02*
X77979447Y-131389428D01*
X78408019Y-130865619D02*
X78455638Y-130818000D01*
X78550876Y-130770380D01*
X78788971Y-130770380D01*
X78884209Y-130818000D01*
X78931828Y-130865619D01*
X78979447Y-130960857D01*
X78979447Y-131056095D01*
X78931828Y-131198952D01*
X78360400Y-131770380D01*
X78979447Y-131770380D01*
G04 #@! TO.C,J7*
X143063980Y-119306933D02*
X143778266Y-119306933D01*
X143921123Y-119354552D01*
X144016361Y-119449790D01*
X144063980Y-119592647D01*
X144063980Y-119687885D01*
X143063980Y-118925980D02*
X143063980Y-118259314D01*
X144063980Y-118687885D01*
G04 #@! TO.C,JP1*
X62222380Y-106848333D02*
X62936666Y-106848333D01*
X63079523Y-106895952D01*
X63174761Y-106991190D01*
X63222380Y-107134047D01*
X63222380Y-107229285D01*
X63222380Y-106372142D02*
X62222380Y-106372142D01*
X62222380Y-105991190D01*
X62270000Y-105895952D01*
X62317619Y-105848333D01*
X62412857Y-105800714D01*
X62555714Y-105800714D01*
X62650952Y-105848333D01*
X62698571Y-105895952D01*
X62746190Y-105991190D01*
X62746190Y-106372142D01*
X63222380Y-104848333D02*
X63222380Y-105419761D01*
X63222380Y-105134047D02*
X62222380Y-105134047D01*
X62365238Y-105229285D01*
X62460476Y-105324523D01*
X62508095Y-105419761D01*
G04 #@! TO.C,JP2*
X62222380Y-125263333D02*
X62936666Y-125263333D01*
X63079523Y-125310952D01*
X63174761Y-125406190D01*
X63222380Y-125549047D01*
X63222380Y-125644285D01*
X63222380Y-124787142D02*
X62222380Y-124787142D01*
X62222380Y-124406190D01*
X62270000Y-124310952D01*
X62317619Y-124263333D01*
X62412857Y-124215714D01*
X62555714Y-124215714D01*
X62650952Y-124263333D01*
X62698571Y-124310952D01*
X62746190Y-124406190D01*
X62746190Y-124787142D01*
X62317619Y-123834761D02*
X62270000Y-123787142D01*
X62222380Y-123691904D01*
X62222380Y-123453809D01*
X62270000Y-123358571D01*
X62317619Y-123310952D01*
X62412857Y-123263333D01*
X62508095Y-123263333D01*
X62650952Y-123310952D01*
X63222380Y-123882380D01*
X63222380Y-123263333D01*
G04 #@! TO.C,JP3*
X119664266Y-94143580D02*
X119664266Y-94857866D01*
X119616647Y-95000723D01*
X119521409Y-95095961D01*
X119378552Y-95143580D01*
X119283314Y-95143580D01*
X120140457Y-95143580D02*
X120140457Y-94143580D01*
X120521409Y-94143580D01*
X120616647Y-94191200D01*
X120664266Y-94238819D01*
X120711885Y-94334057D01*
X120711885Y-94476914D01*
X120664266Y-94572152D01*
X120616647Y-94619771D01*
X120521409Y-94667390D01*
X120140457Y-94667390D01*
X121045219Y-94143580D02*
X121664266Y-94143580D01*
X121330933Y-94524533D01*
X121473790Y-94524533D01*
X121569028Y-94572152D01*
X121616647Y-94619771D01*
X121664266Y-94715009D01*
X121664266Y-94953104D01*
X121616647Y-95048342D01*
X121569028Y-95095961D01*
X121473790Y-95143580D01*
X121188076Y-95143580D01*
X121092838Y-95095961D01*
X121045219Y-95048342D01*
G04 #@! TO.C,JP4*
X119562380Y-125323333D02*
X120276666Y-125323333D01*
X120419523Y-125370952D01*
X120514761Y-125466190D01*
X120562380Y-125609047D01*
X120562380Y-125704285D01*
X120562380Y-124847142D02*
X119562380Y-124847142D01*
X119562380Y-124466190D01*
X119610000Y-124370952D01*
X119657619Y-124323333D01*
X119752857Y-124275714D01*
X119895714Y-124275714D01*
X119990952Y-124323333D01*
X120038571Y-124370952D01*
X120086190Y-124466190D01*
X120086190Y-124847142D01*
X119895714Y-123418571D02*
X120562380Y-123418571D01*
X119514761Y-123656666D02*
X120229047Y-123894761D01*
X120229047Y-123275714D01*
G04 #@! TO.C,L1*
X145952380Y-123356666D02*
X145952380Y-123832857D01*
X144952380Y-123832857D01*
X145952380Y-122499523D02*
X145952380Y-123070952D01*
X145952380Y-122785238D02*
X144952380Y-122785238D01*
X145095238Y-122880476D01*
X145190476Y-122975714D01*
X145238095Y-123070952D01*
G04 #@! TO.C,L2*
X133437333Y-110840780D02*
X132961142Y-110840780D01*
X132961142Y-109840780D01*
X133723047Y-109936019D02*
X133770666Y-109888400D01*
X133865904Y-109840780D01*
X134104000Y-109840780D01*
X134199238Y-109888400D01*
X134246857Y-109936019D01*
X134294476Y-110031257D01*
X134294476Y-110126495D01*
X134246857Y-110269352D01*
X133675428Y-110840780D01*
X134294476Y-110840780D01*
G04 #@! TO.C,L4*
X139076133Y-100579180D02*
X138599942Y-100579180D01*
X138599942Y-99579180D01*
X139838038Y-99912514D02*
X139838038Y-100579180D01*
X139599942Y-99531561D02*
X139361847Y-100245847D01*
X139980895Y-100245847D01*
G04 #@! TO.C,L-1*
X55094285Y-107132380D02*
X54618095Y-107132380D01*
X54618095Y-106132380D01*
X55427619Y-106751428D02*
X56189523Y-106751428D01*
X57189523Y-107132380D02*
X56618095Y-107132380D01*
X56903809Y-107132380D02*
X56903809Y-106132380D01*
X56808571Y-106275238D01*
X56713333Y-106370476D01*
X56618095Y-106418095D01*
G04 #@! TO.C,L-2*
X55094285Y-126182380D02*
X54618095Y-126182380D01*
X54618095Y-125182380D01*
X55427619Y-125801428D02*
X56189523Y-125801428D01*
X56618095Y-125277619D02*
X56665714Y-125230000D01*
X56760952Y-125182380D01*
X56999047Y-125182380D01*
X57094285Y-125230000D01*
X57141904Y-125277619D01*
X57189523Y-125372857D01*
X57189523Y-125468095D01*
X57141904Y-125610952D01*
X56570476Y-126182380D01*
X57189523Y-126182380D01*
G04 #@! TO.C,LED1*
X101750952Y-110392380D02*
X101274761Y-110392380D01*
X101274761Y-109392380D01*
X102084285Y-109868571D02*
X102417619Y-109868571D01*
X102560476Y-110392380D02*
X102084285Y-110392380D01*
X102084285Y-109392380D01*
X102560476Y-109392380D01*
X102989047Y-110392380D02*
X102989047Y-109392380D01*
X103227142Y-109392380D01*
X103370000Y-109440000D01*
X103465238Y-109535238D01*
X103512857Y-109630476D01*
X103560476Y-109820952D01*
X103560476Y-109963809D01*
X103512857Y-110154285D01*
X103465238Y-110249523D01*
X103370000Y-110344761D01*
X103227142Y-110392380D01*
X102989047Y-110392380D01*
X104512857Y-110392380D02*
X103941428Y-110392380D01*
X104227142Y-110392380D02*
X104227142Y-109392380D01*
X104131904Y-109535238D01*
X104036666Y-109630476D01*
X103941428Y-109678095D01*
G04 #@! TO.C,Q1*
X84164419Y-101390438D02*
X84116800Y-101485676D01*
X84021561Y-101580914D01*
X83878704Y-101723771D01*
X83831085Y-101819009D01*
X83831085Y-101914247D01*
X84069180Y-101866628D02*
X84021561Y-101961866D01*
X83926323Y-102057104D01*
X83735847Y-102104723D01*
X83402514Y-102104723D01*
X83212038Y-102057104D01*
X83116800Y-101961866D01*
X83069180Y-101866628D01*
X83069180Y-101676152D01*
X83116800Y-101580914D01*
X83212038Y-101485676D01*
X83402514Y-101438057D01*
X83735847Y-101438057D01*
X83926323Y-101485676D01*
X84021561Y-101580914D01*
X84069180Y-101676152D01*
X84069180Y-101866628D01*
X84069180Y-100485676D02*
X84069180Y-101057104D01*
X84069180Y-100771390D02*
X83069180Y-100771390D01*
X83212038Y-100866628D01*
X83307276Y-100961866D01*
X83354895Y-101057104D01*
G04 #@! TO.C,Q2*
X91727619Y-135985238D02*
X91680000Y-136080476D01*
X91584761Y-136175714D01*
X91441904Y-136318571D01*
X91394285Y-136413809D01*
X91394285Y-136509047D01*
X91632380Y-136461428D02*
X91584761Y-136556666D01*
X91489523Y-136651904D01*
X91299047Y-136699523D01*
X90965714Y-136699523D01*
X90775238Y-136651904D01*
X90680000Y-136556666D01*
X90632380Y-136461428D01*
X90632380Y-136270952D01*
X90680000Y-136175714D01*
X90775238Y-136080476D01*
X90965714Y-136032857D01*
X91299047Y-136032857D01*
X91489523Y-136080476D01*
X91584761Y-136175714D01*
X91632380Y-136270952D01*
X91632380Y-136461428D01*
X90727619Y-135651904D02*
X90680000Y-135604285D01*
X90632380Y-135509047D01*
X90632380Y-135270952D01*
X90680000Y-135175714D01*
X90727619Y-135128095D01*
X90822857Y-135080476D01*
X90918095Y-135080476D01*
X91060952Y-135128095D01*
X91632380Y-135699523D01*
X91632380Y-135080476D01*
G04 #@! TO.C,Q3*
X134016761Y-134151619D02*
X133921523Y-134104000D01*
X133826285Y-134008761D01*
X133683428Y-133865904D01*
X133588190Y-133818285D01*
X133492952Y-133818285D01*
X133540571Y-134056380D02*
X133445333Y-134008761D01*
X133350095Y-133913523D01*
X133302476Y-133723047D01*
X133302476Y-133389714D01*
X133350095Y-133199238D01*
X133445333Y-133104000D01*
X133540571Y-133056380D01*
X133731047Y-133056380D01*
X133826285Y-133104000D01*
X133921523Y-133199238D01*
X133969142Y-133389714D01*
X133969142Y-133723047D01*
X133921523Y-133913523D01*
X133826285Y-134008761D01*
X133731047Y-134056380D01*
X133540571Y-134056380D01*
X134302476Y-133056380D02*
X134921523Y-133056380D01*
X134588190Y-133437333D01*
X134731047Y-133437333D01*
X134826285Y-133484952D01*
X134873904Y-133532571D01*
X134921523Y-133627809D01*
X134921523Y-133865904D01*
X134873904Y-133961142D01*
X134826285Y-134008761D01*
X134731047Y-134056380D01*
X134445333Y-134056380D01*
X134350095Y-134008761D01*
X134302476Y-133961142D01*
G04 #@! TO.C,R1*
X140262780Y-107340366D02*
X139786590Y-107673700D01*
X140262780Y-107911795D02*
X139262780Y-107911795D01*
X139262780Y-107530842D01*
X139310400Y-107435604D01*
X139358019Y-107387985D01*
X139453257Y-107340366D01*
X139596114Y-107340366D01*
X139691352Y-107387985D01*
X139738971Y-107435604D01*
X139786590Y-107530842D01*
X139786590Y-107911795D01*
X140262780Y-106387985D02*
X140262780Y-106959414D01*
X140262780Y-106673700D02*
X139262780Y-106673700D01*
X139405638Y-106768938D01*
X139500876Y-106864176D01*
X139548495Y-106959414D01*
G04 #@! TO.C,R3*
X114692133Y-91282780D02*
X114358800Y-90806590D01*
X114120704Y-91282780D02*
X114120704Y-90282780D01*
X114501657Y-90282780D01*
X114596895Y-90330400D01*
X114644514Y-90378019D01*
X114692133Y-90473257D01*
X114692133Y-90616114D01*
X114644514Y-90711352D01*
X114596895Y-90758971D01*
X114501657Y-90806590D01*
X114120704Y-90806590D01*
X115025466Y-90282780D02*
X115644514Y-90282780D01*
X115311180Y-90663733D01*
X115454038Y-90663733D01*
X115549276Y-90711352D01*
X115596895Y-90758971D01*
X115644514Y-90854209D01*
X115644514Y-91092304D01*
X115596895Y-91187542D01*
X115549276Y-91235161D01*
X115454038Y-91282780D01*
X115168323Y-91282780D01*
X115073085Y-91235161D01*
X115025466Y-91187542D01*
G04 #@! TO.C,R4*
X63485733Y-114752380D02*
X63152400Y-114276190D01*
X62914304Y-114752380D02*
X62914304Y-113752380D01*
X63295257Y-113752380D01*
X63390495Y-113800000D01*
X63438114Y-113847619D01*
X63485733Y-113942857D01*
X63485733Y-114085714D01*
X63438114Y-114180952D01*
X63390495Y-114228571D01*
X63295257Y-114276190D01*
X62914304Y-114276190D01*
X64342876Y-114085714D02*
X64342876Y-114752380D01*
X64104780Y-113704761D02*
X63866685Y-114419047D01*
X64485733Y-114419047D01*
G04 #@! TO.C,R5*
X69683333Y-114667380D02*
X69350000Y-114191190D01*
X69111904Y-114667380D02*
X69111904Y-113667380D01*
X69492857Y-113667380D01*
X69588095Y-113715000D01*
X69635714Y-113762619D01*
X69683333Y-113857857D01*
X69683333Y-114000714D01*
X69635714Y-114095952D01*
X69588095Y-114143571D01*
X69492857Y-114191190D01*
X69111904Y-114191190D01*
X70588095Y-113667380D02*
X70111904Y-113667380D01*
X70064285Y-114143571D01*
X70111904Y-114095952D01*
X70207142Y-114048333D01*
X70445238Y-114048333D01*
X70540476Y-114095952D01*
X70588095Y-114143571D01*
X70635714Y-114238809D01*
X70635714Y-114476904D01*
X70588095Y-114572142D01*
X70540476Y-114619761D01*
X70445238Y-114667380D01*
X70207142Y-114667380D01*
X70111904Y-114619761D01*
X70064285Y-114572142D01*
G04 #@! TO.C,R6*
X120552380Y-129924166D02*
X120076190Y-130257500D01*
X120552380Y-130495595D02*
X119552380Y-130495595D01*
X119552380Y-130114642D01*
X119600000Y-130019404D01*
X119647619Y-129971785D01*
X119742857Y-129924166D01*
X119885714Y-129924166D01*
X119980952Y-129971785D01*
X120028571Y-130019404D01*
X120076190Y-130114642D01*
X120076190Y-130495595D01*
X119552380Y-129067023D02*
X119552380Y-129257500D01*
X119600000Y-129352738D01*
X119647619Y-129400357D01*
X119790476Y-129495595D01*
X119980952Y-129543214D01*
X120361904Y-129543214D01*
X120457142Y-129495595D01*
X120504761Y-129447976D01*
X120552380Y-129352738D01*
X120552380Y-129162261D01*
X120504761Y-129067023D01*
X120457142Y-129019404D01*
X120361904Y-128971785D01*
X120123809Y-128971785D01*
X120028571Y-129019404D01*
X119980952Y-129067023D01*
X119933333Y-129162261D01*
X119933333Y-129352738D01*
X119980952Y-129447976D01*
X120028571Y-129495595D01*
X120123809Y-129543214D01*
G04 #@! TO.C,R7*
X135178833Y-114540380D02*
X134845500Y-114064190D01*
X134607404Y-114540380D02*
X134607404Y-113540380D01*
X134988357Y-113540380D01*
X135083595Y-113588000D01*
X135131214Y-113635619D01*
X135178833Y-113730857D01*
X135178833Y-113873714D01*
X135131214Y-113968952D01*
X135083595Y-114016571D01*
X134988357Y-114064190D01*
X134607404Y-114064190D01*
X135512166Y-113540380D02*
X136178833Y-113540380D01*
X135750261Y-114540380D01*
G04 #@! TO.C,R8*
X130592533Y-106065580D02*
X130259200Y-105589390D01*
X130021104Y-106065580D02*
X130021104Y-105065580D01*
X130402057Y-105065580D01*
X130497295Y-105113200D01*
X130544914Y-105160819D01*
X130592533Y-105256057D01*
X130592533Y-105398914D01*
X130544914Y-105494152D01*
X130497295Y-105541771D01*
X130402057Y-105589390D01*
X130021104Y-105589390D01*
X131163961Y-105494152D02*
X131068723Y-105446533D01*
X131021104Y-105398914D01*
X130973485Y-105303676D01*
X130973485Y-105256057D01*
X131021104Y-105160819D01*
X131068723Y-105113200D01*
X131163961Y-105065580D01*
X131354438Y-105065580D01*
X131449676Y-105113200D01*
X131497295Y-105160819D01*
X131544914Y-105256057D01*
X131544914Y-105303676D01*
X131497295Y-105398914D01*
X131449676Y-105446533D01*
X131354438Y-105494152D01*
X131163961Y-105494152D01*
X131068723Y-105541771D01*
X131021104Y-105589390D01*
X130973485Y-105684628D01*
X130973485Y-105875104D01*
X131021104Y-105970342D01*
X131068723Y-106017961D01*
X131163961Y-106065580D01*
X131354438Y-106065580D01*
X131449676Y-106017961D01*
X131497295Y-105970342D01*
X131544914Y-105875104D01*
X131544914Y-105684628D01*
X131497295Y-105589390D01*
X131449676Y-105541771D01*
X131354438Y-105494152D01*
G04 #@! TO.C,R9*
X123388380Y-105881466D02*
X122912190Y-106214800D01*
X123388380Y-106452895D02*
X122388380Y-106452895D01*
X122388380Y-106071942D01*
X122436000Y-105976704D01*
X122483619Y-105929085D01*
X122578857Y-105881466D01*
X122721714Y-105881466D01*
X122816952Y-105929085D01*
X122864571Y-105976704D01*
X122912190Y-106071942D01*
X122912190Y-106452895D01*
X123388380Y-105405276D02*
X123388380Y-105214800D01*
X123340761Y-105119561D01*
X123293142Y-105071942D01*
X123150285Y-104976704D01*
X122959809Y-104929085D01*
X122578857Y-104929085D01*
X122483619Y-104976704D01*
X122436000Y-105024323D01*
X122388380Y-105119561D01*
X122388380Y-105310038D01*
X122436000Y-105405276D01*
X122483619Y-105452895D01*
X122578857Y-105500514D01*
X122816952Y-105500514D01*
X122912190Y-105452895D01*
X122959809Y-105405276D01*
X123007428Y-105310038D01*
X123007428Y-105119561D01*
X122959809Y-105024323D01*
X122912190Y-104976704D01*
X122816952Y-104929085D01*
G04 #@! TO.C,R10*
X127322342Y-103119180D02*
X126989009Y-102642990D01*
X126750914Y-103119180D02*
X126750914Y-102119180D01*
X127131866Y-102119180D01*
X127227104Y-102166800D01*
X127274723Y-102214419D01*
X127322342Y-102309657D01*
X127322342Y-102452514D01*
X127274723Y-102547752D01*
X127227104Y-102595371D01*
X127131866Y-102642990D01*
X126750914Y-102642990D01*
X128274723Y-103119180D02*
X127703295Y-103119180D01*
X127989009Y-103119180D02*
X127989009Y-102119180D01*
X127893771Y-102262038D01*
X127798533Y-102357276D01*
X127703295Y-102404895D01*
X128893771Y-102119180D02*
X128989009Y-102119180D01*
X129084247Y-102166800D01*
X129131866Y-102214419D01*
X129179485Y-102309657D01*
X129227104Y-102500133D01*
X129227104Y-102738228D01*
X129179485Y-102928704D01*
X129131866Y-103023942D01*
X129084247Y-103071561D01*
X128989009Y-103119180D01*
X128893771Y-103119180D01*
X128798533Y-103071561D01*
X128750914Y-103023942D01*
X128703295Y-102928704D01*
X128655676Y-102738228D01*
X128655676Y-102500133D01*
X128703295Y-102309657D01*
X128750914Y-102214419D01*
X128798533Y-102166800D01*
X128893771Y-102119180D01*
G04 #@! TO.C,R11*
X132744380Y-125102857D02*
X132268190Y-125436190D01*
X132744380Y-125674285D02*
X131744380Y-125674285D01*
X131744380Y-125293333D01*
X131792000Y-125198095D01*
X131839619Y-125150476D01*
X131934857Y-125102857D01*
X132077714Y-125102857D01*
X132172952Y-125150476D01*
X132220571Y-125198095D01*
X132268190Y-125293333D01*
X132268190Y-125674285D01*
X132744380Y-124150476D02*
X132744380Y-124721904D01*
X132744380Y-124436190D02*
X131744380Y-124436190D01*
X131887238Y-124531428D01*
X131982476Y-124626666D01*
X132030095Y-124721904D01*
X132744380Y-123198095D02*
X132744380Y-123769523D01*
X132744380Y-123483809D02*
X131744380Y-123483809D01*
X131887238Y-123579047D01*
X131982476Y-123674285D01*
X132030095Y-123769523D01*
G04 #@! TO.C,R13*
X104868742Y-124353580D02*
X104535409Y-123877390D01*
X104297314Y-124353580D02*
X104297314Y-123353580D01*
X104678266Y-123353580D01*
X104773504Y-123401200D01*
X104821123Y-123448819D01*
X104868742Y-123544057D01*
X104868742Y-123686914D01*
X104821123Y-123782152D01*
X104773504Y-123829771D01*
X104678266Y-123877390D01*
X104297314Y-123877390D01*
X105821123Y-124353580D02*
X105249695Y-124353580D01*
X105535409Y-124353580D02*
X105535409Y-123353580D01*
X105440171Y-123496438D01*
X105344933Y-123591676D01*
X105249695Y-123639295D01*
X106154457Y-123353580D02*
X106773504Y-123353580D01*
X106440171Y-123734533D01*
X106583028Y-123734533D01*
X106678266Y-123782152D01*
X106725885Y-123829771D01*
X106773504Y-123925009D01*
X106773504Y-124163104D01*
X106725885Y-124258342D01*
X106678266Y-124305961D01*
X106583028Y-124353580D01*
X106297314Y-124353580D01*
X106202076Y-124305961D01*
X106154457Y-124258342D01*
G04 #@! TO.C,R14*
X112804642Y-124362380D02*
X112471309Y-123886190D01*
X112233214Y-124362380D02*
X112233214Y-123362380D01*
X112614166Y-123362380D01*
X112709404Y-123410000D01*
X112757023Y-123457619D01*
X112804642Y-123552857D01*
X112804642Y-123695714D01*
X112757023Y-123790952D01*
X112709404Y-123838571D01*
X112614166Y-123886190D01*
X112233214Y-123886190D01*
X113757023Y-124362380D02*
X113185595Y-124362380D01*
X113471309Y-124362380D02*
X113471309Y-123362380D01*
X113376071Y-123505238D01*
X113280833Y-123600476D01*
X113185595Y-123648095D01*
X114614166Y-123695714D02*
X114614166Y-124362380D01*
X114376071Y-123314761D02*
X114137976Y-124029047D01*
X114757023Y-124029047D01*
G04 #@! TO.C,R15*
X63009542Y-133141980D02*
X62676209Y-132665790D01*
X62438114Y-133141980D02*
X62438114Y-132141980D01*
X62819066Y-132141980D01*
X62914304Y-132189600D01*
X62961923Y-132237219D01*
X63009542Y-132332457D01*
X63009542Y-132475314D01*
X62961923Y-132570552D01*
X62914304Y-132618171D01*
X62819066Y-132665790D01*
X62438114Y-132665790D01*
X63961923Y-133141980D02*
X63390495Y-133141980D01*
X63676209Y-133141980D02*
X63676209Y-132141980D01*
X63580971Y-132284838D01*
X63485733Y-132380076D01*
X63390495Y-132427695D01*
X64866685Y-132141980D02*
X64390495Y-132141980D01*
X64342876Y-132618171D01*
X64390495Y-132570552D01*
X64485733Y-132522933D01*
X64723828Y-132522933D01*
X64819066Y-132570552D01*
X64866685Y-132618171D01*
X64914304Y-132713409D01*
X64914304Y-132951504D01*
X64866685Y-133046742D01*
X64819066Y-133094361D01*
X64723828Y-133141980D01*
X64485733Y-133141980D01*
X64390495Y-133094361D01*
X64342876Y-133046742D01*
G04 #@! TO.C,R16*
X69207142Y-133082380D02*
X68873809Y-132606190D01*
X68635714Y-133082380D02*
X68635714Y-132082380D01*
X69016666Y-132082380D01*
X69111904Y-132130000D01*
X69159523Y-132177619D01*
X69207142Y-132272857D01*
X69207142Y-132415714D01*
X69159523Y-132510952D01*
X69111904Y-132558571D01*
X69016666Y-132606190D01*
X68635714Y-132606190D01*
X70159523Y-133082380D02*
X69588095Y-133082380D01*
X69873809Y-133082380D02*
X69873809Y-132082380D01*
X69778571Y-132225238D01*
X69683333Y-132320476D01*
X69588095Y-132368095D01*
X71016666Y-132082380D02*
X70826190Y-132082380D01*
X70730952Y-132130000D01*
X70683333Y-132177619D01*
X70588095Y-132320476D01*
X70540476Y-132510952D01*
X70540476Y-132891904D01*
X70588095Y-132987142D01*
X70635714Y-133034761D01*
X70730952Y-133082380D01*
X70921428Y-133082380D01*
X71016666Y-133034761D01*
X71064285Y-132987142D01*
X71111904Y-132891904D01*
X71111904Y-132653809D01*
X71064285Y-132558571D01*
X71016666Y-132510952D01*
X70921428Y-132463333D01*
X70730952Y-132463333D01*
X70635714Y-132510952D01*
X70588095Y-132558571D01*
X70540476Y-132653809D01*
G04 #@! TO.C,R17*
X109948742Y-110434380D02*
X109615409Y-109958190D01*
X109377314Y-110434380D02*
X109377314Y-109434380D01*
X109758266Y-109434380D01*
X109853504Y-109482000D01*
X109901123Y-109529619D01*
X109948742Y-109624857D01*
X109948742Y-109767714D01*
X109901123Y-109862952D01*
X109853504Y-109910571D01*
X109758266Y-109958190D01*
X109377314Y-109958190D01*
X110901123Y-110434380D02*
X110329695Y-110434380D01*
X110615409Y-110434380D02*
X110615409Y-109434380D01*
X110520171Y-109577238D01*
X110424933Y-109672476D01*
X110329695Y-109720095D01*
X111234457Y-109434380D02*
X111901123Y-109434380D01*
X111472552Y-110434380D01*
G04 #@! TO.C,R18*
X109643942Y-143403580D02*
X109310609Y-142927390D01*
X109072514Y-143403580D02*
X109072514Y-142403580D01*
X109453466Y-142403580D01*
X109548704Y-142451200D01*
X109596323Y-142498819D01*
X109643942Y-142594057D01*
X109643942Y-142736914D01*
X109596323Y-142832152D01*
X109548704Y-142879771D01*
X109453466Y-142927390D01*
X109072514Y-142927390D01*
X110596323Y-143403580D02*
X110024895Y-143403580D01*
X110310609Y-143403580D02*
X110310609Y-142403580D01*
X110215371Y-142546438D01*
X110120133Y-142641676D01*
X110024895Y-142689295D01*
X111167752Y-142832152D02*
X111072514Y-142784533D01*
X111024895Y-142736914D01*
X110977276Y-142641676D01*
X110977276Y-142594057D01*
X111024895Y-142498819D01*
X111072514Y-142451200D01*
X111167752Y-142403580D01*
X111358228Y-142403580D01*
X111453466Y-142451200D01*
X111501085Y-142498819D01*
X111548704Y-142594057D01*
X111548704Y-142641676D01*
X111501085Y-142736914D01*
X111453466Y-142784533D01*
X111358228Y-142832152D01*
X111167752Y-142832152D01*
X111072514Y-142879771D01*
X111024895Y-142927390D01*
X110977276Y-143022628D01*
X110977276Y-143213104D01*
X111024895Y-143308342D01*
X111072514Y-143355961D01*
X111167752Y-143403580D01*
X111358228Y-143403580D01*
X111453466Y-143355961D01*
X111501085Y-143308342D01*
X111548704Y-143213104D01*
X111548704Y-143022628D01*
X111501085Y-142927390D01*
X111453466Y-142879771D01*
X111358228Y-142832152D01*
G04 #@! TO.C,U1*
X145897695Y-99625580D02*
X145897695Y-100435104D01*
X145945314Y-100530342D01*
X145992933Y-100577961D01*
X146088171Y-100625580D01*
X146278647Y-100625580D01*
X146373885Y-100577961D01*
X146421504Y-100530342D01*
X146469123Y-100435104D01*
X146469123Y-99625580D01*
X147469123Y-100625580D02*
X146897695Y-100625580D01*
X147183409Y-100625580D02*
X147183409Y-99625580D01*
X147088171Y-99768438D01*
X146992933Y-99863676D01*
X146897695Y-99911295D01*
G04 #@! TO.C,U2*
X119567380Y-116966904D02*
X120376904Y-116966904D01*
X120472142Y-116919285D01*
X120519761Y-116871666D01*
X120567380Y-116776428D01*
X120567380Y-116585952D01*
X120519761Y-116490714D01*
X120472142Y-116443095D01*
X120376904Y-116395476D01*
X119567380Y-116395476D01*
X119662619Y-115966904D02*
X119615000Y-115919285D01*
X119567380Y-115824047D01*
X119567380Y-115585952D01*
X119615000Y-115490714D01*
X119662619Y-115443095D01*
X119757857Y-115395476D01*
X119853095Y-115395476D01*
X119995952Y-115443095D01*
X120567380Y-116014523D01*
X120567380Y-115395476D01*
G04 #@! TO.C,R2*
X105243333Y-95143580D02*
X104910000Y-94667390D01*
X104671904Y-95143580D02*
X104671904Y-94143580D01*
X105052857Y-94143580D01*
X105148095Y-94191200D01*
X105195714Y-94238819D01*
X105243333Y-94334057D01*
X105243333Y-94476914D01*
X105195714Y-94572152D01*
X105148095Y-94619771D01*
X105052857Y-94667390D01*
X104671904Y-94667390D01*
X105624285Y-94238819D02*
X105671904Y-94191200D01*
X105767142Y-94143580D01*
X106005238Y-94143580D01*
X106100476Y-94191200D01*
X106148095Y-94238819D01*
X106195714Y-94334057D01*
X106195714Y-94429295D01*
X106148095Y-94572152D01*
X105576666Y-95143580D01*
X106195714Y-95143580D01*
G04 #@! TO.C,C9*
X142190742Y-123153466D02*
X142238361Y-123201085D01*
X142285980Y-123343942D01*
X142285980Y-123439180D01*
X142238361Y-123582038D01*
X142143123Y-123677276D01*
X142047885Y-123724895D01*
X141857409Y-123772514D01*
X141714552Y-123772514D01*
X141524076Y-123724895D01*
X141428838Y-123677276D01*
X141333600Y-123582038D01*
X141285980Y-123439180D01*
X141285980Y-123343942D01*
X141333600Y-123201085D01*
X141381219Y-123153466D01*
X142285980Y-122677276D02*
X142285980Y-122486800D01*
X142238361Y-122391561D01*
X142190742Y-122343942D01*
X142047885Y-122248704D01*
X141857409Y-122201085D01*
X141476457Y-122201085D01*
X141381219Y-122248704D01*
X141333600Y-122296323D01*
X141285980Y-122391561D01*
X141285980Y-122582038D01*
X141333600Y-122677276D01*
X141381219Y-122724895D01*
X141476457Y-122772514D01*
X141714552Y-122772514D01*
X141809790Y-122724895D01*
X141857409Y-122677276D01*
X141905028Y-122582038D01*
X141905028Y-122391561D01*
X141857409Y-122296323D01*
X141809790Y-122248704D01*
X141714552Y-122201085D01*
G04 #@! TO.C,CP4*
X136493333Y-126544342D02*
X136445714Y-126591961D01*
X136302857Y-126639580D01*
X136207619Y-126639580D01*
X136064761Y-126591961D01*
X135969523Y-126496723D01*
X135921904Y-126401485D01*
X135874285Y-126211009D01*
X135874285Y-126068152D01*
X135921904Y-125877676D01*
X135969523Y-125782438D01*
X136064761Y-125687200D01*
X136207619Y-125639580D01*
X136302857Y-125639580D01*
X136445714Y-125687200D01*
X136493333Y-125734819D01*
X136921904Y-126639580D02*
X136921904Y-125639580D01*
X137302857Y-125639580D01*
X137398095Y-125687200D01*
X137445714Y-125734819D01*
X137493333Y-125830057D01*
X137493333Y-125972914D01*
X137445714Y-126068152D01*
X137398095Y-126115771D01*
X137302857Y-126163390D01*
X136921904Y-126163390D01*
X138350476Y-125972914D02*
X138350476Y-126639580D01*
X138112380Y-125591961D02*
X137874285Y-126306247D01*
X138493333Y-126306247D01*
G04 #@! TO.C,L3*
X138417423Y-117080063D02*
X137941232Y-117080063D01*
X137941232Y-116080063D01*
X138655518Y-116080063D02*
X139274566Y-116080063D01*
X138941232Y-116461016D01*
X139084090Y-116461016D01*
X139179328Y-116508635D01*
X139226947Y-116556254D01*
X139274566Y-116651492D01*
X139274566Y-116889587D01*
X139226947Y-116984825D01*
X139179328Y-117032444D01*
X139084090Y-117080063D01*
X138798375Y-117080063D01*
X138703137Y-117032444D01*
X138655518Y-116984825D01*
G04 #@! TO.C,LED2*
X101750952Y-143412380D02*
X101274761Y-143412380D01*
X101274761Y-142412380D01*
X102084285Y-142888571D02*
X102417619Y-142888571D01*
X102560476Y-143412380D02*
X102084285Y-143412380D01*
X102084285Y-142412380D01*
X102560476Y-142412380D01*
X102989047Y-143412380D02*
X102989047Y-142412380D01*
X103227142Y-142412380D01*
X103370000Y-142460000D01*
X103465238Y-142555238D01*
X103512857Y-142650476D01*
X103560476Y-142840952D01*
X103560476Y-142983809D01*
X103512857Y-143174285D01*
X103465238Y-143269523D01*
X103370000Y-143364761D01*
X103227142Y-143412380D01*
X102989047Y-143412380D01*
X103941428Y-142507619D02*
X103989047Y-142460000D01*
X104084285Y-142412380D01*
X104322380Y-142412380D01*
X104417619Y-142460000D01*
X104465238Y-142507619D01*
X104512857Y-142602857D01*
X104512857Y-142698095D01*
X104465238Y-142840952D01*
X103893809Y-143412380D01*
X104512857Y-143412380D01*
G04 #@! TO.C,R12*
X129188380Y-125102857D02*
X128712190Y-125436190D01*
X129188380Y-125674285D02*
X128188380Y-125674285D01*
X128188380Y-125293333D01*
X128236000Y-125198095D01*
X128283619Y-125150476D01*
X128378857Y-125102857D01*
X128521714Y-125102857D01*
X128616952Y-125150476D01*
X128664571Y-125198095D01*
X128712190Y-125293333D01*
X128712190Y-125674285D01*
X129188380Y-124150476D02*
X129188380Y-124721904D01*
X129188380Y-124436190D02*
X128188380Y-124436190D01*
X128331238Y-124531428D01*
X128426476Y-124626666D01*
X128474095Y-124721904D01*
X128283619Y-123769523D02*
X128236000Y-123721904D01*
X128188380Y-123626666D01*
X128188380Y-123388571D01*
X128236000Y-123293333D01*
X128283619Y-123245714D01*
X128378857Y-123198095D01*
X128474095Y-123198095D01*
X128616952Y-123245714D01*
X129188380Y-123817142D01*
X129188380Y-123198095D01*
G04 #@! TO.C,Support1*
X137185733Y-147516361D02*
X137328590Y-147563980D01*
X137566685Y-147563980D01*
X137661923Y-147516361D01*
X137709542Y-147468742D01*
X137757161Y-147373504D01*
X137757161Y-147278266D01*
X137709542Y-147183028D01*
X137661923Y-147135409D01*
X137566685Y-147087790D01*
X137376209Y-147040171D01*
X137280971Y-146992552D01*
X137233352Y-146944933D01*
X137185733Y-146849695D01*
X137185733Y-146754457D01*
X137233352Y-146659219D01*
X137280971Y-146611600D01*
X137376209Y-146563980D01*
X137614304Y-146563980D01*
X137757161Y-146611600D01*
X138614304Y-146897314D02*
X138614304Y-147563980D01*
X138185733Y-146897314D02*
X138185733Y-147421123D01*
X138233352Y-147516361D01*
X138328590Y-147563980D01*
X138471447Y-147563980D01*
X138566685Y-147516361D01*
X138614304Y-147468742D01*
X139090495Y-146897314D02*
X139090495Y-147897314D01*
X139090495Y-146944933D02*
X139185733Y-146897314D01*
X139376209Y-146897314D01*
X139471447Y-146944933D01*
X139519066Y-146992552D01*
X139566685Y-147087790D01*
X139566685Y-147373504D01*
X139519066Y-147468742D01*
X139471447Y-147516361D01*
X139376209Y-147563980D01*
X139185733Y-147563980D01*
X139090495Y-147516361D01*
X139995257Y-146897314D02*
X139995257Y-147897314D01*
X139995257Y-146944933D02*
X140090495Y-146897314D01*
X140280971Y-146897314D01*
X140376209Y-146944933D01*
X140423828Y-146992552D01*
X140471447Y-147087790D01*
X140471447Y-147373504D01*
X140423828Y-147468742D01*
X140376209Y-147516361D01*
X140280971Y-147563980D01*
X140090495Y-147563980D01*
X139995257Y-147516361D01*
X141042876Y-147563980D02*
X140947638Y-147516361D01*
X140900019Y-147468742D01*
X140852400Y-147373504D01*
X140852400Y-147087790D01*
X140900019Y-146992552D01*
X140947638Y-146944933D01*
X141042876Y-146897314D01*
X141185733Y-146897314D01*
X141280971Y-146944933D01*
X141328590Y-146992552D01*
X141376209Y-147087790D01*
X141376209Y-147373504D01*
X141328590Y-147468742D01*
X141280971Y-147516361D01*
X141185733Y-147563980D01*
X141042876Y-147563980D01*
X141804780Y-147563980D02*
X141804780Y-146897314D01*
X141804780Y-147087790D02*
X141852400Y-146992552D01*
X141900019Y-146944933D01*
X141995257Y-146897314D01*
X142090495Y-146897314D01*
X142280971Y-146897314D02*
X142661923Y-146897314D01*
X142423828Y-146563980D02*
X142423828Y-147421123D01*
X142471447Y-147516361D01*
X142566685Y-147563980D01*
X142661923Y-147563980D01*
X143519066Y-147563980D02*
X142947638Y-147563980D01*
X143233352Y-147563980D02*
X143233352Y-146563980D01*
X143138114Y-146706838D01*
X143042876Y-146802076D01*
X142947638Y-146849695D01*
G04 #@! TO.C,Support2*
X72568133Y-120795561D02*
X72710990Y-120843180D01*
X72949085Y-120843180D01*
X73044323Y-120795561D01*
X73091942Y-120747942D01*
X73139561Y-120652704D01*
X73139561Y-120557466D01*
X73091942Y-120462228D01*
X73044323Y-120414609D01*
X72949085Y-120366990D01*
X72758609Y-120319371D01*
X72663371Y-120271752D01*
X72615752Y-120224133D01*
X72568133Y-120128895D01*
X72568133Y-120033657D01*
X72615752Y-119938419D01*
X72663371Y-119890800D01*
X72758609Y-119843180D01*
X72996704Y-119843180D01*
X73139561Y-119890800D01*
X73996704Y-120176514D02*
X73996704Y-120843180D01*
X73568133Y-120176514D02*
X73568133Y-120700323D01*
X73615752Y-120795561D01*
X73710990Y-120843180D01*
X73853847Y-120843180D01*
X73949085Y-120795561D01*
X73996704Y-120747942D01*
X74472895Y-120176514D02*
X74472895Y-121176514D01*
X74472895Y-120224133D02*
X74568133Y-120176514D01*
X74758609Y-120176514D01*
X74853847Y-120224133D01*
X74901466Y-120271752D01*
X74949085Y-120366990D01*
X74949085Y-120652704D01*
X74901466Y-120747942D01*
X74853847Y-120795561D01*
X74758609Y-120843180D01*
X74568133Y-120843180D01*
X74472895Y-120795561D01*
X75377657Y-120176514D02*
X75377657Y-121176514D01*
X75377657Y-120224133D02*
X75472895Y-120176514D01*
X75663371Y-120176514D01*
X75758609Y-120224133D01*
X75806228Y-120271752D01*
X75853847Y-120366990D01*
X75853847Y-120652704D01*
X75806228Y-120747942D01*
X75758609Y-120795561D01*
X75663371Y-120843180D01*
X75472895Y-120843180D01*
X75377657Y-120795561D01*
X76425276Y-120843180D02*
X76330038Y-120795561D01*
X76282419Y-120747942D01*
X76234800Y-120652704D01*
X76234800Y-120366990D01*
X76282419Y-120271752D01*
X76330038Y-120224133D01*
X76425276Y-120176514D01*
X76568133Y-120176514D01*
X76663371Y-120224133D01*
X76710990Y-120271752D01*
X76758609Y-120366990D01*
X76758609Y-120652704D01*
X76710990Y-120747942D01*
X76663371Y-120795561D01*
X76568133Y-120843180D01*
X76425276Y-120843180D01*
X77187180Y-120843180D02*
X77187180Y-120176514D01*
X77187180Y-120366990D02*
X77234800Y-120271752D01*
X77282419Y-120224133D01*
X77377657Y-120176514D01*
X77472895Y-120176514D01*
X77663371Y-120176514D02*
X78044323Y-120176514D01*
X77806228Y-119843180D02*
X77806228Y-120700323D01*
X77853847Y-120795561D01*
X77949085Y-120843180D01*
X78044323Y-120843180D01*
X78330038Y-119938419D02*
X78377657Y-119890800D01*
X78472895Y-119843180D01*
X78710990Y-119843180D01*
X78806228Y-119890800D01*
X78853847Y-119938419D01*
X78901466Y-120033657D01*
X78901466Y-120128895D01*
X78853847Y-120271752D01*
X78282419Y-120843180D01*
X78901466Y-120843180D01*
G04 #@! TO.C,Support3*
X95834533Y-120592361D02*
X95977390Y-120639980D01*
X96215485Y-120639980D01*
X96310723Y-120592361D01*
X96358342Y-120544742D01*
X96405961Y-120449504D01*
X96405961Y-120354266D01*
X96358342Y-120259028D01*
X96310723Y-120211409D01*
X96215485Y-120163790D01*
X96025009Y-120116171D01*
X95929771Y-120068552D01*
X95882152Y-120020933D01*
X95834533Y-119925695D01*
X95834533Y-119830457D01*
X95882152Y-119735219D01*
X95929771Y-119687600D01*
X96025009Y-119639980D01*
X96263104Y-119639980D01*
X96405961Y-119687600D01*
X97263104Y-119973314D02*
X97263104Y-120639980D01*
X96834533Y-119973314D02*
X96834533Y-120497123D01*
X96882152Y-120592361D01*
X96977390Y-120639980D01*
X97120247Y-120639980D01*
X97215485Y-120592361D01*
X97263104Y-120544742D01*
X97739295Y-119973314D02*
X97739295Y-120973314D01*
X97739295Y-120020933D02*
X97834533Y-119973314D01*
X98025009Y-119973314D01*
X98120247Y-120020933D01*
X98167866Y-120068552D01*
X98215485Y-120163790D01*
X98215485Y-120449504D01*
X98167866Y-120544742D01*
X98120247Y-120592361D01*
X98025009Y-120639980D01*
X97834533Y-120639980D01*
X97739295Y-120592361D01*
X98644057Y-119973314D02*
X98644057Y-120973314D01*
X98644057Y-120020933D02*
X98739295Y-119973314D01*
X98929771Y-119973314D01*
X99025009Y-120020933D01*
X99072628Y-120068552D01*
X99120247Y-120163790D01*
X99120247Y-120449504D01*
X99072628Y-120544742D01*
X99025009Y-120592361D01*
X98929771Y-120639980D01*
X98739295Y-120639980D01*
X98644057Y-120592361D01*
X99691676Y-120639980D02*
X99596438Y-120592361D01*
X99548819Y-120544742D01*
X99501200Y-120449504D01*
X99501200Y-120163790D01*
X99548819Y-120068552D01*
X99596438Y-120020933D01*
X99691676Y-119973314D01*
X99834533Y-119973314D01*
X99929771Y-120020933D01*
X99977390Y-120068552D01*
X100025009Y-120163790D01*
X100025009Y-120449504D01*
X99977390Y-120544742D01*
X99929771Y-120592361D01*
X99834533Y-120639980D01*
X99691676Y-120639980D01*
X100453580Y-120639980D02*
X100453580Y-119973314D01*
X100453580Y-120163790D02*
X100501200Y-120068552D01*
X100548819Y-120020933D01*
X100644057Y-119973314D01*
X100739295Y-119973314D01*
X100929771Y-119973314D02*
X101310723Y-119973314D01*
X101072628Y-119639980D02*
X101072628Y-120497123D01*
X101120247Y-120592361D01*
X101215485Y-120639980D01*
X101310723Y-120639980D01*
X101548819Y-119639980D02*
X102167866Y-119639980D01*
X101834533Y-120020933D01*
X101977390Y-120020933D01*
X102072628Y-120068552D01*
X102120247Y-120116171D01*
X102167866Y-120211409D01*
X102167866Y-120449504D01*
X102120247Y-120544742D01*
X102072628Y-120592361D01*
X101977390Y-120639980D01*
X101691676Y-120639980D01*
X101596438Y-120592361D01*
X101548819Y-120544742D01*
G04 #@! TD*
M02*
